<?xml version="1.0" encoding="utf-8"?>
<!-- Generator: Adobe Illustrator 22.1.0, SVG Export Plug-In . SVG Version: 6.00 Build 0)  -->
<svg version="1.1" id="Layer_1" xmlns="http://www.w3.org/2000/svg" xmlns:xlink="http://www.w3.org/1999/xlink" x="0px" y="0px"
	 viewBox="0 0 98.2 97.2" style="enable-background:new 0 0 98.2 97.2;" xml:space="preserve">
<style type="text/css">
	.st0{fill:none;stroke:#757035;stroke-width:2.5;stroke-miterlimit:10;}
	.st1{fill:#757035;}
</style>
<g>
	<g>
		<path class="st0" d="M82.4,48.9c0,18-15,32.6-33.5,32.6c-18.5,0-33.5-14.6-33.5-32.6c0-18,15-32.6,33.5-32.6
			C67.4,16.3,82.4,30.9,82.4,48.9z"/>
		<path class="st0" d="M97,48.6c0,26.1-21.4,47.3-47.9,47.3c-26.4,0-47.9-21.2-47.9-47.3c0-26.1,21.4-47.3,47.9-47.3
			C75.6,1.3,97,22.4,97,48.6z"/>
	</g>
	<path class="st1" d="M32.8,55.5c-0.1,1.2-0.7,2.3-1.3,3.4c-0.5,1-1.3,1.8-2.4,2.9c-0.1,0-0.3-0.1-0.4-0.1c0-0.1-0.1-0.3-0.1-0.3
		l1.2-2.6c0,0,0.1-0.5,0.4-1.5c0.1-0.4,0.1-0.8,0.1-1v-0.7c-0.1-0.1-0.1-0.3-0.4-0.5c0-0.1-0.4-0.4-1-0.8c-0.3-0.3-0.4-0.4-0.5-0.7
		c0.1-0.4,0.5-1.1,0.9-1.9c0.3-0.4,0.5-0.8,0.7-1.1c0.3-0.1,0.4,0,0.4,0.1c0.1,0.1,0.1,0.4,0.1,0.5c0.9,0.8,1.4,1.4,1.6,1.6
		c0.7,0.5,0.9,1.2,0.9,1.9C33,55.1,33,55.4,32.8,55.5 M38.8,54.2c0.1,0.5,0.1,1.2,0.1,1.9c0,1.5-0.4,3.2-1,4.7
		c-0.7,1.5-1.7,2.9-2.9,4.3c-0.7,0.6-1.3,1-2.2,1.4c-0.8,0.3-1.6,0.4-2.4,0.4c-0.8,0-1.4,0-2.1-0.3c-1.6-0.7-2.6-2.2-3-4.4
		c-0.1-2.1-0.4-4-0.5-5.9c-0.3-0.4-0.5-0.8-0.9-1.1c-0.3-0.1-0.7-0.4-1.3-0.8c-0.3-0.3-0.4-0.6-0.4-0.8c0-0.3,0-0.5,0.3-1
		c0.4-0.8,0.7-1.2,0.7-1.4c0.1-0.4,0.4-0.6,0.8-0.6c0,0.3,0.1,0.6,0.3,0.7c0.1,0.3,0.1,0.4,0.3,0.4c0.1,0.1,0.5,0.4,1,0.8
		c0.9,0.7,1.3,1.2,1.3,1.6c0.1,0.4,0.1,0.8,0.1,1.4v1.4c0.1,1.9,0.1,3.3,0.4,4c0.4,1.4,1.3,2.3,2.5,2.7c0.5,0.1,0.9,0.3,1.6,0.3
		c1,0,2-0.4,2.7-1.1c0.8-0.7,1.3-1.5,1.8-2.5c0.4-1,0.5-2.1,0.5-3.2v-0.5v-0.8c0-0.3-0.5-0.7-1.4-1.4c-0.5-0.3-0.8-0.7-0.9-1.1
		c0.1-0.4,0.4-0.8,0.7-1.4c0.4-0.8,0.7-1.2,0.8-1.4h0.3h0.3c0,0.4,0.3,1,0.8,1.4C38,52.9,38.7,53.7,38.8,54.2"/>
	<path class="st1" d="M39.2,46c-0.1,0.3-0.3,0.7-0.5,1.1c-0.5,0.7-0.7,1-0.8,1.1c-0.1,0.4-0.4,0.6-0.9,0.4c-0.4-1.3-1.6-2.8-3.4-4.3
		c-1-0.8-2-1.7-3-2.4l-3.4-2.5c0,0.4-0.1,1-0.4,1.5c-0.7,1.7-1,2.5-1,2.8c0,0.4,0.1,0.7,0.4,1c0.3,0.3,0.7,0.6,1.4,0.7h0.7
		c0.3-0.1,0.7-0.1,0.9-0.1L28,48.2c-0.3,0-0.5,0.1-0.8,0.1h-0.9h-0.7H25c-0.4,0-0.8-0.1-1.2-0.4c-0.4-0.3-0.7-0.7-0.7-1
		C23,46.7,23,46.2,23,46c0-0.7,0.1-1.7,0.7-2.7c0.5-1.5,0.9-2.5,1-2.9c0.1-0.4,0.1-0.7,0.1-1.1c0-0.8-0.3-1.7-0.7-2.4
		c-0.5-0.7-1-1.4-1.8-2.1c0.1-0.3,0.4-0.7,0.7-1.1c0.3-0.4,0.7-0.8,0.9-1.3h0.4c0.1,0,0.3-0.1,0.4-0.1c0.1,0.8,0.5,1.5,1.4,2.2
		c0.7,0.7,1.3,1.4,2.1,2.1l5.2,4.1c0-0.1,0.4-0.6,1-1.4c0.5-0.6,0.8-1,0.8-1.4c0-0.4-0.1-0.7-0.5-1c-0.3-0.1-0.5-0.4-0.9-0.6
		c-0.8-0.4-1.2-0.8-1.4-1.1c0.1-0.4,0.4-1,0.8-1.4c0.4-0.6,0.8-1.1,1-1.5h0.4H35c0.1,0.3,0.1,0.4,0.3,0.7c0.1,0.1,0.3,0.3,0.5,0.4
		c0.9,0.6,1.4,1,1.8,1.3c0.8,0.6,1,1.1,1,1.8c0,0.4-0.1,0.8-0.5,1.4c-0.4,0.7-0.7,1.1-0.9,1.4c-0.5,0.8-1.3,1.7-2.1,2.7
		c0.8,0.7,1.6,1.3,2.1,2C38,44.7,38.7,45.4,39.2,46"/>
	<path class="st1" d="M22.3,19.5C22.2,19.6,22.2,19.5,22.3,19.5L21.3,17c0,0,0-0.1,0-0.1c0,0,0.1,0,0.1,0l2.3,1.3c0,0,0,0,0,0.1
		L22.3,19.5z M24.1,18.6c0,0,0.1,0,0.1,0l2,1.1c0.1,0.1,0.1,0.2,0.1,0.2c-0.1,0.1-0.1,0.1,0,0.2c0,0.1,0.1,0,0.3-0.1
		c0.6-0.5,1.2-1,1.5-1.2c0.3-0.2,0.3-0.3,0.3-0.4c0-0.1-0.1,0-0.1,0c-0.1,0.1-0.2,0.2-0.3,0.2c-0.2,0.1-0.5,0.2-1.4-0.3
		c-1.5-0.8-5.3-2.8-5.8-3.1c-0.2-0.1-0.3-0.1-0.4-0.1c-0.1,0.1-0.1,0.2,0,0.5l2.1,6.4c0.2,0.5,0.2,0.9-0.1,1.2
		c-0.1,0.1-0.2,0.2-0.2,0.2c-0.1,0.1-0.1,0.1,0,0.1c0.1,0.1,0.1,0,0.2,0c0.4-0.3,0.8-0.7,0.9-0.8c0.2-0.2,0.6-0.4,0.8-0.7
		C24,22.1,24,22.1,24,22c0,0-0.1,0-0.2,0l-0.1,0.1c-0.2,0.2-0.4,0.2-0.5,0c-0.1-0.1-0.2-0.3-0.3-0.6l-0.5-1.4c0-0.1,0-0.1,0-0.1
		L24.1,18.6z"/>
	<path class="st1" d="M22.3,19.5C22.2,19.6,22.2,19.5,22.3,19.5L21.3,17c0,0,0-0.1,0-0.1c0,0,0.1,0,0.1,0l2.3,1.3c0,0,0,0,0,0.1
		L22.3,19.5z M24.1,18.6c0,0,0.1,0,0.1,0l2,1.1c0.1,0.1,0.1,0.2,0.1,0.2c-0.1,0.1-0.1,0.1,0,0.2c0,0.1,0.1,0,0.3-0.1
		c0.6-0.5,1.2-1,1.5-1.2c0.3-0.2,0.3-0.3,0.3-0.4c0-0.1-0.1,0-0.1,0c-0.1,0.1-0.2,0.2-0.3,0.2c-0.2,0.1-0.5,0.2-1.4-0.3
		c-1.5-0.8-5.3-2.8-5.8-3.1c-0.2-0.1-0.3-0.1-0.4-0.1c-0.1,0.1-0.1,0.2,0,0.5l2.1,6.4c0.2,0.5,0.2,0.9-0.1,1.2
		c-0.1,0.1-0.2,0.2-0.2,0.2c-0.1,0.1-0.1,0.1,0,0.1c0.1,0.1,0.1,0,0.2,0c0.4-0.3,0.8-0.7,0.9-0.8c0.2-0.2,0.6-0.4,0.8-0.7
		C24,22.1,24,22.1,24,22c0,0-0.1,0-0.2,0l-0.1,0.1c-0.2,0.2-0.4,0.2-0.5,0c-0.1-0.1-0.2-0.3-0.3-0.6l-0.5-1.4c0-0.1,0-0.1,0-0.1
		L24.1,18.6z"/>
	<path class="st1" d="M28.8,16.3c0.1,0.1,0.3,0.5,0.5,0.9c0.1,0.3,0.2,0.5,0,0.6C29.3,17.9,29.2,18,29,18c-0.1,0.1-0.1,0.1-0.1,0.1
		c0,0.1,0.1,0,0.2,0c0.3-0.2,0.8-0.5,1.1-0.7c0.2-0.1,0.8-0.4,1.3-0.7c0.1-0.1,0.2-0.1,0.1-0.2c0,0-0.1,0-0.2,0
		c-0.1,0.1-0.3,0.2-0.4,0.2c-0.3,0.1-0.5,0-0.6-0.3c-0.2-0.3-0.4-0.7-0.5-0.8L29.5,15c-0.2-0.3-0.3-0.6-0.4-0.9
		c-0.1-0.5,0-3.2,0-3.7c0.1-0.3,0.1-0.5,0.2-0.7c0.1-0.1,0.2-0.3,0.3-0.3c0.1-0.1,0.1-0.1,0.1-0.2c0-0.1-0.1,0-0.2,0
		c-0.2,0.1-0.7,0.5-0.9,0.6c-0.2,0.1-0.5,0.3-0.8,0.4c-0.1,0.1-0.1,0.1-0.1,0.2c0,0.1,0.1,0,0.2,0c0.2-0.1,0.3,0,0.3,0.1
		c0.1,0.1,0.1,0.3,0.1,0.5c0,0.3,0.1,2.9,0.1,3.1c-0.3-0.2-2.7-1.5-3-1.7c-0.1-0.1-0.2-0.2-0.3-0.2c0-0.1,0-0.2,0-0.2
		c0.1-0.1,0.2-0.2,0.1-0.2c0-0.1-0.1-0.1-0.2,0c-0.4,0.2-0.7,0.5-0.9,0.6c-0.3,0.2-0.9,0.5-1.1,0.6c-0.1,0.1-0.1,0.1-0.1,0.2
		c0,0.1,0.1,0,0.2,0c0.1-0.1,0.3-0.1,0.4-0.1c0.2,0,0.6,0.1,1,0.3c0.6,0.3,2.8,1.5,2.9,1.6c0.3,0.2,0.5,0.3,0.7,0.8L28.8,16.3z"/>
	<path class="st1" d="M28.8,16.3c0.1,0.1,0.3,0.5,0.5,0.9c0.1,0.3,0.2,0.5,0,0.6C29.3,17.9,29.2,18,29,18c-0.1,0.1-0.1,0.1-0.1,0.1
		c0,0.1,0.1,0,0.2,0c0.3-0.2,0.8-0.5,1.1-0.7c0.2-0.1,0.8-0.4,1.3-0.7c0.1-0.1,0.2-0.1,0.1-0.2c0,0-0.1,0-0.2,0
		c-0.1,0.1-0.3,0.2-0.4,0.2c-0.3,0.1-0.5,0-0.6-0.3c-0.2-0.3-0.4-0.7-0.5-0.8L29.5,15c-0.2-0.3-0.3-0.6-0.4-0.9
		c-0.1-0.5,0-3.2,0-3.7c0.1-0.3,0.1-0.5,0.2-0.7c0.1-0.1,0.2-0.3,0.3-0.3c0.1-0.1,0.1-0.1,0.1-0.2c0-0.1-0.1,0-0.2,0
		c-0.2,0.1-0.7,0.5-0.9,0.6c-0.2,0.1-0.5,0.3-0.8,0.4c-0.1,0.1-0.1,0.1-0.1,0.2c0,0.1,0.1,0,0.2,0c0.2-0.1,0.3,0,0.3,0.1
		c0.1,0.1,0.1,0.3,0.1,0.5c0,0.3,0.1,2.9,0.1,3.1c-0.3-0.2-2.7-1.5-3-1.7c-0.1-0.1-0.2-0.2-0.3-0.2c0-0.1,0-0.2,0-0.2
		c0.1-0.1,0.2-0.2,0.1-0.2c0-0.1-0.1-0.1-0.2,0c-0.4,0.2-0.7,0.5-0.9,0.6c-0.3,0.2-0.9,0.5-1.1,0.6c-0.1,0.1-0.1,0.1-0.1,0.2
		c0,0.1,0.1,0,0.2,0c0.1-0.1,0.3-0.1,0.4-0.1c0.2,0,0.6,0.1,1,0.3c0.6,0.3,2.8,1.5,2.9,1.6c0.3,0.2,0.5,0.3,0.7,0.8L28.8,16.3z"/>
	<path class="st1" d="M35.5,11.6c-0.2,0-0.2,0.1-0.2,0.1l0,0.6c0,0.1,0,0.1,0.1,0.1c0,0,0.2-0.2,0.3-0.3c0.3-0.2,1.9-1,2.1-1.1
		c0.1-0.1,0.3-0.2,0.3-0.3c0-0.1-0.2-0.1-0.3,0L35.5,11.6z"/>
	<path class="st1" d="M35.5,11.6c-0.2,0-0.2,0.1-0.2,0.1l0,0.6c0,0.1,0,0.1,0.1,0.1c0,0,0.2-0.2,0.3-0.3c0.3-0.2,1.9-1,2.1-1.1
		c0.1-0.1,0.3-0.2,0.3-0.3c0-0.1-0.2-0.1-0.3,0L35.5,11.6z"/>
	<path class="st1" d="M44.7,8c-0.1-1.5-0.1-1.8-0.2-2.1c0-0.3,0.1-0.5,0.3-0.6c0.1,0,0.2,0,0.3-0.1c0.1,0,0.1,0,0.1-0.1
		c0-0.1-0.1-0.1-0.2-0.1c-0.3,0-1,0.1-1.2,0.1c-0.2,0-0.9,0-1.4,0.1c-0.1,0-0.2,0-0.2,0.1c0,0.1,0.1,0.1,0.2,0.1c0.1,0,0.3,0,0.4,0
		c0.3,0,0.4,0.2,0.5,0.5c0,0.3,0.1,0.6,0.2,2.1l0.1,1.7c0.1,0.9,0.1,1.7,0.1,2.1c0,0.3,0,0.5-0.2,0.6c-0.1,0-0.2,0.1-0.4,0.1
		c-0.1,0-0.2,0-0.2,0.1c0,0.1,0.1,0.1,0.2,0.1c0.4,0,1-0.1,1.2-0.1c0.2,0,0.9,0,1.4-0.1c0.1,0,0.2,0,0.2-0.1c0,0-0.1-0.1-0.1-0.1
		c-0.1,0-0.3,0-0.5,0c-0.3,0-0.4-0.2-0.4-0.5c-0.1-0.4-0.1-1.2-0.2-2.1l-0.1-0.9l0,0L44.9,9c0.2,0.3,2.4,2.4,2.8,2.8
		c0.5,0.3,0.7,0.5,1.3,0.5c0.2,0,0.4,0,0.7,0l0.9-0.1c0.2,0,0.2,0,0.2-0.1c0-0.1-0.1-0.1-0.1-0.1c-0.1,0-0.3,0-0.6-0.1
		c-0.6-0.2-1-0.6-1.5-1c-0.4-0.3-2.5-2.3-2.9-2.7c0.3-0.4,1.7-2,2-2.3c0.4-0.5,0.7-0.7,1-0.8C48.7,5,49,5,49.1,4.9
		c0.1,0,0.1,0,0.1-0.1c0-0.1-0.1-0.1-0.2-0.1c-0.3,0-0.8,0.1-1.2,0.1c-0.3,0-0.8,0-1,0.1c-0.1,0-0.2,0-0.2,0.1c0,0.1,0,0.1,0.1,0.1
		c0.1,0,0.1,0.1,0.2,0.2c0,0.2-0.2,0.4-0.4,0.8c-0.3,0.4-1.6,2-1.9,2.4l0,0L44.7,8z"/>
	<path class="st1" d="M44.7,8c-0.1-1.5-0.1-1.8-0.2-2.1c0-0.3,0.1-0.5,0.3-0.6c0.1,0,0.2,0,0.3-0.1c0.1,0,0.1,0,0.1-0.1
		c0-0.1-0.1-0.1-0.2-0.1c-0.3,0-1,0.1-1.2,0.1c-0.2,0-0.9,0-1.4,0.1c-0.1,0-0.2,0-0.2,0.1c0,0.1,0.1,0.1,0.2,0.1c0.1,0,0.3,0,0.4,0
		c0.3,0,0.4,0.2,0.5,0.5c0,0.3,0.1,0.6,0.2,2.1l0.1,1.7c0.1,0.9,0.1,1.7,0.1,2.1c0,0.3,0,0.5-0.2,0.6c-0.1,0-0.2,0.1-0.4,0.1
		c-0.1,0-0.2,0-0.2,0.1c0,0.1,0.1,0.1,0.2,0.1c0.4,0,1-0.1,1.2-0.1c0.2,0,0.9,0,1.4-0.1c0.1,0,0.2,0,0.2-0.1c0,0-0.1-0.1-0.1-0.1
		c-0.1,0-0.3,0-0.5,0c-0.3,0-0.4-0.2-0.4-0.5c-0.1-0.4-0.1-1.2-0.2-2.1l-0.1-0.9l0,0L44.9,9c0.2,0.3,2.4,2.4,2.8,2.8
		c0.5,0.3,0.7,0.5,1.3,0.5c0.2,0,0.4,0,0.7,0l0.9-0.1c0.2,0,0.2,0,0.2-0.1c0-0.1-0.1-0.1-0.1-0.1c-0.1,0-0.3,0-0.6-0.1
		c-0.6-0.2-1-0.6-1.5-1c-0.4-0.3-2.5-2.3-2.9-2.7c0.3-0.4,1.7-2,2-2.3c0.4-0.5,0.7-0.7,1-0.8C48.7,5,49,5,49.1,4.9
		c0.1,0,0.1,0,0.1-0.1c0-0.1-0.1-0.1-0.2-0.1c-0.3,0-0.8,0.1-1.2,0.1c-0.3,0-0.8,0-1,0.1c-0.1,0-0.2,0-0.2,0.1c0,0.1,0,0.1,0.1,0.1
		c0.1,0,0.1,0.1,0.2,0.2c0,0.2-0.2,0.4-0.4,0.8c-0.3,0.4-1.6,2-1.9,2.4l0,0L44.7,8z"/>
	<path class="st1" d="M54.4,12.5c-1.9-0.3-2.8-2-2.5-4.1c0.3-2.5,1.7-2.9,2.8-2.8c1.6,0.2,2.7,1.8,2.4,4
		C56.8,12.5,55.1,12.6,54.4,12.5 M54,12.9c2.5,0.3,4.3-1.2,4.6-3.5c0.3-2.3-1-3.9-3.5-4.2c-2.9-0.4-4.4,1.6-4.6,3.3
		C50.3,10.3,51.1,12.5,54,12.9"/>
	<path class="st1" d="M54.4,12.5c-1.9-0.3-2.8-2-2.5-4.1c0.3-2.5,1.7-2.9,2.8-2.8c1.6,0.2,2.7,1.8,2.4,4
		C56.8,12.5,55.1,12.6,54.4,12.5z M54,12.9c2.5,0.3,4.3-1.2,4.6-3.5c0.3-2.3-1-3.9-3.5-4.2c-2.9-0.4-4.4,1.6-4.6,3.3
		C50.3,10.3,51.1,12.5,54,12.9z"/>
	<path class="st1" d="M60.6,14.4c0.5,0.2,1.1,0.3,1.6,0.1c0.8-0.2,1.3-0.8,1.4-1.3c0.3-0.9,0.1-1.7-0.7-2.9L62.7,10
		c-0.6-0.9-0.7-1.3-0.5-1.7c0.2-0.6,0.8-0.8,1.4-0.6c0.6,0.2,0.8,0.6,0.9,0.8c0.1,0.3,0.1,0.6,0,0.7c0,0.1,0,0.2,0,0.2
		c0.1,0,0.1,0,0.2-0.2c0.2-0.7,0.4-1,0.4-1.1c0-0.1,0-0.1-0.1-0.2c-0.2-0.1-0.6-0.4-1.2-0.6c-1.3-0.4-2.4,0-2.8,1
		c-0.3,0.8-0.1,1.5,0.6,2.7l0.3,0.5c0.6,0.9,0.6,1.4,0.4,1.8c-0.2,0.5-0.8,0.9-1.6,0.6c-0.6-0.2-1-0.6-1-1.4c0-0.2,0-0.4,0.1-0.5
		c0-0.1,0-0.2,0-0.2c-0.1,0-0.1,0.1-0.2,0.2c-0.1,0.1-0.3,0.7-0.5,1.2c-0.1,0.2-0.1,0.3,0.1,0.4C59.7,14,60.1,14.3,60.6,14.4"/>
	<path class="st1" d="M60.6,14.4c0.5,0.2,1.1,0.3,1.6,0.1c0.8-0.2,1.3-0.8,1.4-1.3c0.3-0.9,0.1-1.7-0.7-2.9L62.7,10
		c-0.6-0.9-0.7-1.3-0.5-1.7c0.2-0.6,0.8-0.8,1.4-0.6c0.6,0.2,0.8,0.6,0.9,0.8c0.1,0.3,0.1,0.6,0,0.7c0,0.1,0,0.2,0,0.2
		c0.1,0,0.1,0,0.2-0.2c0.2-0.7,0.4-1,0.4-1.1c0-0.1,0-0.1-0.1-0.2c-0.2-0.1-0.6-0.4-1.2-0.6c-1.3-0.4-2.4,0-2.8,1
		c-0.3,0.8-0.1,1.5,0.6,2.7l0.3,0.5c0.6,0.9,0.6,1.4,0.4,1.8c-0.2,0.5-0.8,0.9-1.6,0.6c-0.6-0.2-1-0.6-1-1.4c0-0.2,0-0.4,0.1-0.5
		c0-0.1,0-0.2,0-0.2c-0.1,0-0.1,0.1-0.2,0.2c-0.1,0.1-0.3,0.7-0.5,1.2c-0.1,0.2-0.1,0.3,0.1,0.4C59.7,14,60.1,14.3,60.6,14.4z"/>
	<path class="st1" d="M68.2,12.8C68.2,12.7,68.2,12.7,68.2,12.8l0.1-0.3c0.8-1.3,0.9-1.5,1.1-1.8c0.2-0.3,0.3-0.4,0.6-0.3
		c0.1,0,0.2,0.1,0.3,0.1c0.1,0.1,0.2,0.1,0.2,0c0-0.1,0-0.1-0.1-0.2c-0.3-0.2-0.9-0.5-1.1-0.6C69,9.6,68.5,9.2,68,9
		c-0.1-0.1-0.2-0.1-0.2,0c0,0.1,0,0.1,0.1,0.2c0.1,0.1,0.3,0.2,0.3,0.2c0.2,0.2,0.2,0.4,0.1,0.7c-0.1,0.3-0.3,0.5-1,1.8l-0.9,1.5
		c-0.5,0.8-0.9,1.5-1.1,1.8c-0.2,0.2-0.3,0.4-0.5,0.3c-0.1,0-0.2-0.1-0.3-0.1c-0.1-0.1-0.2-0.1-0.2,0c0,0.1,0,0.1,0.1,0.2
		c0.3,0.2,0.9,0.5,1.1,0.6c0.2,0.1,0.8,0.5,1.3,0.8c0.1,0.1,0.2,0.1,0.2,0c0,0,0-0.1-0.1-0.1c-0.1-0.1-0.3-0.2-0.4-0.3
		c-0.2-0.2-0.2-0.4-0.1-0.7c0.2-0.4,0.6-1.1,1-1.9l0.4-0.8c0,0,0.1,0,0.1,0l3.3,1.9c0,0,0,0,0,0.1L70.8,16c-0.5,0.8-0.9,1.5-1.1,1.8
		c-0.2,0.2-0.3,0.4-0.5,0.3c-0.1,0-0.2-0.1-0.3-0.1c-0.1-0.1-0.2-0.1-0.2,0c0,0.1,0,0.1,0.1,0.2c0.3,0.2,0.9,0.5,1.1,0.6
		c0.2,0.1,0.8,0.5,1.3,0.8c0.1,0.1,0.2,0.1,0.2,0c0,0,0-0.1-0.1-0.1c-0.1-0.1-0.3-0.2-0.4-0.3c-0.2-0.2-0.2-0.4-0.1-0.7
		c0.2-0.4,0.6-1.1,1-1.9l0.9-1.5c0.8-1.3,0.9-1.5,1.1-1.8c0.2-0.3,0.3-0.4,0.6-0.3c0.1,0,0.2,0.1,0.3,0.1c0.1,0.1,0.2,0.1,0.2,0
		c0-0.1,0-0.1-0.1-0.2c-0.3-0.2-0.9-0.5-1.1-0.6c-0.2-0.1-0.8-0.5-1.2-0.7c-0.1-0.1-0.2-0.1-0.2,0c0,0.1,0,0.1,0.1,0.2
		c0.1,0.1,0.3,0.2,0.3,0.2c0.2,0.2,0.2,0.4,0.1,0.7c-0.1,0.3-0.3,0.5-1,1.8l-0.1,0.2c0,0-0.1,0-0.1,0L68.2,12.8z"/>
	<path class="st1" d="M68.2,12.8C68.2,12.7,68.2,12.7,68.2,12.8l0.1-0.3c0.8-1.3,0.9-1.5,1.1-1.8c0.2-0.3,0.3-0.4,0.6-0.3
		c0.1,0,0.2,0.1,0.3,0.1c0.1,0.1,0.2,0.1,0.2,0c0-0.1,0-0.1-0.1-0.2c-0.3-0.2-0.9-0.5-1.1-0.6C69,9.6,68.5,9.2,68,9
		c-0.1-0.1-0.2-0.1-0.2,0c0,0.1,0,0.1,0.1,0.2c0.1,0.1,0.3,0.2,0.3,0.2c0.2,0.2,0.2,0.4,0.1,0.7c-0.1,0.3-0.3,0.5-1,1.8l-0.9,1.5
		c-0.5,0.8-0.9,1.5-1.1,1.8c-0.2,0.2-0.3,0.4-0.5,0.3c-0.1,0-0.2-0.1-0.3-0.1c-0.1-0.1-0.2-0.1-0.2,0c0,0.1,0,0.1,0.1,0.2
		c0.3,0.2,0.9,0.5,1.1,0.6c0.2,0.1,0.8,0.5,1.3,0.8c0.1,0.1,0.2,0.1,0.2,0c0,0,0-0.1-0.1-0.1c-0.1-0.1-0.3-0.2-0.4-0.3
		c-0.2-0.2-0.2-0.4-0.1-0.7c0.2-0.4,0.6-1.1,1-1.9l0.4-0.8c0,0,0.1,0,0.1,0l3.3,1.9c0,0,0,0,0,0.1L70.8,16c-0.5,0.8-0.9,1.5-1.1,1.8
		c-0.2,0.2-0.3,0.4-0.5,0.3c-0.1,0-0.2-0.1-0.3-0.1c-0.1-0.1-0.2-0.1-0.2,0c0,0.1,0,0.1,0.1,0.2c0.3,0.2,0.9,0.5,1.1,0.6
		c0.2,0.1,0.8,0.5,1.3,0.8c0.1,0.1,0.2,0.1,0.2,0c0,0,0-0.1-0.1-0.1c-0.1-0.1-0.3-0.2-0.4-0.3c-0.2-0.2-0.2-0.4-0.1-0.7
		c0.2-0.4,0.6-1.1,1-1.9l0.9-1.5c0.8-1.3,0.9-1.5,1.1-1.8c0.2-0.3,0.3-0.4,0.6-0.3c0.1,0,0.2,0.1,0.3,0.1c0.1,0.1,0.2,0.1,0.2,0
		c0-0.1,0-0.1-0.1-0.2c-0.3-0.2-0.9-0.5-1.1-0.6c-0.2-0.1-0.8-0.5-1.2-0.7c-0.1-0.1-0.2-0.1-0.2,0c0,0.1,0,0.1,0.1,0.2
		c0.1,0.1,0.3,0.2,0.3,0.2c0.2,0.2,0.2,0.4,0.1,0.7c-0.1,0.3-0.3,0.5-1,1.8l-0.1,0.2c0,0-0.1,0-0.1,0L68.2,12.8z"/>
	<path class="st1" d="M74.6,18.8c-0.6,0.7-1.1,1.3-1.4,1.5c-0.2,0.2-0.4,0.3-0.6,0.2c-0.1,0-0.2-0.1-0.3-0.2c-0.1-0.1-0.1-0.1-0.2,0
		c0,0.1,0,0.1,0.1,0.2c0.1,0.1,0.4,0.3,0.5,0.4c0.2,0.2,0.3,0.3,0.4,0.4c0.2,0.2,0.4,0.4,0.7,0.7c0.3,0.3,0.7,0.7,1.3,1.2
		c0.3,0.3,0.3,0.3,0.6,0.2c0.2-0.1,0.7-0.6,0.8-0.7c0.1-0.1,0.1-0.1,0.1-0.2c-0.1,0-0.1,0-0.2,0c-0.3,0.3-0.6,0.3-0.8,0.2
		c-0.3-0.1-0.6-0.4-0.8-0.5c-0.8-0.7-0.8-0.9-0.3-1.4c0.2-0.2,0.8-0.9,1-1.1l0.5-0.6c0,0,0.1-0.1,0.1,0c0.2,0.2,0.9,0.8,1,1
		c0.2,0.3,0.3,0.5,0.2,0.7c-0.1,0.1-0.1,0.2-0.2,0.3c0,0,0,0.1,0,0.1c0.1,0.1,0.1,0,0.2-0.1c0-0.1,0.3-0.3,0.5-0.5
		c0.4-0.4,0.5-0.4,0.5-0.5c0,0,0-0.1,0-0.1c0,0-0.1,0-0.2,0c-0.1,0-0.3-0.1-0.5-0.2c-0.2-0.1-1-0.9-1.2-1c0,0,0-0.1,0-0.1l1.7-1.9
		c0-0.1,0.1-0.1,0.1,0c0.1,0.1,0.9,0.8,1,1c0.3,0.4,0.3,0.5,0.3,0.7c0,0.1-0.1,0.3-0.2,0.3c-0.1,0.1-0.1,0.1,0,0.2
		c0.1,0,0.1,0,0.1,0c0.1-0.1,0.4-0.4,0.5-0.5c0.3-0.3,0.4-0.4,0.5-0.4c0,0,0.1-0.1,0-0.1c0,0-0.1-0.1-0.1-0.1
		c-0.1,0-0.2-0.1-0.4-0.2c-0.1-0.1-1.6-1.4-1.9-1.7c-0.1-0.1-0.3-0.3-0.5-0.4c-0.2-0.2-0.4-0.4-0.6-0.5c-0.1-0.1-0.2-0.1-0.2-0.1
		c0,0.1,0,0.1,0.1,0.2c0.1,0.1,0.2,0.2,0.3,0.3c0.2,0.3,0.2,0.4-0.1,0.7c-0.2,0.3-0.4,0.5-1.4,1.6L74.6,18.8z"/>
	<path class="st1" d="M74.6,18.8c-0.6,0.7-1.1,1.3-1.4,1.5c-0.2,0.2-0.4,0.3-0.6,0.2c-0.1,0-0.2-0.1-0.3-0.2c-0.1-0.1-0.1-0.1-0.2,0
		c0,0.1,0,0.1,0.1,0.2c0.1,0.1,0.4,0.3,0.5,0.4c0.2,0.2,0.3,0.3,0.4,0.4c0.2,0.2,0.4,0.4,0.7,0.7c0.3,0.3,0.7,0.7,1.3,1.2
		c0.3,0.3,0.3,0.3,0.6,0.2c0.2-0.1,0.7-0.6,0.8-0.7c0.1-0.1,0.1-0.1,0.1-0.2c-0.1,0-0.1,0-0.2,0c-0.3,0.3-0.6,0.3-0.8,0.2
		c-0.3-0.1-0.6-0.4-0.8-0.5c-0.8-0.7-0.8-0.9-0.3-1.4c0.2-0.2,0.8-0.9,1-1.1l0.5-0.6c0,0,0.1-0.1,0.1,0c0.2,0.2,0.9,0.8,1,1
		c0.2,0.3,0.3,0.5,0.2,0.7c-0.1,0.1-0.1,0.2-0.2,0.3c0,0,0,0.1,0,0.1c0.1,0.1,0.1,0,0.2-0.1c0-0.1,0.3-0.3,0.5-0.5
		c0.4-0.4,0.5-0.4,0.5-0.5c0,0,0-0.1,0-0.1c0,0-0.1,0-0.2,0c-0.1,0-0.3-0.1-0.5-0.2c-0.2-0.1-1-0.9-1.2-1c0,0,0-0.1,0-0.1l1.7-1.9
		c0-0.1,0.1-0.1,0.1,0c0.1,0.1,0.9,0.8,1,1c0.3,0.4,0.3,0.5,0.3,0.7c0,0.1-0.1,0.3-0.2,0.3c-0.1,0.1-0.1,0.1,0,0.2
		c0.1,0,0.1,0,0.1,0c0.1-0.1,0.4-0.4,0.5-0.5c0.3-0.3,0.4-0.4,0.5-0.4c0,0,0.1-0.1,0-0.1c0,0-0.1-0.1-0.1-0.1
		c-0.1,0-0.2-0.1-0.4-0.2c-0.1-0.1-1.6-1.4-1.9-1.7c-0.1-0.1-0.3-0.3-0.5-0.4c-0.2-0.2-0.4-0.4-0.6-0.5c-0.1-0.1-0.2-0.1-0.2-0.1
		c0,0.1,0,0.1,0.1,0.2c0.1,0.1,0.2,0.2,0.3,0.3c0.2,0.3,0.2,0.4-0.1,0.7c-0.2,0.3-0.4,0.5-1.4,1.6L74.6,18.8z"/>
	<path class="st1" d="M83.1,21.8c0.1,0,0.1-0.1,0.2,0c0.1,0.1,0.2,0.2,0.4,0.4c0.4,0.5,0.6,1.5-0.5,2.3c-0.6,0.5-1.2,0.6-1.5,0.5
		c-0.2-0.1-0.3-0.1-0.6-0.5c-0.2-0.2-0.3-0.5-0.4-0.7c0-0.1,0-0.1,0.1-0.2L83.1,21.8z M79.2,23.3c-0.7,0.6-1.3,1-1.7,1.3
		c-0.3,0.1-0.5,0.2-0.6,0.1c-0.1-0.1-0.2-0.1-0.3-0.3c-0.1-0.1-0.1-0.1-0.2-0.1c-0.1,0,0,0.1,0,0.2c0.2,0.3,0.7,0.8,0.8,0.9
		c0.1,0.1,0.5,0.7,0.9,1.2c0.1,0.1,0.1,0.1,0.2,0.1c0,0,0-0.1,0-0.1c-0.1-0.1-0.2-0.3-0.3-0.4c-0.2-0.3,0-0.4,0.2-0.6
		c0.3-0.3,0.9-0.8,1.6-1.4l0.1-0.1c0,0,0.1,0,0.1,0l0.5,0.7c0,0.1,0.1,0.1,0.1,0.2c0,0.2-0.3,1-0.5,1.6c-0.3,0.9-0.4,1.5-0.3,2
		c0,0.3,0.2,0.5,0.5,1l0.6,0.7c0.1,0.1,0.1,0.1,0.2,0.1c0,0,0-0.1,0-0.1c0-0.1-0.1-0.1-0.1-0.2c-0.1-0.1-0.3-0.5-0.2-1.3
		c0.1-0.8,0.4-1.9,0.7-3.3c1.3,0.3,2,0.1,2.6-0.3c0.5-0.4,0.7-1,0.7-1.4c0-0.7-0.4-1.2-0.8-1.7c-0.2-0.2-0.7-0.8-0.9-1.1
		c-0.1-0.2-0.5-0.7-0.8-1.1c-0.1-0.1-0.2-0.2-0.2-0.1c-0.1,0,0,0.1,0,0.2c0.1,0.1,0.2,0.3,0.2,0.3c0.1,0.3,0.1,0.5-0.2,0.7
		c-0.2,0.2-0.5,0.4-1.6,1.3L79.2,23.3z"/>
	<path class="st1" d="M83.1,21.8c0.1,0,0.1-0.1,0.2,0c0.1,0.1,0.2,0.2,0.4,0.4c0.4,0.5,0.6,1.5-0.5,2.3c-0.6,0.5-1.2,0.6-1.5,0.5
		c-0.2-0.1-0.3-0.1-0.6-0.5c-0.2-0.2-0.3-0.5-0.4-0.7c0-0.1,0-0.1,0.1-0.2L83.1,21.8z M79.2,23.3c-0.7,0.6-1.3,1-1.7,1.3
		c-0.3,0.1-0.5,0.2-0.6,0.1c-0.1-0.1-0.2-0.1-0.3-0.3c-0.1-0.1-0.1-0.1-0.2-0.1c-0.1,0,0,0.1,0,0.2c0.2,0.3,0.7,0.8,0.8,0.9
		c0.1,0.1,0.5,0.7,0.9,1.2c0.1,0.1,0.1,0.1,0.2,0.1c0,0,0-0.1,0-0.1c-0.1-0.1-0.2-0.3-0.3-0.4c-0.2-0.3,0-0.4,0.2-0.6
		c0.3-0.3,0.9-0.8,1.6-1.4l0.1-0.1c0,0,0.1,0,0.1,0l0.5,0.7c0,0.1,0.1,0.1,0.1,0.2c0,0.2-0.3,1-0.5,1.6c-0.3,0.9-0.4,1.5-0.3,2
		c0,0.3,0.2,0.5,0.5,1l0.6,0.7c0.1,0.1,0.1,0.1,0.2,0.1c0,0,0-0.1,0-0.1c0-0.1-0.1-0.1-0.1-0.2c-0.1-0.1-0.3-0.5-0.2-1.3
		c0.1-0.8,0.4-1.9,0.7-3.3c1.3,0.3,2,0.1,2.6-0.3c0.5-0.4,0.7-1,0.7-1.4c0-0.7-0.4-1.2-0.8-1.7c-0.2-0.2-0.7-0.8-0.9-1.1
		c-0.1-0.2-0.5-0.7-0.8-1.1c-0.1-0.1-0.2-0.2-0.2-0.1c-0.1,0,0,0.1,0,0.2c0.1,0.1,0.2,0.3,0.2,0.3c0.1,0.3,0.1,0.5-0.2,0.7
		c-0.2,0.2-0.5,0.4-1.6,1.3L79.2,23.3z"/>
	<path class="st1" d="M48.7,49.6c0.6-0.4,1.1-0.9,1.8-1.3c0.6-0.4,1.4-1.2,2.3-2.1l13.3-12.6c-0.4,0-0.8-0.1-1.4-0.3
		c-1.4-0.3-2.1-0.6-2.1-0.9c0-0.2,0-0.3,0.1-0.3c0.1-0.1,0.4-0.1,0.7-0.1c0.1,0,0.7,0,1.8,0.1h3.3c1,0,2,0,3.1-0.1
		c1.1,0,1.8-0.1,1.8-0.1c0.3,0,0.6,0,0.7,0.1c0.1,0,0.1,0.1,0.1,0.3c0,0.3-0.6,0.6-1.7,0.9c-0.7,0.1-1.1,0.3-1.6,0.4
		c-2.3,1.5-4.7,3.1-7.2,5.1c-2.5,1.9-5.2,4.2-7.9,6.4l-5.2,4.5h1.6c1.1,0,2.3,0,3.1,0.1c0.9,0,1.6,0.2,2.1,0.4
		c1.7,0.6,3.5,2.1,5.4,4.6c0.3,0.3,0.4,0.4,0.6,0.6l5,6.2c1,1.2,1.7,2.1,2.4,2.5c0.7,0.6,1.4,0.7,2,0.7c0.3,0,0.7,0,1.1-0.3
		c0.3-0.1,0.6-0.3,0.6-0.3c0.1,0,0.3,0,0.4,0.1c0,0.1,0.1,0.1,0.1,0.4c0,0.4-0.6,0.9-1.7,1.6c-1,0.6-2,0.9-3,0.9
		c-0.8,0-1.8-0.3-2.7-0.7C66.8,65.9,66,65,65,63.7l-5.4-7c0,0-0.1-0.1-0.3-0.1c-2.8-3.9-5.9-5.8-9.2-5.8h-0.9c-0.1,0-0.3,0-0.6,0.1
		l0.1,4.9c0,2.1,0,3.9,0.1,5.3c0,1.5,0.1,2.8,0.3,4c2,0.1,3.4,0.4,4.1,0.6c0.7,0.1,1.1,0.3,1.1,0.6c0,0.1-0.1,0.3-0.1,0.4h-0.7
		c-0.1,0-1,0-2.5-0.1c-1.4-0.1-2.8-0.1-4.2-0.1c-1.4,0-2.8,0.1-4.2,0.3c-1.6,0.2-2.4,0.2-2.6,0.2c-0.3,0-0.4,0-0.6-0.2
		c-0.1,0-0.3-0.1-0.3-0.3c0-0.3,0.4-0.4,1.1-0.7c0.7-0.1,2.1-0.3,4.1-0.6c0.1-1.2,0.3-2.5,0.3-3.9v-5.5V43c-0.1-2.1-0.1-3.9-0.1-5.3
		c-0.1-1.3-0.3-2.7-0.4-3.9c-2-0.3-3.4-0.4-4.1-0.6c-0.7-0.1-1.1-0.4-1.1-0.7c0-0.1,0.1-0.3,0.3-0.3c0.1-0.1,0.3-0.1,0.7-0.1
		c0,0,0.9,0.1,2.4,0.1c1.4,0.2,3,0.3,4.2,0.3c1.4,0,2.8-0.1,4.4-0.3c1.4-0.1,2.3-0.3,2.4-0.3c0.3,0,0.6,0.1,0.7,0.1
		c0.1,0.1,0.1,0.1,0.1,0.4c0,0.1-0.4,0.4-1.1,0.6c-0.7,0.3-2.1,0.4-4.1,0.6c-0.1,1.3-0.1,2.7-0.3,4.2V43V49.6z"/>
	<path class="st1" d="M18.3,22.6c0.6,0.5,2.5,2.3,2.8,3c0.1,0.2,0.1,0.5-0.1,0.7c-0.1,0.2-0.3,0.3-0.5,0.4c-0.2,0.1-0.3,0.2-0.4,0.4
		c-0.2,0.2,0,0.7,0.2,0.9c0.2,0.2,0.5-0.1,0.7-0.3c0.9-1.1,0.9-2.5,0.3-3.7c-0.3-0.7-1.3-1.6-2.2-2.4l0,0l-0.6-0.6
		c-1.1-1-1.4-1.2-1.6-1.4c-0.3-0.2-0.3-0.4-0.2-0.6c0.1-0.1,0.1-0.2,0.2-0.2c0.1-0.1,0.1-0.1,0-0.2c-0.1,0-0.1,0-0.2,0.1
		c-0.3,0.3-0.6,0.8-0.8,1c-0.2,0.2-0.6,0.6-0.9,1c-0.1,0.1-0.1,0.2-0.1,0.2c0.1,0,0.1,0,0.2-0.1c0.1-0.1,0.2-0.2,0.3-0.3
		c0.3-0.2,0.4-0.2,0.7,0c0.3,0.2,0.5,0.4,1.6,1.4L18.3,22.6z"/>
	<path class="st1" d="M18.3,22.6c0.6,0.5,2.5,2.3,2.8,3c0.1,0.2,0.1,0.5-0.1,0.7c-0.1,0.2-0.3,0.3-0.5,0.4c-0.2,0.1-0.3,0.2-0.4,0.4
		c-0.2,0.2,0,0.7,0.2,0.9c0.2,0.2,0.5-0.1,0.7-0.3c0.9-1.1,0.9-2.5,0.3-3.7c-0.3-0.7-1.3-1.6-2.2-2.4l0,0l-0.6-0.6
		c-1.1-1-1.4-1.2-1.6-1.4c-0.3-0.2-0.3-0.4-0.2-0.6c0.1-0.1,0.1-0.2,0.2-0.2c0.1-0.1,0.1-0.1,0-0.2c-0.1,0-0.1,0-0.2,0.1
		c-0.3,0.3-0.6,0.8-0.8,1c-0.2,0.2-0.6,0.6-0.9,1c-0.1,0.1-0.1,0.2-0.1,0.2c0.1,0,0.1,0,0.2-0.1c0.1-0.1,0.2-0.2,0.3-0.3
		c0.3-0.2,0.4-0.2,0.7,0c0.3,0.2,0.5,0.4,1.6,1.4L18.3,22.6z"/>
	<path class="st1" d="M15.4,74.5c-0.5,0.2-1.4,0.5-1.8,0.6c-0.2-0.2-1-0.9-1.5-1.5c-1.7-2.3-0.8-4.5,0.6-5.6
		c1.9-1.4,4.3-0.9,5.8,1.2c0.5,0.7,0.8,1.5,0.9,1.8c-0.5,0.5-0.8,0.8-1.3,1.3L17.9,72c0.8-1,0.8-1.9,0.2-2.7c-1-1.4-2.8-1.2-4.2-0.2
		c-1.7,1.2-2.2,3-1.2,4.3c0.6,0.8,1.4,1,2.7,0.7L15.4,74.5z"/>
	<path class="st1" d="M20.3,79.7c-0.4,0.3-1.3,0.9-1.6,1l-3.9-4.1l0.3-0.3c0.7,0.6,0.9,0.7,1.5,0l3.2-3.1c0.7-0.7,0.7-0.8,0.1-1.4
		l0.3-0.3l3.7,3.8c-0.1,0.2-0.7,0.8-1.1,1.3l-0.4-0.3c0.2-0.4,0.4-0.7,0.4-1c0-0.2-0.1-0.5-0.6-1l-0.5-0.5c-0.3-0.3-0.3-0.3-0.6,0
		l-1.8,1.7l0.6,0.6c0.7,0.7,0.8,0.7,1.5,0.3l0.3,0.3L20,78.3L19.7,78c0.5-0.7,0.5-0.8-0.2-1.5l-0.6-0.6l-1.5,1.4
		c-0.4,0.4-0.5,0.6-0.5,0.8c0.1,0.2,0.3,0.5,0.7,0.9c0.5,0.5,0.8,0.7,1.2,0.7c0.3,0,0.7-0.1,1.2-0.3L20.3,79.7z"/>
	<path class="st1" d="M25.4,86.2c-0.1-0.1-0.2-0.2-0.3-0.2c-0.9-0.8-1.1-1.3-1-2.1c0-0.6,0.2-1.4,0.2-2c0-0.4,0-0.6-0.4-0.9
		l-0.3-0.2l-1,1.4c-0.6,0.8-0.5,0.9,0.1,1.5l-0.3,0.3l-2.6-2l0.3-0.3c0.7,0.5,0.9,0.5,1.5-0.3l2.7-3.6c0.6-0.7,0.5-0.9-0.1-1.4
		l0.3-0.3l2.4,1.8c0.7,0.5,1.1,1,1.3,1.5c0.2,0.5,0.1,1.1-0.3,1.7c-0.6,0.8-1.5,0.9-2.3,0.7c-0.1,0.4-0.2,1.3-0.2,1.9
		c-0.1,0.7-0.1,1.1,0,1.5c0,0.4,0.2,0.6,0.3,0.9L25.4,86.2z M24.3,80.6c0.4,0.3,0.7,0.4,1.1,0.4c0.5,0,1-0.3,1.3-0.7
		c0.7-1,0.4-1.8-0.2-2.2c-0.2-0.2-0.4-0.2-0.5-0.2c-0.1,0-0.2,0.1-0.4,0.3L24,80.3L24.3,80.6z"/>
	<path class="st1" d="M34.2,84.4c0.2-0.6,0.2-0.9,0.1-1.2c-0.1-0.3-0.2-0.5-0.9-0.8l-0.6-0.3L30.4,87c-0.4,0.8-0.4,1,0.5,1.5
		l-0.2,0.4l-3.1-1.6l0.2-0.4c0.9,0.4,1,0.4,1.5-0.5l2.5-4.9l-0.5-0.3c-0.8-0.4-1-0.4-1.2-0.3c-0.2,0.1-0.5,0.4-0.9,0.8l-0.4-0.2
		c0.4-0.7,0.8-1.4,1.1-1.9l0.3,0.1c0,0.3,0.1,0.4,0.4,0.6l4,2c0.3,0.1,0.4,0.1,0.7,0l0.3,0.1c-0.2,0.4-0.6,1.3-0.9,2L34.2,84.4z"/>
	<path class="st1" d="M33.5,90l0.1-0.4c0.9,0.2,1,0.2,1.3-0.7l1.4-4.2c0.3-0.9,0.2-1-0.6-1.4l0.1-0.4l3.1,1l-0.1,0.4
		c-0.8-0.2-1-0.2-1.3,0.7l-1.4,4.2c-0.3,0.9-0.2,1,0.6,1.3l-0.1,0.4L33.5,90z"/>
	<path class="st1" d="M44,86.8c0-0.5-0.1-0.8-0.2-1c-0.1-0.3-0.4-0.4-1.1-0.6L42,85.1c-0.4-0.1-0.4-0.1-0.5,0.3L41.1,88l1,0.2
		c1,0.2,1.1,0.1,1.3-0.6l0.4,0.1l-0.4,2.3L43,89.8c0-0.8-0.1-0.9-1-1.1l-1-0.2l-0.3,1.9c-0.2,1-0.1,1.1,0.9,1.3l-0.1,0.4l-3.3-0.6
		l0.1-0.4c0.9,0.1,1,0,1.2-0.9l0.8-4.3c0.2-1,0.1-1.1-0.7-1.3l0.1-0.4l5.2,0.9c0,0.3-0.1,1.1-0.2,1.7L44,86.8z"/>
	<path class="st1" d="M45,92.6l0-0.4c0.9,0,1-0.1,1-1.1l0.2-4.4c0-1-0.1-1-0.9-1.1l0-0.4l3.2,0.1l0,0.4c-0.9,0-1,0.1-1,1.1l-0.2,4.4
		c0,1,0.1,1,0.9,1.1l0,0.4L45,92.6z"/>
	<path class="st1" d="M56.4,90.2c-0.1,0.6-0.3,1.4-0.4,1.9c-0.3,0.1-1.3,0.4-2.1,0.5c-2.9,0.3-4.3-1.5-4.5-3.4
		c-0.2-2.4,1.4-4.2,4-4.4c0.9-0.1,1.7,0,2,0.1c0.2,0.6,0.3,1.1,0.4,1.8l-0.4,0.1c-0.5-1.2-1.2-1.6-2.2-1.5c-1.7,0.2-2.5,1.8-2.3,3.5
		c0.2,2.1,1.5,3.4,3.1,3.2c1-0.1,1.5-0.7,2-2L56.4,90.2z"/>
	<path class="st1" d="M62.3,90.4L62.2,90c0.6-0.3,0.7-0.4,0.4-0.8c-0.2-0.3-0.6-0.8-0.9-1.2l-2.2,0.7c0,0.4,0,0.8,0,1.3
		c0,0.6,0.1,0.7,0.9,0.6l0.1,0.4l-2.4,0.8L58,91.4c0.7-0.3,0.8-0.4,0.9-1.5l0.4-6.4l0.5-0.3c1.3,1.6,2.6,3.5,3.9,5.1
		c0.6,0.8,0.8,0.9,1.6,0.7l0.1,0.4L62.3,90.4z M59.6,85.2L59.6,85.2c-0.1,1-0.1,1.9-0.1,2.8l1.8-0.6L59.6,85.2z"/>
	<path class="st1" d="M68.6,81.4c-0.4-0.5-0.6-0.7-0.9-0.8c-0.3-0.1-0.5-0.1-1.1,0.3L66,81.2l2.6,4.8c0.4,0.8,0.6,0.9,1.5,0.4
		l0.2,0.4l-3.1,1.7L67,88.1c0.8-0.5,0.9-0.7,0.4-1.5l-2.6-4.8L64.4,82c-0.7,0.4-0.9,0.6-0.9,0.9c-0.1,0.2,0,0.6,0.2,1.2l-0.4,0.2
		c-0.3-0.7-0.6-1.5-0.9-2l0.3-0.1c0.3,0.1,0.4,0.1,0.7,0l3.9-2.1c0.3-0.1,0.3-0.3,0.4-0.5l0.3-0.1c0.2,0.4,0.7,1.2,1.1,1.9
		L68.6,81.4z"/>
	<path class="st1" d="M72.8,85.2l-0.3-0.3c0.7-0.6,0.7-0.7,0.2-1.5l-2.6-3.6c-0.6-0.8-0.7-0.8-1.4-0.3l-0.3-0.3l2.6-1.9l0.3,0.3
		c-0.7,0.6-0.7,0.7-0.1,1.5l2.6,3.6c0.6,0.8,0.7,0.8,1.4,0.3l0.3,0.3L72.8,85.2z"/>
	<path class="st1" d="M74.2,74.2c1.4-1.4,3.7-1.4,5.3,0.3c1.7,1.8,1.5,4.1,0,5.5c-1.5,1.5-3.8,1.4-5.4-0.3
		C72.7,78.3,72.4,76,74.2,74.2L74.2,74.2z M74.4,74.8c-0.8,0.8-0.7,2.3,0.7,3.8c1.4,1.5,3.2,2,4.3,1c0.8-0.8,0.8-2.2-0.7-3.7
		C77,74.1,75.3,73.8,74.4,74.8L74.4,74.8z"/>
	<path class="st1" d="M82.3,65.6c-0.4,0.5-0.4,0.8,0,1.1c0.3,0.3,0.7,0.6,1.5,1.2l3.6,2.8L87,71.2l-7.4,0.1l0,0l2.1,1.6
		c0.8,0.6,1.2,0.9,1.5,1.1c0.4,0.3,0.7,0.2,1.2-0.4l0.3,0.3l-1.7,2.2l-0.3-0.3c0.4-0.5,0.4-0.9,0-1.2c-0.3-0.3-0.7-0.6-1.4-1.2
		l-1.9-1.5c-0.6-0.5-0.7-0.5-1.1-0.6c-0.3,0-0.6,0.2-0.9,0.5l-0.3-0.3l1.2-1.5l6.9-0.2l0,0l-1.9-1.4c-0.8-0.6-1.3-0.9-1.5-1.1
		c-0.4-0.2-0.7-0.1-1.2,0.5l-0.3-0.3l1.7-2.2L82.3,65.6z"/>
</g>
</svg>
