<?xml version="1.0" encoding="utf-8"?>
<!-- Generator: Adobe Illustrator 22.1.0, SVG Export Plug-In . SVG Version: 6.00 Build 0)  -->
<svg version="1.1" id="Capa_1" xmlns="http://www.w3.org/2000/svg" xmlns:xlink="http://www.w3.org/1999/xlink" x="0px" y="0px"
	 viewBox="0 0 135.4 35.2" style="enable-background:new 0 0 135.4 35.2;" xml:space="preserve">
<style type="text/css">
	.st0{fill:#75702C;}
</style>
<g>
	<path class="st0" d="M6.6,34.5c-0.1-0.2-0.2-0.5-0.2-0.7c0-0.5,0.1-0.8,0.3-0.9c0.2-0.1,0.5-0.1,0.9-0.1c0.9,0,1.6-0.2,2-0.5
		c0.4-0.3,0.7-0.7,0.8-1.2c0.1-0.5,0.2-1.1,0.2-1.9V6.4H7.4c-1.1,0-1.9,0.3-2.5,0.7C4.3,7.5,3.9,8.2,3.6,9C3.3,9.9,3,11,2.8,12.6
		c0,0.3-0.2,0.5-0.6,0.6c-0.3,0.2-0.7,0.2-1.1,0.2c-0.3,0-0.5-0.1-0.8-0.3C0.1,13,0,12.8,0,12.5l0.1-6.7c0-0.8,0.4-1.1,1.3-1.1h23.3
		c0.8,0,1.2,0.4,1.2,1.1l0.2,6.7c0,0.3-0.1,0.5-0.4,0.7c-0.3,0.2-0.5,0.3-0.8,0.3c-0.4,0-0.7-0.1-1.1-0.2c-0.3-0.2-0.5-0.4-0.5-0.6
		C23,11,22.8,9.8,22.5,9c-0.3-0.8-0.7-1.5-1.3-1.9c-0.6-0.4-1.4-0.7-2.5-0.7h-3.2v22.7c0,0.8,0.1,1.4,0.2,1.9
		c0.1,0.5,0.4,0.9,0.8,1.2c0.4,0.3,1.1,0.5,2,0.5h0.3c0.3,0,0.5,0.1,0.6,0.2c0.1,0.1,0.2,0.4,0.3,0.8c0,0.3-0.1,0.5-0.2,0.7
		c-0.1,0.2-0.4,0.3-0.6,0.3c-2-0.1-3.9-0.1-5.6-0.1c-1.9,0-3.9,0-5.9,0.1C7,34.8,6.8,34.7,6.6,34.5z"/>
	<path class="st0" d="M26.4,33.6c-1.2-1.1-1.8-2.4-1.8-4c0-2,0.7-3.5,2-4.5c1.3-1,2.9-1.6,4.8-1.9c1.8-0.3,4.2-0.5,7.1-0.7v-3.8
		c0-1.6-0.4-2.7-1.2-3.5c-0.8-0.8-2-1.2-3.7-1.2c-1,0-1.8,0.3-2.6,0.9c-0.7,0.6-1.1,1.4-1.1,2.4c0,0.5,0.1,0.9,0.4,1.3
		c0.2,0.3,0.5,0.6,0.8,0.8c0.3,0.2,0.4,0.3,0.4,0.4c0,0.2-0.2,0.4-0.6,0.7c-0.4,0.3-0.9,0.5-1.5,0.5c-1,0-1.7-0.3-2.3-1
		c-0.6-0.7-0.8-1.5-0.8-2.5c0-1.6,0.7-2.9,2.2-3.7c1.5-0.8,3.3-1.2,5.3-1.2c2.6,0,4.7,0.5,6.3,1.5c1.6,1,2.4,2.8,2.4,5.5v11.1
		c0,0.7,0.2,1.3,0.6,1.9c0.4,0.6,1,0.9,1.9,0.9c0.3,0,0.4,0,0.5,0.1c0.1,0.1,0.2,0.3,0.2,0.6c0,0.4-0.3,0.7-0.9,0.8
		c-0.6,0.2-1.2,0.3-1.7,0.3c-1.2,0-2.3-0.3-3.2-1c-0.9-0.7-1.4-1.6-1.6-2.8c-0.7,1.2-1.7,2.2-3.1,2.9c-1.4,0.7-2.9,1-4.4,1
		C29.1,35.2,27.6,34.7,26.4,33.6z M35.5,31.9c0.9-0.5,1.6-1.3,2.2-2.2c0.5-0.9,0.8-2,0.8-3.1v-2.7c-3.3,0.3-5.7,0.8-7,1.6
		c-1.4,0.8-2,2.2-2,4c0,2.2,1,3.2,3.1,3.2C33.6,32.7,34.6,32.4,35.5,31.9z"/>
	<path class="st0" d="M47.2,34.5c-0.1-0.2-0.2-0.4-0.2-0.7c0-0.4,0.1-0.7,0.3-0.7c0.2-0.1,0.4-0.1,0.9-0.1c0.8,0,1.4-0.1,1.8-0.4
		c0.3-0.3,0.5-0.6,0.6-1c0-0.4,0.1-1,0.1-1.8V18.9c0-0.8,0-1.4-0.1-1.8c0-0.4-0.2-0.7-0.6-1c-0.3-0.3-0.9-0.4-1.8-0.4
		c-0.4,0-0.7-0.1-0.9-0.2c-0.2-0.1-0.3-0.4-0.3-0.8c0-0.2,0.1-0.4,0.2-0.5c0.1-0.2,0.3-0.3,0.6-0.3c2.1-0.3,3.8-0.7,5.1-1.2
		c0.5-0.2,0.9-0.3,1.1-0.3h0.1c0.5,0,0.8,0.3,0.8,0.9v3H55c0.9-0.9,1.7-1.5,2.2-2c0.6-0.5,1.3-0.9,2.2-1.2c0.9-0.3,2-0.5,3.2-0.5
		c2.2,0,3.9,0.6,5.1,1.9c1.3,1.3,1.9,3,1.9,5.1v10.1c0,0.8,0,1.4,0.1,1.8c0.1,0.4,0.3,0.7,0.6,1c0.3,0.3,0.9,0.4,1.8,0.4h0.3
		c0.3,0,0.4,0,0.6,0.1c0.1,0.1,0.2,0.3,0.2,0.7c0,0.3-0.1,0.5-0.2,0.7c-0.1,0.2-0.3,0.3-0.5,0.3c-1.8-0.1-3.5-0.1-5-0.1
		c-1.4,0-3.1,0-4.9,0.1c-0.2,0-0.4-0.1-0.5-0.3c-0.1-0.2-0.2-0.4-0.2-0.7c0-0.4,0.1-0.7,0.3-0.7c0.1-0.1,0.4-0.1,0.8-0.1
		c0.8,0,1.4-0.1,1.8-0.4c0.3-0.3,0.6-0.6,0.6-1c0.1-0.4,0.1-1,0.1-1.8V19.7c0-1.5-0.5-2.6-1.4-3.4c-0.9-0.8-2-1.2-3.2-1.2
		c-1.5,0-2.7,0.4-3.8,1.1c-1,0.7-1.8,1.5-2.1,2.2v11.3c0,0.8,0,1.4,0.1,1.8c0.1,0.4,0.3,0.7,0.6,1c0.3,0.3,0.9,0.4,1.8,0.4h0.3
		c0.3,0,0.4,0,0.6,0.1c0.1,0.1,0.2,0.3,0.2,0.7c0,0.3-0.1,0.5-0.2,0.7c-0.1,0.2-0.3,0.3-0.6,0.3c-1.8-0.1-3.5-0.1-5-0.1
		c-1.4,0-3.1,0-4.9,0.1C47.5,34.8,47.3,34.7,47.2,34.5z"/>
	<path class="st0" d="M79.8,33.7c-1.7-1-3-2.4-3.9-4.1c-0.9-1.7-1.4-3.5-1.4-5.4c0-2.4,0.6-4.4,1.7-6.2c1.1-1.8,2.5-3.1,4.2-4
		c1.7-0.9,3.4-1.4,5.2-1.4c2.2,0,4.1,0.5,5.8,1.5c1.7,1,3,2.4,3.9,4.1c0.9,1.7,1.4,3.5,1.4,5.4c0,2.4-0.6,4.4-1.7,6.2
		c-1.1,1.8-2.5,3.1-4.3,4c-1.7,0.9-3.4,1.4-5.1,1.4C83.4,35.2,81.5,34.7,79.8,33.7z M90.3,30.7c1-1.8,1.5-4.2,1.5-7.1
		c0-2.7-0.5-5-1.5-6.7c-1-1.7-2.6-2.6-4.7-2.6c-2.2,0-3.8,0.9-4.8,2.7c-1,1.8-1.5,4.2-1.5,7.1c0,2.7,0.5,5,1.5,6.7
		c1,1.8,2.6,2.6,4.7,2.6C87.7,33.5,89.3,32.6,90.3,30.7z"/>
	<path class="st0" d="M98.8,34.5c-0.1-0.2-0.2-0.4-0.2-0.7c0-0.4,0.1-0.7,0.3-0.7c0.2-0.1,0.4-0.1,0.9-0.1c0.8,0,1.4-0.1,1.8-0.4
		c0.3-0.3,0.5-0.6,0.6-1c0-0.4,0.1-1,0.1-1.8V18.9c0-0.8,0-1.4-0.1-1.8c0-0.4-0.2-0.7-0.6-1c-0.3-0.3-0.9-0.4-1.8-0.4
		c-0.4,0-0.7-0.1-0.9-0.2c-0.2-0.1-0.3-0.4-0.3-0.8c0-0.2,0.1-0.4,0.2-0.5c0.1-0.2,0.3-0.3,0.6-0.3c2-0.3,3.7-0.7,5.1-1.2
		c0.4-0.2,0.8-0.3,1.1-0.3h0.1c0.5,0,0.8,0.3,0.8,0.9v16.5c0,0.8,0,1.4,0.1,1.8c0.1,0.4,0.3,0.7,0.6,1c0.3,0.3,0.9,0.4,1.8,0.4h0.3
		c0.3,0,0.4,0,0.6,0.1c0.1,0.1,0.2,0.3,0.2,0.7c0,0.3-0.1,0.5-0.2,0.7c-0.1,0.2-0.3,0.3-0.6,0.3c-1.8-0.1-3.5-0.1-5-0.1
		c-1.4,0-3.1,0-4.9,0.1C99.2,34.8,99,34.7,98.8,34.5z M101.9,6.2c-0.6-0.6-0.9-1.2-0.9-2.1c0-0.7,0.4-1.4,1.1-1.9
		c0.7-0.6,1.6-0.9,2.5-0.9c0.8,0,1.4,0.3,1.9,0.8c0.5,0.6,0.8,1.3,0.8,2.1c0,0.8-0.3,1.4-0.9,1.9C105.7,6.8,105,7,104.1,7
		C103.2,7,102.5,6.8,101.9,6.2z"/>
	<path class="st0" d="M111.2,34.5c-0.1-0.2-0.2-0.4-0.2-0.7c0-0.4,0.1-0.7,0.3-0.7c0.1-0.1,0.4-0.1,0.8-0.1c0.8,0,1.4-0.1,1.8-0.4
		c0.3-0.3,0.6-0.6,0.6-1c0.1-0.4,0.1-1,0.1-1.8V6.6c0-0.8,0-1.4-0.1-1.8s-0.2-0.7-0.6-1c-0.3-0.3-0.9-0.4-1.8-0.4
		c-0.4,0-0.7-0.1-0.9-0.2c-0.2-0.1-0.3-0.4-0.3-0.8c0-0.2,0.1-0.4,0.2-0.5c0.1-0.2,0.3-0.3,0.6-0.3c2-0.3,3.7-0.7,5.1-1.2
		c0.4-0.2,0.8-0.3,1.1-0.3h0.1c0.5,0,0.8,0.3,0.8,0.9v28.9c0,0.8,0,1.4,0.1,1.8c0.1,0.4,0.3,0.7,0.6,1c0.3,0.3,0.9,0.4,1.8,0.4h0.3
		c0.3,0,0.4,0,0.6,0.1c0.1,0.1,0.2,0.3,0.2,0.7c0,0.3-0.1,0.5-0.2,0.7c-0.1,0.2-0.3,0.3-0.6,0.3c-1.8-0.1-3.5-0.1-5-0.1
		c-1.4,0-3.1,0-4.9,0.1C111.6,34.8,111.4,34.7,111.2,34.5z"/>
	<path class="st0" d="M124.1,34.5c-0.1-0.2-0.2-0.4-0.2-0.7c0-0.4,0.1-0.7,0.3-0.7c0.2-0.1,0.4-0.1,0.9-0.1c0.8,0,1.4-0.1,1.8-0.4
		c0.3-0.3,0.5-0.6,0.6-1c0-0.4,0.1-1,0.1-1.8V18.9c0-0.8,0-1.4-0.1-1.8c0-0.4-0.2-0.7-0.6-1c-0.3-0.3-0.9-0.4-1.8-0.4
		c-0.4,0-0.7-0.1-0.9-0.2c-0.2-0.1-0.3-0.4-0.3-0.8c0-0.2,0.1-0.4,0.2-0.5c0.1-0.2,0.3-0.3,0.6-0.3c2-0.3,3.7-0.7,5.1-1.2
		c0.4-0.2,0.8-0.3,1.1-0.3h0.1c0.5,0,0.8,0.3,0.8,0.9v16.5c0,0.8,0,1.4,0.1,1.8c0.1,0.4,0.3,0.7,0.6,1c0.3,0.3,0.9,0.4,1.8,0.4h0.3
		c0.3,0,0.4,0,0.6,0.1c0.1,0.1,0.2,0.3,0.2,0.7c0,0.3-0.1,0.5-0.2,0.7c-0.1,0.2-0.3,0.3-0.6,0.3c-1.8-0.1-3.5-0.1-5-0.1
		c-1.4,0-3.1,0-4.9,0.1C124.5,34.8,124.3,34.7,124.1,34.5z M127.1,6.2c-0.6-0.6-0.9-1.2-0.9-2.1c0-0.7,0.4-1.4,1.1-1.9
		c0.7-0.6,1.6-0.9,2.5-0.9c0.8,0,1.4,0.3,1.9,0.8c0.5,0.6,0.8,1.3,0.8,2.1c0,0.8-0.3,1.4-0.9,1.9C131,6.8,130.3,7,129.4,7
		C128.5,7,127.7,6.8,127.1,6.2z"/>
</g>
</svg>
