<svg xmlns="http://www.w3.org/2000/svg" viewBox="0 0 22.04 22.06"><defs><style>.cls-1{fill:#75702c;}</style></defs><title>bad-fact</title><g id="Capa_2" data-name="Capa 2"><g id="Capa_1-2" data-name="Capa 1"><path class="cls-1" d="M18.81,3.23A11,11,0,1,0,3.23,18.82,11,11,0,0,0,18.81,3.23Zm-.75,14.84a10,10,0,0,1-17-7,10,10,0,0,1,17-7,9.95,9.95,0,0,1,0,14.08ZM14.37,8.46l-2.69,2.68,2.69,2.69a.54.54,0,0,1,0,.75.5.5,0,0,1-.38.14.63.63,0,0,1-.37-.14l-2.69-2.69L8.25,14.58a.5.5,0,0,1-.38.14.63.63,0,0,1-.37-.14.54.54,0,0,1,0-.75l2.68-2.69L7.5,8.46a.53.53,0,0,1,.75-.75l2.68,2.68,2.69-2.68a.53.53,0,0,1,.75.75Z"/></g></g></svg>