<?xml version="1.0" encoding="utf-8"?>
<!-- Generator: Adobe Illustrator 22.1.0, SVG Export Plug-In . SVG Version: 6.00 Build 0)  -->
<svg version="1.1" id="Capa_1" xmlns="http://www.w3.org/2000/svg" xmlns:xlink="http://www.w3.org/1999/xlink" x="0px" y="0px"
	 viewBox="0 0 20 20" style="enable-background:new 0 0 20 20;" xml:space="preserve">
<style type="text/css">
	.st0{fill:#D0661B;}
</style>
<g>
	<path class="st0" d="M17.1,2.9C13.2-1,6.9-1,2.9,2.9C-1,6.9-1,13.2,2.9,17.1s10.2,3.9,14.2,0C21,13.2,21,6.9,17.1,2.9z M4.2,15.8
		C1,12.6,1,7.4,4.2,4.2s8.4-3.2,11.6,0s3.2,8.4,0,11.6S7.4,19,4.2,15.8z"/>
	<path class="st0" d="M13.2,12L11.3,10l1.9-1.9c0.4-0.4,0.4-0.9,0-1.3c-0.4-0.4-0.9-0.4-1.3,0L10,8.7L8.1,6.8
		c-0.4-0.4-0.9-0.4-1.3,0c-0.4,0.4-0.4,0.9,0,1.3L8.7,10L6.8,12c-0.4,0.4-0.4,0.9,0,1.3c0.4,0.4,0.9,0.4,1.3,0l1.9-1.9l1.9,1.9
		c0.4,0.4,0.9,0.4,1.3,0C13.6,12.9,13.6,12.3,13.2,12z"/>
</g>
</svg>
