<?xml version="1.0" encoding="utf-8"?>
<!-- Generator: Adobe Illustrator 22.1.0, SVG Export Plug-In . SVG Version: 6.00 Build 0)  -->
<svg version="1.1" id="Capa_1" xmlns="http://www.w3.org/2000/svg" xmlns:xlink="http://www.w3.org/1999/xlink" x="0px" y="0px"
	 viewBox="0 0 20 20" style="enable-background:new 0 0 20 20;" xml:space="preserve">
<style type="text/css">
	.st0{fill:#ABAD19;}
</style>
<g>
	<path class="st0" d="M19.1,8.3c-0.5,0-0.9,0.4-0.9,0.9V10c0,4.5-3.6,8.1-8.1,8.1S1.9,14.5,1.9,10S5.5,1.9,10,1.9
		c1.2,0,2.3,0.3,3.4,0.7c0.5,0.2,1,0,1.2-0.5s0-1-0.5-1.2C12.8,0.4,11.5,0,10,0C4.5,0,0,4.4,0,10c0,5.5,4.4,10,10,10s10-4.4,10-10
		V9.2C20,8.7,19.6,8.3,19.1,8.3z"/>
	<path class="st0" d="M7.9,8.5C7.6,8.1,7,8.1,6.7,8.5c-0.4,0.4-0.4,0.9,0,1.3l2.7,2.7c0.2,0.2,0.4,0.3,0.6,0.3s0.5-0.1,0.6-0.3
		l9.1-9.1c0.4-0.4,0.4-0.9,0-1.3s-0.9-0.4-1.3,0L10,10.6L7.9,8.5z"/>
</g>
</svg>
