<svg xmlns="http://www.w3.org/2000/svg" viewBox="0 0 80.75 24.33"><defs><style>.cls-1{opacity:0.8;}.cls-2{fill:#505326;fill-rule:evenodd;}</style></defs><title>amazon-ico</title><g id="Capa_2" data-name="Capa 2"><g id="Capa_1-2" data-name="Capa 1"><g class="cls-1"><path class="cls-2" d="M50.09,19c-4.69,3.46-11.49,5.3-17.35,5.3a31.4,31.4,0,0,1-21.19-8.08c-.44-.4-.05-.94.48-.63a42.7,42.7,0,0,0,21.21,5.62,42.18,42.18,0,0,0,16.17-3.31c.8-.33,1.46.53.68,1.1Z"/><path class="cls-2" d="M52.05,16.8c-.6-.77-4-.36-5.48-.18-.46.05-.53-.35-.12-.64,2.69-1.88,7.09-1.34,7.6-.71s-.14,5.05-2.65,7.16c-.39.32-.76.15-.59-.28.57-1.41,1.84-4.58,1.24-5.35Z"/><path class="cls-2" d="M46.67,2.66V.82a.47.47,0,0,1,.47-.46h8.21a.46.46,0,0,1,.48.46V2.39a2.71,2.71,0,0,1-.62,1.16L51,9.62a9.18,9.18,0,0,1,4.69,1,.83.83,0,0,1,.43.72v2c0,.27-.29.58-.6.42a9.46,9.46,0,0,0-8.68,0c-.29.15-.58-.16-.58-.43V11.45a2.21,2.21,0,0,1,.3-1.26l4.93-7.07H47.15a.47.47,0,0,1-.48-.46Z"/><path class="cls-2" d="M16.71,14.11h-2.5a.48.48,0,0,1-.45-.43V.86a.47.47,0,0,1,.48-.47h2.32A.48.48,0,0,1,17,.82V2.5h0a3.43,3.43,0,0,1,6.53,0,3.68,3.68,0,0,1,6.34-1c.8,1.08.63,2.64.63,4v8.09a.47.47,0,0,1-.48.47H27.6a.48.48,0,0,1-.45-.47V6.84a16,16,0,0,0-.07-2.4,1.29,1.29,0,0,0-1.47-1.1,1.66,1.66,0,0,0-1.49,1,7.65,7.65,0,0,0-.23,2.45v6.8a.48.48,0,0,1-.48.47h-2.5a.48.48,0,0,1-.45-.47V6.84c0-1.43.23-3.53-1.54-3.53s-1.73,2.05-1.73,3.53v6.8a.47.47,0,0,1-.48.47Z"/><path class="cls-2" d="M62.92,2.74c-1.84,0-2,2.51-2,4.08s0,4.91,1.94,4.91,2-2.7,2-4.35A11.8,11.8,0,0,0,64.55,4a1.56,1.56,0,0,0-1.63-1.24Zm0-2.62c3.71,0,5.71,3.19,5.71,7.24s-2.21,7-5.71,7-5.62-3.19-5.62-7.16,2-7.1,5.62-7.1Z"/><path class="cls-2" d="M73.42,14.11H70.93a.47.47,0,0,1-.44-.47V.81A.48.48,0,0,1,71,.39h2.32a.47.47,0,0,1,.44.36v2h0C74.47,1,75.45.12,77.18.12a3.27,3.27,0,0,1,2.91,1.52c.66,1,.66,2.75.66,4V13.7a.49.49,0,0,1-.48.41H77.76a.47.47,0,0,1-.44-.41v-7c0-1.41.16-3.46-1.57-3.46a1.64,1.64,0,0,0-1.44,1,5.68,5.68,0,0,0-.4,2.43v6.9a.48.48,0,0,1-.49.47Z"/><path class="cls-2" d="M42.64,14.07a.51.51,0,0,1-.59.06,6.29,6.29,0,0,1-1.43-1.66,5,5,0,0,1-4.12,1.81,3.55,3.55,0,0,1-3.74-3.89A4.25,4.25,0,0,1,35.43,6.3a17.34,17.34,0,0,1,4.7-.86V5.11a3.2,3.2,0,0,0-.31-1.81,1.67,1.67,0,0,0-1.4-.65,1.91,1.91,0,0,0-2,1.5.52.52,0,0,1-.43.46l-2.43-.26a.44.44,0,0,1-.37-.52C33.74.89,36.39,0,38.77,0a5.65,5.65,0,0,1,3.76,1.24c1.22,1.14,1.1,2.66,1.1,4.31V9.44a3.39,3.39,0,0,0,.95,2.31.48.48,0,0,1,0,.67c-.51.43-1.42,1.21-1.92,1.66ZM40.13,8a4.92,4.92,0,0,1-.47,2.65,2,2,0,0,1-1.73,1.14c-1,0-1.52-.73-1.52-1.82,0-2.12,1.91-2.51,3.72-2.51V8Z"/><path class="cls-2" d="M9.88,14.07a.51.51,0,0,1-.59.06,6.11,6.11,0,0,1-1.43-1.66,5,5,0,0,1-4.12,1.81A3.55,3.55,0,0,1,0,10.39,4.25,4.25,0,0,1,2.67,6.3a17.27,17.27,0,0,1,4.69-.86V5.11a3.2,3.2,0,0,0-.3-1.81,1.67,1.67,0,0,0-1.4-.65,1.9,1.9,0,0,0-2,1.5.52.52,0,0,1-.44.46L.79,4.35a.44.44,0,0,1-.37-.52C1,.89,3.63,0,6,0A5.67,5.67,0,0,1,9.77,1.24c1.22,1.14,1.1,2.66,1.1,4.31V9.44a3.43,3.43,0,0,0,.94,2.31.48.48,0,0,1,0,.67c-.51.43-1.42,1.21-1.92,1.66ZM7.36,8a4.92,4.92,0,0,1-.46,2.65,2,2,0,0,1-1.73,1.14c-1,0-1.52-.73-1.52-1.82,0-2.12,1.91-2.51,3.71-2.51V8Z"/></g></g></g></svg>