<svg xmlns="http://www.w3.org/2000/svg" viewBox="0 0 158.85 167.58"><defs><style>.cls-1{opacity:0.4;}.cls-2{fill:#615d24;}</style></defs><title>hoja-right</title><g id="Capa_2" data-name="Capa 2"><g id="Capa_1-2" data-name="Capa 1"><g class="cls-1"><path class="cls-2" d="M135.68,159.12c-4-8.4-9-19.15-9.46-20.15s-.81-4.53-1.6-14a86.33,86.33,0,0,0-5.55-24.71C113,84.3,107.11,73,99,61.58A137.3,137.3,0,0,0,79.5,39.1C72,32,69.35,29.67,63.81,25.46c-3.58-2.72-12.62-8.81-13-8.74a1.09,1.09,0,0,0-.61.5c-.6,1-1,9.66-.67,15.77a185.92,185.92,0,0,0,3.27,19.39,88.14,88.14,0,0,0,8,21.72c1.68,3.08,7,11.74,9.47,15.58,4.88,7.4,12.82,16.55,22.09,25.43a201.11,201.11,0,0,0,23.25,19.42c7.27,5.36,6.37,4.46,7.74,7.62.66,1.54,2.17,5.08,3.34,7.89,5.63,13.46,6.88,16.05,8.26,17a1.93,1.93,0,0,0,1.89.44,3,3,0,0,0,1.48-.61c.4-.39.41-.58.14-1.53C138.28,164.77,137,162,135.68,159.12ZM108,99.11c-.28-1.81-.59-4.4-.7-5.79a109.71,109.71,0,0,0-3.5-19.82l-.25-.85.41.6c.23.32,1.22,2.06,2.22,3.86a135.13,135.13,0,0,1,6.63,13.72c2.63,6.07,2.57,5.86,3.22,12.08.39,3.79,1.29,15.53,1.2,15.66a20.21,20.21,0,0,1-1.28-2.31c-1.29-2.5-1.29-2.5-1.58-6.69-.06-.91-.14-1.14-.38-1.1s-.34,1.35-.1,3.14l.11.76-.42-.6c-.47-.66-.62-1.85-.8-6.33-.14-3.68-1.33-14.91-1.6-15.12-.12-.1-.25-.1-.31,0s.12,2.35.4,5.05.62,6.72.74,9,.25,4.29.26,4.53a13.77,13.77,0,0,1-1.87-3l-1.9-3.47ZM85.51,48.22a192.81,192.81,0,0,1,15.2,19.88c2,3.07,3.06,6.71,4.28,14,.52,3.16,1,6.69,1,7.85s.27,3.76.51,5.79.38,3.74.33,3.79A24.71,24.71,0,0,1,105,96.61l-1.79-3-.46-4.89c-.47-5.1-.82-7.2-1.19-7.14-.12,0-.17.45-.11,1,.45,3.8,1,9.28.91,9.45s-.45-.34-.92-1a3.26,3.26,0,0,1-.82-2.74,92.24,92.24,0,0,0-1.41-10C97.64,68.84,97,65.83,96.45,65.91c-.25,0-.21.4.22,2.13.79,3.19,3.49,19.6,3.3,20.1-.12.33-.49-.1-2-2.32L96.11,83.1l-1-4.43c-1.94-9-4.54-16.3-10-28.25l-2.09-4.56C82.78,45.31,83.92,46.41,85.51,48.22ZM66.12,29.87c.5.4,2.06,1.75,3.47,3s2.76,2.46,3,2.73a37.32,37.32,0,0,1,2.15,5.1,48,48,0,0,0,1.91,4.79c.6.46.37-.53-1-4.2-.83-2.21-1.47-4.05-1.44-4.1a7.66,7.66,0,0,1,1.42,1.24,6.56,6.56,0,0,1,2.06,3.34c.54,1.49.8,2,1,1.94s.29-.2.13-.62c-.69-1.83-.81-2.27-.57-2.09A25.37,25.37,0,0,1,82,44.88c.12.31,1.33,3,2.69,6.06A143.3,143.3,0,0,1,91.63,68.4c.85,2.65,1.34,4.48,2.8,10.46.46,1.88.29,2-.63.32-.31-.56-2.13-3.53-4-6.6-3.14-5-3.49-5.71-3.7-6.93-.3-1.82-2.89-12.11-3.59-14.31-.37-1.17-.68-1.8-.89-1.84s-.25.18,0,1.2c1,3.56,1.38,4.83,2.48,9.31.66,2.67,1.18,5,1.16,5.11s-.47-.41-1-1.22c-3.45-5.33-6.48-9.91-7.35-11.1a13.06,13.06,0,0,1-1.75-3.49A81.69,81.69,0,0,0,69.85,37.6c-1-1.73-2.43-4.35-3.21-5.81l-1.42-2.66ZM84,65.28c0,.06-.27-.07-.59-.29a77.57,77.57,0,0,1-5.47-7.76c-2.66-4-5.49-8.28-6.28-9.43s-1.44-2.13-1.45-2.2c0-.3,1.27,1.41,4.1,5.28,1.64,2.25,4,5.59,5.13,7.42s2.68,4.11,3.34,5.09S84,65.21,84,65.28ZM55.81,22.19l3.13,2.08,1.6,3.08a16.74,16.74,0,0,0,1.79,3c.35-.06,0-1-1-2.85a12.9,12.9,0,0,1-1-2,5.89,5.89,0,0,1,1.72,1.15,7,7,0,0,1,2.64,3.26c.51,1.06,1.93,3.67,3.15,5.82s2.72,4.88,3.35,6.06a44.63,44.63,0,0,1,3,7c0,.34-4.42-5.6-10.11-13.6-2-2.79-5.14-7-7-9.42s-3.65-4.64-3.93-5S53.43,20.6,55.81,22.19Zm10.25,17.5a15.17,15.17,0,0,1-1.66-2.06,26.65,26.65,0,0,1-1.74-2.5,16,16,0,0,1,1.66,2.06A24.63,24.63,0,0,1,66.06,39.69Zm-3.55-5a13.34,13.34,0,0,1-1.42-1.79A13,13,0,0,1,59.83,31a13.83,13.83,0,0,1,1.43,1.79A12.51,12.51,0,0,1,62.51,34.72ZM51,27l0-1.86,1.08,1.29c1.39,1.67,2.16,2.43,2.41,2.39s.13-.43-1.68-2.53C51.37,24.65,51,24.06,51,23.62c.11-1.56.21-2.32.3-2.26s2.15,3,4.67,6.53,6.52,9.21,8.91,12.56c3.82,5.35,7,10,7.08,10.33s-6.27-5.9-8.81-8.59C59.83,38.66,52.37,30.56,51.5,29.54,50.94,28.87,50.92,28.81,51,27Zm2.53,20.31c-1.16-5.26-2.81-16.74-2.41-16.81a9.33,9.33,0,0,1,1.1,1.11c9.89,10.94,19.7,20.92,20.77,21.12.25.05,1.43,1.72,3.33,4.72,1.63,2.56,3,4.71,3,4.78s-4.35-2.66-8.84-5.76a83.49,83.49,0,0,1-9.84-7.8c-1.46-1.39-2-1.67-1.85-1.1s5,4.79,8.23,7.2c1.82,1.35,5.53,3.91,8.21,5.67s5,3.35,5.16,3.51c.73.79,9.07,14.28,9,14.46A35.25,35.25,0,0,1,86.54,76c-4.83-4.51-6.45-5.78-24.21-18.88-3.31-2.43-6.45-4.82-7-5.32l-1-.91ZM57.39,61.6s1.48,1.07,3.23,2.47c4.91,3.94,9.56,7.24,9.85,7s-.6-.8-2.44-2.12c-1.45-1.05-4.59-3.45-6.92-5.31-3.74-3-4.3-3.51-4.56-4.3a4.46,4.46,0,0,1-.26-1.17c0-.24,3.34,2.32,6.23,4.82.93.8,1.64,1.08,1.56.61a60.1,60.1,0,0,0-5.79-4.94,20.44,20.44,0,0,1-2.55-2.26A16.17,16.17,0,0,1,55,54.05l-.48-1.92L56.93,54c1.31,1,3.47,2.64,4.81,3.64,3,2.26,15.51,11.85,17.28,13.26,3.36,2.69,8.92,7.67,11.73,10.52,1,1,5.67,7.92,5.51,8.15,0,0-2.55-1.36-5.62-3.13-8.66-5-10.84-6.15-11-5.89s.65.72,2.23,1.61c1.33.74,4.64,2.64,7.35,4.2s5.62,3.22,6.45,3.67l1.51.82,2.19,3.54c1.21,2,2.17,3.58,2.14,3.62-.27.39-9.35-4.28-13.26-6.82-1-.62-3.31-2-5.2-3.1A171.63,171.63,0,0,1,65.54,76.73a8.08,8.08,0,0,1-3.14-3.48C60.75,70.25,57.17,61.91,57.39,61.6Zm9,18.52c-.85-1.37-1.55-2.56-1.56-2.6s1.84,1.16,4.08,2.68,5.3,3.53,6.78,4.45,4.72,2.84,7.19,4.27,5.55,3.24,6.85,4a84.41,84.41,0,0,0,10,5.12,12.6,12.6,0,0,1,2.6,1.31,51.51,51.51,0,0,1,3.18,5.32s-1.92-1-4.24-2.36S96,99.38,94.75,98.71c-8.58-4.42-19.45-10.79-24-14l-2.84-2Zm19.24,25.41-2.55-2.65L85.17,104c1.14.61,3.68,1.85,5.69,2.79s4.55,2.16,5.68,2.75c1.84.94,2.44,1.1,2.36.6a82.41,82.41,0,0,0-8.65-4.36c-6.22-2.9-8.32-4.26-10.66-6.91C77,96,77.06,96,81.85,98.84s8.84,5.07,9.25,5c.6-.1.07-.52-2-1.62-1.25-.65-4.71-2.65-7.69-4.44L76,94.52l-1.43-2c-1.53-2.08-3.78-5.41-4.78-7.09l-.61-1L72.74,87A197.25,197.25,0,0,0,94,99.68c2.09,1.1,5.71,3.08,8.08,4.4,3.52,2,4.38,2.56,4.85,3.28a2.66,2.66,0,0,0,.9.94,1.33,1.33,0,0,0,1.41-.81c.11-.75-2.28-4.67-15.39-25.31-2.3-3.6-5-7.86-6-9.48S85.6,69,85,68c-.86-1.31-1.13-1.89-1-2.09.26-.37,0-.71,4.24,6,2,3.23,4.45,7.22,5.42,8.9s2.23,3.72,2.81,4.55a246,246,0,0,1,12.9,21c1.14,2.18,2.1,4,2.11,4.13s-.17.16-.4.14a1.31,1.31,0,0,0-1.29,1c-.06.41-.43.29-3.62-1.17-2.19-1-3.61-1.53-3.71-1.39-.21.3-.14.34,4.33,2.39,2.66,1.22,3.59,1.75,3.76,2.17a1.13,1.13,0,0,1,.15.68,44.85,44.85,0,0,1-4.75-2.27c-3.22-1.66-4.72-2.31-4.85-2.13s1.15,1,4.18,2.51c2.39,1.23,4.77,2.43,5.26,2.65a2.78,2.78,0,0,1,1.42,1.39,3,3,0,0,1,.43,1.12,45,45,0,0,1-5-2c-3.34-1.43-5-2-5.14-1.87s1.08.88,7.73,3.67l3.16,1.32.86,1.62a10.47,10.47,0,0,1,.79,1.71,22.62,22.62,0,0,1-2.86-1.36c-1.55-.8-4.45-2.27-6.5-3.29C99,114.24,92,110.55,90.07,109.34A22.1,22.1,0,0,1,85.66,105.53Zm5,5.1c-.32-.31,2.49,1.22,7.94,4.31,4.14,2.34,15.08,8.11,16.27,8.56a2.45,2.45,0,0,1,1.31,1.22,2.37,2.37,0,0,1,.39.93,61.45,61.45,0,0,1-7-3.17c-3.76-1.93-13.2-7.25-14.8-8.33A30.19,30.19,0,0,1,90.63,110.63ZM99,118.37c-1.42-1.12-1.6-1.52-.37-.82l4.67,2.59a122.28,122.28,0,0,0,11.66,5.79c1.63.66,2.41,1.11,2.56,1.45s.31.65.43.85C118.47,129.14,101.3,120.21,99,118.37Zm3.45,3a25,25,0,0,1,2.39,1.23c2.59,1.42,8.88,4.64,11.82,6,1.69.81,2.59,1.56,2.31,2s-8.72-4-12.83-6.41C104.33,123.07,102.12,121.39,102.43,121.33Zm6.77,5.6c-.81-.65-.45-.51,2,.77,1.66.86,4.25,2.12,5.72,2.79l2.7,1.22,1.08,2.22a20.39,20.39,0,0,1,1,2.3C121.71,136.3,111,128.39,109.2,126.93Zm12.87-5.22c.45,5.81.59,8.27.47,8.29a8,8,0,0,1-.92-1.81c-.77-1.8-.79-1.9-1-5.29s-.48-4.58-.77-3.84a10.12,10.12,0,0,0,0,2.29c.28,3.18.2,3.34-.75,1.31l-.82-1.76-.59-7.54c-.32-4.14-.73-8.85-.92-10.45a22.67,22.67,0,0,1-.23-2.84,22.61,22.61,0,0,1,.91,2.23A83.53,83.53,0,0,1,122.07,121.71Zm7.31,30.82c0,.19-.09.15-.15-.11s0-.35.06-.3A.47.47,0,0,1,129.38,152.53Zm.36.83c0,.19-.09.15-.15-.11s0-.35.06-.29A.42.42,0,0,1,129.74,153.36Zm4.78,10.82c-.66-1.14-4.53-9.74-4.61-10.26s.25.13,2.65,5.28c1.38,3,2.58,5.55,2.68,5.75C135.63,165.78,135.14,165.25,134.52,164.18Z"/><path class="cls-2" d="M2.66,81.34c7.83,13.73,8.93,15.19,19.4,25.7,8.75,8.79,11.77,11.34,20.05,17a187,187,0,0,0,24.17,13.32c6.74,3,15.65,5.64,28.06,8.43,17,3.8,18.62,4.21,22.63,5.6l2.66.92,4.44,4.44c2.44,2.44,5.77,5.85,7.4,7.57,3.45,3.64,3.47,3.65,4.68,2.45,1-1,1.3-2,.79-2.9s-8.52-9.43-11.24-11.84c-1.23-1.08-3.41-2.81-4.86-3.85l-2.62-1.89-1.12-2.45c-1.33-2.91-9.44-18.3-11.11-21.08-3.42-5.72-9.17-13.07-16.3-20.86A81.77,81.77,0,0,0,72.84,87.62c-7.35-4.45-20.43-9.26-30.6-11.27a157.51,157.51,0,0,0-23.6-2.68c-5.93-.2-16.57.28-17.73.81l-.39.17a6.49,6.49,0,0,0-.36.76C-.2,76.3-.17,76.4,2.66,81.34ZM6,79.44s12.49,5.41,14.72,6.44l3.77,1.77,2,.93-3.19.13c-1.76.08-5.08.15-7.43.17l-4.23,0-.69-1.12a9.77,9.77,0,0,1-.68-1.24,16.15,16.15,0,0,1,2.85.11c2.59.21,3.54.12,3.12-.29A20.78,20.78,0,0,0,12.83,86l-3.19-.22-.53-.89c-.29-.49-.48-.94-.42-1a15.74,15.74,0,0,1,2.66.14c2.3.23,3,.16,2.58-.24a19.53,19.53,0,0,0-3-.42l-2.82-.29L7,81.26C6.44,80.28,6,79.45,6,79.44Zm20.09,4.35-2.84-.89L20.37,82l-2.23-2.09c-1.6-1.49-2.32-2-2.5-2s.13.52,1.33,1.74l1.6,1.62-1.3-.41c-1-.33-1.26-.48-1.12-.68s-.14-.57-1.08-1.52-1.29-1.19-1.38-1,.26.69,1,1.46l1.1,1.2-2.89-.89c-1.59-.49-4-1.36-5.34-1.93a21.86,21.86,0,0,1-2.45-1.13c0-.1,10.37-.49,11.4-.43.76,0,3.92,2.49,7.08,5.45Zm13.73,6.66c-.07.06-.4-.09-.76-.35s-1.77-1-3.13-1.73c-2.46-1.27-2.48-1.28-3.83-2.94-1.56-1.91-3.23-3.48-3.45-3.26A6.16,6.16,0,0,0,30,84.07c.85,1,1.62,1.85,1.74,2s-.63-.09-1.67-.52l-1.87-.77-3-2.91a60.81,60.81,0,0,0-4.78-4.24c-1-.73-1.79-1.35-1.79-1.38a44.06,44.06,0,0,1,6.39.18c2.13.2,2.3.26,3.38,1.13C31.23,79.85,40.22,90,39.79,90.45Zm.65-12L42,80.14c.88.93,3.34,3.91,5.48,6.65C51,91.22,57.39,99.18,59,101c.49.56.24.46-1.64-.67a9.82,9.82,0,0,1-2.75-2.07C52.06,94.77,42.84,84.61,42.5,84.94c-.17.17,1.77,2.5,3.66,4.39,1.35,1.36,6.84,7.74,7.06,8.22S49,95.52,48.75,95s-4.44-5.64-5.88-7.19c-.59-.64-1.13-1.08-1.24-1s.32.83,3.35,4.45c3.26,3.9,3.26,3.89.4,2.36a12.59,12.59,0,0,1-5.56-4.92,74.07,74.07,0,0,0-6.09-6.8L28.8,76.74l1.77.22c3,.37,3.56.5,3.56.9s2.41,2.85,2.58,2.52c.08-.16-.29-.71-1-1.56l-1.15-1.3,3,.46Zm17.1,5.09c.27.28,2.18,2.56,4.25,5.07s4.84,5.79,6.15,7.29,4.18,4.94,6.36,7.64,4.66,5.74,5.51,6.77,1.9,2.36,2.33,3a65.35,65.35,0,0,1,4.12,6.6,7,7,0,0,1-1.55-1l-4.44-3.32-3-2.22-2.84-4.06c-4.8-6.86-11.82-15.52-12.24-15.11-.21.22.17.74,2.69,3.69s5.83,7.24,7.74,10c.78,1.12,1.69,2.39,2,2.86.72.93.79,1.49.11.83-.25-.24-1.56-1.16-2.94-2.07-1.76-1.16-2.45-1.7-2.37-1.87.15-.33-.44-1.3-3.44-5.61-2.79-4-3.22-4.52-3.41-4.12s.25.88,3.85,6a22.85,22.85,0,0,1,2.25,3.5,25.35,25.35,0,0,1-3-1.76,15.6,15.6,0,0,1-4.67-3.89C58.67,99,52.84,91.94,48,85.84c-2.07-2.59-4.22-5.16-4.79-5.73s-1-1.09-.89-1.15a60.88,60.88,0,0,1,7.37,1.71c.43.17,1.1.82,2.59,2.53a26.26,26.26,0,0,0,2.2,2.36c.57.16.05-.74-1.25-2.18a13.13,13.13,0,0,1-1.54-1.91C51.51,81,57,82.92,57.54,83.55Zm78,81c-.82-1.23-7.46-8.28-10.23-10.87-3.15-2.94-4-3.93-1.65-2,2.89,2.45,11.87,12,12.07,12.81C135.88,164.92,135.85,164.92,135.58,164.52ZM104.5,134.44l-1.17-2.86c-.64-1.57-1.73-4.32-2.41-6.12a83.37,83.37,0,0,0-7.6-14.66c-1.52-2.4-2.8-4.46-2.85-4.59s.31.23.78.79l2.8,3.26a97.62,97.62,0,0,1,13.75,20l4.91,9a39.78,39.78,0,0,1,2.21,4.36,20.62,20.62,0,0,1-2.32-1.8c-1.69-1.43-2.13-1.89-2.13-2.21,0-.8-4-9.4-5.24-11.17-.36-.52-.5-.62-.61-.41a1,1,0,0,0,.12.77c1.17,2.15,3.75,7.39,4.31,8.74l.69,1.65-.74-.51a28.45,28.45,0,0,1-2.62-2.37Zm-5-4.11c-1.76-1.41-5-4-7.23-5.67l-4-3.12L87,119.06a46.9,46.9,0,0,0-5.06-7.88c-2.8-3.54-11.55-14.08-14-16.82-1.4-1.59-3.92-4.55-5.58-6.56S59.3,84.07,59.25,84a7.13,7.13,0,0,1,1.88.61l2,.78,4.71,4.93a105.92,105.92,0,0,1,9.91,11.52c1.43,2,1.82,2.41,2,2.22s0-.58-2-3.3a107.75,107.75,0,0,0-9-10.49,28.22,28.22,0,0,1-3.34-3.81c.18,0,1.49.65,2.92,1.37,3.09,1.56,4.41,2.66,7.33,6.14,6.41,7.62,13.17,18.15,14.71,22.89.18.59.36.85.55.8.4-.1.2-.83-.85-3.12A99.71,99.71,0,0,0,77.28,95c-1-1.17-2-2.4-2.22-2.75-.41-.58-.33-.55.91.33a87.53,87.53,0,0,1,8.53,7.17c2.06,2.06,3.12,3.51,6.35,8.58,5.24,8.26,7,11.67,9.59,18.55.72,1.92,1.6,4.12,2,4.86s.56,1.31.46,1.25S101.23,131.74,99.47,130.33Zm5.44,6c-.06-.15.09-.07.35.2s.32.38.12.27A1.18,1.18,0,0,1,104.91,136.31Zm-5.25-4c-10.85-8.41-30.86-22.39-43-30.05a310.49,310.49,0,0,0-33.14-17.7c-2.6-1.17-4.72-2.17-4.72-2.22S25.4,84.54,28,85.63c2.76,1.17,7.65,3.64,11.37,5.74,1.42.8,4.67,2.52,7.22,3.82s7,3.83,10,5.61c6.65,4,6.29,3.83,10,6,1.71,1,4.12,2.56,5.36,3.39,5.14,3.44,24.45,18.33,30.11,23.21C105.36,136.4,104.22,135.81,99.66,132.27Zm-26.12,4.65a25.28,25.28,0,0,1,2.75.54c1.46.34,7.06,1.52,12.4,2.62a215.15,215.15,0,0,1,23.11,6c1.64.55,2.25,1.17.71.73-1.1-.31-11.32-2.63-19.92-4.52-5.75-1.26-11.42-2.77-15.9-4.24A29.62,29.62,0,0,1,73.54,136.92Zm-14.4-6.63a10.06,10.06,0,0,1,1.69.32c.93.21,3,.54,4.62.74l9.14,1.11c11.07,1.35,17.76,2.75,23.27,4.87a49.25,49.25,0,0,1,10.51,5.49c3.3,2.53,3.32,2.53-3,.67a138.45,138.45,0,0,0-16.77-4.08c-4-.81-9.3-1.93-11.8-2.49A25.75,25.75,0,0,0,72,136.1c-.27.16-2.24-.49-4-1.34-.73-.34,6.31.67,13.47,1.94,9.21,1.64,10.94,2,13.59,2.7,1.89.51,2.57.52,2.1,0a39.67,39.67,0,0,0-6.15-1.7c-.86-.16-4.52-.83-8.17-1.48-5.94-1.06-8-1.39-15.19-2.36-1.88-.26-2.41-.45-5.26-1.92C60.57,131.09,59.14,130.32,59.14,130.29ZM40.35,118.62s1.63.26,3.64.68,5.35.93,7.46,1.14,6,.66,8.66,1,6.39.75,8.26.92c9,.85,16.59,2.76,20,5.06a7.55,7.55,0,0,1,1.37,1.05,9.69,9.69,0,0,1-2.11-.5c-5-1.51-11.47-2.94-11.79-2.63s.2.46,2.67,1,9.46,2.37,12,3.2a12.48,12.48,0,0,1,4,2.45c.36.37.81.46-5.91-1.25S82,129,82,129.37c0,.21,1.84.77,5.58,1.71,9.16,2.29,8.77,2.14,11.58,4.38l3.12,2.48c.5.38-.13.19-2.15-.66-7.68-3.22-14.31-4.55-33.19-6.62a40.64,40.64,0,0,1-9.36-1.81c-3.52-1.09-7.18-3.16-14.22-8.07C41.7,119.63,40.34,118.66,40.35,118.62ZM28.9,108.73c-.12-.18.39-.21,1.4-.06,1.5.22,5.26.47,13.31.89,5.15.26,20.77,1.36,21.21,1.49s3.88,2.5,9.6,6.48c.43.29,0,.29-1.83,0-6.21-1.08-17.22-2.6-17.59-2.42-.6.29,1.07.62,8.38,1.66,4.33.62,9,1.35,10.42,1.63l2.54.51,4,2.8c2.19,1.54,4,2.83,4.06,2.87s-.92-.23-2.16-.61a77.85,77.85,0,0,0-13.12-2.5c-2.39-.27-6.16-.73-8.42-1s-5.46-.71-7.13-.87A83.2,83.2,0,0,1,39.25,117a6.48,6.48,0,0,1-2.77-1.43l-1.18-1h6.19c4,0,6.17-.11,6.13-.31s-3.89-.45-10.07-.38l-3.13,0-2.67-2.48C30.28,110.13,29,108.89,28.9,108.73ZM18.49,97.87l9.37.06c13.64.09,16.63.3,18.34,1.25l1,.53-1.26-.06a3.68,3.68,0,0,0-1.43.1c-.36.37.29.55,2,.57A5.19,5.19,0,0,1,50,101.4a12.48,12.48,0,0,1,1.81,1.19,20.68,20.68,0,0,1-3.25-.07,25.78,25.78,0,0,0-3.35-.09c-.36.36.22.53,2.3.66,6.56.42,5.58.18,8.52,2.07,1.44.92,2.66,1.73,2.71,1.77a23.87,23.87,0,0,1-2.41-.43,75,75,0,0,0-9.61-1.22c-4.12-.34-3.89-.34-3.89,0s1.21.41,3.75.61c7.63.59,12.82,1.61,15.07,2.93a8,8,0,0,1,1.35.9c0,.06-4.41-.2-9.84-.56s-12.27-.76-15.24-.88-6.47-.32-7.79-.46l-2.4-.24-2-2-2-2,3.45.06a19.27,19.27,0,0,0,3.61-.11c.41-.4-.47-.52-4-.54-3.21,0-3.83-.1-4.14-.5s-.3-.48,2.25-.66c1.44-.1,5.33-.2,8.67-.22,5.46,0,6.67-.13,6.28-.52s-15.49,0-17.54.32c-.5.08-.65,0-2.16-1.7Zm-2.88-3.51,2-.1c1.86-.09,2.47-.25,2.15-.58a11.59,11.59,0,0,0-2.44,0l-2.3.08-1.2-1.59c-2.11-2.81-2.12-2.68.33-2.54,1.17.07,4,0,6.37-.13,6.78-.39,6.9-.38,9.42.88l2.17,1.09h-4c-3.51,0-4.6.12-4.23.49.06.06,2.25.13,4.91.15,4.75.05,4.81.06,6.24.86a12.58,12.58,0,0,1,1.41.84s-1-.06-2.2-.16c-2.14-.2-8.83,0-9.09.24-.41.41.62.52,3.38.36a48.38,48.38,0,0,1,8.85.36,36,36,0,0,1,6,3,13.44,13.44,0,0,1-2.36-.1c-1.29-.11-6.18-.24-10.84-.28s-9.4-.13-10.52-.19c-2.17-.12-2.47-.28-3.61-1.94Z"/><path class="cls-2" d="M146.14.19a5.06,5.06,0,0,0-.81-.19L145,.2c-1.13.59-8.08,8.65-11.59,13.44a158.19,158.19,0,0,0-12.47,20.22c-4.7,9.23-9,22.49-10,31a81.89,81.89,0,0,0,.8,22.06c1.72,10.42,3.95,19.48,6.33,25.7,1.16,3,8.25,18.91,9.72,21.75l1.24,2.4L128.8,140c-.08,1.78-.06,4.56,0,6.2.21,3.63,1.88,15.07,2.36,16.15s1.31,1.35,2.77,1.17c1.7-.2,1.7-.23,1-5.19-.35-2.34-1-7.07-1.38-10.5l-.75-6.23.92-2.66c1.38-4,2.08-5.57,9.57-21.26,5.48-11.48,8.87-20.14,10.7-27.27a186.87,186.87,0,0,0,4.46-27.24c.69-10,.55-13.94-1-26.25-1.8-14.72-2.27-16.49-8.22-31.13C147.12.54,147.07.45,146.14.19Zm.36,9,.74,2-1.52,2.39a20.89,20.89,0,0,0-1.51,2.61c0,.61.55.06,1.79-1.88a15,15,0,0,1,1.53-2.18c.08,0,.32.41.52.94l.38,1-1.8,2.65a20.12,20.12,0,0,0-1.76,2.88c.07.57.72-.11,2.15-2.28A16.09,16.09,0,0,1,148.7,15a9.53,9.53,0,0,1,.55,1.3l.46,1.23-2.64,3.32c-1.46,1.83-3.57,4.39-4.72,5.73L140.27,29l.49-2.12c.26-1.17.69-3,.94-4.06.57-2.4,4-15.55,4-15.56S146.1,8.13,146.5,9.21ZM136.43,22.33c-.38-4.32-.33-8.31.1-8.94.58-.85,7.29-8.76,7.37-8.7a22.22,22.22,0,0,1-.62,2.63c-.39,1.41-1.19,3.83-1.78,5.39l-1.09,2.82-.26-1.6c-.17-1-.36-1.64-.55-1.68s-.23.38-.07,1.69.29,1.77.53,1.79.21.31-.16,1.31l-.48,1.27-.29-2.26c-.21-1.7-.34-2.22-.54-2.12s-.19,1,0,3.18l.26,3-1.06,2.79-1.06,2.79Zm-6,1.38c0-1.39,0-1.56,1.19-3.36a44.82,44.82,0,0,1,3.81-5.14s0,1,0,2.26.14,4.09.38,6.38l.44,4.16L135.64,30c-.31,1.08-.58,1.8-.62,1.63s-.26-1.34-.49-2.6a6,6,0,0,0-.65-2.25c-.31,0-.11,2.32.44,4.73.46,2.09.46,2.11-.06,4.83-.29,1.5-.54,3.09-.57,3.52s-.11.8-.2.81C132.89,40.71,130.44,27.36,130.39,23.71Zm-5.28,7.42,1.46-2.62.32,1.72c.2,1.1.41,1.73.59,1.76.36.08,0-3.28-.39-3.58s-.09-.74,1.49-3.35l.92-1.53,1,7.06a75.58,75.58,0,0,0,1.59,9,12.64,12.64,0,0,1,.43,7.41c-.56,3.18-.56,3.19-1.6-1.78-1-4.62-1.21-5.49-1.44-5.39a3.19,3.19,0,0,0,0,1.62c.33,2.08,1.77,8.54,2,9.06s-.52,5.56-.77,5.08-1.87-8.73-2.1-10.63c-.33-2.66-1-5.62-1.19-5.59-.48.06,1.82,13.58,3,17.71a9.94,9.94,0,0,1-.08,3.44c-.27,2.18-.34,2.44-.48,1.71-.46-2.35-2.75-12.32-4.09-17.79C125,41.06,124.19,37.29,124,36l-.34-2.29Zm-6,13.29a13.82,13.82,0,0,1,.55,2.39c.32,1.91.71,2.87.94,2.33a25.7,25.7,0,0,0-.5-3.19c-.43-2.23-.53-3.15-.39-3.6a63,63,0,0,1,3.21-6.86,3.4,3.4,0,0,1,.35,1.42c.1.8.79,4.07,1.55,7.3,1.79,7.61,3.72,16.55,4.35,20.1a15.66,15.66,0,0,1,.17,6.07,27.21,27.21,0,0,1-.47,3.45,22,22,0,0,1-1.36-3.93c-1.77-6-2-6.64-2.31-6.71s-.3.56,1.13,5.23c1.54,5,1.93,6.09,2.29,6.17.18,0,.18.92,0,3a35.65,35.65,0,0,0-.19,3.58c.1.94-.3.54-.59-.6-.14-.57-.58-2.08-1-3.38-1-3.2-2.33-8.58-3.07-12.26s-.94-4.42-1.25-4.39c-.58.08,1.9,10.94,4.33,18.95l1.43,4.75L128.22,88c-.05,2-.1,4.53-.12,5.54a6.49,6.49,0,0,1-.17,1.85,69.19,69.19,0,0,1-2.64-7.32c-.21-.71-.61-2.34-.89-3.66s-1.15-5.13-1.93-8.52-1.7-7.75-2.07-9.72-1.25-6.17-1.94-9.34-1.3-6.09-1.36-6.47C117,49.49,118.83,44,119.11,44.42Zm13.33,117.45c-.53-.68-2.47-13.62-2.61-17.41-.11-3.07.15-1.79.51,2.51a148.59,148.59,0,0,0,2.23,14.75C132.72,162.19,132.7,162.21,132.44,161.87Zm-4-40.54a30.25,30.25,0,0,1,.25,3.53l-.06.89-.87-1.55c-.71-1.27-3.24-6.54-4.21-8.8a1,1,0,0,0-.53-.56c-.23,0-.24.13-.06.72.65,2,4.93,10.54,5.56,11,.25.19.33.83.41,3a21.44,21.44,0,0,1,0,2.93,37.89,37.89,0,0,1-2.07-4.43c-1.08-2.53-2.9-6.75-4-9.42a98,98,0,0,1-7.22-23.16l-.84-4.22c-.15-.72-.21-1.21-.14-1.1s.9,2.4,1.85,5.08a83,83,0,0,0,6.84,15c1,1.65,2.48,4.2,3.32,5.68l1.52,2.68ZM128,116.5c0,.11-.34-.4-.7-1.13s-1.55-2.78-2.62-4.54c-3.82-6.27-5.41-9.77-8.66-19-2-5.67-2.48-7.4-2.83-10.29a86.94,86.94,0,0,1-.37-11.14c.07-1.52.1-1.6.3-.92.13.41.48,2,.79,3.45A100.4,100.4,0,0,0,121.38,95c1.15,2.24,1.61,2.85,1.93,2.59.15-.11.06-.41-.29-.92-2.77-4.14-6.88-16-8.92-25.71-.93-4.45-1-6.16-.29-9.55.31-1.57.64-3,.72-3.15a27.9,27.9,0,0,1,.94,5,105.07,105.07,0,0,0,2.69,13.55c.88,3.28,1,3.68,1.34,3.64s.17-.59-.51-3a105.64,105.64,0,0,1-2.94-14.91l-1-6.75.6-2a6.57,6.57,0,0,1,.69-1.86c0,.1.53,2.28,1.08,4.82s1.33,6.35,1.71,8.44c.67,3.59,3.55,17,4.6,21.37a46.49,46.49,0,0,0,3.08,8.84L128,97.93l0,5.09c0,2.79,0,6.94,0,9.18S128,116.39,128,116.5Zm1.42,4.34c0,.22-.09.11-.14-.26s0-.55.06-.4A1.08,1.08,0,0,1,129.41,120.84Zm-.49-4.76c-.34-7.47-.12-31.85.34-38,.12-1.49.41-4.32.65-6.3.52-4.27.47-3.85,1.39-11.58.4-3.4,1.19-8.49,1.74-11.29s1.21-6.43,1.46-8c.64-4.22,1.72-9.59,2.51-12.49.72-2.68,2.93-9.38,3.06-9.28s-.49,2.32-1.17,5.09a309.32,309.32,0,0,0-6.55,37c-1.5,14.29-2.87,38.67-2.95,52.4C129.37,119.32,129.12,120.58,128.92,116.08Zm19.21-17c-1.62,4.43-3.93,9.83-6.49,15.13-3.83,7.93-8.32,17.4-8.75,18.45-.6,1.49-.72.62-.14-1a212.78,212.78,0,0,1,9.57-21.88c2.43-4.88,5-10,5.6-11.37a26.29,26.29,0,0,1,1.27-2.49C149.24,95.88,148.76,97.31,148.13,99.05Zm4.11-15c-.6,3.15-.77,3.68-1.73,5.32-3.65,6.22-4.7,8.08-7.53,13.41-1.74,3.27-3.48,6.55-3.88,7.34a38.58,38.58,0,0,0-2.46,5.88c.08.66.49.12,1.25-1.68,1.07-2.53,1.87-4.11,6.28-12.35,3.42-6.42,7-12.58,6.79-11.8-.44,1.94-1.15,3.89-1.44,4a25.31,25.31,0,0,0-2.37,4.35c-1.11,2.31-3.51,7.18-5.33,10.81A138.52,138.52,0,0,0,134.66,125c-2.41,6.07-2.39,6.06-2.34,1.9a49,49,0,0,1,2.17-11.65c1.74-5.64,4.76-11.77,10.54-21.31l4.77-7.88c.85-1.39,1.87-3.23,2.28-4.09a12.43,12.43,0,0,1,.78-1.52S152.61,82.08,152.24,84Zm2.91-21.84c-.5,8.57-1.12,12.73-2.44,16.17a40.46,40.46,0,0,1-4.37,8.48C138.32,103,135.26,109,133.06,117c-.58,2.11-.82,2.73-.82,2.1s0-2.28,0-4c0-3.59-.15-3.19,3.71-11.81,1.57-3.52,2.27-5.32,2.1-5.44s-.31-.19-3.07,6.06-2.6,5.94-2.67,5.42a12.81,12.81,0,0,1,.57-4.7c.94-2.53,3.77-9.11,4.92-11.43s1.28-2.75.89-2.7-3.3,6-5.22,10.89a8.89,8.89,0,0,1-.91,2,8.56,8.56,0,0,1,0-1.73c.28-4.08,3.45-11.2,8.37-18.83,1-1.58,3-4.77,4.37-7.06s3.45-5.65,4.57-7.43,2.8-4.72,3.71-6.56,1.69-3.31,1.72-3.29S155.27,60.17,155.15,62.17ZM155,47.31l.3,3.63-2,2.45c-3.86,4.82-6.11,7.91-5.91,8.15s1.57-1.5,4-4.62l3.82-4.87.05,1.53a6.58,6.58,0,0,1-.59,3.06,84.17,84.17,0,0,1-6.89,12.78c-.91,1.42-2.57,4.17-3.72,6.15s-3.11,5.23-4.38,7.26a76.93,76.93,0,0,0-6.13,11.87,22.41,22.41,0,0,1-.86,2.08c0-.06.1-2.3.25-5l.26-4.87,1.17-2.31c.64-1.27,3-5.41,5.16-9.2,3.69-6.39,4.47-7.91,3.86-7.61-.36.18-6,9.77-9,15.32-.88,1.64-1.14,2-1.11,1.46.42-7,.73-11.27.84-11.55s9-13.39,11.93-17.6c4.64-6.6,6.77-9.71,7.53-11,.5-.88.83-1.27.9-1.07S154.85,45.32,155,47.31Zm-2.12-16.46c.37,2.22.37,2.42,0,2.76C151.35,35,141.75,46.78,141.8,47.2s.89-.34,4.29-4.62c2.08-2.61,4.56-5.61,5.53-6.67,1.72-1.9,1.76-1.93,1.9-1.37s-.19,1-2.16,3.57c-2.16,2.79-2.61,3.55-2,3.48a21.48,21.48,0,0,0,2.32-2.77l2.08-2.75.35,2.84.36,2.84-1.29,2c-.71,1.12-2.71,4-4.45,6.41s-5.66,8-8.73,12.52-5.6,8.13-5.64,8.09a8.93,8.93,0,0,1,.13-1.62c.35-2.58,2.76-7.29,7-13.66,1.41-2.12,2-3.2,1.84-3.32s-.14-.41-2.42,3a75.75,75.75,0,0,0-5,8.31c-.63,1.25-1.15,2.22-1.15,2.16s.12-1.52.28-3.23c.33-3.47-.09-2.56,3.63-8,1.18-1.72,1.41-2.28.9-2.22a27.29,27.29,0,0,0-2,2.69,22.09,22.09,0,0,1-1.94,2.6,12.44,12.44,0,0,1,.18-2.16A5.19,5.19,0,0,1,137.15,52c1-1.32,1.28-2,.77-1.88a3.52,3.52,0,0,0-1,1.06l-.73,1,.17-1.09c.31-1.93,2-4.41,10.36-15.19l5.73-7.41Zm-1.13-6c.6,1.93.54,2.25-.71,4-.64.92-3.5,4.71-6.35,8.4s-5.76,7.61-6.47,8.69a15.84,15.84,0,0,1-1.37,1.92,35.6,35.6,0,0,1,1.35-6.59,48.56,48.56,0,0,1,5.19-7.18c1.83-2.08,2.38-3,1.8-2.89-.36.05-4.64,5.2-5.81,7-.65,1-1.2,1.83-1.23,1.84s.07-.73.21-1.64c.26-1.62.29-1.67,3.19-5.43,1.62-2.11,2.92-3.87,2.91-4-.07-.52-.83.26-3,3L139,35.2l.49-2.39c.56-2.75.62-2.86,5.12-7.94,1.56-1.76,3.37-4,4-4.93,1.4-2,1.28-2.09,2.19,1.3l.51,1.93-1.49,1.76a11.66,11.66,0,0,0-1.47,1.95c.06.45.57.07,1.79-1.34l1.3-1.5Z"/></g></g></g></svg>