<svg xmlns="http://www.w3.org/2000/svg" viewBox="0 0 24.24 24.24"><defs><style>.cls-1{opacity:0.8;}.cls-2{fill:#505326;}</style></defs><title>instagram-ico</title><g id="Capa_2" data-name="Capa 2"><g id="Capa_1-2" data-name="Capa 1"><g class="cls-1"><path class="cls-2" d="M18.13,0h-12A6.12,6.12,0,0,0,0,6.12v12a6.12,6.12,0,0,0,6.12,6.11h12a6.12,6.12,0,0,0,6.11-6.11v-12A6.12,6.12,0,0,0,18.13,0Zm3.48,18.13a3.49,3.49,0,0,1-3.48,3.47h-12a3.48,3.48,0,0,1-3.48-3.47v-12A3.48,3.48,0,0,1,6.12,2.64h12a3.49,3.49,0,0,1,3.48,3.48Z"/><circle class="cls-2" cx="18.57" cy="5.69" r="1.48"/><path class="cls-2" d="M12.12,5.88a6.24,6.24,0,1,0,6.24,6.24A6.24,6.24,0,0,0,12.12,5.88Zm0,9.84a3.61,3.61,0,1,1,3.6-3.6A3.6,3.6,0,0,1,12.12,15.72Z"/></g></g></g></svg>