<svg xmlns="http://www.w3.org/2000/svg" viewBox="0 0 15.55 13.93"><defs><style>.cls-1{opacity:0.5;}.cls-2{fill:#75702c;}</style></defs><title>love-lyonn</title><g id="Capa_2" data-name="Capa 2"><g id="Capa_1-2" data-name="Capa 1"><g class="cls-1"><path class="cls-2" d="M7.73,13.93a1.54,1.54,0,0,1-1.12-.47L1.42,8.26A4.86,4.86,0,0,1,0,4.84,5,5,0,0,1,1.47,1.42,4.73,4.73,0,0,1,4.84,0a4.8,4.8,0,0,1,3,1,4.91,4.91,0,0,1,3-1A4.72,4.72,0,0,1,14.1,1.41,4.72,4.72,0,0,1,14,8.29L8.85,13.46A1.54,1.54,0,0,1,7.73,13.93ZM4.84,2a2.73,2.73,0,0,0-1.95.83,2.94,2.94,0,0,0-.89,2,2.9,2.9,0,0,0,.83,2l4.9,4.9,4.91-4.9a2.74,2.74,0,0,0,.07-4h0a2.86,2.86,0,0,0-3.95,0l-1,.94-.94-.94A2.8,2.8,0,0,0,4.84,2Z"/></g></g></g></svg>