<svg xmlns="http://www.w3.org/2000/svg" viewBox="0 0 1679.72 79.16"><defs><style>.cls-1{fill:#eaedc6;}</style></defs><title>patron</title><g id="Capa_2" data-name="Capa 2"><g id="Capa_1-2" data-name="Capa 1"><polygon class="cls-1" points="1679.72 35.24 1679.72 28.73 1389.66 28.73 1389.66 35.24 1393.99 35.24 1393.99 50.43 1415.64 50.43 1415.64 39.58 1409.14 39.58 1409.14 43.92 1400.48 43.92 1400.48 35.24 1419.97 35.24 1419.97 50.43 1441.61 50.43 1441.61 39.58 1435.12 39.58 1435.12 43.92 1426.46 43.92 1426.46 35.24 1445.94 35.24 1445.94 50.43 1467.59 50.43 1467.59 39.58 1461.09 39.58 1461.09 43.92 1452.43 43.92 1452.43 35.24 1471.91 35.24 1471.91 35.24 1471.91 50.43 1493.56 50.43 1493.56 39.58 1487.07 39.58 1487.07 43.92 1478.41 43.92 1478.41 35.24 1497.89 35.24 1497.89 50.43 1519.54 50.43 1519.54 39.58 1513.04 39.58 1513.04 43.92 1504.38 43.92 1504.38 35.24 1523.87 35.24 1523.87 50.43 1545.51 50.43 1545.51 39.58 1539.02 39.58 1539.02 43.92 1530.36 43.92 1530.36 35.24 1549.84 35.24 1549.84 50.43 1571.49 50.43 1571.49 39.58 1564.99 39.58 1564.99 43.92 1556.34 43.92 1556.34 35.24 1575.82 35.24 1575.82 50.43 1597.46 50.43 1597.46 39.58 1590.97 39.58 1590.97 43.92 1582.31 43.92 1582.31 35.24 1601.79 35.24 1601.79 50.43 1623.44 50.43 1623.44 39.58 1616.94 39.58 1616.94 43.92 1608.28 43.92 1608.28 35.24 1627.77 35.24 1627.77 50.43 1649.41 50.43 1649.41 39.58 1642.92 39.58 1642.92 43.92 1634.26 43.92 1634.26 35.24 1653.74 35.24 1653.74 50.43 1675.39 50.43 1675.39 39.58 1668.89 39.58 1668.89 43.92 1660.23 43.92 1660.23 35.24 1679.72 35.24"/><polygon class="cls-1" points="1389.66 63.97 1389.66 57.46 1679.72 57.46 1679.72 63.97 1675.39 63.97 1675.39 79.17 1653.74 79.17 1653.74 68.31 1660.23 68.31 1660.23 72.65 1668.89 72.65 1668.89 63.97 1649.41 63.97 1649.41 79.17 1627.77 79.17 1627.77 68.31 1634.26 68.31 1634.26 72.65 1642.92 72.65 1642.92 63.97 1623.44 63.97 1623.44 79.17 1601.79 79.17 1601.79 68.31 1608.28 68.31 1608.28 72.65 1616.94 72.65 1616.94 63.97 1597.46 63.97 1597.46 63.97 1597.46 79.17 1575.81 79.17 1575.81 68.31 1582.31 68.31 1582.31 72.65 1590.97 72.65 1590.97 63.97 1571.48 63.97 1571.48 79.17 1549.84 79.17 1549.84 68.31 1556.33 68.31 1556.33 72.65 1564.99 72.65 1564.99 63.97 1545.51 63.97 1545.51 79.17 1523.86 79.17 1523.86 68.31 1530.36 68.31 1530.36 72.65 1539.02 72.65 1539.02 63.97 1519.54 63.97 1519.54 79.17 1497.89 79.17 1497.89 68.31 1504.38 68.31 1504.38 72.65 1513.04 72.65 1513.04 63.97 1493.56 63.97 1493.56 79.17 1471.91 79.17 1471.91 68.31 1478.41 68.31 1478.41 72.65 1487.07 72.65 1487.07 63.97 1467.59 63.97 1467.59 79.17 1445.94 79.17 1445.94 68.31 1452.43 68.31 1452.43 72.65 1461.09 72.65 1461.09 63.97 1441.61 63.97 1441.61 79.17 1419.96 79.17 1419.96 68.31 1426.46 68.31 1426.46 72.65 1435.12 72.65 1435.12 63.97 1415.64 63.97 1415.64 79.17 1393.99 79.17 1393.99 68.31 1400.48 68.31 1400.48 72.65 1409.14 72.65 1409.14 63.97 1389.66 63.97"/><polygon class="cls-1" points="1389.66 6.51 1389.66 0 1679.72 0 1679.72 6.51 1675.39 6.51 1675.39 21.7 1653.74 21.7 1653.74 10.85 1660.23 10.85 1660.23 15.19 1668.89 15.19 1668.89 6.51 1649.41 6.51 1649.41 21.7 1627.77 21.7 1627.77 10.85 1634.26 10.85 1634.26 15.19 1642.92 15.19 1642.92 6.51 1623.44 6.51 1623.44 21.7 1601.79 21.7 1601.79 10.85 1608.28 10.85 1608.28 15.19 1616.94 15.19 1616.94 6.51 1597.46 6.51 1597.46 6.51 1597.46 21.7 1575.81 21.7 1575.81 10.85 1582.31 10.85 1582.31 15.19 1590.97 15.19 1590.97 6.51 1571.48 6.51 1571.48 21.7 1549.84 21.7 1549.84 10.85 1556.33 10.85 1556.33 15.19 1564.99 15.19 1564.99 6.51 1545.51 6.51 1545.51 21.7 1523.86 21.7 1523.86 10.85 1530.36 10.85 1530.36 15.19 1539.02 15.19 1539.02 6.51 1519.54 6.51 1519.54 21.7 1497.89 21.7 1497.89 10.85 1504.38 10.85 1504.38 15.19 1513.04 15.19 1513.04 6.51 1493.56 6.51 1493.56 21.7 1471.91 21.7 1471.91 10.85 1478.41 10.85 1478.41 15.19 1487.07 15.19 1487.07 6.51 1467.59 6.51 1467.59 21.7 1445.94 21.7 1445.94 10.85 1452.43 10.85 1452.43 15.19 1461.09 15.19 1461.09 6.51 1441.61 6.51 1441.61 21.7 1419.96 21.7 1419.96 10.85 1426.46 10.85 1426.46 15.19 1435.12 15.19 1435.12 6.51 1415.64 6.51 1415.64 21.7 1393.99 21.7 1393.99 10.85 1400.48 10.85 1400.48 15.19 1409.14 15.19 1409.14 6.51 1389.66 6.51"/><polygon class="cls-1" points="1389.66 35.24 1389.66 28.73 1099.61 28.73 1099.61 35.24 1103.93 35.24 1103.93 50.43 1125.58 50.43 1125.58 39.58 1119.09 39.58 1119.09 43.92 1110.43 43.92 1110.43 35.24 1129.91 35.24 1129.91 50.43 1151.56 50.43 1151.56 39.58 1145.06 39.58 1145.06 43.92 1136.4 43.92 1136.4 35.24 1155.88 35.24 1155.88 50.43 1177.53 50.43 1177.53 39.58 1171.04 39.58 1171.04 43.92 1162.38 43.92 1162.38 35.24 1181.86 35.24 1181.86 35.24 1181.86 50.43 1203.51 50.43 1203.51 39.58 1197.01 39.58 1197.01 43.92 1188.35 43.92 1188.35 35.24 1207.84 35.24 1207.84 50.43 1229.48 50.43 1229.48 39.58 1222.99 39.58 1222.99 43.92 1214.33 43.92 1214.33 35.24 1233.81 35.24 1233.81 50.43 1255.46 50.43 1255.46 39.58 1248.96 39.58 1248.96 43.92 1240.31 43.92 1240.31 35.24 1259.79 35.24 1259.79 50.43 1281.43 50.43 1281.43 39.58 1274.94 39.58 1274.94 43.92 1266.28 43.92 1266.28 35.24 1285.76 35.24 1285.76 50.43 1307.41 50.43 1307.41 39.58 1300.91 39.58 1300.91 43.92 1292.25 43.92 1292.25 35.24 1311.73 35.24 1311.73 50.43 1333.38 50.43 1333.38 39.58 1326.89 39.58 1326.89 43.92 1318.23 43.92 1318.23 35.24 1337.71 35.24 1337.71 50.43 1359.36 50.43 1359.36 39.58 1352.86 39.58 1352.86 43.92 1344.2 43.92 1344.2 35.24 1363.68 35.24 1363.68 50.43 1385.33 50.43 1385.33 39.58 1378.84 39.58 1378.84 43.92 1370.18 43.92 1370.18 35.24 1389.66 35.24"/><polygon class="cls-1" points="1099.61 63.97 1099.61 57.46 1389.66 57.46 1389.66 63.97 1385.33 63.97 1385.33 79.17 1363.68 79.17 1363.68 68.31 1370.18 68.31 1370.18 72.65 1378.84 72.65 1378.84 63.97 1359.36 63.97 1359.36 79.17 1337.71 79.17 1337.71 68.31 1344.2 68.31 1344.2 72.65 1352.86 72.65 1352.86 63.97 1333.38 63.97 1333.38 79.17 1311.73 79.17 1311.73 68.31 1318.23 68.31 1318.23 72.65 1326.89 72.65 1326.89 63.97 1307.4 63.97 1307.4 63.97 1307.4 79.17 1285.76 79.17 1285.76 68.31 1292.25 68.31 1292.25 72.65 1300.91 72.65 1300.91 63.97 1281.43 63.97 1281.43 79.17 1259.78 79.17 1259.78 68.31 1266.28 68.31 1266.28 72.65 1274.94 72.65 1274.94 63.97 1255.45 63.97 1255.45 79.17 1233.81 79.17 1233.81 68.31 1240.3 68.31 1240.3 72.65 1248.96 72.65 1248.96 63.97 1229.48 63.97 1229.48 79.17 1207.83 79.17 1207.83 68.31 1214.33 68.31 1214.33 72.65 1222.99 72.65 1222.99 63.97 1203.51 63.97 1203.51 79.17 1181.86 79.17 1181.86 68.31 1188.35 68.31 1188.35 72.65 1197.01 72.65 1197.01 63.97 1177.53 63.97 1177.53 79.17 1155.88 79.17 1155.88 68.31 1162.38 68.31 1162.38 72.65 1171.04 72.65 1171.04 63.97 1151.55 63.97 1151.55 79.17 1129.91 79.17 1129.91 68.31 1136.4 68.31 1136.4 72.65 1145.06 72.65 1145.06 63.97 1125.58 63.97 1125.58 79.17 1103.93 79.17 1103.93 68.31 1110.43 68.31 1110.43 72.65 1119.09 72.65 1119.09 63.97 1099.61 63.97"/><polygon class="cls-1" points="1099.61 6.51 1099.61 0 1389.66 0 1389.66 6.51 1385.33 6.51 1385.33 21.7 1363.68 21.7 1363.68 10.85 1370.18 10.85 1370.18 15.19 1378.84 15.19 1378.84 6.51 1359.36 6.51 1359.36 21.7 1337.71 21.7 1337.71 10.85 1344.2 10.85 1344.2 15.19 1352.86 15.19 1352.86 6.51 1333.38 6.51 1333.38 21.7 1311.73 21.7 1311.73 10.85 1318.23 10.85 1318.23 15.19 1326.89 15.19 1326.89 6.51 1307.4 6.51 1307.4 6.51 1307.4 21.7 1285.76 21.7 1285.76 10.85 1292.25 10.85 1292.25 15.19 1300.91 15.19 1300.91 6.51 1281.43 6.51 1281.43 21.7 1259.78 21.7 1259.78 10.85 1266.28 10.85 1266.28 15.19 1274.94 15.19 1274.94 6.51 1255.45 6.51 1255.45 21.7 1233.81 21.7 1233.81 10.85 1240.3 10.85 1240.3 15.19 1248.96 15.19 1248.96 6.51 1229.48 6.51 1229.48 21.7 1207.83 21.7 1207.83 10.85 1214.33 10.85 1214.33 15.19 1222.99 15.19 1222.99 6.51 1203.51 6.51 1203.51 21.7 1181.86 21.7 1181.86 10.85 1188.35 10.85 1188.35 15.19 1197.01 15.19 1197.01 6.51 1177.53 6.51 1177.53 21.7 1155.88 21.7 1155.88 10.85 1162.38 10.85 1162.38 15.19 1171.04 15.19 1171.04 6.51 1151.55 6.51 1151.55 21.7 1129.91 21.7 1129.91 10.85 1136.4 10.85 1136.4 15.19 1145.06 15.19 1145.06 6.51 1125.58 6.51 1125.58 21.7 1103.93 21.7 1103.93 10.85 1110.43 10.85 1110.43 15.19 1119.09 15.19 1119.09 6.51 1099.61 6.51"/><polygon class="cls-1" points="1099.61 35.24 1099.61 28.73 809.55 28.73 809.55 35.24 813.88 35.24 813.88 50.43 835.52 50.43 835.52 39.58 829.03 39.58 829.03 43.92 820.37 43.92 820.37 35.24 839.86 35.24 839.86 50.43 861.5 50.43 861.5 39.58 855.01 39.58 855.01 43.92 846.35 43.92 846.35 35.24 865.83 35.24 865.83 50.43 887.48 50.43 887.48 39.58 880.98 39.58 880.98 43.92 872.32 43.92 872.32 35.24 891.8 35.24 891.8 35.24 891.8 50.43 913.45 50.43 913.45 39.58 906.96 39.58 906.96 43.92 898.3 43.92 898.3 35.24 917.78 35.24 917.78 50.43 939.43 50.43 939.43 39.58 932.93 39.58 932.93 43.92 924.27 43.92 924.27 35.24 943.75 35.24 943.75 50.43 965.4 50.43 965.4 39.58 958.91 39.58 958.91 43.92 950.25 43.92 950.25 35.24 969.73 35.24 969.73 50.43 991.38 50.43 991.38 39.58 984.88 39.58 984.88 43.92 976.22 43.92 976.22 35.24 995.7 35.24 995.7 50.43 1017.35 50.43 1017.35 39.58 1010.86 39.58 1010.86 43.92 1002.2 43.92 1002.2 35.24 1021.68 35.24 1021.68 50.43 1043.33 50.43 1043.33 39.58 1036.83 39.58 1036.83 43.92 1028.17 43.92 1028.17 35.24 1047.65 35.24 1047.65 50.43 1069.3 50.43 1069.3 39.58 1062.81 39.58 1062.81 43.92 1054.15 43.92 1054.15 35.24 1073.63 35.24 1073.63 50.43 1095.28 50.43 1095.28 39.58 1088.78 39.58 1088.78 43.92 1080.12 43.92 1080.12 35.24 1099.61 35.24"/><polygon class="cls-1" points="809.55 63.97 809.55 57.46 1099.61 57.46 1099.61 63.97 1095.28 63.97 1095.28 79.17 1073.63 79.17 1073.63 68.31 1080.12 68.31 1080.12 72.65 1088.78 72.65 1088.78 63.97 1069.3 63.97 1069.3 79.17 1047.65 79.17 1047.65 68.31 1054.15 68.31 1054.15 72.65 1062.81 72.65 1062.81 63.97 1043.33 63.97 1043.33 79.17 1021.68 79.17 1021.68 68.31 1028.17 68.31 1028.17 72.65 1036.83 72.65 1036.83 63.97 1017.35 63.97 1017.35 63.97 1017.35 79.17 995.7 79.17 995.7 68.31 1002.2 68.31 1002.2 72.65 1010.86 72.65 1010.86 63.97 991.37 63.97 991.37 79.17 969.73 79.17 969.73 68.31 976.22 68.31 976.22 72.65 984.88 72.65 984.88 63.97 965.4 63.97 965.4 79.17 943.75 79.17 943.75 68.31 950.25 68.31 950.25 72.65 958.9 72.65 958.9 63.97 939.42 63.97 939.42 79.17 917.78 79.17 917.78 68.31 924.27 68.31 924.27 72.65 932.93 72.65 932.93 63.97 913.45 63.97 913.45 79.17 891.8 79.17 891.8 68.31 898.3 68.31 898.3 72.65 906.96 72.65 906.96 63.97 887.47 63.97 887.47 79.17 865.83 79.17 865.83 68.31 872.32 68.31 872.32 72.65 880.98 72.65 880.98 63.97 861.5 63.97 861.5 79.17 839.85 79.17 839.85 68.31 846.35 68.31 846.35 72.65 855.01 72.65 855.01 63.97 835.52 63.97 835.52 79.17 813.88 79.17 813.88 68.31 820.37 68.31 820.37 72.65 829.03 72.65 829.03 63.97 809.55 63.97"/><polygon class="cls-1" points="809.55 6.51 809.55 0 1099.61 0 1099.61 6.51 1095.28 6.51 1095.28 21.7 1073.63 21.7 1073.63 10.85 1080.12 10.85 1080.12 15.19 1088.78 15.19 1088.78 6.51 1069.3 6.51 1069.3 21.7 1047.65 21.7 1047.65 10.85 1054.15 10.85 1054.15 15.19 1062.81 15.19 1062.81 6.51 1043.33 6.51 1043.33 21.7 1021.68 21.7 1021.68 10.85 1028.17 10.85 1028.17 15.19 1036.83 15.19 1036.83 6.51 1017.35 6.51 1017.35 6.51 1017.35 21.7 995.7 21.7 995.7 10.85 1002.2 10.85 1002.2 15.19 1010.86 15.19 1010.86 6.51 991.37 6.51 991.37 21.7 969.73 21.7 969.73 10.85 976.22 10.85 976.22 15.19 984.88 15.19 984.88 6.51 965.4 6.51 965.4 21.7 943.75 21.7 943.75 10.85 950.25 10.85 950.25 15.19 958.9 15.19 958.9 6.51 939.42 6.51 939.42 21.7 917.78 21.7 917.78 10.85 924.27 10.85 924.27 15.19 932.93 15.19 932.93 6.51 913.45 6.51 913.45 21.7 891.8 21.7 891.8 10.85 898.3 10.85 898.3 15.19 906.96 15.19 906.96 6.51 887.47 6.51 887.47 21.7 865.83 21.7 865.83 10.85 872.32 10.85 872.32 15.19 880.98 15.19 880.98 6.51 861.5 6.51 861.5 21.7 839.85 21.7 839.85 10.85 846.35 10.85 846.35 15.19 855.01 15.19 855.01 6.51 835.52 6.51 835.52 21.7 813.88 21.7 813.88 10.85 820.37 10.85 820.37 15.19 829.03 15.19 829.03 6.51 809.55 6.51"/><polygon class="cls-1" points="839.86 35.24 839.86 28.73 549.8 28.73 549.8 35.24 554.13 35.24 554.13 50.43 575.78 50.43 575.78 39.58 569.28 39.58 569.28 43.92 560.63 43.92 560.63 35.24 580.11 35.24 580.11 50.43 601.75 50.43 601.75 39.58 595.26 39.58 595.26 43.92 586.6 43.92 586.6 35.24 606.08 35.24 606.08 50.43 627.73 50.43 627.73 39.58 621.23 39.58 621.23 43.92 612.58 43.92 612.58 35.24 632.06 35.24 632.06 35.24 632.06 50.43 653.7 50.43 653.7 39.58 647.21 39.58 647.21 43.92 638.55 43.92 638.55 35.24 658.03 35.24 658.03 50.43 679.68 50.43 679.68 39.58 673.18 39.58 673.18 43.92 664.53 43.92 664.53 35.24 684.01 35.24 684.01 50.43 705.65 50.43 705.65 39.58 699.16 39.58 699.16 43.92 690.5 43.92 690.5 35.24 709.98 35.24 709.98 50.43 731.63 50.43 731.63 39.58 725.13 39.58 725.13 43.92 716.48 43.92 716.48 35.24 735.96 35.24 735.96 50.43 757.6 50.43 757.6 39.58 751.11 39.58 751.11 43.92 742.45 43.92 742.45 35.24 761.93 35.24 761.93 50.43 783.58 50.43 783.58 39.58 777.09 39.58 777.09 43.92 768.43 43.92 768.43 35.24 787.91 35.24 787.91 50.43 809.55 50.43 809.55 39.58 803.06 39.58 803.06 43.92 794.4 43.92 794.4 35.24 813.88 35.24 813.88 50.43 835.53 50.43 835.53 39.58 829.03 39.58 829.03 43.92 820.38 43.92 820.38 35.24 839.86 35.24"/><polygon class="cls-1" points="549.8 63.97 549.8 57.46 839.86 57.46 839.86 63.97 835.53 63.97 835.53 79.17 813.88 79.17 813.88 68.31 820.38 68.31 820.38 72.65 829.03 72.65 829.03 63.97 809.55 63.97 809.55 79.17 787.91 79.17 787.91 68.31 794.4 68.31 794.4 72.65 803.06 72.65 803.06 63.97 783.58 63.97 783.58 79.17 761.93 79.17 761.93 68.31 768.43 68.31 768.43 72.65 777.08 72.65 777.08 63.97 757.6 63.97 757.6 63.97 757.6 79.17 735.96 79.17 735.96 68.31 742.45 68.31 742.45 72.65 751.11 72.65 751.11 63.97 731.63 63.97 731.63 79.17 709.98 79.17 709.98 68.31 716.48 68.31 716.48 72.65 725.13 72.65 725.13 63.97 705.65 63.97 705.65 79.17 684.01 79.17 684.01 68.31 690.5 68.31 690.5 72.65 699.16 72.65 699.16 63.97 679.68 63.97 679.68 79.17 658.03 79.17 658.03 68.31 664.52 68.31 664.52 72.65 673.18 72.65 673.18 63.97 653.7 63.97 653.7 79.17 632.06 79.17 632.06 68.31 638.55 68.31 638.55 72.65 647.21 72.65 647.21 63.97 627.73 63.97 627.73 79.17 606.08 79.17 606.08 68.31 612.58 68.31 612.58 72.65 621.23 72.65 621.23 63.97 601.75 63.97 601.75 79.17 580.11 79.17 580.11 68.31 586.6 68.31 586.6 72.65 595.26 72.65 595.26 63.97 575.78 63.97 575.78 79.17 554.13 79.17 554.13 68.31 560.63 68.31 560.63 72.65 569.28 72.65 569.28 63.97 549.8 63.97"/><polygon class="cls-1" points="549.8 6.51 549.8 0 839.86 0 839.86 6.51 835.53 6.51 835.53 21.7 813.88 21.7 813.88 10.85 820.38 10.85 820.38 15.19 829.03 15.19 829.03 6.51 809.55 6.51 809.55 21.7 787.91 21.7 787.91 10.85 794.4 10.85 794.4 15.19 803.06 15.19 803.06 6.51 783.58 6.51 783.58 21.7 761.93 21.7 761.93 10.85 768.43 10.85 768.43 15.19 777.08 15.19 777.08 6.51 757.6 6.51 757.6 6.51 757.6 21.7 735.96 21.7 735.96 10.85 742.45 10.85 742.45 15.19 751.11 15.19 751.11 6.51 731.63 6.51 731.63 21.7 709.98 21.7 709.98 10.85 716.48 10.85 716.48 15.19 725.13 15.19 725.13 6.51 705.65 6.51 705.65 21.7 684.01 21.7 684.01 10.85 690.5 10.85 690.5 15.19 699.16 15.19 699.16 6.51 679.68 6.51 679.68 21.7 658.03 21.7 658.03 10.85 664.52 10.85 664.52 15.19 673.18 15.19 673.18 6.51 653.7 6.51 653.7 21.7 632.06 21.7 632.06 10.85 638.55 10.85 638.55 15.19 647.21 15.19 647.21 6.51 627.73 6.51 627.73 21.7 606.08 21.7 606.08 10.85 612.58 10.85 612.58 15.19 621.23 15.19 621.23 6.51 601.75 6.51 601.75 21.7 580.11 21.7 580.11 10.85 586.6 10.85 586.6 15.19 595.26 15.19 595.26 6.51 575.78 6.51 575.78 21.7 554.13 21.7 554.13 10.85 560.63 10.85 560.63 15.19 569.28 15.19 569.28 6.51 549.8 6.51"/><polygon class="cls-1" points="549.8 35.24 549.8 28.73 259.75 28.73 259.75 35.24 264.08 35.24 264.08 50.43 285.72 50.43 285.72 39.58 279.23 39.58 279.23 43.92 270.57 43.92 270.57 35.24 290.05 35.24 290.05 50.43 311.7 50.43 311.7 39.58 305.2 39.58 305.2 43.92 296.55 43.92 296.55 35.24 316.03 35.24 316.03 50.43 337.67 50.43 337.67 39.58 331.18 39.58 331.18 43.92 322.52 43.92 322.52 35.24 342 35.24 342 35.24 342 50.43 363.65 50.43 363.65 39.58 357.15 39.58 357.15 43.92 348.5 43.92 348.5 35.24 367.98 35.24 367.98 50.43 389.62 50.43 389.62 39.58 383.13 39.58 383.13 43.92 374.47 43.92 374.47 35.24 393.95 35.24 393.95 50.43 415.6 50.43 415.6 39.58 409.11 39.58 409.11 43.92 400.45 43.92 400.45 35.24 419.93 35.24 419.93 50.43 441.57 50.43 441.57 39.58 435.08 39.58 435.08 43.92 426.42 43.92 426.42 35.24 445.9 35.24 445.9 50.43 467.55 50.43 467.55 39.58 461.05 39.58 461.05 43.92 452.4 43.92 452.4 35.24 471.88 35.24 471.88 50.43 493.52 50.43 493.52 39.58 487.03 39.58 487.03 43.92 478.37 43.92 478.37 35.24 497.85 35.24 497.85 50.43 519.5 50.43 519.5 39.58 513 39.58 513 43.92 504.35 43.92 504.35 35.24 523.83 35.24 523.83 50.43 545.47 50.43 545.47 39.58 538.98 39.58 538.98 43.92 530.32 43.92 530.32 35.24 549.8 35.24"/><polygon class="cls-1" points="259.75 63.97 259.75 57.46 549.8 57.46 549.8 63.97 545.47 63.97 545.47 79.17 523.83 79.17 523.83 68.31 530.32 68.31 530.32 72.65 538.98 72.65 538.98 63.97 519.5 63.97 519.5 79.17 497.85 79.17 497.85 68.31 504.35 68.31 504.35 72.65 513 72.65 513 63.97 493.52 63.97 493.52 79.17 471.88 79.17 471.88 68.31 478.37 68.31 478.37 72.65 487.03 72.65 487.03 63.97 467.55 63.97 467.55 63.97 467.55 79.17 445.9 79.17 445.9 68.31 452.39 68.31 452.39 72.65 461.05 72.65 461.05 63.97 441.57 63.97 441.57 79.17 419.93 79.17 419.93 68.31 426.42 68.31 426.42 72.65 435.08 72.65 435.08 63.97 415.6 63.97 415.6 79.17 393.95 79.17 393.95 68.31 400.44 68.31 400.44 72.65 409.1 72.65 409.1 63.97 389.62 63.97 389.62 79.17 367.98 79.17 367.98 68.31 374.47 68.31 374.47 72.65 383.13 72.65 383.13 63.97 363.65 63.97 363.65 79.17 342 79.17 342 68.31 348.5 68.31 348.5 72.65 357.15 72.65 357.15 63.97 337.67 63.97 337.67 79.17 316.03 79.17 316.03 68.31 322.52 68.31 322.52 72.65 331.18 72.65 331.18 63.97 311.7 63.97 311.7 79.17 290.05 79.17 290.05 68.31 296.54 68.31 296.54 72.65 305.2 72.65 305.2 63.97 285.72 63.97 285.72 79.17 264.08 79.17 264.08 68.31 270.57 68.31 270.57 72.65 279.23 72.65 279.23 63.97 259.75 63.97"/><polygon class="cls-1" points="259.75 6.51 259.75 0 549.8 0 549.8 6.51 545.47 6.51 545.47 21.7 523.83 21.7 523.83 10.85 530.32 10.85 530.32 15.19 538.98 15.19 538.98 6.51 519.5 6.51 519.5 21.7 497.85 21.7 497.85 10.85 504.35 10.85 504.35 15.19 513 15.19 513 6.51 493.52 6.51 493.52 21.7 471.88 21.7 471.88 10.85 478.37 10.85 478.37 15.19 487.03 15.19 487.03 6.51 467.55 6.51 467.55 6.51 467.55 21.7 445.9 21.7 445.9 10.85 452.39 10.85 452.39 15.19 461.05 15.19 461.05 6.51 441.57 6.51 441.57 21.7 419.93 21.7 419.93 10.85 426.42 10.85 426.42 15.19 435.08 15.19 435.08 6.51 415.6 6.51 415.6 21.7 393.95 21.7 393.95 10.85 400.44 10.85 400.44 15.19 409.1 15.19 409.1 6.51 389.62 6.51 389.62 21.7 367.98 21.7 367.98 10.85 374.47 10.85 374.47 15.19 383.13 15.19 383.13 6.51 363.65 6.51 363.65 21.7 342 21.7 342 10.85 348.5 10.85 348.5 15.19 357.15 15.19 357.15 6.51 337.67 6.51 337.67 21.7 316.03 21.7 316.03 10.85 322.52 10.85 322.52 15.19 331.18 15.19 331.18 6.51 311.7 6.51 311.7 21.7 290.05 21.7 290.05 10.85 296.54 10.85 296.54 15.19 305.2 15.19 305.2 6.51 285.72 6.51 285.72 21.7 264.08 21.7 264.08 10.85 270.57 10.85 270.57 15.19 279.23 15.19 279.23 6.51 259.75 6.51"/><polygon class="cls-1" points="290.06 35.24 290.06 28.73 0 28.73 0 35.24 4.33 35.24 4.33 50.43 25.98 50.43 25.98 39.58 19.48 39.58 19.48 43.92 10.82 43.92 10.82 35.24 30.3 35.24 30.3 50.43 51.95 50.43 51.95 39.58 45.46 39.58 45.46 43.92 36.8 43.92 36.8 35.24 56.28 35.24 56.28 50.43 77.93 50.43 77.93 39.58 71.43 39.58 71.43 43.92 62.77 43.92 62.77 35.24 82.25 35.24 82.25 35.24 82.25 50.43 103.9 50.43 103.9 39.58 97.41 39.58 97.41 43.92 88.75 43.92 88.75 35.24 108.23 35.24 108.23 50.43 129.88 50.43 129.88 39.58 123.38 39.58 123.38 43.92 114.72 43.92 114.72 35.24 134.21 35.24 134.21 50.43 155.85 50.43 155.85 39.58 149.36 39.58 149.36 43.92 140.7 43.92 140.7 35.24 160.18 35.24 160.18 50.43 181.83 50.43 181.83 39.58 175.33 39.58 175.33 43.92 166.67 43.92 166.67 35.24 186.16 35.24 186.16 50.43 207.8 50.43 207.8 39.58 201.31 39.58 201.31 43.92 192.65 43.92 192.65 35.24 212.13 35.24 212.13 50.43 233.78 50.43 233.78 39.58 227.28 39.58 227.28 43.92 218.62 43.92 218.62 35.24 238.11 35.24 238.11 50.43 259.75 50.43 259.75 39.58 253.26 39.58 253.26 43.92 244.6 43.92 244.6 35.24 264.08 35.24 264.08 50.43 285.73 50.43 285.73 39.58 279.23 39.58 279.23 43.92 270.57 43.92 270.57 35.24 290.06 35.24"/><polygon class="cls-1" points="0 63.97 0 57.46 290.06 57.46 290.06 63.97 285.73 63.97 285.73 79.17 264.08 79.17 264.08 68.31 270.57 68.31 270.57 72.65 279.23 72.65 279.23 63.97 259.75 63.97 259.75 79.17 238.1 79.17 238.1 68.31 244.6 68.31 244.6 72.65 253.26 72.65 253.26 63.97 233.78 63.97 233.78 79.17 212.13 79.17 212.13 68.31 218.62 68.31 218.62 72.65 227.28 72.65 227.28 63.97 207.8 63.97 207.8 63.97 207.8 79.17 186.15 79.17 186.15 68.31 192.65 68.31 192.65 72.65 201.31 72.65 201.31 63.97 181.82 63.97 181.82 79.17 160.18 79.17 160.18 68.31 166.67 68.31 166.67 72.65 175.33 72.65 175.33 63.97 155.85 63.97 155.85 79.17 134.2 79.17 134.2 68.31 140.7 68.31 140.7 72.65 149.35 72.65 149.35 63.97 129.87 63.97 129.87 79.17 108.23 79.17 108.23 68.31 114.72 68.31 114.72 72.65 123.38 72.65 123.38 63.97 103.9 63.97 103.9 79.17 82.25 79.17 82.25 68.31 88.75 68.31 88.75 72.65 97.41 72.65 97.41 63.97 77.92 63.97 77.92 79.17 56.28 79.17 56.28 68.31 62.77 68.31 62.77 72.65 71.43 72.65 71.43 63.97 51.95 63.97 51.95 79.17 30.3 79.17 30.3 68.31 36.8 68.31 36.8 72.65 45.46 72.65 45.46 63.97 25.98 63.97 25.98 79.17 4.33 79.17 4.33 68.31 10.82 68.31 10.82 72.65 19.48 72.65 19.48 63.97 0 63.97"/><polygon class="cls-1" points="0 6.51 0 0 290.06 0 290.06 6.51 285.73 6.51 285.73 21.7 264.08 21.7 264.08 10.85 270.57 10.85 270.57 15.19 279.23 15.19 279.23 6.51 259.75 6.51 259.75 21.7 238.1 21.7 238.1 10.85 244.6 10.85 244.6 15.19 253.26 15.19 253.26 6.51 233.78 6.51 233.78 21.7 212.13 21.7 212.13 10.85 218.62 10.85 218.62 15.19 227.28 15.19 227.28 6.51 207.8 6.51 207.8 6.51 207.8 21.7 186.15 21.7 186.15 10.85 192.65 10.85 192.65 15.19 201.31 15.19 201.31 6.51 181.82 6.51 181.82 21.7 160.18 21.7 160.18 10.85 166.67 10.85 166.67 15.19 175.33 15.19 175.33 6.51 155.85 6.51 155.85 21.7 134.2 21.7 134.2 10.85 140.7 10.85 140.7 15.19 149.35 15.19 149.35 6.51 129.87 6.51 129.87 21.7 108.23 21.7 108.23 10.85 114.72 10.85 114.72 15.19 123.38 15.19 123.38 6.51 103.9 6.51 103.9 21.7 82.25 21.7 82.25 10.85 88.75 10.85 88.75 15.19 97.41 15.19 97.41 6.51 77.92 6.51 77.92 21.7 56.28 21.7 56.28 10.85 62.77 10.85 62.77 15.19 71.43 15.19 71.43 6.51 51.95 6.51 51.95 21.7 30.3 21.7 30.3 10.85 36.8 10.85 36.8 15.19 45.46 15.19 45.46 6.51 25.98 6.51 25.98 21.7 4.33 21.7 4.33 10.85 10.82 10.85 10.82 15.19 19.48 15.19 19.48 6.51 0 6.51"/></g></g></svg>