<svg xmlns="http://www.w3.org/2000/svg" viewBox="0 0 290.06 21.7"><defs><style>.cls-1{fill:#eaedc6;}</style></defs><title>patron-single_1</title><g id="Capa_2" data-name="Capa 2"><g id="Capa_1-2" data-name="Capa 1"><polygon class="cls-1" points="0 6.51 0 0 290.06 0 290.06 6.51 285.73 6.51 285.73 21.7 264.08 21.7 264.08 10.85 270.57 10.85 270.57 15.19 279.23 15.19 279.23 6.51 259.75 6.51 259.75 21.7 238.1 21.7 238.1 10.85 244.6 10.85 244.6 15.19 253.26 15.19 253.26 6.51 233.78 6.51 233.78 21.7 212.13 21.7 212.13 10.85 218.62 10.85 218.62 15.19 227.28 15.19 227.28 6.51 207.8 6.51 207.8 6.51 207.8 21.7 186.15 21.7 186.15 10.85 192.65 10.85 192.65 15.19 201.31 15.19 201.31 6.51 181.82 6.51 181.82 21.7 160.18 21.7 160.18 10.85 166.67 10.85 166.67 15.19 175.33 15.19 175.33 6.51 155.85 6.51 155.85 21.7 134.2 21.7 134.2 10.85 140.7 10.85 140.7 15.19 149.35 15.19 149.35 6.51 129.87 6.51 129.87 21.7 108.23 21.7 108.23 10.85 114.72 10.85 114.72 15.19 123.38 15.19 123.38 6.51 103.9 6.51 103.9 21.7 82.25 21.7 82.25 10.85 88.75 10.85 88.75 15.19 97.41 15.19 97.41 6.51 77.92 6.51 77.92 21.7 56.28 21.7 56.28 10.85 62.77 10.85 62.77 15.19 71.43 15.19 71.43 6.51 51.95 6.51 51.95 21.7 30.3 21.7 30.3 10.85 36.8 10.85 36.8 15.19 45.46 15.19 45.46 6.51 25.98 6.51 25.98 21.7 4.33 21.7 4.33 10.85 10.82 10.85 10.82 15.19 19.48 15.19 19.48 6.51 0 6.51"/></g></g></svg>