<svg xmlns="http://www.w3.org/2000/svg" xmlns:xlink="http://www.w3.org/1999/xlink" viewBox="0 0 1679.72 954"><defs><style>.cls-1,.cls-2{fill:none;}.cls-2{stroke:#a8ab15;stroke-linecap:round;stroke-linejoin:round;stroke-width:0.5px;}.cls-3{opacity:0.15;fill:url(#GotaAvoile);}</style><pattern id="GotaAvoile" data-name="GotaAvoile" width="62.36" height="48.19" patternTransform="translate(-76.36 -154.25) scale(3.04)" patternUnits="userSpaceOnUse" viewBox="0 0 62.36 48.19"><rect class="cls-1" width="62.36" height="48.19"/><path class="cls-2" d="M64.84,49.8a24.53,24.53,0,0,0-2.48-4.4"/><path class="cls-2" d="M65.88,55.69a5.57,5.57,0,0,0,2.05-4.32c0-4.54-4.89-7.82-5.57-11.93"/><path class="cls-2" d="M57.85,47.61c-.14.27-.28.54-.4.82"/><path class="cls-2" d="M60.54,43.47c-.62.93-1.29,1.86-1.9,2.8"/><path class="cls-2" d="M62.36,39.44A8.21,8.21,0,0,1,61.42,42"/><path class="cls-2" d="M2.48,49.8A24.53,24.53,0,0,0,0,45.4"/><path class="cls-2" d="M3.52,55.69a5.57,5.57,0,0,0,2.05-4.32C5.57,46.83.68,43.55,0,39.44"/><path class="cls-2" d="M0,39.44A8.46,8.46,0,0,1-.94,42"/><path class="cls-2" d="M64.84,1.61a24.09,24.09,0,0,0-2.48-4.39"/><path class="cls-2" d="M65.88,7.5a5.57,5.57,0,0,0,2.05-4.32c0-4.53-4.89-7.82-5.57-11.93"/><path class="cls-2" d="M57,1.61a6.31,6.31,0,0,0-.2,1.57,5.57,5.57,0,0,0,5.57,5.57,5.71,5.71,0,0,0,2-.36"/><path class="cls-2" d="M57.85-.58c-.14.27-.28.54-.4.82"/><path class="cls-2" d="M33.66,25.71a23.85,23.85,0,0,0-2.48-4.4"/><path class="cls-2" d="M33.37,29.15a3.22,3.22,0,0,0,.57-1.82"/><path class="cls-2" d="M34.7,31.59a5.55,5.55,0,0,0,2-4.31c0-4.54-4.89-7.82-5.57-11.93"/><path class="cls-2" d="M25.81,25.71a6.31,6.31,0,0,0-.2,1.57,5.57,5.57,0,0,0,5.57,5.56,5.4,5.4,0,0,0,2-.36"/><path class="cls-2" d="M26.67,23.51c-.14.27-.28.55-.4.82"/><path class="cls-2" d="M29.36,19.38c-.62.93-1.3,1.85-1.9,2.8"/><path class="cls-2" d="M31.18,15.35a8.31,8.31,0,0,1-.94,2.57"/><path class="cls-2" d="M2.48,1.61A24.09,24.09,0,0,0,0-2.78"/><path class="cls-2" d="M2.19,5.06a3.24,3.24,0,0,0,.56-1.82"/><path class="cls-2" d="M3.52,7.5A5.57,5.57,0,0,0,5.57,3.18C5.57-1.35.68-4.64,0-8.75"/><path class="cls-2" d="M-5.38,1.61a6.82,6.82,0,0,0-.19,1.57A5.57,5.57,0,0,0,0,8.75a5.61,5.61,0,0,0,2-.36"/></pattern></defs><title>patron-contacto</title><g id="Capa_2" data-name="Capa 2"><g id="Capa_1-2" data-name="Capa 1"><rect class="cls-3" width="1679.72" height="954"/></g></g></svg>