<?xml version="1.0" encoding="utf-8"?>
<!-- Generator: Adobe Illustrator 22.1.0, SVG Export Plug-In . SVG Version: 6.00 Build 0)  -->
<svg version="1.1" id="Capa_1" xmlns="http://www.w3.org/2000/svg" xmlns:xlink="http://www.w3.org/1999/xlink" x="0px" y="0px"
	 viewBox="0 0 59.7 59.1" style="enable-background:new 0 0 59.7 59.1;" xml:space="preserve">
<style type="text/css">
	.st0{fill:#505326;}
</style>
<g>
	<g>
		<path class="st0" d="M12.3,52.8l1.1-1.1l0.2,0.1c0,0.1-0.1,0.2-0.1,0.3c0,0.1-0.1,0.2-0.1,0.4c0,0.1,0,0.3,0,0.4s0,0.2,0.1,0.2
			c0.1,0,0.1,0.1,0.2,0.2c0.1,0.1,0.2,0.1,0.2,0.2l0.2,0.1l2.9-3c0,0,0.1-0.1,0.1-0.1c0,0,0-0.1,0-0.1c0,0,0-0.1,0.1-0.2
			s0-0.1-0.1-0.2c0-0.1-0.1-0.1-0.2-0.2c-0.1-0.1-0.2-0.1-0.2-0.2l0.2-0.2l2.5,1.5l-0.2,0.2c-0.1,0-0.2-0.1-0.3-0.1
			c-0.1-0.1-0.2-0.1-0.3-0.1c-0.1,0-0.2,0-0.3,0c-0.1,0-0.1,0.1-0.2,0.1l-3,3.1l0.1,0.1c0.1,0,0.2,0.1,0.2,0.1
			c0.1,0,0.2,0.1,0.3,0.1c0.1,0,0.2,0,0.3,0c0.1,0,0.3-0.1,0.4-0.1c0.2-0.1,0.3-0.1,0.5-0.2c0.1-0.1,0.2-0.1,0.3-0.2l0.2,0.1
			l-1.1,1.1L12.3,52.8z"/>
		<path class="st0" d="M13.1,47L13.1,47c0.1,0,0.2,0,0.3,0s0.2,0,0.3,0.1c0.1,0,0.2,0.1,0.3,0.1c0.1,0.1,0.2,0.1,0.3,0.2
			c0.3,0.3,0.5,0.6,0.5,0.9c0,0.3-0.2,0.7-0.5,1c-0.2,0.2-0.5,0.4-0.8,0.6c-0.3,0.1-0.6,0.2-0.9,0.2c-0.3,0-0.6,0-0.9-0.1
			c-0.3-0.1-0.5-0.2-0.8-0.4c-0.2-0.1-0.3-0.3-0.4-0.4c-0.1-0.1-0.1-0.3-0.2-0.4l-1-0.6l0-0.1l1.9-1.3c0.1,0,0.1-0.1,0.2-0.2
			s0.2-0.1,0.2-0.2c0.1-0.1,0.1-0.2,0.1-0.3c0-0.1-0.1-0.2-0.2-0.3c0,0-0.1-0.1-0.2-0.1c-0.1,0-0.2-0.1-0.2-0.1l0.3-0.2
			c0.2,0.1,0.4,0.2,0.6,0.2c0.1,0.1,0.3,0.2,0.4,0.3c0.2,0.2,0.3,0.3,0.3,0.5C13.2,46.7,13.2,46.9,13.1,47z M11.2,48.4
			c0,0-0.1,0.1-0.1,0.2c0,0.1-0.1,0.1-0.1,0.2c0,0.1,0,0.2,0,0.2s0.1,0.1,0.2,0.2c0.1,0.1,0.3,0.2,0.4,0.2c0.2,0,0.4,0,0.6-0.1
			c0.2-0.1,0.4-0.2,0.6-0.3c0.2-0.1,0.4-0.3,0.6-0.5c0.1-0.1,0.1-0.2,0.2-0.3c0.1-0.1,0.1-0.2,0.1-0.3c0-0.1,0-0.2,0-0.2
			c0-0.1-0.1-0.2-0.2-0.2c-0.1-0.1-0.2-0.1-0.3-0.2c-0.1,0-0.3,0-0.4,0L11.2,48.4z"/>
		<path class="st0" d="M8.4,41.3l0.3-0.1c0.2,0.1,0.4,0.3,0.5,0.3s0.2,0.2,0.4,0.4c0.2,0.2,0.2,0.5,0.2,0.7c0,0.2-0.1,0.4-0.3,0.5
			c0,0-0.1,0.1-0.2,0.1c-0.1,0-0.2,0.1-0.3,0.1L8,43.7c-0.1,0-0.2,0.1-0.3,0.1c-0.1,0-0.1,0.1-0.2,0.1c-0.1,0.1-0.2,0.1-0.2,0.2
			c0,0.1,0,0.2,0.1,0.3c0,0.1,0.1,0.1,0.3,0.2c0.1,0.1,0.3,0.2,0.6,0.2l2.5-1l0.7,1l-2.1,0.9c-0.1,0-0.1,0.1-0.3,0.1S9,45.9,8.9,46
			c-0.1,0.1-0.2,0.2-0.2,0.2c0,0.1,0,0.2,0.1,0.3c0,0.1,0.1,0.1,0.2,0.2c0.1,0.1,0.1,0.1,0.2,0.1l-0.3,0.1c-0.2-0.1-0.3-0.2-0.5-0.3
			c-0.2-0.1-0.3-0.2-0.4-0.4c-0.2-0.2-0.2-0.4-0.2-0.6c0-0.2,0.1-0.4,0.2-0.5l0,0c-0.3-0.1-0.6-0.2-0.8-0.3
			c-0.2-0.1-0.5-0.3-0.6-0.6c-0.2-0.2-0.2-0.4-0.2-0.6c0-0.2,0.1-0.4,0.3-0.5c0,0,0.1-0.1,0.2-0.1c0.1-0.1,0.2-0.1,0.3-0.1l1-0.4
			c0.1,0,0.2-0.1,0.3-0.1c0.1,0,0.2-0.1,0.2-0.1c0.1-0.1,0.2-0.2,0.2-0.2c0-0.1,0-0.2-0.1-0.3c0-0.1-0.1-0.1-0.2-0.2
			C8.5,41.4,8.4,41.3,8.4,41.3z"/>
		<path class="st0" d="M4.9,37.5c0.3-0.1,0.6-0.2,0.9-0.2c0.3,0,0.6,0,0.9,0.2c0.3,0.1,0.6,0.3,0.8,0.5c0.2,0.2,0.4,0.5,0.6,0.9
			c0.2,0.5,0.3,0.9,0.1,1.3S7.7,41,7.3,41.1c-0.3,0.1-0.6,0.2-0.9,0.2s-0.6-0.1-0.9-0.2c-0.3-0.1-0.5-0.3-0.8-0.5
			c-0.2-0.2-0.4-0.5-0.6-0.9c-0.2-0.5-0.3-1-0.2-1.4C4.2,38,4.5,37.7,4.9,37.5z M5,38.9c-0.3,0.1-0.4,0.2-0.5,0.4
			c-0.1,0.1-0.1,0.3,0,0.5c0.1,0.2,0.2,0.3,0.4,0.4c0.2,0.1,0.5,0.1,0.8,0.1c0.3,0,0.5-0.1,0.8-0.1C6.7,40,7,39.9,7.2,39.8
			c0.3-0.1,0.4-0.2,0.5-0.4c0.1-0.1,0.1-0.3,0-0.5c-0.1-0.2-0.2-0.3-0.4-0.4c-0.2-0.1-0.4-0.1-0.7-0.1c-0.2,0-0.5,0.1-0.8,0.1
			S5.3,38.8,5,38.9z"/>
		<path class="st0" d="M1.3,34.9c0.2,0,0.4,0,0.5,0.1c0.2,0.1,0.3,0.2,0.3,0.4s0,0.4-0.1,0.5c-0.1,0.2-0.2,0.3-0.4,0.3
			c-0.2,0-0.4,0-0.5-0.1c-0.2-0.1-0.3-0.3-0.3-0.4c0-0.2,0-0.4,0.1-0.5S1.1,34.9,1.3,34.9z M5.7,33.8l0.3,0c0.2,0.2,0.3,0.4,0.4,0.5
			c0.1,0.1,0.2,0.3,0.2,0.5c0.1,0.3,0.1,0.5,0,0.7c-0.1,0.2-0.3,0.3-0.5,0.4c-0.1,0-0.2,0-0.3,0s-0.2,0-0.3,0l-1.1,0
			c-0.1,0-0.2,0-0.3,0c-0.1,0-0.2,0-0.2,0c-0.1,0-0.2,0.1-0.3,0.2c0,0.1,0,0.2,0,0.3c0,0.1,0.1,0.2,0.1,0.2c0,0.1,0.1,0.1,0.1,0.2
			l-0.3,0c-0.1-0.2-0.2-0.3-0.3-0.5c-0.1-0.2-0.2-0.3-0.2-0.5c-0.1-0.3-0.1-0.5,0-0.7C3,35,3.2,34.9,3.4,34.8c0,0,0.1,0,0.2,0
			c0.1,0,0.2,0,0.3,0l1.1,0c0.1,0,0.2,0,0.3,0c0.1,0,0.2,0,0.2,0c0.1,0,0.2-0.1,0.3-0.2s0-0.2,0-0.3c0-0.1-0.1-0.1-0.1-0.2
			C5.7,33.9,5.7,33.9,5.7,33.8z"/>
		<path class="st0" d="M0.2,31.4l4.4,0.4c0.1,0,0.2,0,0.3,0s0.2,0,0.3,0c0.1,0,0.2-0.1,0.3-0.1c0-0.1,0.1-0.2,0-0.4
			c0-0.1,0-0.1-0.1-0.2c0-0.1-0.1-0.2-0.1-0.2l0.3,0c0.1,0.2,0.2,0.4,0.3,0.6S6,31.8,6,32c0,0.3,0,0.5-0.1,0.7
			C5.8,32.9,5.6,33,5.4,33c-0.1,0-0.2,0-0.3,0c-0.1,0-0.2,0-0.3,0l-3.5-0.3c0,0-0.1,0-0.1,0c0,0-0.1,0-0.1,0c-0.1,0-0.2,0-0.2,0.1
			c0,0-0.1,0.1-0.1,0.1s0,0.1,0,0.2c0,0.1,0,0.2,0,0.3l-0.3,0L0.2,31.4L0.2,31.4z"/>
		<path class="st0" d="M0.7,27.9c0.2,0,0.3,0.1,0.5,0.2c0.1,0.1,0.2,0.3,0.2,0.5c0,0.2-0.1,0.4-0.2,0.5c-0.1,0.1-0.3,0.2-0.5,0.2
			c-0.2,0-0.3-0.1-0.5-0.2C0.1,29,0,28.9,0,28.7c0-0.2,0.1-0.4,0.2-0.5S0.5,27.9,0.7,27.9z M5.1,27.9L5.5,28
			c0.1,0.2,0.2,0.4,0.2,0.6c0.1,0.1,0.1,0.3,0.1,0.5c0,0.3-0.1,0.5-0.2,0.7C5.4,29.9,5.3,30,5,30c-0.1,0-0.2,0-0.3,0s-0.2,0-0.3-0.1
			l-1.1-0.3c-0.1,0-0.2,0-0.3-0.1c-0.1,0-0.2,0-0.3,0c-0.1,0-0.2,0-0.3,0.1c-0.1,0.1-0.1,0.2-0.1,0.3c0,0.1,0,0.2,0,0.2
			c0,0.1,0.1,0.2,0.1,0.2l-0.3-0.1c-0.1-0.2-0.2-0.4-0.2-0.6S2,29.4,2,29.3C2,29,2,28.8,2.2,28.6c0.1-0.2,0.3-0.2,0.5-0.2
			c0,0,0.1,0,0.2,0c0.1,0,0.2,0,0.3,0.1l1.1,0.3c0.1,0,0.2,0,0.3,0.1s0.2,0,0.2,0c0.1,0,0.2,0,0.3-0.1c0-0.1,0.1-0.2,0.1-0.3
			c0-0.1,0-0.2,0-0.2C5.2,28,5.2,27.9,5.1,27.9z"/>
		<path class="st0" d="M4.5,20.5c0.9,0.2,1.6,0.6,2.1,1.3c0.5,0.7,0.7,1.5,0.5,2.4s-0.6,1.6-1.3,2.1S4.2,27,3.3,26.8
			s-1.6-0.6-2.1-1.3c-0.5-0.7-0.7-1.5-0.5-2.4s0.6-1.6,1.3-2.1C2.8,20.5,3.6,20.3,4.5,20.5z M4.4,20.8c-0.8-0.1-1.5,0-2.2,0.5
			c-0.7,0.4-1.1,1.1-1.2,1.9c-0.1,0.8,0,1.5,0.5,2.2c0.5,0.6,1.1,1,1.9,1.2s1.5,0,2.2-0.5c0.7-0.4,1.1-1.1,1.2-1.9
			c0.1-0.8,0-1.5-0.5-2.2C5.9,21.4,5.2,21,4.4,20.8z M6,21.8l-0.2,1.3c-0.4,0.2-0.7,0.3-0.9,0.4c-0.2,0.1-0.5,0.2-0.8,0.4L4,24
			l1,0.2c0.1,0,0.1,0,0.2,0s0.1,0,0.1-0.1c0,0,0-0.1,0.1-0.1c0-0.1,0-0.1,0.1-0.1l0.2,0l-0.3,1.7l-0.2,0c0,0,0-0.1,0-0.2
			c0-0.1,0-0.1,0-0.2c0-0.1,0-0.1-0.1-0.1S4.9,25,4.8,25l-2.3-0.4c-0.1,0-0.1,0-0.1,0c0,0-0.1,0-0.1,0.1c0,0-0.1,0.1-0.1,0.2
			c0,0.1-0.1,0.1-0.1,0.1l-0.2,0l0.3-1.9c0.1-0.4,0.2-0.7,0.4-0.9S3,21.9,3.3,22c0.2,0,0.4,0.2,0.5,0.3S4,22.7,4,22.9
			c0.1-0.1,0.3-0.2,0.5-0.3s0.4-0.2,0.7-0.4c0.1,0,0.1-0.1,0.2-0.2C5.6,22.1,5.6,22,5.7,22c0,0,0-0.1,0.1-0.1c0-0.1,0-0.1,0-0.1
			L6,21.8z M3.2,22.9c-0.2,0-0.4,0-0.5,0.1c-0.1,0.1-0.2,0.3-0.2,0.5l0,0.2L3.8,24l0-0.2c0-0.2,0-0.4-0.1-0.6
			C3.6,23.1,3.4,23,3.2,22.9z"/>
		<path class="st0" d="M4.5,13.9c0.2,0.1,0.3,0.2,0.3,0.4c0.1,0.2,0,0.4-0.1,0.5c-0.1,0.2-0.2,0.3-0.4,0.4c-0.2,0.1-0.4,0.1-0.5,0
			S3.6,15,3.5,14.8c-0.1-0.2,0-0.4,0.1-0.5c0.1-0.2,0.2-0.3,0.4-0.4C4.2,13.8,4.3,13.8,4.5,13.9z M8.5,16l0.3,0.2
			c0,0.3,0,0.5-0.1,0.6c0,0.2-0.1,0.3-0.2,0.5c-0.1,0.3-0.3,0.4-0.5,0.5c-0.2,0.1-0.4,0.1-0.6,0c-0.1,0-0.2-0.1-0.2-0.1
			c-0.1-0.1-0.2-0.1-0.2-0.2l-0.8-0.8C6,16.6,6,16.6,5.9,16.5c-0.1-0.1-0.1-0.1-0.2-0.1c-0.1-0.1-0.2-0.1-0.3-0.1
			c-0.1,0-0.1,0.1-0.2,0.3c0,0.1-0.1,0.1-0.1,0.2c0,0.1,0,0.2,0,0.2l-0.3-0.2c0-0.2,0-0.4,0.1-0.6c0-0.2,0.1-0.4,0.2-0.5
			c0.1-0.3,0.3-0.4,0.5-0.5c0.2-0.1,0.4-0.1,0.6,0c0,0,0.1,0.1,0.2,0.1c0.1,0.1,0.2,0.1,0.3,0.2l0.8,0.8c0.1,0.1,0.1,0.1,0.2,0.2
			c0.1,0.1,0.2,0.1,0.2,0.1c0.1,0.1,0.2,0.1,0.3,0c0.1,0,0.1-0.1,0.2-0.3c0-0.1,0.1-0.1,0.1-0.2C8.4,16.1,8.5,16,8.5,16z"/>
		<path class="st0" d="M10.1,14.7c-0.2,0.3-0.3,0.4-0.5,0.6c-0.2,0.1-0.3,0.2-0.4,0.3c-0.1,0.1-0.2,0.1-0.3,0.1
			c-0.1,0-0.2,0-0.2-0.1c-0.1-0.1-0.2-0.2-0.2-0.3c0-0.1,0-0.3,0.1-0.4c0.1-0.1,0.2-0.2,0.3-0.2c0.1,0,0.2-0.1,0.4,0
			c0.1,0,0.2,0,0.4,0.1s0.2,0.1,0.3,0.1C9.9,14.4,10,14.2,10,14c0-0.2-0.1-0.3-0.3-0.5c-0.1-0.1-0.1-0.1-0.2-0.1c-0.1,0-0.2,0-0.2,0
			c-0.1,0-0.2,0.1-0.3,0.1c-0.1,0.1-0.2,0.1-0.3,0.2c-0.3,0.2-0.5,0.3-0.7,0.3c-0.2,0-0.5,0-0.7-0.2C7.2,14,7.1,13.9,7,13.7
			c-0.1-0.1-0.1-0.3-0.1-0.5c0-0.2,0-0.4,0.1-0.6s0.2-0.5,0.4-0.7c0.1-0.2,0.2-0.3,0.3-0.4c0.1-0.1,0.2-0.2,0.4-0.3
			c0.1-0.1,0.2-0.1,0.4-0.1c0.1,0,0.2,0,0.3,0.1c0.1,0.1,0.2,0.2,0.2,0.3c0,0.1,0,0.3-0.1,0.4c-0.1,0.1-0.2,0.2-0.3,0.2
			c-0.1,0-0.2,0-0.3,0c-0.1,0-0.2,0-0.3-0.1c-0.1,0-0.2-0.1-0.3-0.1c-0.1,0.1-0.1,0.3-0.1,0.5s0.1,0.3,0.2,0.4C7.8,13,7.8,13,7.9,13
			C8,13,8,13,8.1,13c0.1,0,0.2-0.1,0.2-0.1s0.2-0.1,0.3-0.2c0.3-0.2,0.5-0.3,0.8-0.4c0.2,0,0.5,0,0.7,0.2c0.1,0.1,0.3,0.2,0.3,0.4
			c0.1,0.2,0.1,0.3,0.1,0.5c0,0.2,0,0.4-0.1,0.6C10.4,14.2,10.3,14.4,10.1,14.7z"/>
		<path class="st0" d="M14.7,8.9L14.7,8.9c0,0.1-0.1,0.2-0.1,0.3c0,0.1-0.1,0.2-0.1,0.3c0,0.1-0.1,0.2-0.2,0.3S14.1,10,14,10.1
			c-0.3,0.3-0.7,0.4-1,0.3c-0.3-0.1-0.6-0.2-0.9-0.6c-0.2-0.3-0.4-0.5-0.5-0.8c-0.1-0.3-0.1-0.6-0.1-0.9c0-0.3,0.1-0.6,0.2-0.9
			c0.1-0.3,0.3-0.5,0.5-0.7c0.2-0.1,0.3-0.2,0.5-0.3s0.3-0.1,0.4-0.1L14,5.3l0.1,0l1,2.1c0,0.1,0.1,0.2,0.1,0.3s0.1,0.2,0.1,0.2
			C15.4,7.9,15.5,8,15.6,8c0.1,0,0.2-0.1,0.3-0.1c0.1,0,0.1-0.1,0.2-0.2s0.1-0.1,0.1-0.2l0.1,0.3C16.2,8,16.1,8.2,16,8.3
			c-0.1,0.1-0.2,0.3-0.3,0.4c-0.2,0.2-0.4,0.3-0.6,0.3S14.8,9,14.7,8.9z M13.5,6.8c0,0-0.1-0.1-0.1-0.1s-0.1-0.1-0.2-0.1
			c-0.1,0-0.1,0-0.2,0c-0.1,0-0.2,0.1-0.2,0.1c-0.1,0.1-0.2,0.2-0.2,0.4c0,0.2,0,0.4,0,0.6c0,0.2,0.1,0.4,0.2,0.7
			C12.9,8.6,13,8.8,13.2,9c0.1,0.1,0.2,0.2,0.2,0.2c0.1,0.1,0.2,0.1,0.2,0.1c0.1,0,0.2,0,0.2,0s0.2-0.1,0.3-0.1
			c0.1-0.1,0.2-0.2,0.2-0.3c0-0.1,0.1-0.2,0.1-0.4L13.5,6.8z"/>
		<path class="st0" d="M21.9,2.7c0.1,0.3,0.2,0.6,0.2,0.9c0,0.3,0,0.6-0.1,0.9c-0.1,0.3-0.3,0.6-0.5,0.8c-0.2,0.2-0.5,0.4-0.9,0.6
			c-0.1,0-0.2,0.1-0.4,0.1c-0.2,0.1-0.3,0.1-0.5,0.1c-0.2,0-0.4,0-0.6,0C19,6,18.8,6,18.7,5.8l-0.7-4c0,0,0-0.1,0-0.1
			c0,0,0-0.1,0-0.1c0-0.1-0.1-0.1-0.1-0.2c0,0-0.1-0.1-0.2-0.1c-0.1,0-0.1,0-0.2,0c-0.1,0-0.2,0-0.3,0.1l0-0.3l1.7-0.8l0.1,0
			l0.4,2.4l0,0c0-0.1,0.1-0.1,0.1-0.2c0-0.1,0.1-0.2,0.2-0.2c0.1-0.1,0.1-0.2,0.3-0.2s0.2-0.2,0.3-0.2c0.4-0.2,0.7-0.2,1,0
			C21.5,2,21.8,2.3,21.9,2.7z M20.7,3.2c0-0.1-0.1-0.2-0.2-0.3c-0.1-0.1-0.1-0.2-0.2-0.2c-0.1-0.1-0.1-0.1-0.2-0.1
			c-0.1,0-0.2,0-0.3,0.1c-0.1,0-0.2,0.1-0.3,0.2c-0.1,0.1-0.1,0.2-0.2,0.3l0.4,2.1c0,0.1,0.1,0.1,0.1,0.2S20,5.6,20,5.6
			c0.1,0,0.1,0.1,0.2,0.1c0.1,0,0.2,0,0.3,0c0.2-0.1,0.3-0.2,0.4-0.4C20.9,5.1,21,4.9,21,4.7c0-0.2,0-0.5,0-0.7
			C20.9,3.7,20.8,3.5,20.7,3.2z"/>
		<path class="st0" d="M26.5,1c0,0.1,0,0.2,0,0.3s0,0.2-0.1,0.3c-0.1,0.1-0.1,0.2-0.2,0.2c-0.1,0.1-0.2,0.1-0.3,0.1
			c-0.2,0-0.3,0-0.5,0s-0.2-0.2-0.2-0.3c0-0.1,0-0.2,0-0.3c0-0.1,0-0.2,0.1-0.4c-0.1,0.1-0.3,0.2-0.4,0.3s-0.2,0.3-0.3,0.4l0,2.7
			l-1.2,0.3l0-2.3c0-0.1,0-0.2,0-0.3c0-0.1,0-0.2,0-0.3c0-0.1-0.1-0.2-0.1-0.3c-0.1,0-0.2,0-0.3,0c-0.1,0-0.2,0-0.2,0.1
			s-0.1,0.1-0.2,0.1l0-0.3c0.2-0.1,0.3-0.2,0.5-0.3c0.2-0.1,0.3-0.2,0.5-0.2c0.3-0.1,0.5-0.1,0.7,0c0.2,0.1,0.3,0.2,0.4,0.4l0,0
			c0.2-0.3,0.3-0.5,0.5-0.7c0.1-0.1,0.3-0.2,0.5-0.3c0.2,0,0.4,0,0.5,0.1S26.5,0.7,26.5,1z"/>
		<path class="st0" d="M30,3.3L30,3.3c-0.1,0.1-0.2,0.1-0.3,0.2c-0.1,0.1-0.2,0.1-0.3,0.2c-0.1,0.1-0.2,0.1-0.3,0.1
			c-0.1,0-0.2,0.1-0.4,0.1c-0.4,0-0.7-0.1-1-0.3c-0.2-0.2-0.3-0.6-0.4-1c0-0.3,0-0.6,0.1-0.9c0.1-0.3,0.3-0.6,0.5-0.8
			c0.2-0.2,0.4-0.4,0.7-0.5C29,0.1,29.3,0,29.6,0c0.2,0,0.4,0,0.6,0.1c0.2,0,0.3,0.1,0.4,0.2L31.7,0l0.1,0.1l-0.5,2.3
			c0,0.1,0,0.2-0.1,0.3c0,0.1,0,0.2,0,0.3c0,0.1,0,0.2,0.1,0.3c0.1,0.1,0.2,0.1,0.3,0.1c0.1,0,0.2,0,0.2,0c0.1,0,0.2-0.1,0.2-0.1
			L32,3.4c-0.2,0.1-0.4,0.2-0.6,0.2S31.2,3.8,31,3.8c-0.3,0-0.5,0-0.6-0.1C30.2,3.5,30.1,3.4,30,3.3z M30.4,0.9c0-0.1,0-0.1,0-0.2
			c0-0.1,0-0.1-0.1-0.2c0-0.1-0.1-0.1-0.2-0.1s-0.2,0-0.3,0c-0.2,0-0.3,0.1-0.4,0.2c-0.1,0.1-0.2,0.3-0.3,0.5
			c-0.1,0.2-0.2,0.4-0.2,0.7c-0.1,0.3-0.1,0.5-0.1,0.8c0,0.1,0,0.2,0,0.3c0,0.1,0.1,0.2,0.1,0.3c0,0.1,0.1,0.1,0.2,0.2
			c0.1,0,0.2,0.1,0.3,0.1c0.1,0,0.2,0,0.3-0.1C29.8,3.1,29.9,3,30,2.9L30.4,0.9z"/>
		<path class="st0" d="M37.4,4l-0.1,0.3c-0.3,0.1-0.5,0.1-0.6,0.1c-0.2,0-0.3,0-0.5,0c-0.3-0.1-0.5-0.2-0.6-0.3
			c-0.1-0.2-0.2-0.4-0.1-0.6c0-0.1,0-0.1,0-0.2c0-0.1,0.1-0.2,0.1-0.3L36,2c0-0.1,0.1-0.2,0.1-0.3c0-0.1,0-0.1,0.1-0.2
			c0-0.1,0-0.2,0-0.3c0-0.1-0.1-0.1-0.3-0.1c-0.1,0-0.2,0-0.4,0c-0.2,0-0.4,0.1-0.6,0.3l-1.1,2.5l-1.2-0.2l0.9-2.1
			c0-0.1,0.1-0.1,0.1-0.3s0.1-0.2,0.1-0.3c0-0.1,0-0.2,0-0.3c0-0.1-0.1-0.1-0.3-0.1c-0.1,0-0.2,0-0.2,0c-0.1,0-0.2,0-0.2,0l0.1-0.3
			c0.2,0,0.4-0.1,0.6-0.1c0.2,0,0.4,0,0.5,0c0.3,0,0.5,0.1,0.6,0.3C34.9,0.7,35,0.8,35,1l0,0c0.3-0.2,0.5-0.3,0.8-0.4
			c0.3-0.1,0.5-0.1,0.8,0c0.3,0,0.5,0.2,0.6,0.3s0.2,0.4,0.1,0.6c0,0.1,0,0.1-0.1,0.2c0,0.1-0.1,0.2-0.1,0.3l-0.5,1
			c0,0.1-0.1,0.2-0.1,0.3s-0.1,0.2-0.1,0.2c0,0.1,0,0.2,0,0.3C36.7,3.9,36.8,4,37,4c0.1,0,0.2,0,0.3,0C37.3,4,37.4,4,37.4,4z"/>
		<path class="st0" d="M40.3,5.2L40.3,5.2c-0.1,0-0.2,0.1-0.3,0.1c-0.1,0-0.2,0-0.3,0.1c-0.1,0-0.2,0-0.4,0c-0.1,0-0.2,0-0.4-0.1
			c-0.4-0.2-0.6-0.4-0.8-0.7s-0.1-0.7,0.1-1.1c0.1-0.3,0.3-0.6,0.5-0.8c0.2-0.2,0.5-0.4,0.7-0.5c0.3-0.1,0.5-0.2,0.8-0.2
			c0.3,0,0.6,0,0.9,0.1c0.2,0.1,0.4,0.2,0.5,0.3s0.2,0.2,0.3,0.3l0.7-1c0,0,0-0.1,0.1-0.1c0,0,0-0.1,0-0.1c0-0.1,0-0.1,0-0.2
			c0-0.1-0.1-0.1-0.1-0.2c-0.1-0.1-0.1-0.1-0.2-0.2c-0.1,0-0.2-0.1-0.3-0.1l0.2-0.2l1.9,0.7l0,0.1l-2.5,3.6c0,0.1-0.1,0.1-0.2,0.2
			c-0.1,0.1-0.1,0.2-0.1,0.2c-0.1,0.1-0.1,0.2,0,0.3c0,0.1,0.1,0.1,0.3,0.2c0.1,0,0.1,0,0.2,0.1c0.1,0,0.2,0,0.2,0l-0.2,0.3
			c-0.3,0-0.5,0-0.6,0c-0.2,0-0.3,0-0.5-0.1c-0.2-0.1-0.4-0.2-0.5-0.4C40.4,5.5,40.3,5.4,40.3,5.2z M41.6,3.2c0-0.1,0-0.1,0-0.2
			c0-0.1,0-0.1,0-0.2c0-0.1-0.1-0.1-0.1-0.2c0-0.1-0.1-0.1-0.2-0.2c-0.1-0.1-0.3-0.1-0.5,0c-0.2,0.1-0.3,0.2-0.5,0.3
			c-0.2,0.1-0.3,0.3-0.5,0.5c-0.1,0.2-0.3,0.4-0.4,0.7c0,0.1-0.1,0.2-0.1,0.3c0,0.1,0,0.2,0,0.3c0,0.1,0,0.2,0.1,0.2
			c0.1,0.1,0.1,0.1,0.2,0.2c0.1,0,0.2,0.1,0.4,0c0.1,0,0.3-0.1,0.4-0.1L41.6,3.2z"/>
		<path class="st0" d="M49.1,8.7c-0.2,0.2-0.4,0.4-0.7,0.6c-0.3,0.1-0.5,0.2-0.8,0.3c-0.3,0-0.6,0-1-0.1c-0.3-0.1-0.6-0.3-0.9-0.5
			c-0.4-0.3-0.6-0.7-0.7-1.1c-0.1-0.4,0-0.8,0.3-1.2c0.2-0.3,0.4-0.5,0.7-0.6c0.3-0.1,0.6-0.2,0.9-0.3c0.3,0,0.6,0,0.9,0.1
			s0.6,0.3,0.9,0.5c0.4,0.3,0.7,0.7,0.8,1.1S49.4,8.3,49.1,8.7z M48.3,7.6c0.2-0.2,0.3-0.4,0.3-0.6s-0.1-0.3-0.2-0.4
			c-0.1-0.1-0.3-0.2-0.5-0.1c-0.2,0-0.5,0.1-0.7,0.3c-0.2,0.1-0.4,0.3-0.6,0.5c-0.2,0.2-0.4,0.4-0.5,0.6c-0.2,0.2-0.3,0.4-0.3,0.6
			c0,0.2,0.1,0.3,0.2,0.4c0.2,0.1,0.3,0.2,0.6,0.1c0.2,0,0.4-0.1,0.6-0.3c0.2-0.1,0.4-0.3,0.6-0.5C48,8,48.2,7.8,48.3,7.6z"/>
		<path class="st0" d="M51.8,10.3c-0.5,0.3-1,0.6-1.4,0.8c-0.4,0.2-0.8,0.5-1.2,0.7C49,11.9,48.8,12,48.5,12c-0.3,0.1-0.5,0.1-0.8,0
			c-0.3,0-0.5-0.1-0.7-0.2c-0.2-0.1-0.4-0.2-0.6-0.4c-0.2-0.2-0.3-0.3-0.3-0.4C46,10.9,46,10.8,46,10.6c0-0.1,0-0.2,0.1-0.3
			c0-0.1,0.1-0.1,0.2-0.2c0.1-0.1,0.2-0.1,0.4-0.1c0.1,0,0.3,0.1,0.4,0.2c0.1,0.1,0.1,0.2,0.2,0.3c0,0.1,0,0.2,0,0.4
			c0,0.1-0.1,0.2-0.1,0.3c-0.1,0.1-0.1,0.2-0.1,0.3c0.2,0,0.3,0,0.6-0.1c0.2-0.1,0.5-0.2,0.8-0.4L51,9.4l-0.5-0.5l0.3-0.2l0.5,0.5
			L51.6,9c0.2-0.1,0.4-0.2,0.7-0.3c0.3,0,0.5-0.1,0.8,0c0.3,0,0.5,0.1,0.7,0.2C54,9,54.2,9.2,54.4,9.4c0.1,0.2,0.2,0.3,0.3,0.4
			c0.1,0.1,0.1,0.2,0.1,0.4c0,0.1,0,0.2-0.1,0.3s-0.1,0.1-0.2,0.2c0,0-0.1,0.1-0.2,0.1s-0.1,0-0.2,0.1c-0.1,0-0.2,0-0.2,0
			c-0.1,0-0.1-0.1-0.2-0.2c-0.1-0.1-0.1-0.2-0.2-0.3c0-0.1,0-0.2,0-0.3c0-0.1,0.1-0.2,0.1-0.4s0.1-0.2,0.1-0.3
			c-0.2,0-0.3,0.1-0.6,0.1c-0.2,0.1-0.5,0.2-0.8,0.4l-0.4,0.2l0.6,0.7l-0.3,0.2L51.8,10.3z"/>
		<path class="st0" d="M58.7,17.4l-1.5,0.4l-0.1-0.2c0.1,0,0.2-0.1,0.2-0.2c0.1-0.1,0.2-0.2,0.3-0.3c0.1-0.1,0.2-0.2,0.2-0.3
			s0.1-0.2,0-0.3c0-0.1-0.1-0.2-0.1-0.3c0-0.1-0.1-0.2-0.1-0.3l-0.1-0.2l-4,1.1c0,0-0.1,0-0.1,0c0,0-0.1,0-0.1,0
			c-0.1,0-0.1,0.1-0.1,0.1c0,0,0,0.1,0,0.2c0,0.1,0,0.1,0.1,0.3c0,0.1,0.1,0.2,0.1,0.3L53,17.8l-1.4-2.6l0.3-0.1
			c0,0.1,0.1,0.1,0.2,0.3c0.1,0.1,0.1,0.2,0.2,0.2c0.1,0.1,0.2,0.1,0.2,0.1s0.2,0,0.3,0l4.1-1.1l-0.1-0.1c0-0.1-0.1-0.2-0.1-0.2
			s-0.1-0.2-0.2-0.3c-0.1-0.1-0.1-0.1-0.3-0.2c-0.1-0.1-0.3-0.1-0.4-0.1c-0.2,0-0.3-0.1-0.5-0.1c-0.1,0-0.3,0-0.4,0l-0.1-0.2
			l1.5-0.4L58.7,17.4z"/>
		<path class="st0" d="M55,21.9L55,21.9c-0.1-0.1-0.2-0.1-0.3-0.2c-0.1-0.1-0.2-0.1-0.3-0.2c-0.1-0.1-0.2-0.2-0.2-0.3
			s-0.1-0.2-0.2-0.3c-0.1-0.4-0.1-0.8,0.1-1s0.5-0.5,0.9-0.6c0.3-0.1,0.6-0.1,1-0.1s0.6,0.1,0.9,0.2c0.3,0.1,0.5,0.3,0.7,0.5
			c0.2,0.2,0.3,0.5,0.4,0.8c0.1,0.2,0.1,0.4,0.1,0.6c0,0.2,0,0.3-0.1,0.4l0.5,1l0,0.1l-2.3,0.1c-0.1,0-0.2,0-0.3,0
			c-0.1,0-0.2,0-0.3,0c-0.1,0-0.2,0.1-0.2,0.2s0,0.2,0,0.3c0,0.1,0.1,0.1,0.1,0.2c0.1,0.1,0.1,0.1,0.1,0.2l-0.3,0
			c-0.2-0.2-0.3-0.4-0.4-0.5c-0.1-0.1-0.2-0.3-0.2-0.5c-0.1-0.2-0.1-0.4,0-0.6C54.8,22.1,54.9,22,55,21.9z M57.4,21.7
			c0.1,0,0.1,0,0.2-0.1c0.1,0,0.1-0.1,0.2-0.1c0-0.1,0.1-0.1,0.1-0.2c0-0.1,0-0.2,0-0.3c0-0.2-0.1-0.3-0.3-0.4
			c-0.1-0.1-0.3-0.2-0.5-0.2c-0.2,0-0.4-0.1-0.7,0c-0.3,0-0.5,0.1-0.8,0.1c-0.1,0-0.2,0.1-0.3,0.1c-0.1,0-0.2,0.1-0.2,0.2
			c-0.1,0.1-0.1,0.1-0.1,0.2c0,0.1,0,0.2,0,0.3c0,0.1,0.1,0.2,0.2,0.3c0.1,0.1,0.2,0.2,0.3,0.2L57.4,21.7z"/>
		<path class="st0" d="M56.1,29.2l-0.3-0.1c-0.1-0.2-0.2-0.4-0.3-0.6s-0.1-0.3-0.1-0.5c0-0.3,0-0.5,0.2-0.7c0.1-0.2,0.3-0.3,0.5-0.3
			c0.1,0,0.1,0,0.2,0s0.2,0,0.3,0l1,0.2c0.1,0,0.2,0,0.3,0c0.1,0,0.2,0,0.2,0c0.1,0,0.2,0,0.3-0.1c0.1-0.1,0.1-0.2,0.1-0.3
			c0-0.1,0-0.2-0.1-0.3c-0.1-0.1-0.2-0.3-0.4-0.5l-2.7-0.4l-0.1-1.2l2.3,0.4c0.1,0,0.2,0,0.3,0c0.1,0,0.2,0,0.3,0
			c0.1,0,0.2,0,0.3-0.1c0-0.1,0.1-0.2,0.1-0.3c0-0.1,0-0.2-0.1-0.2c0-0.1-0.1-0.1-0.1-0.2l0.3,0.1c0.1,0.2,0.2,0.4,0.2,0.6
			c0.1,0.2,0.1,0.3,0.1,0.5c0,0.3,0,0.5-0.1,0.7c-0.1,0.2-0.3,0.3-0.5,0.3l0,0c0.2,0.2,0.4,0.5,0.6,0.7c0.1,0.2,0.2,0.5,0.2,0.8
			c0,0.3,0,0.5-0.2,0.6c-0.1,0.2-0.3,0.3-0.5,0.3c-0.1,0-0.1,0-0.2,0c-0.1,0-0.2,0-0.3,0l-1-0.2c-0.1,0-0.2,0-0.3,0
			c-0.1,0-0.2,0-0.3,0c-0.1,0-0.2,0-0.3,0.1c0,0.1-0.1,0.2-0.1,0.3c0,0.1,0,0.2,0.1,0.2C56.1,29.1,56.1,29.2,56.1,29.2z"/>
		<path class="st0" d="M57.2,34.3c-0.3,0-0.6-0.1-0.9-0.3s-0.5-0.3-0.7-0.6c-0.2-0.3-0.3-0.6-0.4-0.9s-0.1-0.7,0-1.1
			c0.1-0.5,0.3-0.9,0.6-1.2s0.7-0.4,1.2-0.3c0.3,0,0.6,0.1,0.9,0.3c0.3,0.2,0.5,0.4,0.7,0.6c0.2,0.2,0.3,0.5,0.4,0.8
			c0.1,0.3,0.1,0.7,0,1c-0.1,0.5-0.3,1-0.6,1.2C58,34.2,57.6,34.3,57.2,34.3z M57.7,33.1c0.3,0,0.5,0,0.6-0.1s0.2-0.2,0.3-0.4
			c0-0.2,0-0.4-0.2-0.5c-0.1-0.2-0.3-0.3-0.6-0.5c-0.2-0.1-0.5-0.2-0.8-0.3c-0.3-0.1-0.5-0.1-0.7-0.2c-0.3,0-0.5,0-0.7,0.1
			c-0.1,0.1-0.2,0.2-0.3,0.4c0,0.2,0,0.4,0.2,0.5c0.1,0.2,0.3,0.3,0.6,0.4c0.2,0.1,0.5,0.2,0.7,0.3C57.2,33,57.5,33,57.7,33.1z"/>
		<path class="st0" d="M54.6,37l-0.3-0.2c0-0.3,0-0.5,0-0.6c0-0.2,0-0.3,0.1-0.5c0.1-0.3,0.2-0.5,0.4-0.6c0.2-0.1,0.4-0.1,0.6-0.1
			c0.1,0,0.2,0.1,0.2,0.1s0.2,0.1,0.3,0.1l0.9,0.6C56.9,36,57,36,57,36c0.1,0,0.2,0.1,0.2,0.1c0.1,0,0.2,0,0.3,0
			c0.1,0,0.1-0.1,0.2-0.3c0-0.1,0-0.2,0-0.2c0-0.1,0-0.2,0-0.2l0.3,0.2c0,0.2,0,0.4,0,0.6c0,0.2,0,0.4-0.1,0.5
			c-0.1,0.3-0.2,0.5-0.4,0.6c-0.2,0.1-0.4,0.1-0.6,0.1c0,0-0.1,0-0.2-0.1c-0.1,0-0.2-0.1-0.3-0.1l-0.9-0.6c-0.1,0-0.2-0.1-0.3-0.1
			s-0.2-0.1-0.2-0.1c-0.1,0-0.2,0-0.3,0c-0.1,0-0.1,0.1-0.2,0.3c0,0.1,0,0.2,0,0.2C54.6,36.9,54.6,37,54.6,37z M58.9,38.4
			c-0.2-0.1-0.3-0.2-0.4-0.3c-0.1-0.2-0.1-0.4,0-0.5c0.1-0.2,0.2-0.3,0.3-0.4c0.2-0.1,0.3-0.1,0.5-0.1s0.3,0.2,0.4,0.3
			s0.1,0.4,0,0.5c-0.1,0.2-0.2,0.3-0.3,0.4C59.2,38.4,59,38.4,58.9,38.4z"/>
		<path class="st0" d="M58,42l-3.5-2.6c-0.1,0-0.1-0.1-0.2-0.2c-0.1-0.1-0.2-0.1-0.2-0.1c-0.1-0.1-0.2-0.1-0.3,0
			c-0.1,0-0.1,0.1-0.2,0.3c0,0.1,0,0.1-0.1,0.2c0,0.1,0,0.2,0,0.2l-0.3-0.2c0-0.3,0-0.5,0-0.6c0-0.2,0.1-0.3,0.1-0.5
			c0.1-0.3,0.3-0.5,0.5-0.6c0.2-0.1,0.4-0.1,0.6,0c0.1,0,0.2,0.1,0.2,0.1c0.1,0.1,0.2,0.1,0.2,0.2l2.8,2.1c0,0,0.1,0,0.1,0.1
			c0,0,0.1,0,0.1,0c0.1,0,0.2,0,0.2,0s0.1,0,0.2-0.1c0.1,0,0.1-0.1,0.1-0.2c0-0.1,0.1-0.1,0.1-0.2l0.2,0.2L58,42L58,42z"/>
		<path class="st0" d="M52,42.4l-0.2-0.2c0-0.3,0.1-0.5,0.1-0.6c0-0.2,0.1-0.3,0.2-0.5c0.1-0.3,0.3-0.4,0.5-0.5
			c0.2-0.1,0.4,0,0.6,0.1c0.1,0,0.1,0.1,0.2,0.1s0.1,0.1,0.2,0.2l0.8,0.8c0.1,0.1,0.1,0.1,0.2,0.2c0.1,0.1,0.1,0.1,0.2,0.1
			c0.1,0.1,0.2,0.1,0.3,0.1c0.1,0,0.2-0.1,0.2-0.2c0-0.1,0.1-0.1,0.1-0.2c0-0.1,0-0.2,0-0.2l0.2,0.2c0,0.2-0.1,0.4-0.1,0.6
			c0,0.2-0.1,0.3-0.2,0.5c-0.1,0.3-0.3,0.4-0.5,0.5c-0.2,0.1-0.4,0-0.6-0.1c0,0-0.1-0.1-0.2-0.1c-0.1-0.1-0.2-0.1-0.2-0.2l-0.8-0.8
			c-0.1-0.1-0.1-0.1-0.2-0.2c-0.1-0.1-0.2-0.1-0.2-0.2c-0.1-0.1-0.2-0.1-0.3-0.1c-0.1,0-0.2,0.1-0.2,0.2c0,0.1-0.1,0.1-0.1,0.2
			C52,42.3,52,42.4,52,42.4z M55.8,44.7c-0.2-0.1-0.3-0.2-0.3-0.4s0-0.4,0.1-0.5c0.1-0.2,0.2-0.3,0.4-0.3c0.2-0.1,0.4,0,0.5,0.1
			c0.2,0.1,0.3,0.2,0.3,0.4c0,0.2,0,0.4-0.1,0.5c-0.1,0.2-0.2,0.3-0.4,0.3S56,44.8,55.8,44.7z"/>
		<path class="st0" d="M49.9,51.9l-0.8-1.2l0.2-0.2c0.2,0.1,0.4,0.2,0.6,0.3c0.2,0.1,0.4,0,0.5,0c0.1,0,0.1-0.1,0.2-0.2
			c0.1-0.1,0.2-0.2,0.2-0.2l0.6-0.6l-1.2-1.8l-0.4,0.4c-0.1,0.1-0.2,0.2-0.2,0.3c-0.1,0.1-0.1,0.2-0.1,0.4c0,0.1,0,0.2,0,0.4
			c0,0.2,0.1,0.3,0.1,0.4L49.7,50l-1.2-1.9l0.2-0.2l0.1,0.1c0.1,0.1,0.2,0.2,0.3,0.2s0.2,0.1,0.2,0.1c0.1,0,0.2,0,0.3,0
			c0.1,0,0.2-0.1,0.3-0.2l0.4-0.4l-0.9-1.4c0,0,0-0.1-0.1-0.1c0,0,0-0.1-0.1-0.1C49.1,46,49,46,48.9,46s-0.2,0.1-0.4,0.3l-0.1-0.2
			l2-2l0.1,0.2c0,0-0.1,0.1-0.2,0.2c-0.1,0.1-0.1,0.2-0.1,0.2c0,0.1-0.1,0.2,0,0.3c0,0.1,0,0.2,0.1,0.2l2,3.1c0,0,0.1,0.1,0.1,0.1
			c0,0,0,0,0.1,0.1c0.1,0.1,0.2,0.1,0.3,0.1c0.1,0,0.3-0.1,0.5-0.3l0.1,0.2L49.9,51.9z"/>
		<path class="st0" d="M44,52.2c-0.2-0.3-0.3-0.5-0.4-0.8c-0.1-0.3-0.1-0.6,0-0.9c0.1-0.3,0.2-0.6,0.4-0.9c0.2-0.3,0.4-0.5,0.8-0.7
			c0.4-0.3,0.9-0.4,1.3-0.4c0.4,0,0.8,0.3,1,0.7c0.2,0.3,0.3,0.6,0.4,0.8c0.1,0.3,0.1,0.6,0,0.9c-0.1,0.3-0.2,0.6-0.4,0.8
			c-0.2,0.3-0.4,0.5-0.7,0.7c-0.5,0.3-0.9,0.4-1.3,0.4S44.3,52.6,44,52.2z M45.3,51.8c0.2,0.2,0.3,0.4,0.5,0.4s0.3,0,0.5-0.1
			c0.2-0.1,0.3-0.3,0.3-0.5s0-0.5-0.1-0.8c-0.1-0.2-0.2-0.5-0.3-0.8c-0.1-0.3-0.3-0.5-0.4-0.7c-0.2-0.2-0.3-0.4-0.5-0.4
			c-0.2-0.1-0.3,0-0.5,0.1c-0.2,0.1-0.3,0.3-0.3,0.5s0,0.5,0.1,0.7c0.1,0.2,0.2,0.5,0.3,0.8C45,51.4,45.2,51.6,45.3,51.8z"/>
		<path class="st0" d="M39.1,54.4C39,54.1,39,53.8,39,53.5c0-0.3,0.1-0.6,0.2-0.9c0.1-0.3,0.3-0.6,0.6-0.8s0.5-0.4,0.9-0.6
			c0.5-0.2,0.9-0.2,1.3-0.1s0.7,0.4,0.9,0.9c0.1,0.3,0.2,0.6,0.2,0.9c0,0.3-0.1,0.6-0.2,0.9c-0.1,0.3-0.3,0.5-0.5,0.8
			s-0.5,0.4-0.9,0.6c-0.5,0.2-1,0.3-1.4,0.1S39.3,54.9,39.1,54.4z M40.5,54.3c0.1,0.3,0.2,0.4,0.4,0.5c0.1,0.1,0.3,0.1,0.5,0
			c0.2-0.1,0.3-0.2,0.4-0.4c0.1-0.2,0.1-0.5,0.1-0.8c0-0.3-0.1-0.5-0.1-0.8c-0.1-0.3-0.2-0.5-0.2-0.7c-0.1-0.3-0.2-0.5-0.4-0.5
			c-0.1-0.1-0.3-0.1-0.5,0c-0.2,0.1-0.3,0.2-0.4,0.4c-0.1,0.2-0.1,0.4-0.1,0.7c0,0.2,0.1,0.5,0.1,0.8S40.4,54.1,40.5,54.3z"/>
		<path class="st0" d="M35.3,53.5L35.3,53.5c0.1-0.1,0.2-0.2,0.2-0.2c0.1-0.1,0.2-0.2,0.3-0.2c0.1-0.1,0.2-0.1,0.3-0.2
			c0.1-0.1,0.2-0.1,0.4-0.1c0.4-0.1,0.8,0,1,0.2c0.3,0.2,0.4,0.5,0.5,0.9c0.1,0.3,0.1,0.6,0,1c-0.1,0.3-0.2,0.6-0.3,0.9
			c-0.2,0.3-0.3,0.5-0.6,0.7c-0.2,0.2-0.5,0.3-0.8,0.4c-0.2,0-0.4,0.1-0.6,0c-0.2,0-0.3-0.1-0.4-0.1l0,1.2c0,0,0,0.1,0,0.1
			c0,0,0,0.1,0,0.1c0,0.1,0,0.1,0.1,0.2c0.1,0,0.1,0.1,0.2,0.1c0.1,0,0.2,0,0.2,0c0.1,0,0.2,0,0.3,0l0,0.3l-2,0.5l-0.1,0l0.1-4.4
			c0-0.1,0-0.2,0-0.3c0-0.1,0-0.2,0-0.3c0-0.1-0.1-0.2-0.1-0.3c-0.1,0-0.2,0-0.3,0c-0.1,0-0.1,0-0.2,0.1c-0.1,0-0.2,0.1-0.2,0.1
			l0-0.3c0.2-0.1,0.4-0.2,0.5-0.3c0.1-0.1,0.3-0.1,0.5-0.2c0.2,0,0.5,0,0.6,0C35.1,53.3,35.2,53.4,35.3,53.5z M35.3,55.9
			c0,0.1,0,0.1,0.1,0.2c0,0.1,0.1,0.1,0.1,0.2c0.1,0,0.1,0.1,0.2,0.1c0.1,0,0.2,0,0.3,0c0.2,0,0.3-0.1,0.4-0.3
			c0.1-0.1,0.2-0.3,0.3-0.5c0.1-0.2,0.1-0.4,0.1-0.7c0-0.3,0-0.5-0.1-0.8c0-0.1-0.1-0.2-0.1-0.3c0-0.1-0.1-0.2-0.1-0.2
			c-0.1-0.1-0.1-0.1-0.2-0.1c-0.1,0-0.2,0-0.3,0c-0.1,0-0.2,0.1-0.3,0.2c-0.1,0.1-0.2,0.2-0.3,0.3L35.3,55.9z"/>
		<path class="st0" d="M31.3,53.4c0.3,0,0.6,0,0.8,0.1s0.4,0.1,0.5,0.2c0.1,0.1,0.2,0.2,0.2,0.2c0,0.1,0.1,0.2,0.1,0.2
			c0,0.1,0,0.3-0.2,0.4c-0.1,0.1-0.2,0.2-0.4,0.2c-0.1,0-0.3,0-0.4-0.1c-0.1-0.1-0.2-0.2-0.3-0.3c-0.1-0.1-0.1-0.2-0.2-0.3
			c0-0.1-0.1-0.2-0.1-0.3c-0.3,0-0.5,0.1-0.6,0.2s-0.2,0.3-0.2,0.5c0,0.1,0,0.2,0.1,0.2s0.1,0.1,0.2,0.2c0.1,0,0.2,0.1,0.3,0.1
			c0.1,0,0.2,0.1,0.3,0.1c0.3,0.1,0.5,0.2,0.7,0.4c0.2,0.2,0.3,0.4,0.3,0.7c0,0.2,0,0.3-0.1,0.4c-0.1,0.1-0.2,0.3-0.3,0.4
			c-0.1,0.1-0.3,0.2-0.6,0.3c-0.2,0.1-0.5,0.1-0.8,0.1c-0.2,0-0.4,0-0.5,0c-0.2,0-0.3-0.1-0.4-0.1c-0.1-0.1-0.2-0.1-0.3-0.2
			c-0.1-0.1-0.1-0.2-0.1-0.3c0-0.1,0-0.3,0.1-0.3s0.2-0.1,0.4-0.2c0.1,0,0.3,0,0.4,0.1s0.2,0.2,0.2,0.3c0.1,0.1,0.1,0.2,0.1,0.3
			s0.1,0.2,0.1,0.3c0.2,0,0.3-0.1,0.5-0.2c0.1-0.1,0.2-0.3,0.2-0.4c0-0.1,0-0.2-0.1-0.2c0-0.1-0.1-0.1-0.1-0.1
			c-0.1,0-0.1-0.1-0.2-0.1c-0.1,0-0.2-0.1-0.4-0.1c-0.3-0.1-0.6-0.2-0.8-0.4c-0.2-0.2-0.3-0.4-0.3-0.6c0-0.2,0-0.3,0.1-0.5
			s0.2-0.3,0.3-0.4c0.2-0.1,0.4-0.2,0.6-0.3S31,53.4,31.3,53.4z"/>
	</g>
	<g>
		<path class="st0" d="M28.2,33c0,0.2,0,0.3,0,0.4h-3c0-1.4-1.1-2.5-2.5-2.5c-1.4,0-2.5,1.1-2.5,2.5h-3c0-0.1,0-0.3,0-0.4
			c0-3.1,2.5-8.9,5.6-8.9C25.7,24.1,28.2,30,28.2,33z"/>
		<path class="st0" d="M44.1,33c0,0.2,0,0.3,0,0.4h-3c0-1.4-1.1-2.5-2.5-2.5c-1.4,0-2.5,1.1-2.5,2.5h-3c0-0.1,0-0.3,0-0.4
			c0-3.1,2.5-8.9,5.6-8.9C41.6,24.1,44.1,30,44.1,33z"/>
		<path class="st0" d="M36.1,25c0,0.2,0,0.3,0,0.4h-3c0-1.4-1.1-2.5-2.5-2.5c-1.4,0-2.5,1.1-2.5,2.5h-3c0-0.1,0-0.3,0-0.4
			c0-3.1,2.5-8.9,5.6-8.9C33.6,16.1,36.1,22,36.1,25z"/>
		<path class="st0" d="M36.1,40.7c0,0.2,0,0.3,0,0.4h-3c0-1.4-1.1-2.5-2.5-2.5c-1.4,0-2.5,1.1-2.5,2.5h-3c0-0.1,0-0.3,0-0.4
			c0-3.1,2.5-8.9,5.6-8.9C33.6,31.8,36.1,37.6,36.1,40.7z"/>
	</g>
</g>
</svg>
