<svg xmlns="http://www.w3.org/2000/svg" viewBox="0 0 74.83 74.83"><defs><style>.cls-1{opacity:0.8;}.cls-2{fill:#505326;}</style></defs><title>usda-logo</title><g id="Capa_2" data-name="Capa 2"><g id="Capa_1-2" data-name="Capa 1"><g id="g2395" class="cls-1"><g id="g2359"><path class="cls-2" d="M37.41,0A37.42,37.42,0,1,0,74.83,37.41,37.41,37.41,0,0,0,37.41,0ZM61.75,61.75A34.41,34.41,0,1,1,13.08,13.08,34.41,34.41,0,1,1,61.75,61.75Z"/><g id="g2349"><g id="g2293"><path class="cls-2" d="M34.93,44.18v1.07H32.49v-.58L30.75,45v4.31c0,.61.25,1.06.86,1.06a1,1,0,0,0,1-1c0-.43,0-1.16,0-1.16h-.88v-1.8H35v4l1.21-.48,1.32-6.26Zm13,1.77.44,1.47V45.76Zm10.26-2.18.42-.32A.5.5,0,0,0,58.15,43.77Zm-7.51,1V49l1.22-.85V44.23Zm3.64-1.57v3.27l1.28-.89V44.14a2.69,2.69,0,0,1,.73-1.83Zm3.87.58.42-.32A.5.5,0,0,0,58.15,43.77Zm-3.87-.58v3.27l1.28-.89V44.14a2.69,2.69,0,0,1,.73-1.83Zm3.87.58.42-.32A.5.5,0,0,0,58.15,43.77Zm-3.87-.58v3.27l1.28-.89V44.14a2.69,2.69,0,0,1,.73-1.83Zm3.87.58.42-.32A.5.5,0,0,0,58.15,43.77Zm.18,6.42a.88.88,0,0,0,.59.2.85.85,0,0,0,.85-.78V48.3Zm1.41-4.88a9.87,9.87,0,0,0,0-1.08.86.86,0,0,0-.63-.79l-1.05.79v5.29l3.55-4.21Zm-5.46-2.12v3.27l1.28-.89V44.14a2.69,2.69,0,0,1,.73-1.83Zm3.87.58.42-.32A.5.5,0,0,0,58.15,43.77Zm.18,6.42a.88.88,0,0,0,.59.2.85.85,0,0,0,.85-.78V48.3Zm1.41-4.88a9.87,9.87,0,0,0,0-1.08.86.86,0,0,0-.63-.79l-1.05.79v5.29l3.55-4.21ZM5.09,37.41A32.09,32.09,0,0,0,6.83,47.89l6.05-1V44.12a2.67,2.67,0,0,1,2.7-2.65h1.26a2.66,2.66,0,0,1,2.69,2.65V45.8l1.13-.19V41.47h3.89c1.51,0,2.75.66,2.75,2.94v.11l1-.16v-.52c0-1.38,1.5-2.37,3.33-2.37a3.18,3.18,0,0,1,3.2,1.8l2.9-.47L38,41.47h2.9l.17.78,2.82-.46v-.32H45.8l18-3-15.22,3h2.07v2.74l1.22-.47v-2.3h2.42V42.8L64,39,58.2,41.49a3.32,3.32,0,0,1,.46,0,5.09,5.09,0,0,1,2.17.42l4.64-3.24L61,42a2.07,2.07,0,0,1,1.15,1.74v.93l4.28-5.08-4.28,5.59-.11.13L60,48H62.3v1.89c0,.63-.85,2.32-3.57,2.32A4,4,0,0,1,57,51.92L43.85,69.1A32.3,32.3,0,0,0,69.74,37.41Zm54.65,7.9a9.87,9.87,0,0,0,0-1.08.86.86,0,0,0-.63-.79l-1.05.79v5.29l3.55-4.21Zm-1.41,4.88a.88.88,0,0,0,.59.2.85.85,0,0,0,.85-.78V48.3Zm1.41-4.88a9.87,9.87,0,0,0,0-1.08.86.86,0,0,0-.63-.79l-1.05.79v5.29l3.55-4.21Zm-1.41,4.88a.88.88,0,0,0,.59.2.85.85,0,0,0,.85-.78V48.3Zm-.18-6.42.42-.32A.5.5,0,0,0,58.15,43.77Zm-2.59,5.74V46.12l-1.28,1v5.16H51.86V48.91l-1.22.92v2.41H48l-.1-.31-21.19,16a32.27,32.27,0,0,0,10.74,1.83,30.45,30.45,0,0,0,3.84-.24l15.15-18A2.6,2.6,0,0,1,55.56,49.51Zm-1.28-6.32v3.27l1.28-.89V44.14a2.69,2.69,0,0,1,.73-1.83Zm3.87.58.42-.32A.5.5,0,0,0,58.15,43.77Zm-3.87-.58v3.27l1.28-.89V44.14a2.69,2.69,0,0,1,.73-1.83Zm3.87.58.42-.32A.5.5,0,0,0,58.15,43.77Zm-3.87-.58v3.27l1.28-.89V44.14a2.69,2.69,0,0,1,.73-1.83Zm-6-1.69v0l.24,0Zm-1.68.39,1.06,3.51.62-.24V41.55Zm11.5,1.88.42-.32A.5.5,0,0,0,58.15,43.77Zm-3.87-.58v3.27l1.28-.89V44.14a2.69,2.69,0,0,1,.73-1.83Zm-8,3.6v5.28l1.35-1Zm-2.34,5.44V47.68l-1.5.65.83,3.89H40.7l-.28-2H38.54l-.38,2H35.75L36,51.11l-1,.42v.54H33.78l-19.13,8.3a32.27,32.27,0,0,0,10,6.77L46,52.23ZM41.24,43l1,4.61,1.68-.66V42.43Zm-9.57.31a.9.9,0,0,0-.89.68l1.59-.25A1.06,1.06,0,0,0,31.67,43.26Zm-3.36,6.38V45.49l-1.19.22v0c-.33.94-.95,1-.95,1.14,0,.39,1.11-.31,1.11,2.76,0,2.45.38,2.21.38,2.41s0,.2,0,.2H24.78V49.18c0-1-.56-1.17-1.6-1.17v4.23H20.66V47l-1.13.23V49.6a2.65,2.65,0,0,1-2.69,2.64H15.58a2.66,2.66,0,0,1-2.7-2.64V48.53l-5.43,1A32.22,32.22,0,0,0,13.33,59l17.2-6.78A2.47,2.47,0,0,1,28.31,49.64Z"/></g></g></g><g id="g2380"><g id="g2272"><path class="cls-2" d="M27,19.31V30.08s0,3.6-4.39,3.6-4.45-3.6-4.45-3.6l0-10.77h3.38V30.06a1,1,0,0,0,1,1,1.2,1.2,0,0,0,1.16-1V19.31Z"/><path class="cls-2" d="M36.51,29.35c0,.74.26,4.33-4.39,4.33s-4.21-4.89-4.21-4.89h3.15s0,1,0,1.17.13,1.19,1.11,1.19a1.13,1.13,0,0,0,1.28-1.28c0-1-.94-1.64-2.54-2.53-2.62-1.47-2.73-3-2.73-4a3.74,3.74,0,0,1,1-2.8,4.38,4.38,0,0,1,3.08-1.22c4.46,0,4.2,4.45,4.2,4.45h-3a4.45,4.45,0,0,0,0-.64,1.18,1.18,0,0,0-1.22-1.3,1,1,0,0,0-1,1.09c0,.85.74,1.37,2.27,2.22C35.35,26.17,36.51,27,36.51,29.35Z"/><path class="cls-2" d="M42.55,19.31H37.92V33.68h4.89c1.92,0,3.72-1.1,3.72-3.12V22.45C46.53,19.74,43.81,19.31,42.55,19.31Zm.68,9.76c0,1.28,0,2-.86,2H41.22V21.94h1.07c.61,0,.94.28.94,2Z"/><path id="path2192" class="cls-2" d="M54.49,19.31H50.64l-3,14.37h3.2L51.34,31h2.48l.39,2.63H57.6Zm-2.8,9.15L52.63,22l.82,6.49Z"/></g><g id="g2278"><polygon class="cls-2" points="40.14 48.33 38.81 48.33 39.51 43.48 40.14 48.33"/><path class="cls-2" d="M17.05,44.15v5.43a.85.85,0,0,1-.85.86.86.86,0,0,1-.85-.86V44.15a.87.87,0,0,1,.85-.88A.86.86,0,0,1,17.05,44.15Z"/><path class="cls-2" d="M24.78,44.66a2.53,2.53,0,0,1,0,.28c-.11,1.13-.82,1-1.64,1V43.41C23.68,43.41,24.78,43.2,24.78,44.66Z"/></g></g></g></g></g></svg>