<?xml version="1.0" encoding="utf-8"?>
<!-- Generator: Adobe Illustrator 22.1.0, SVG Export Plug-In . SVG Version: 6.00 Build 0)  -->
<svg version="1.1" id="Capa_1" xmlns="http://www.w3.org/2000/svg" xmlns:xlink="http://www.w3.org/1999/xlink" x="0px" y="0px"
	 viewBox="0 0 144.8 146" style="enable-background:new 0 0 144.8 146;" xml:space="preserve">
<style type="text/css">
	.st0{fill:#DCE253;}
	.st1{fill:#75702C;}
</style>
<g>
	<g>
		<path class="st0" d="M13.1,60.7c-0.5,0-1,0-1.6,0.1c-0.5,0-0.9,0.4-0.8,0.9s0.4,0.9,0.9,0.8h0c0.5,0,1-0.1,1.5-0.1
			c0.5,0,0.8-0.4,0.8-0.9S13.6,60.7,13.1,60.7L13.1,60.7L13.1,60.7z"/>
		<path class="st0" d="M28.5,62.7L28.5,62.7c0.5,0,0.9-0.4,1-0.8c0-0.5-0.4-0.9-0.8-0.9l0,0c-4.1-0.3-8.1-0.4-11.9-0.3
			c-0.5,0-0.9,0.4-0.9,0.9c0,0.5,0.4,0.9,0.9,0.9l0,0l0,0C20.5,62.3,24.5,62.4,28.5,62.7z"/>
		<path class="st0" d="M25.9,70.9c0-0.5-0.5-0.8-0.9-0.8c-2.4,0.2-4.8,0.5-7.1,0.8c-0.5,0.1-0.8,0.5-0.7,1c0.1,0.4,0.4,0.7,0.9,0.7
			c0,0,0.1,0,0.1,0c2.2-0.3,4.6-0.6,7-0.8C25.6,71.8,26,71.3,25.9,70.9z"/>
		<path class="st0" d="M28,81.9c0.5-0.1,0.7-0.6,0.6-1.1c-0.1-0.5-0.6-0.7-1.1-0.6c-1.8,0.6-3.7,1.3-5.5,2c-0.4,0.2-0.6,0.7-0.5,1.1
			c0.2,0.4,0.7,0.6,1.1,0.5l0,0C24.4,83.1,26.2,82.5,28,81.9z"/>
		<path class="st0" d="M116.4,58.8c-0.2-0.4-0.7-0.6-1.2-0.4c0,0,0,0,0,0c-2.1,1-4.2,2.1-6.2,3.3c-0.4,0.2-0.6,0.7-0.4,1.2
			c0.2,0.3,0.5,0.5,0.8,0.5c0.1,0,0.3,0,0.4-0.1c2-1.1,4.1-2.2,6.2-3.2C116.5,59.7,116.6,59.2,116.4,58.8
			C116.4,58.8,116.4,58.8,116.4,58.8z"/>
		<path class="st0" d="M115.5,68.7c-1,0.9-2.1,1.7-3.1,2.6c-0.4,0.3-0.4,0.9-0.1,1.2c0.3,0.4,0.9,0.4,1.2,0.1c1-0.9,2-1.7,3.1-2.6
			c0.4-0.3,0.4-0.8,0.1-1.2C116.4,68.4,115.9,68.4,115.5,68.7z"/>
		<path class="st0" d="M144.8,51.7L144.8,51.7C144.8,51.7,144.8,51.6,144.8,51.7C144.8,51.6,144.8,51.6,144.8,51.7
			c0-0.1,0-0.1,0-0.2c0,0,0,0,0,0c0,0,0,0,0-0.1c0,0,0-0.1,0-0.1c0,0,0,0,0-0.1c0,0,0-0.1-0.1-0.1c0,0,0,0,0,0l0,0
			c0,0,0-0.1-0.1-0.1v0c0,0,0,0,0,0c0,0-0.1-0.1-0.1-0.1l0,0l0,0c0,0-0.1,0-0.1-0.1h0h0c0,0-0.1,0-0.1,0h0l0,0h0c-0.1,0-0.1,0-0.2,0
			l0,0c-4,0-7.9,0.2-11.8,0.4c0,0-0.1,0-0.1,0c-4.2,0.3-8.5,0.7-12.7,1.2c-0.1,0-0.1,0-0.2,0c-4,0.5-7.9,1.1-11.8,1.9
			c-0.2-0.3-0.3-0.7-0.5-1l6.6-2.7c0.4-0.2,0.7-0.7,0.5-1.1c-0.2-0.4-0.7-0.7-1.1-0.5c0,0,0,0-0.1,0l-6.8,2.8
			c-0.9-1.6-1.8-3.1-2.9-4.6l0.7-0.4c0.4-0.3,0.5-0.8,0.2-1.2c-0.3-0.4-0.8-0.5-1.2-0.2l-0.8,0.5c-1.1-1.4-2.4-2.7-3.7-3.9l2.6-2.6
			c0.3-0.3,0.3-0.9,0-1.2c-0.3-0.3-0.9-0.3-1.2,0l-2.6,2.6c-0.4-0.3-0.8-0.6-1.2-1c-0.4-0.3-0.9-0.2-1.2,0.1
			c-0.3,0.4-0.2,0.9,0.1,1.2c4.1,3.3,7.5,7.4,10,12c0,0,0,0,0,0c0,0,0,0.1,0.1,0.1c0.2,0.4,0.4,0.9,0.7,1.3
			c-3.8,0.8-7.5,1.6-11.2,2.6c-2.8-2.2-6.2-3.5-9.8-3.6c-4.5-0.2-8.9,1.5-12.2,4.6c-0.3,0.3-0.4,0.9,0,1.2s0.9,0.4,1.2,0l0,0
			c2.9-2.8,6.8-4.3,10.9-4.2c4.2,0.2,8.2,2.1,10.9,5.3c1.8,2.1,3.4,4.4,4.6,6.9c0,0.1,0,0.1,0.1,0.2l0,0c1.9,3.9,2.9,8.1,3,12.4
			c0,0.1,0,0.3,0,0.4c0.1,7.3-2.4,14.3-7,20c-1.9,2.3-3.9,4.1-6,5.2c0-0.1,0-0.1,0-0.2c-0.1-0.5-0.6-0.8-1-0.7s-0.8,0.6-0.7,1
			c0,0.2,0.1,0.4,0.1,0.7c-1.1,0.4-2.2,0.7-3.3,0.8c0.5-0.7,0.9-1.4,1.1-2.2c0.1-0.5-0.1-0.9-0.6-1.1c-0.5-0.1-0.9,0.1-1.1,0.6l0,0
			c-0.2,0.8-1,1.9-1.5,2.6c-0.6-0.1-1.2-0.3-1.8-0.5c-0.8-0.4-1.6-0.9-2.2-1.6c1.2-0.8,3.5-2.5,4.7-4.2c0.3-0.4,0.2-0.9-0.2-1.2
			c-0.4-0.3-0.9-0.2-1.2,0.2c0,0,0,0,0,0c-1.1,1.5-3.2,3-4.3,3.8c-0.7-1.2-1.1-2.5-1.3-3.9c0.5-0.2,1.2-0.6,2-1.1
			c0.4-0.2,0.6-0.7,0.4-1.1s-0.7-0.6-1.1-0.4c-0.1,0-0.1,0.1-0.2,0.1c-0.5,0.3-0.9,0.5-1.3,0.7c0-1,0.1-2,0.3-3c0,0,0-0.2,0-0.3
			c0-0.2,0.1-0.4,0.1-0.6c0.8-0.6,2.5-1.6,3.6-1.9c0.5-0.1,0.7-0.6,0.6-1c-0.1-0.5-0.6-0.7-1-0.6c0,0,0,0,0,0
			c-0.9,0.2-2.1,0.9-3,1.4c0-1.1-0.1-2.2-0.3-3.3c1-0.4,3-1.3,4.4-2.4c0.4-0.3,0.4-0.9,0.1-1.2c-0.3-0.3-0.8-0.4-1.2-0.1
			c-1.1,0.9-2.8,1.7-3.8,2.1c-0.2-0.8-0.5-1.5-0.9-2.2c0.9-0.5,1.8-1,2.7-1.4c0.4-0.2,0.6-0.7,0.4-1.1c-0.2-0.4-0.7-0.6-1.1-0.5
			c-1,0.4-1.9,0.9-2.9,1.5c-0.4-0.6-0.8-1.2-1.2-1.8c1.1-0.6,3-1.5,4.3-2.3c0.4-0.2,0.6-0.8,0.3-1.2c-0.2-0.4-0.8-0.6-1.2-0.3
			c0,0,0,0,0,0c-1.4,0.8-3.6,1.9-4.6,2.4c-0.4-0.5-0.9-1.1-1.2-1.6l4.1-1.9c0.4-0.2,0.6-0.7,0.4-1.1c-0.2-0.4-0.7-0.6-1.1-0.4
			l-4.2,1.9c-0.3-0.6-0.6-1.3-0.8-2c1.4-0.5,2.7-1.2,3.9-1.9c0.4-0.3,0.5-0.8,0.2-1.2c-0.3-0.4-0.7-0.5-1.1-0.3
			c-1.1,0.6-2.3,1.2-3.5,1.7c-0.1-0.5-0.2-1-0.2-1.5c0.6-0.2,1.6-0.7,3-1.7c0.4-0.3,0.5-0.8,0.2-1.2c-0.3-0.4-0.8-0.5-1.2-0.2
			c-0.7,0.5-1.4,0.9-2.1,1.3c0-0.4,0-0.8,0.1-1.3c0.7-0.3,1.4-0.6,2-1c0.4-0.3,0.4-0.8,0.1-1.2c-0.2-0.3-0.7-0.4-1-0.3
			c-0.3,0.2-0.6,0.4-0.8,0.5c0.1-0.4,0.1-0.8,0.1-1.2c0.3-0.2,0.8-0.4,1.4-0.8c0.4-0.3,0.5-0.8,0.3-1.2c-0.3-0.4-0.8-0.5-1.2-0.3
			c0,0,0,0,0,0c-0.2,0.1-0.3,0.2-0.5,0.3c-0.2-4.5-2.2-7.9-5.6-9.5c-2.8-1.3-6.1-1.1-9.3,0.4c-0.1,0-0.2,0.1-0.3,0.1
			c-1.6,0.8-3.1,1.8-4.4,3.1c-0.6-0.1-1.1-0.3-1.7-0.4c1.4-2.5,3.3-4.8,5.4-6.8c0.4-0.3,0.4-0.9,0.1-1.2c-0.3-0.4-0.9-0.4-1.2-0.1
			l0,0c-2.4,2.2-4.4,4.8-6,7.6c-1.1-0.3-2.2-0.5-3.3-0.8c0.4-0.8,0.8-1.6,1.3-2.3c0.2-0.3,0.2-0.7-0.1-1c0.1,0,0.1,0,0.2,0
			c0.3,0,0.6-0.1,0.7-0.4c2-2.9,4.4-5.4,7.1-7.5c0.4-0.3,0.5-0.8,0.2-1.2c-0.3-0.4-0.8-0.5-1.2-0.2c-2.9,2.2-5.4,4.9-7.5,7.9
			c-0.2,0.3-0.2,0.7,0,1c-0.4-0.1-0.7,0.1-0.9,0.4c-0.6,0.9-1.1,1.9-1.6,2.8c-0.8-0.2-1.6-0.4-2.5-0.5c1.3-2.8,2.9-5.4,4.8-7.8
			c0.3-0.4,0.2-0.9-0.1-1.2c-0.3-0.2-0.7-0.3-1-0.1l-8.4-5.6c-0.4-0.3-0.9-0.2-1.2,0.2c-0.3,0.4-0.2,0.9,0.2,1.2l0,0l8.2,5.5
			c-1.1,1.5-2.1,3-2.9,4.6l-3.3-1.4c-0.4-0.2-0.9,0-1.1,0.5c-0.2,0.4,0,0.9,0.5,1.1l3.1,1.3c-0.2,0.4-0.4,0.8-0.6,1.2
			C25.4,52.2,13.2,51,1,50.8c-0.1,0-0.2,0-0.3,0c-0.3,0.1-0.6,0.3-0.6,0.6v0c0,0,0,0.1,0,0.1c0,0,0,0,0,0v0v0.1c0,0,0,0.1,0,0.1l0,0
			c0.9,3.6,2.1,7.2,3.5,10.6c0,0.1,0.1,0.2,0.1,0.2c1.6,3.8,3.5,7.5,5.7,10.9c0,0.1,0.1,0.2,0.2,0.3c4.4,6.8,9.8,12.9,16.1,18
			c0.1,0.1,0.1,0.1,0.2,0.2c3.1,2.5,6.4,4.7,9.8,6.7c0.1,0,0.1,0.1,0.2,0.1c4.8,2.7,9.8,4.8,15,6.4c2.7,1.9,5.9,3,9.2,3.2
			c0.5,0,0.9,0,1.4,0h0c0,0,0,0,0.1,0c2.1-0.1,4.1-0.6,6-1.5l0,0c1.7-0.8,3.3-1.8,4.6-3.1c0.4-0.3,0.4-0.9,0.1-1.2
			c-0.3-0.4-0.9-0.4-1.2-0.1c-0.9,0.9-1.9,1.6-3,2.2c0-1-0.1-2-0.3-3.1c-0.1-0.5-0.5-0.8-1-0.7c-0.5,0.1-0.8,0.5-0.7,1l0,0
			c0.2,1.2,0.3,2.4,0.3,3.6c-1.2,0.5-2.5,0.8-3.8,1c0.1-0.7,0.3-1.8,0.5-2.8c0-0.5-0.3-0.9-0.8-0.9c-0.4,0-0.8,0.3-0.9,0.7
			c-0.2,1.3-0.4,2.5-0.5,3.2c-0.2,0-0.4,0-0.6,0c-0.9,0-1.9-0.2-2.8-0.4c0.1-0.5,0.4-1.2,0.6-2c0.2-0.4-0.1-0.9-0.5-1.1
			c-0.4-0.2-0.9,0.1-1.1,0.5c0,0,0,0,0,0c-0.2,0.8-0.5,1.5-0.6,2c-1.4-0.5-2.7-1.2-3.9-2.1c0.1-0.3,0.3-0.7,0.5-1.2
			c0.2-0.4,0-0.9-0.4-1.2c-0.4-0.2-0.9,0-1.2,0.4l0,0c-0.1,0.3-0.3,0.6-0.4,0.8c-0.4-0.4-0.8-0.8-1.2-1.2c-0.6-0.7-1.2-1.5-1.8-2.2
			c0.6-0.8,1.2-1.6,1.8-2.4c0.3-0.4,0.3-0.9-0.1-1.2c-0.4-0.3-0.9-0.3-1.2,0.1c-0.6,0.8-1.2,1.5-1.6,2c-0.6-0.9-1.1-1.8-1.6-2.7
			c0.8-1.2,1.6-2.2,2.6-3.2c0.3-0.3,0.3-0.9,0-1.2c-0.3-0.3-0.9-0.3-1.2,0c-0.8,0.8-1.5,1.7-2.2,2.6c-0.4-1-0.8-1.9-1.1-2.9
			c0.4-0.6,0.8-1.2,1.3-1.7c0.3-0.4,0.3-0.9-0.1-1.2s-0.9-0.3-1.2,0.1l0,0c-0.2,0.3-0.4,0.5-0.6,0.7c-0.3-1.2-0.5-2.4-0.6-3.6
			c2.1-2.2,4.7-4,7.5-5.2c0.4-0.2,0.7-0.7,0.5-1.1c-0.2-0.4-0.7-0.7-1.1-0.5c-2.6,1.1-5,2.6-7.1,4.5c0-0.2,0-0.4,0-0.6
			c0-0.2,0-0.3,0-0.5c0-0.7,0-1.3,0.1-2c0.6-0.6,1.3-1.2,2-1.7c0.3-0.2,0.4-0.6,0.3-0.9c0.3,0.2,0.6,0.2,0.9,0
			c1-0.6,2.1-1.2,3.2-1.6c0.4-0.2,0.7-0.7,0.5-1.1c-0.2-0.4-0.7-0.7-1.1-0.5l0,0c-1.2,0.5-2.4,1-3.5,1.7c-0.3,0.2-0.5,0.6-0.4,0.9
			c-0.3-0.2-0.7-0.2-1,0c-0.3,0.2-0.5,0.4-0.7,0.5c0.1-1,0.3-1.9,0.6-2.9c0.9-0.7,1.9-1.4,3-1.9c0.4-0.2,0.6-0.7,0.4-1.1
			s-0.7-0.6-1.1-0.4l0,0c-0.6,0.3-1,0.5-1.5,0.8c0-0.1,0.1-0.2,0.1-0.3c0.2-0.5,0.4-1.1,0.6-1.6c1.1-0.6,2.3-1,3.5-1.4
			c0.2,0,0.4-0.2,0.5-0.3c0.1,0.1,0.2,0.1,0.4,0.1c0.1,0,0.1,0,0.2,0c0.4-0.1,0.7-0.2,1.1-0.2c0.5-0.1,0.8-0.5,0.7-1
			c-0.1-0.5-0.5-0.8-1-0.7l0,0c-0.4,0.1-0.8,0.2-1.2,0.2c-0.3,0.3-0.7,0.5-1.1,0.3c-0.7,0.2-1.3,0.4-1.8,0.6c0.5-0.9,1-1.8,1.6-2.7
			c0,0.1,0,0.2,0,0.3c0.1,0.3,0.4,0.6,0.8,0.6c0.1,0,0.2,0,0.3,0c1-0.4,2.1-0.7,3.2-0.9c0.5-0.1,0.8-0.5,0.8-1
			c-0.1-0.5-0.5-0.8-1-0.8c-0.9,0.1-2.1,0.4-3.6,0.9c0.3-0.4,0.6-0.8,0.9-1.2c0.5-0.2,1.7-0.6,2.9-0.8c0.1,0,0.3-0.1,0.4-0.2
			c0.1,0,0.2,0,0.2,0c0.1,0,0.1,0,0.2,0c0.3-0.1,0.5-0.1,0.8-0.1c0.5-0.1,0.8-0.5,0.7-1c-0.1-0.5-0.5-0.8-1-0.7l0,0
			c-0.3,0-0.6,0.1-0.9,0.1c-0.2,0.2-0.6,0.3-0.8,0.2l-0.4,0.1c0.2-0.2,0.4-0.4,0.5-0.5c1.7-0.5,3.5-0.8,5.3-0.8
			c0.5,0,0.8-0.4,0.8-0.9c0-0.5-0.4-0.8-0.9-0.8c-0.8,0-1.5,0.1-2.2,0.2c0.4-0.3,0.9-0.5,1.4-0.8l2.8-0.2c0.5,0,0.8-0.4,0.8-0.9
			c0,0,0-0.1,0-0.1c1.5-0.2,3.1,0,4.5,0.6c3,1.4,4.7,4.7,4.6,9c-0.1,0.2-0.1,0.4,0,0.6c0,0.8-0.1,1.5-0.3,2.3
			c-0.4,2.3-0.3,4.7,0.2,7.1c0,0.1,0,0.2,0.1,0.3c0,0,0,0.1,0,0.1c0.7,2.5,2,4.9,3.8,6.8c1.7,1.9,2.9,4.1,3.5,6.6c0,0.1,0,0.1,0,0.2
			c0,0,0,0,0,0c0.4,2,0.5,4,0.1,6c0,0.1,0,0.2,0,0.2c-0.3,1.5-0.4,3.1-0.2,4.7c0,0.1,0,0.2,0,0.3c0.2,2.2,0.9,4.1,2,5.7
			c0,0,0,0.1,0,0.1c0,0.1,0.1,0.1,0.1,0.1c0.9,1.2,2.1,2.2,3.4,2.8c0.8,0.4,1.7,0.6,2.6,0.7c0.1,0,0.2,0,0.3,0h0.1
			c0.3,0,0.7,0.1,1,0.1c1.7,0,3.3-0.4,4.8-1c0.2,0,0.3-0.1,0.5-0.2c1.5-0.7,2.9-1.6,4.2-2.7l0.4-0.1c7-2.2,13.7-5.4,19.7-9.6
			c0.1,0,0.2-0.1,0.3-0.2c10.6-7.3,19.1-17.2,24.8-28.8c0.1-0.1,0.1-0.2,0.2-0.3c2.2-4.6,4-9.4,5.2-14.4c0,0,0,0,0,0v0
			C144.8,51.8,144.8,51.8,144.8,51.7C144.8,51.7,144.8,51.7,144.8,51.7C144.8,51.7,144.8,51.7,144.8,51.7z M11.6,73.9
			c1-0.2,2-0.5,3-0.6c0.5-0.1,0.8-0.5,0.7-1c-0.1-0.5-0.5-0.8-1-0.7l0,0c-1.2,0.2-2.5,0.5-3.6,0.8c-1.9-3-3.5-6.1-4.9-9.3
			c0.9-0.1,1.9-0.2,2.8-0.3c0.5,0,0.8-0.5,0.8-0.9c0-0.5-0.5-0.8-0.9-0.8c-1.1,0.1-2.2,0.2-3.3,0.3c-1.2-2.9-2.2-5.8-3-8.8
			c15.7,0.3,31.4,2.4,46.6,6.4c-0.5,0.5-0.9,1-1.4,1.6c-0.1,0.1-0.2,0.2-0.2,0.3c0,0-0.1,0.1-0.1,0.1c-0.5,0.7-1,1.3-1.5,2
			c-4.9-0.8-9.7-1.4-14.3-1.8c-0.5,0-0.9,0.3-0.9,0.8c0,0.5,0.3,0.9,0.8,0.9c4.4,0.4,8.9,0.9,13.5,1.6c-0.7,1.2-1.3,2.4-1.9,3.7
			c0,0.1-0.1,0.2-0.1,0.2c-0.2,0.5-0.4,0.9-0.6,1.4c-4.5-0.2-9.1-0.2-13.6,0c-0.5,0-0.8,0.4-0.8,0.9c0,0.5,0.4,0.8,0.9,0.8l0,0
			c4.3-0.2,8.6-0.2,13,0c-0.1,0.5-0.3,1-0.4,1.4c0,0,0,0.1,0,0.1c-0.4,1.4-0.6,2.9-0.8,4.3c-2.6,0.3-5.2,0.8-7.8,1.5
			c-0.5,0.1-0.7,0.6-0.6,1.1c0.1,0.4,0.4,0.6,0.8,0.6c0.1,0,0.1,0,0.2,0c2.4-0.6,4.8-1.1,7.2-1.4c0,0.6-0.1,1.2-0.1,1.8
			c-4.6,2.9-9.2,6-13.5,9.3C20.6,85.6,15.6,80.1,11.6,73.9z M40,84.1c0,0.1,0,0.2,0,0.4c0.2,2,0.6,3.9,1.2,5.9c0,0,0,0.1,0,0.1
			c1,3.3,2.5,6.4,4.4,9.2c0,0.1,0.1,0.1,0.1,0.2c0.6,0.9,1.3,1.8,2.1,2.6c-3.5-1.2-6.9-2.8-10.1-4.5c1-0.8,1.9-1.6,2.9-2.4
			c0.4-0.3,0.4-0.8,0.1-1.2s-0.8-0.4-1.2-0.1c-1.1,0.9-2.3,1.9-3.4,2.9c-2.9-1.7-5.7-3.6-8.4-5.7c3.9-2.9,8-5.8,12.2-8.4
			C39.9,83.3,40,83.7,40,84.1L40,84.1z M116.9,91.5c1.1-1.8,2.3-3.5,3.4-5.2c0.3-0.4,0.3-0.9-0.1-1.2c-0.4-0.3-0.9-0.3-1.2,0.1
			c0,0-0.1,0.1-0.1,0.1c-2,2.8-3.9,5.7-5.6,8.8c-5.1,3.5-10.6,6.3-16.4,8.4c0.2-0.3,0.4-0.5,0.7-0.8c4.8-5.9,7.4-13.3,7.3-20.9
			c1.6-1.6,3.3-3.3,5-4.9c0.3-0.3,0.4-0.9,0-1.2c-0.3-0.3-0.9-0.4-1.2,0c-1.3,1.2-2.6,2.5-3.9,3.8c-0.3-3.7-1.3-7.3-2.8-10.7
			c1.2-0.7,2.4-1.4,3.6-2.1c0.4-0.2,0.6-0.8,0.3-1.2c-0.2-0.4-0.8-0.6-1.2-0.3l0,0c-1.2,0.7-2.3,1.4-3.5,2.1
			c-0.8-1.6-1.8-3.2-2.9-4.6c0.4-0.1,0.7-0.3,1.1-0.4c0.4-0.2,0.6-0.7,0.4-1.1c-0.2-0.4-0.6-0.6-1.1-0.5c-0.5,0.2-1,0.4-1.6,0.6
			c-0.1-0.2-0.3-0.3-0.4-0.5c-0.3-0.3-0.5-0.6-0.8-0.9c3.9-1,7.8-1.9,11.7-2.6c-1.7,0.6-3.5,1.2-5.4,2c-0.4,0.2-0.7,0.7-0.5,1.1
			c0.1,0.3,0.4,0.6,0.8,0.6c0.1,0,0.2,0,0.3-0.1c9.4-3.6,15.7-5.3,16.5-5.5c2.2-0.3,4.4-0.5,6.7-0.7c-1.8,0.7-3.9,1.7-6.4,2.8
			c-0.4,0.2-0.6,0.7-0.4,1.1c0.1,0.3,0.4,0.5,0.8,0.5c0.1,0,0.2,0,0.4-0.1c6.6-3.1,11-4.6,11.8-4.9c2.6-0.2,5.2-0.3,7.8-0.3
			c-6,3.1-11.8,6.6-17.3,10.6c-0.4,0.3-0.5,0.8-0.2,1.2c0.2,0.2,0.4,0.4,0.7,0.4c0.2,0,0.4-0.1,0.5-0.2c8.6-6.1,15.8-9.8,18.9-11.3
			c-1.2,4.2-2.7,8.3-4.6,12.2c-0.9,0.6-3.9,2.8-8.1,6.9c-0.3,0.3-0.3,0.9,0,1.2s0.9,0.3,1.2,0c2-1.9,3.7-3.4,5-4.6
			C131.4,77.7,124.8,85.4,116.9,91.5L116.9,91.5z"/>
		<path class="st0" d="M57.7,40.5c-0.2-0.4-0.7-0.6-1.2-0.4c-0.9,0.5-1.8,1-2.7,1.5c-0.4,0.3-0.5,0.8-0.3,1.2
			c0.3,0.4,0.8,0.5,1.2,0.3c0.8-0.5,1.7-1,2.5-1.5C57.8,41.5,57.9,41,57.7,40.5z"/>
		<path class="st0" d="M59.6,38.8c-0.4,0.2-0.8,0.3-1.2,0.5C58,39.5,57.8,40,58,40.4c0.1,0.3,0.4,0.5,0.8,0.5c0.1,0,0.2,0,0.4-0.1
			c0.4-0.2,0.8-0.3,1.2-0.5c0.5-0.2,0.7-0.6,0.5-1.1C60.7,38.8,60.2,38.6,59.6,38.8C59.7,38.7,59.7,38.8,59.6,38.8L59.6,38.8z"/>
		<path class="st0" d="M56,46.4c-0.5,0.4-1.1,0.7-1.6,1.1c-0.4,0.3-0.4,0.8-0.2,1.2c0.3,0.4,0.8,0.4,1.2,0.2c0.5-0.4,1-0.7,1.5-1.1
			c0.4-0.3,0.5-0.8,0.2-1.2C56.9,46.2,56.4,46.1,56,46.4C56,46.3,56,46.4,56,46.4L56,46.4z"/>
		<path class="st0" d="M82.8,91.4c0.1,0,0.2,0,0.3-0.1l1.6-0.6c0.4-0.2,0.7-0.7,0.5-1.1c-0.2-0.4-0.7-0.7-1.1-0.5l-1.6,0.6
			c-0.4,0.2-0.7,0.7-0.5,1.1C82.1,91.2,82.4,91.4,82.8,91.4L82.8,91.4z"/>
		<path class="st0" d="M80.8,96.1l-0.6,0.4c-0.4,0.3-0.5,0.8-0.3,1.2c0.2,0.2,0.4,0.4,0.7,0.4c0.2,0,0.3,0,0.5-0.1l0.6-0.4
			c0.4-0.3,0.5-0.8,0.2-1.2C81.7,96,81.1,95.9,80.8,96.1L80.8,96.1z"/>
		<path class="st0" d="M127.7,74.6c-2.1,2.2-4.1,4.6-6.1,7.1c-0.3,0.4-0.2,0.9,0.2,1.2c0.2,0.1,0.3,0.2,0.5,0.2
			c0.3,0,0.5-0.1,0.7-0.3c1.9-2.5,3.9-4.8,6-7c0.3-0.3,0.3-0.9,0-1.2C128.6,74.3,128,74.3,127.7,74.6L127.7,74.6z"/>
		<path class="st0" d="M72.4,25.8c0.5,0,0.9-0.4,0.9-0.9V14.7c0-0.5-0.4-0.8-0.9-0.8c-0.4,0-0.8,0.4-0.8,0.8v10.2
			C71.5,25.4,71.9,25.8,72.4,25.8L72.4,25.8z"/>
		<path class="st0" d="M72.4,11.1c0.5,0,0.9-0.4,0.9-0.9V0.8c0-0.5-0.4-0.8-0.9-0.8c-0.4,0-0.8,0.4-0.8,0.8v9.4
			C71.5,10.7,71.9,11.1,72.4,11.1L72.4,11.1z"/>
		<path class="st0" d="M102.3,37.6c0.2,0,0.4-0.1,0.6-0.3l7.6-7.6c0.3-0.3,0.3-0.9,0-1.2c-0.3-0.3-0.9-0.3-1.2,0l-7.6,7.6
			c-0.3,0.3-0.3,0.9,0,1.2C101.9,37.5,102.1,37.6,102.3,37.6L102.3,37.6z"/>
		<path class="st0" d="M114.2,25.8c0.2,0,0.4-0.1,0.6-0.3l4.8-4.8c0.3-0.3,0.3-0.9,0-1.2c-0.3-0.3-0.9-0.3-1.2,0l-4.8,4.8
			c-0.3,0.3-0.3,0.9,0,1.2C113.8,25.7,114,25.8,114.2,25.8L114.2,25.8z"/>
		<path class="st0" d="M31.3,26.9c0.2,0.2,0.4,0.3,0.6,0.3c0.5,0,0.9-0.4,0.9-0.9c0-0.2-0.1-0.4-0.3-0.6l-6.1-6.1
			c-0.3-0.3-0.9-0.3-1.2,0c-0.3,0.3-0.3,0.9,0,1.2L31.3,26.9z"/>
		<path class="st0" d="M41.6,37.1c0.2,0.2,0.4,0.3,0.6,0.3c0.5,0,0.9-0.4,0.9-0.9c0-0.2-0.1-0.4-0.3-0.6l-7.2-7.2
			c-0.3-0.3-0.9-0.3-1.2,0c-0.3,0.3-0.3,0.9,0,1.2L41.6,37.1z"/>
		<path class="st0" d="M90.1,24c0.1,0,0.2,0.1,0.3,0.1c0.3,0,0.7-0.2,0.8-0.5l4.4-10.7c0.2-0.4,0-0.9-0.5-1.1
			c-0.4-0.2-0.9,0-1.1,0.5l-4.4,10.7C89.4,23.3,89.7,23.8,90.1,24C90.1,24,90.1,24,90.1,24z"/>
		<path class="st0" d="M95.6,10.7c0.4,0.2,0.9,0,1.1-0.5l1.7-4.1c0.2-0.4,0-0.9-0.5-1.1c-0.4-0.2-0.9,0-1.1,0.5l-1.7,4.1
			C94.9,10.1,95.1,10.6,95.6,10.7z"/>
		<path class="st0" d="M11.2,42.3l5.9,2.4c0.1,0,0.2,0.1,0.3,0.1c0.5,0,0.9-0.4,0.9-0.9c0-0.3-0.2-0.7-0.5-0.8l-5.9-2.4
			c-0.4-0.2-0.9,0-1.1,0.5C10.6,41.6,10.8,42.1,11.2,42.3L11.2,42.3z"/>
		<path class="st0" d="M20.7,45.3c-0.2,0.4,0,0.9,0.5,1.1l11.4,4.7c0.4,0.2,0.9,0,1.1-0.5c0.2-0.4,0-0.9-0.5-1.1l0,0l-11.4-4.7
			C21.4,44.7,20.9,44.9,20.7,45.3z"/>
		<path class="st0" d="M123.5,44.6l-6.6,2.7c-0.4,0.2-0.6,0.7-0.5,1.1c0.1,0.3,0.4,0.5,0.8,0.5c0.1,0,0.2,0,0.3-0.1l6.6-2.7
			c0.4-0.2,0.6-0.7,0.5-1.1C124.5,44.6,124,44.4,123.5,44.6L123.5,44.6z"/>
		<path class="st0" d="M130.9,43.3c0.1,0,0.2,0,0.3-0.1l2.3-1c0.4-0.2,0.6-0.7,0.5-1.1c-0.2-0.4-0.7-0.6-1.1-0.5l-2.3,1
			c-0.4,0.2-0.6,0.7-0.5,1.1C130.3,43.1,130.6,43.3,130.9,43.3L130.9,43.3z"/>
		<path class="st0" d="M47.4,8.7c0.1,0.3,0.4,0.5,0.8,0.5c0.1,0,0.2,0,0.3-0.1C49,8.9,49.2,8.4,49,8l-1-2.5
			c-0.2-0.4-0.7-0.6-1.1-0.5c-0.4,0.2-0.6,0.7-0.5,1.1L47.4,8.7z"/>
		<path class="st0" d="M48.6,11.6l2.2,5.4c0.2,0.4,0.7,0.6,1.1,0.5c0.4-0.2,0.6-0.7,0.5-1.1l-2.2-5.4c-0.2-0.4-0.7-0.6-1.1-0.5
			C48.7,10.6,48.5,11.1,48.6,11.6z"/>
		<path class="st0" d="M51.8,19.3l3.8,9.2c0.2,0.4,0.7,0.6,1.1,0.5c0.4-0.2,0.6-0.7,0.5-1.1l0,0l-3.8-9.2c-0.2-0.4-0.7-0.6-1.1-0.5
			C51.9,18.3,51.6,18.8,51.8,19.3z"/>
		<path class="st0" d="M79.8,29.6c0.5,0.1,0.9-0.2,1-0.7c0,0,0,0,0,0l1.8-8.9c0.1-0.5-0.3-0.9-0.7-1c-0.4-0.1-0.9,0.2-1,0.6
			l-1.8,8.9C79,29,79.3,29.5,79.8,29.6z"/>
		<path class="st0" d="M82.3,17c0.5,0.1,0.9-0.2,1-0.7l2.3-11.5c0.1-0.5-0.2-0.9-0.7-1c-0.5-0.1-0.9,0.2-1,0.7L81.6,16
			C81.5,16.4,81.8,16.9,82.3,17z"/>
		<path class="st0" d="M105.2,44.8c0.3,0.4,0.8,0.5,1.2,0.2c0,0,0,0,0,0l6-4c0.4-0.3,0.5-0.8,0.2-1.2c-0.3-0.4-0.8-0.5-1.2-0.2l-6,4
			C105.1,43.8,105,44.4,105.2,44.8C105.2,44.8,105.2,44.8,105.2,44.8z"/>
		<path class="st0" d="M114,38.9c0.3,0.4,0.8,0.5,1.2,0.2c0,0,0,0,0,0l9.8-6.6c0.4-0.3,0.5-0.8,0.2-1.2c-0.3-0.4-0.8-0.5-1.2-0.2
			l-9.8,6.6C113.8,38,113.7,38.6,114,38.9C114,38.9,114,38.9,114,38.9z"/>
		<path class="st0" d="M43.4,24.8c0.3,0.4,0.8,0.5,1.2,0.3c0.4-0.3,0.5-0.8,0.3-1.2c0,0,0,0,0,0l-5-7.5c-0.3-0.4-0.8-0.5-1.2-0.3
			c-0.4,0.3-0.5,0.8-0.3,1.2c0,0,0,0,0,0L43.4,24.8z"/>
		<path class="st0" d="M51.9,37.6c-1.5,0.9-2.9,2-4.3,3.1l-3-3c-0.3-0.3-0.9-0.3-1.2,0c-0.3,0.3-0.3,0.9,0,1.2l2.9,2.9
			c-0.2,0.2-0.5,0.4-0.7,0.7c-0.3,0.3-0.3,0.9,0,1.2s0.9,0.3,1.2,0l0,0c2-1.9,4.2-3.6,6.6-5.1c0.1,0,0.1-0.1,0.2-0.1
			c0,0,0.1-0.1,0.1-0.1c3.1-1.8,6.4-3.2,9.8-4c0.5-0.1,0.7-0.6,0.6-1c-0.1-0.5-0.6-0.7-1-0.6c-1.2,0.3-2.3,0.6-3.4,1l-1.1-2.6
			c-0.2-0.4-0.7-0.6-1.1-0.5c-0.4,0.2-0.6,0.7-0.5,1.1l1,2.5c-1.6,0.7-3.2,1.4-4.7,2.3L47,27.1c-0.2-0.4-0.8-0.6-1.2-0.3
			c-0.4,0.2-0.6,0.8-0.3,1.2c0,0,0.1,0.1,0.1,0.1L51.9,37.6z"/>
		<path class="st0" d="M102.6,21.6c0.4,0.3,0.9,0.2,1.2-0.2l4.6-6.8c0.3-0.4,0.2-0.9-0.2-1.2c-0.4-0.3-0.9-0.2-1.2,0.2l0,0l-4.6,6.8
			C102.1,20.8,102.2,21.3,102.6,21.6z"/>
		<path class="st0" d="M20.8,33.2l9.3,6.2c0.1,0.1,0.3,0.1,0.5,0.1c0.5,0,0.9-0.4,0.9-0.9c0-0.3-0.1-0.6-0.4-0.7l-9.3-6.2
			c-0.4-0.3-0.9-0.2-1.2,0.2C20.3,32.4,20.4,33,20.8,33.2L20.8,33.2L20.8,33.2z"/>
		<path class="st0" d="M60.3,10.1c0.1,0.5,0.5,0.8,1,0.7c0.5-0.1,0.8-0.5,0.7-1l0,0l-1.6-8.1c-0.1-0.5-0.5-0.8-1-0.7
			c-0.5,0.1-0.8,0.5-0.7,1L60.3,10.1z"/>
		<path class="st0" d="M61.6,12.2c-0.5,0.1-0.8,0.5-0.7,1c0,0,0,0,0,0l1.3,6.7c0.1,0.4,0.4,0.7,0.8,0.7c0.1,0,0.1,0,0.2,0
			c0.5-0.1,0.8-0.5,0.7-1c0,0,0,0,0,0l-1.3-6.7C62.5,12.4,62.1,12.1,61.6,12.2C61.6,12.2,61.6,12.2,61.6,12.2z"/>
		<path class="st0" d="M63.6,22.3c-0.5,0.1-0.8,0.5-0.7,1l2,9.9c0,0.1,0,0.1,0,0.2c0.1,0.5,0.6,0.7,1.1,0.6c0.3-0.1,1-0.2,1.1-0.2
			c1.8-0.3,3.6-0.4,5.3-0.4c7.2,0,14.2,2.1,20.1,6.1c0.4,0.3,0.9,0.2,1.2-0.2c0.3-0.4,0.2-0.9-0.2-1.2l0,0c-0.2-0.1-0.4-0.3-0.6-0.4
			l8.2-12.2c0.3-0.4,0.2-0.9-0.2-1.2c-0.4-0.3-0.9-0.2-1.2,0.2c0,0,0,0,0,0l-8.2,12.3c-1.5-0.9-3.1-1.6-4.7-2.3l2.8-6.8
			c0.2-0.4,0-0.9-0.5-1.1c-0.4-0.2-0.9,0-1.1,0.5l0,0l-2.8,6.8c-1.6-0.6-3.3-1-5-1.4l0.3-1.3c0.1-0.5-0.2-0.9-0.7-1
			c-0.5-0.1-0.9,0.2-1,0.7l-0.3,1.3c-1.7-0.3-3.4-0.4-5.2-0.5v-3.5c0-0.5-0.4-0.8-0.9-0.8c-0.4,0-0.8,0.4-0.8,0.8v3.5
			c-1.6,0-3.2,0.2-4.7,0.4c0,0-0.2,0-0.4,0.1L64.6,23C64.5,22.5,64.1,22.2,63.6,22.3z"/>
		<path class="st0" d="M48.5,69c-0.6,0.1-1.2,0.3-1.8,0.5c-0.5,0.1-0.7,0.6-0.5,1.1c0.1,0.5,0.6,0.7,1.1,0.5
			c0.5-0.2,1.1-0.3,1.6-0.4c0.5-0.1,0.8-0.5,0.7-1C49.5,69.3,49,68.9,48.5,69C48.5,69,48.5,69,48.5,69z"/>
		<path class="st0" d="M48.9,90.1c0.2,0,0.4-0.1,0.5-0.2c0.6-0.5,1.2-0.9,1.8-1.3c0.4-0.2,0.6-0.8,0.3-1.2c-0.2-0.4-0.8-0.6-1.2-0.3
			c0,0-0.1,0-0.1,0.1c-0.7,0.4-1.4,0.9-2,1.5c-0.4,0.3-0.4,0.8-0.1,1.2C48.4,90,48.7,90.1,48.9,90.1L48.9,90.1z"/>
		<path class="st0" d="M52.1,101.3c0.4,0.2,0.9,0.1,1.2-0.3c0.2-0.3,0.4-0.7,0.6-1c0.3-0.4,0.1-0.9-0.3-1.2
			c-0.4-0.3-0.9-0.1-1.2,0.3l0,0c-0.2,0.4-0.5,0.7-0.7,1.1C51.6,100.5,51.7,101.1,52.1,101.3C52.1,101.3,52.1,101.3,52.1,101.3z"/>
		<path class="st0" d="M50,83c-0.3-0.4-0.8-0.5-1.2-0.3c-1.5,0.9-2.9,2-4.2,3.1c-0.4,0.3-0.4,0.9-0.1,1.2c0.3,0.4,0.9,0.4,1.2,0.1
			c1.2-1.1,2.6-2.1,4-2.9C50.1,83.9,50.3,83.4,50,83z"/>
		<path class="st0" d="M50.1,95.6c0.2,0,0.4-0.1,0.6-0.2c0.5-0.5,0.9-0.9,1.4-1.3c0.4-0.3,0.4-0.8,0.1-1.2c-0.3-0.4-0.8-0.4-1.2-0.1
			l0,0c-0.6,0.4-1.1,0.9-1.6,1.4c-0.3,0.3-0.3,0.9,0,1.2C49.6,95.5,49.9,95.6,50.1,95.6L50.1,95.6z"/>
		<path class="st0" d="M57.5,99.7L57.5,99.7c0.1,0.1,0.1,0.1,0.1,0.1c0.6,0.5,1.3,0.9,2,1.2c1.1,0.5,2.2,0.8,3.4,0.8
			c1.1,0,2.1-0.3,3.1-0.8c1.9-1,3.2-2.9,3.6-5.4c0.4-2.4-0.1-5-1.3-7.4c-1.3-2.5-3.3-4.5-5.7-6c-2.6-1.6-5.1-1.9-7-0.9
			c-1.9,1-3,3.3-3.2,6.3c-0.1,1.3,0,2.6,0.3,3.8c0,0.1,0,0.1,0,0.2c0.3,1.4,0.8,2.8,1.4,4.1C55,97.3,56.2,98.6,57.5,99.7z
			 M56.5,82.9c0.5-0.2,1-0.4,1.6-0.4c1.1,0,2.4,0.4,3.7,1.2c2.1,1.3,3.9,3.2,5.1,5.4c1.1,2,1.5,4.3,1.1,6.3
			c-0.3,1.9-1.3,3.4-2.7,4.1c-0.5,0.3-1.1,0.4-1.6,0.5l0.6-1.3c0.2-0.4,0-0.9-0.4-1.2c-0.4-0.2-0.9,0-1.2,0.4c0,0,0,0,0,0l-0.9,1.9
			c-0.5-0.1-1-0.3-1.5-0.5c-0.3-0.2-0.7-0.3-1-0.6l1.8-2.2c0.3-0.4,0.2-0.9-0.1-1.2c-0.4-0.3-0.9-0.2-1.2,0.1l0,0L58,97.8
			c-0.6-0.6-1.2-1.3-1.7-2l1.7-1.2c0.4-0.3,0.5-0.8,0.2-1.2c-0.3-0.4-0.8-0.5-1.2-0.2l0,0l-1.5,1.1c-0.4-0.8-0.6-1.6-0.8-2.5
			l2.5-1.6c0.4-0.3,0.5-0.8,0.3-1.2c-0.3-0.4-0.8-0.5-1.2-0.3L54.3,90c-0.1-0.7-0.1-1.5-0.1-2.2c0-0.2,0-0.4,0.1-0.6l1.9-1.1
			c0.4-0.2,0.6-0.8,0.3-1.2c-0.2-0.4-0.8-0.6-1.2-0.3c0,0,0,0,0,0l-0.4,0.2C55.2,83.9,55.8,83.2,56.5,82.9z"/>
		<path class="st0" d="M51.5,78.3c0.1,0,0.2,0,0.3,0l1.3-0.4c0.4-0.2,0.6-0.7,0.4-1.1c-0.2-0.4-0.6-0.6-1-0.5l-1.3,0.4
			c-0.5,0.2-0.7,0.6-0.5,1.1C50.8,78,51.2,78.3,51.5,78.3L51.5,78.3z"/>
		<path class="st0" d="M89.1,80.8c1.9-1,3-3.3,3.2-6.3c0.1-2.8-0.5-5.6-1.8-8.1c-1.3-2.4-3.1-4.2-5.3-5.2c-2.3-1-4.6-1.1-6.5,0
			s-3.2,2.9-3.6,5.4c-0.1,0.7-0.2,1.3-0.1,2c0,0,0,0.1,0,0.1c0.1,1.2,0.3,2.4,0.7,3.6c0,0.1,0,0.1,0.1,0.2c0,0,0,0,0,0.1
			c0.2,0.5,0.4,0.9,0.6,1.4c0.3,0.6,0.7,1.1,1,1.7c0,0,0,0,0,0c0.1,0.1,0.1,0.2,0.2,0.3c0.7,0.9,1.4,1.7,2.2,2.4
			c0.1,0.1,0.2,0.2,0.3,0.3c0.6,0.5,1.2,1,1.9,1.4c0.2,0.1,0.4,0.3,0.7,0.4c0.1,0.1,0.2,0.2,0.4,0.2c1.1,0.6,2.3,0.9,3.6,0.9
			C87.6,81.4,88.4,81.2,89.1,80.8z M85.3,79.4l1.3-0.7c0.4-0.2,0.6-0.8,0.3-1.2c-0.2-0.4-0.8-0.6-1.2-0.3c0,0,0,0,0,0l-2.4,1.4
			c-0.1-0.1-0.2-0.1-0.3-0.2c-0.3-0.2-0.6-0.4-0.9-0.6l2.2-1.3c0.4-0.2,0.5-0.8,0.3-1.2c-0.2-0.4-0.8-0.5-1.2-0.3l0,0l-2.7,1.6
			c-0.4-0.4-0.8-0.8-1.1-1.2l2.2-1.1c0.4-0.2,0.6-0.7,0.4-1.2c-0.2-0.4-0.7-0.6-1.1-0.4l-2.5,1.2c-0.2-0.3-0.4-0.7-0.6-1
			c-0.1-0.2-0.2-0.4-0.3-0.6l1.8-0.8c0.4-0.2,0.6-0.7,0.4-1.2c-0.2-0.4-0.7-0.6-1.2-0.4l-1.6,0.8c-0.2-0.6-0.3-1.2-0.3-1.8l1.6-0.7
			c0.4-0.2,0.6-0.7,0.5-1.1c-0.2-0.4-0.7-0.6-1.1-0.5l-0.9,0.4c0-0.1,0-0.3,0-0.4c0.1-0.5,0.2-1.1,0.4-1.5l1.4-0.4
			c0.5-0.1,0.7-0.6,0.6-1.1c-0.1-0.3-0.3-0.5-0.6-0.6c0.3-0.2,0.5-0.4,0.8-0.6c0.7-0.4,1.5-0.6,2.3-0.5c0.9,0,1.8,0.2,2.7,0.6
			c1.8,0.9,3.4,2.4,4.5,4.5c1.1,2.2,1.7,4.7,1.6,7.2c-0.1,2.4-1,4.2-2.3,4.9C87.5,79.7,86.5,79.8,85.3,79.4L85.3,79.4z"/>
	</g>
	<g>
		<path class="st0" d="M10.5,145.3c-0.1-0.2-0.2-0.5-0.2-0.7c0-0.5,0.1-0.8,0.3-0.9c0.2-0.1,0.5-0.1,0.9-0.1c0.9,0,1.6-0.2,2-0.5
			c0.4-0.3,0.7-0.7,0.8-1.2c0.1-0.5,0.2-1.1,0.2-1.9v-22.7h-3.3c-1.1,0-1.9,0.3-2.5,0.7c-0.6,0.4-1,1.1-1.3,1.9
			c-0.3,0.8-0.6,2-0.8,3.6c0,0.3-0.2,0.5-0.6,0.6c-0.3,0.2-0.7,0.2-1.1,0.2c-0.3,0-0.5-0.1-0.8-0.3c-0.2-0.2-0.4-0.4-0.4-0.7
			l0.1-6.7c0-0.8,0.4-1.1,1.3-1.1h23.3c0.8,0,1.2,0.4,1.2,1.1l0.2,6.7c0,0.3-0.1,0.5-0.4,0.7c-0.3,0.2-0.5,0.3-0.8,0.3
			c-0.4,0-0.7-0.1-1.1-0.2c-0.3-0.2-0.5-0.4-0.5-0.6c-0.3-1.6-0.5-2.8-0.8-3.6c-0.3-0.8-0.7-1.5-1.3-1.9c-0.6-0.4-1.4-0.7-2.5-0.7
			h-3.2v22.7c0,0.8,0.1,1.4,0.2,1.9c0.1,0.5,0.4,0.9,0.8,1.2c0.4,0.3,1.1,0.5,2,0.5h0.3c0.3,0,0.5,0.1,0.6,0.2
			c0.1,0.1,0.2,0.4,0.3,0.8c0,0.3-0.1,0.5-0.2,0.7c-0.1,0.2-0.4,0.3-0.6,0.3c-2-0.1-3.9-0.1-5.6-0.1c-1.9,0-3.9,0-5.9,0.1
			C10.9,145.6,10.7,145.5,10.5,145.3z"/>
		<path class="st0" d="M30.3,144.4c-1.2-1.1-1.8-2.4-1.8-4c0-2,0.7-3.5,2-4.5c1.3-1,2.9-1.6,4.8-1.9c1.8-0.3,4.2-0.5,7.1-0.7v-3.8
			c0-1.6-0.4-2.7-1.2-3.5c-0.8-0.8-2-1.2-3.7-1.2c-1,0-1.8,0.3-2.6,0.9c-0.7,0.6-1.1,1.4-1.1,2.4c0,0.5,0.1,0.9,0.4,1.3
			c0.2,0.3,0.5,0.6,0.8,0.8c0.3,0.2,0.4,0.3,0.4,0.4c0,0.2-0.2,0.4-0.6,0.7c-0.4,0.3-0.9,0.5-1.5,0.5c-1,0-1.7-0.3-2.3-1
			c-0.6-0.7-0.8-1.5-0.8-2.5c0-1.6,0.7-2.9,2.2-3.7c1.5-0.8,3.3-1.2,5.3-1.2c2.6,0,4.7,0.5,6.3,1.5c1.6,1,2.4,2.8,2.4,5.5v11.1
			c0,0.7,0.2,1.3,0.6,1.9c0.4,0.6,1,0.9,1.9,0.9c0.3,0,0.4,0,0.5,0.1c0.1,0.1,0.2,0.3,0.2,0.6c0,0.4-0.3,0.7-0.9,0.8
			c-0.6,0.2-1.2,0.3-1.7,0.3c-1.2,0-2.3-0.3-3.2-1c-0.9-0.7-1.4-1.6-1.6-2.8c-0.7,1.2-1.7,2.2-3.1,2.9c-1.4,0.7-2.9,1-4.4,1
			C33,146,31.5,145.5,30.3,144.4z M39.4,142.6c0.9-0.5,1.6-1.3,2.2-2.2c0.5-0.9,0.8-2,0.8-3.1v-2.7c-3.3,0.3-5.7,0.8-7,1.6
			c-1.4,0.8-2,2.2-2,4c0,2.2,1,3.2,3.1,3.2C37.5,143.5,38.5,143.2,39.4,142.6z"/>
		<path class="st0" d="M51.1,145.3c-0.1-0.2-0.2-0.4-0.2-0.7c0-0.4,0.1-0.7,0.3-0.7c0.2-0.1,0.4-0.1,0.9-0.1c0.8,0,1.4-0.1,1.8-0.4
			c0.3-0.3,0.5-0.6,0.6-1c0-0.4,0.1-1,0.1-1.8v-10.9c0-0.8,0-1.4-0.1-1.8c0-0.4-0.2-0.7-0.6-1c-0.3-0.3-0.9-0.4-1.8-0.4
			c-0.4,0-0.7-0.1-0.9-0.2c-0.2-0.1-0.3-0.4-0.3-0.8c0-0.2,0.1-0.4,0.2-0.5c0.1-0.2,0.3-0.3,0.6-0.3c2.1-0.3,3.8-0.7,5.1-1.2
			c0.5-0.2,0.9-0.3,1.1-0.3H58c0.5,0,0.8,0.3,0.8,0.9v3h0.1c0.9-0.9,1.7-1.5,2.2-2c0.6-0.5,1.3-0.9,2.2-1.2c0.9-0.3,2-0.5,3.2-0.5
			c2.2,0,3.9,0.6,5.1,1.9c1.3,1.3,1.9,3,1.9,5.1v10.1c0,0.8,0,1.4,0.1,1.8c0.1,0.4,0.3,0.7,0.6,1c0.3,0.3,0.9,0.4,1.8,0.4h0.3
			c0.3,0,0.4,0,0.6,0.1c0.1,0.1,0.2,0.3,0.2,0.7c0,0.3-0.1,0.5-0.2,0.7c-0.1,0.2-0.3,0.3-0.5,0.3c-1.8-0.1-3.5-0.1-5-0.1
			c-1.4,0-3.1,0-4.9,0.1c-0.2,0-0.4-0.1-0.5-0.3c-0.1-0.2-0.2-0.4-0.2-0.7c0-0.4,0.1-0.7,0.3-0.7c0.1-0.1,0.4-0.1,0.8-0.1
			c0.8,0,1.4-0.1,1.8-0.4c0.3-0.3,0.6-0.6,0.6-1c0.1-0.4,0.1-1,0.1-1.8v-10.1c0-1.5-0.5-2.6-1.4-3.4c-0.9-0.8-2-1.2-3.2-1.2
			c-1.5,0-2.7,0.4-3.8,1.1s-1.8,1.5-2.1,2.2v11.3c0,0.8,0,1.4,0.1,1.8c0.1,0.4,0.3,0.7,0.6,1c0.3,0.3,0.9,0.4,1.8,0.4h0.3
			c0.3,0,0.4,0,0.6,0.1c0.1,0.1,0.2,0.3,0.2,0.7c0,0.3-0.1,0.5-0.2,0.7c-0.1,0.2-0.3,0.3-0.6,0.3c-1.8-0.1-3.5-0.1-5-0.1
			c-1.4,0-3.1,0-4.9,0.1C51.4,145.6,51.2,145.5,51.1,145.3z"/>
		<path class="st0" d="M83.7,144.5c-1.7-1-3-2.4-3.9-4.1c-0.9-1.7-1.4-3.5-1.4-5.4c0-2.4,0.6-4.4,1.7-6.2c1.1-1.8,2.5-3.1,4.2-4
			c1.7-0.9,3.4-1.4,5.2-1.4c2.2,0,4.1,0.5,5.8,1.5c1.7,1,3,2.4,3.9,4.1c0.9,1.7,1.4,3.5,1.4,5.4c0,2.4-0.6,4.4-1.7,6.2
			c-1.1,1.8-2.5,3.1-4.3,4c-1.7,0.9-3.4,1.4-5.1,1.4C87.3,146,85.4,145.5,83.7,144.5z M94.2,141.5c1-1.8,1.5-4.2,1.5-7.1
			c0-2.7-0.5-5-1.5-6.7c-1-1.7-2.6-2.6-4.7-2.6c-2.2,0-3.8,0.9-4.8,2.7c-1,1.8-1.5,4.2-1.5,7.1c0,2.7,0.5,5,1.5,6.7
			c1,1.8,2.6,2.6,4.7,2.6C91.6,144.3,93.2,143.3,94.2,141.5z"/>
		<path class="st0" d="M102.7,145.3c-0.1-0.2-0.2-0.4-0.2-0.7c0-0.4,0.1-0.7,0.3-0.7c0.2-0.1,0.4-0.1,0.9-0.1c0.8,0,1.4-0.1,1.8-0.4
			c0.3-0.3,0.5-0.6,0.6-1c0-0.4,0.1-1,0.1-1.8v-10.9c0-0.8,0-1.4-0.1-1.8c0-0.4-0.2-0.7-0.6-1c-0.3-0.3-0.9-0.4-1.8-0.4
			c-0.4,0-0.7-0.1-0.9-0.2c-0.2-0.1-0.3-0.4-0.3-0.8c0-0.2,0.1-0.4,0.2-0.5c0.1-0.2,0.3-0.3,0.6-0.3c2-0.3,3.7-0.7,5.1-1.2
			c0.4-0.2,0.8-0.3,1.1-0.3h0.1c0.5,0,0.8,0.3,0.8,0.9v16.5c0,0.8,0,1.4,0.1,1.8c0.1,0.4,0.3,0.7,0.6,1c0.3,0.3,0.9,0.4,1.8,0.4h0.3
			c0.3,0,0.4,0,0.6,0.1c0.1,0.1,0.2,0.3,0.2,0.7c0,0.3-0.1,0.5-0.2,0.7c-0.1,0.2-0.3,0.3-0.6,0.3c-1.8-0.1-3.5-0.1-5-0.1
			c-1.4,0-3.1,0-4.9,0.1C103,145.6,102.9,145.5,102.7,145.3z M105.7,117c-0.6-0.6-0.9-1.2-0.9-2.1c0-0.7,0.4-1.4,1.1-1.9
			c0.7-0.6,1.6-0.9,2.5-0.9c0.8,0,1.4,0.3,1.9,0.8c0.5,0.6,0.8,1.3,0.8,2.1c0,0.8-0.3,1.4-0.9,1.9c-0.6,0.5-1.3,0.8-2.2,0.8
			C107.1,117.8,106.3,117.6,105.7,117z"/>
		<path class="st0" d="M115.1,145.3c-0.1-0.2-0.2-0.4-0.2-0.7c0-0.4,0.1-0.7,0.3-0.7c0.1-0.1,0.4-0.1,0.8-0.1c0.8,0,1.4-0.1,1.8-0.4
			c0.3-0.3,0.6-0.6,0.6-1c0.1-0.4,0.1-1,0.1-1.8v-23.2c0-0.8,0-1.4-0.1-1.8c0-0.4-0.2-0.7-0.6-1c-0.3-0.3-0.9-0.4-1.8-0.4
			c-0.4,0-0.7-0.1-0.9-0.2c-0.2-0.1-0.3-0.4-0.3-0.8c0-0.2,0.1-0.4,0.2-0.5c0.1-0.2,0.3-0.3,0.6-0.3c2-0.3,3.7-0.7,5.1-1.2
			c0.4-0.2,0.8-0.3,1.1-0.3h0.1c0.5,0,0.8,0.3,0.8,0.9v28.9c0,0.8,0,1.4,0.1,1.8c0.1,0.4,0.3,0.7,0.6,1c0.3,0.3,0.9,0.4,1.8,0.4h0.3
			c0.3,0,0.4,0,0.6,0.1c0.1,0.1,0.2,0.3,0.2,0.7c0,0.3-0.1,0.5-0.2,0.7c-0.1,0.2-0.3,0.3-0.6,0.3c-1.8-0.1-3.5-0.1-5-0.1
			c-1.4,0-3.1,0-4.9,0.1C115.5,145.6,115.3,145.5,115.1,145.3z"/>
		<path class="st0" d="M128,145.3c-0.1-0.2-0.2-0.4-0.2-0.7c0-0.4,0.1-0.7,0.3-0.7c0.2-0.1,0.4-0.1,0.9-0.1c0.8,0,1.4-0.1,1.8-0.4
			c0.3-0.3,0.5-0.6,0.6-1c0-0.4,0.1-1,0.1-1.8v-10.9c0-0.8,0-1.4-0.1-1.8c0-0.4-0.2-0.7-0.6-1c-0.3-0.3-0.9-0.4-1.8-0.4
			c-0.4,0-0.7-0.1-0.9-0.2c-0.2-0.1-0.3-0.4-0.3-0.8c0-0.2,0.1-0.4,0.2-0.5c0.1-0.2,0.3-0.3,0.6-0.3c2-0.3,3.7-0.7,5.1-1.2
			c0.4-0.2,0.8-0.3,1.1-0.3h0.1c0.5,0,0.8,0.3,0.8,0.9v16.5c0,0.8,0,1.4,0.1,1.8c0.1,0.4,0.3,0.7,0.6,1c0.3,0.3,0.9,0.4,1.8,0.4h0.3
			c0.3,0,0.4,0,0.6,0.1c0.1,0.1,0.2,0.3,0.2,0.7c0,0.3-0.1,0.5-0.2,0.7c-0.1,0.2-0.3,0.3-0.6,0.3c-1.8-0.1-3.5-0.1-5-0.1
			c-1.4,0-3.1,0-4.9,0.1C128.3,145.6,128.2,145.5,128,145.3z M131,117c-0.6-0.6-0.9-1.2-0.9-2.1c0-0.7,0.4-1.4,1.1-1.9
			c0.7-0.6,1.6-0.9,2.5-0.9c0.8,0,1.4,0.3,1.9,0.8c0.5,0.6,0.8,1.3,0.8,2.1c0,0.8-0.3,1.4-0.9,1.9c-0.6,0.5-1.3,0.8-2.2,0.8
			C132.4,117.8,131.6,117.6,131,117z"/>
	</g>
</g>
</svg>
