<svg xmlns="http://www.w3.org/2000/svg" viewBox="0 0 93 31.43"><defs><style>.cls-1{fill:#615d24;}</style></defs><title>burger-tanoili-1_2</title><g id="Capa_2" data-name="Capa 2"><g id="Capa_1-2" data-name="Capa 1"><path class="cls-1" d="M4,0H89c2.21,0,4,.68,4,1.51v3C93,5.32,91.21,6,89,6H4C1.79,6,0,5.32,0,4.49v-3C0,.68,1.79,0,4,0Z"/><path class="cls-1" d="M4,12.71H89c2.21,0,4,.68,4,1.51v3c0,.84-1.79,1.51-4,1.51H4c-2.21,0-4-.67-4-1.51v-3C0,13.39,1.79,12.71,4,12.71Z"/><path class="cls-1" d="M4,25.43H89c2.21,0,4,.67,4,1.51v3c0,.83-1.79,1.51-4,1.51H4c-2.21,0-4-.68-4-1.51v-3C0,26.1,1.79,25.43,4,25.43Z"/></g></g></svg>