<svg xmlns="http://www.w3.org/2000/svg" viewBox="0 0 11.21 20"><defs><style>.cls-1{fill:#615d24;}</style></defs><title>close_2</title><g id="Capa_2" data-name="Capa 2"><g id="Capa_1-2" data-name="Capa 1"><path class="cls-1" d="M.23,18.33,9.69.65c.25-.45.6-.74.77-.63l.64.4c.18.11.13.58-.12,1L1.51,19.13c-.24.46-.59.74-.77.63l-.63-.4C-.07,19.25,0,18.79.23,18.33Z"/><path class="cls-1" d="M9.69,19.35.23,1.67C0,1.21-.07.75.11.64L.74.24c.18-.11.53.17.77.63L11,18.55c.25.45.3.92.12,1l-.64.4C10.28,20.09,9.94,19.8,9.69,19.35Z"/></g></g></svg>