<svg xmlns="http://www.w3.org/2000/svg" viewBox="0 0 265.61 132.19"><defs><style>.cls-1{opacity:0.4;}.cls-2{fill:#615d24;}</style></defs><title>hoja-left</title><g id="Capa_2" data-name="Capa 2"><g id="Capa_1-2" data-name="Capa 1"><g class="cls-1"><path class="cls-2" d="M160.69,119.91c1.16-.36,3.55-1.18,5.29-1.81a41.2,41.2,0,0,1,4.23-1.33c1.28-.22,1.93-.57,1.9-1s-8.45-8.34-11.25-10.55a4.84,4.84,0,0,1-1.17-1.15.3.3,0,0,0-.33-.21,1.51,1.51,0,0,1-.82-.3c-.32-.2.72,0,2.35.55a56.76,56.76,0,0,0,16.23,2.85,84.37,84.37,0,0,0,21.55-2c4.36-.88,6.31-1.44,6.44-1.85.21-.64-5.1-6.3-9.79-10.44-11.46-10.13-23-16-37.14-18.78-1.41-.28-3.27-.59-4.17-.7a13.56,13.56,0,0,1-1.93-.34,6,6,0,0,0-1.54-.14l-3.42,0a143.79,143.79,0,0,0-21.79,2l-1.53.26L130,72.2c3.39-1.48,8.08-3.46,10.43-4.41l4.26-1.72,1.48.32c1.73.36,3.14.11,3.92-.7.45-.47.45-.47,3.14-.11,9.36,1.22,24.47,1.26,36.79.09,12.48-1.19,28.68-4.62,36.41-7.71a79.08,79.08,0,0,0,15.11-7.88c7.57-5,12.45-9.2,23-19.88.89-.91,1.11-1.25,1.06-1.66s-.21-.53-.67-.63c-.75-.17-3.79-.38-8.75-.62a128.29,128.29,0,0,1-15.43-1.71A234.86,234.86,0,0,0,217.16,23a82.89,82.89,0,0,0-9.75.39,82.58,82.58,0,0,0-16.22,2.77c-2.87.77-4.19,1.06-4.32.95s-.28-.07-.51.19a6.52,6.52,0,0,1-1.79.89,71.6,71.6,0,0,0-12.57,6c-5.57,3.41-12.37,8.94-15.36,12.5-1.36,1.61-8.2,10.75-9.9,13.22a4.06,4.06,0,0,1-2,1.78c-2.56,1.22-9.85,4.33-15.65,6.67-4.93,2-6.09,2.4-6.09,2.18a13.63,13.63,0,0,1,2.66-2.22c4.51-3.28,6.85-5.12,10-7.9,6.73-5.85,10.56-10.37,13.92-16.41a115.57,115.57,0,0,0,10.86-26.72,38.58,38.58,0,0,1,1.33-4.5.66.66,0,0,0,.14-.55c-.12-.46,1.22-4.43,2.68-7.92,1.72-4.12,1.67-4.61-.43-4a90.55,90.55,0,0,0-8.65,3.2C153,4.5,144.14,8.77,141,10.39c-2.59,1.36-7.3,4.09-7.95,4.6-.18.14-1.27.9-2.44,1.69A74,74,0,0,0,114.78,30.8a74.55,74.55,0,0,0-10,13.56c-3.66,6.47-5.8,11.4-9.2,21.14-1.37,3.92-2.8,7.9-3.18,8.86C89.78,81,86.3,86.69,84.62,87.12c-.31.08-1.67.21-3,.3a23.73,23.73,0,0,0-3.59.45c-1.19.31-1.19.31-2.93,2.4s-5.37,4.11-16.91,9.5C51.59,102.84,43.28,106.84,37,110c-3,1.52-5.57,2.73-5.62,2.7s4.34-3.16,10.84-7.38c3.47-2.25,6.93-4.52,7.72-5.07,1.73-1.19,8.67-6.6,11.15-8.68a15.76,15.76,0,0,1,2.6-1.86c.55-.24.77-.44.7-.61s.48-.82,1.48-1.76a97.14,97.14,0,0,0,7.35-8A83.89,83.89,0,0,0,80.46,67.1c1.59-3.78,2.53-7.36,5-19,2.13-10,2.72-12.38,3.52-14.44.9-2.27.58-3.13-.91-2.54S74.58,38.49,72,40.18A113.87,113.87,0,0,0,45.35,64.4c-3.33,4.18-5,6.88-7.86,13.11-1,2.15-4.47,10.74-7.38,18.32l-2.7,7a1.37,1.37,0,0,1-.43.66c-.11,0-.26.38-.33.78-.34,1.76-5.21,10.83-7,13.13-1.64,2-2.28,2.46-8.08,5.22-2.92,1.39-5.9,2.86-6.61,3.27-2.63,1.51-4.39,2.74-4.68,3.28a2.38,2.38,0,0,0,.31,2.51c.39.51.53.58.87.4s6.9-3.41,14.86-7.31,21.09-10.37,29.17-14.36,16.42-8.05,18.49-9l3.77-1.75,1.77.09a27.24,27.24,0,0,1,3.43.43c2.54.51,3.89-.06,3.55-1.51l-.15-.62.55.41c.31.22,1.48,1.28,2.62,2.36,11,10.4,17.94,15.43,27.25,19.8,6,2.83,8.6,3.7,14.08,4.75,7.46,1.44,13.8,1.28,23.39-.58a63.44,63.44,0,0,0,8.88-2.44Zm-157,9a.42.42,0,0,1-.35.12c-.17,0-.14-.08.08-.15S3.7,128.85,3.66,128.92Zm151.12-8.73-1-.9a22,22,0,0,1-1.83-1.91c-.78-.92-1.18-1.12-1.21-.59a12.23,12.23,0,0,0,1.59,1.85l1.61,1.67-.64.23c-1.27.46-3.53-1.31-8.6-6.76-1.73-1.85-3.49-3.73-3.94-4.19s-.75-.84-.68-.86,2.29.64,4.93,1.45,5.29,1.63,5.86,1.79c1,.28,1.21.48,3.47,3,1.34,1.46,2.78,3,3.23,3.33l.81.69-.46.25a12,12,0,0,1-1.81.62Zm-2.52-9.55s-.27,0-.61-.11-.61-.23-.58-.28A2.37,2.37,0,0,1,152.26,110.64Zm14.3,5.87c-.75.27-2.7.91-4.32,1.42l-3,.93-.75-.58c-1.34-1-5.43-5.33-5.29-5.57a20.8,20.8,0,0,1,2.49.53c1.35.34,4.63,1.1,7.32,1.7l4.87,1.08Zm-6.12-6.15,4.18-1,2.83,2.74c1.55,1.51,2.85,2.81,2.87,2.88s-.31.06-.76,0c-7.08-1.54-13.21-3.12-13.29-3.42C156.26,111.44,158.14,110.93,160.44,110.36ZM158.13,104l-2.07.55c-1.72.45-2.07.59-2,.82s.46.18,2.38-.32c2.23-.6,2.31-.6,2.87-.25l.58.37-4.34,1c-4.53,1-6.67,1.73-6.44,2.07.09.13.73,0,2.09-.4,1.09-.32,3.61-.95,5.64-1.41l3.68-.82,1.81,1.61c1,.89,1.82,1.63,1.82,1.65s-1.86.53-4.14,1.12c-3.48.9-4.13,1.11-4,1.32s0,.21-.17.11c-1.24-.55-7.36-2.82-9-3.33a6.5,6.5,0,0,1-1.91-.78,4.11,4.11,0,0,1,1.11-.53c1.31-.47,1.42-1,.14-.61-1.13.32-1.79.71-1.65,1a12.17,12.17,0,0,1-2.91-.83l-3-1.05,1.17-.48c.64-.26,3.85-1.2,7.13-2.08l6-1.6.7.33.71.33-2.77.86c-1.53.48-3.3,1-4,1.18-.93.24-1.16.37-1.1.59s.63.11,4.33-1l4.26-1.25.69.39a2.48,2.48,0,0,1,.73.53,19.69,19.69,0,0,1-3.26,1c-3.41.9-4.68,1.35-4.61,1.63a50.44,50.44,0,0,0,7.69-2c.75-.34.89-.34,1.36-.05Zm4.4-.69c-4.8-1.53-10.72-3.93-11.58-4.7a1,1,0,0,0-.64-.32,7.36,7.36,0,0,1-1.85-.79,7.83,7.83,0,0,1-2.86-2.29c-1-1.16-4.33-5.39-6.83-8.67-.25-.33-.58-.58-.72-.55s-.23.13-.22.2,4.08,5.36,6.25,8.07l1.32,1.64-2-1.16a21.42,21.42,0,0,1-2.8-1.87,41.67,41.67,0,0,1-5-6.42c-1-1.54-2.46-3.51-3.18-4.4s-1.31-1.65-1.32-1.7a34.14,34.14,0,0,1,5,.8l2.67.5,1.4,1.47c1.28,1.34,3.38,3.78,4.86,5.65.6.76,1.09,1,.94.41a66.79,66.79,0,0,0-4.83-5.8c-.6-.66-1.15-1.27-1.21-1.35a7.28,7.28,0,0,1,1.82.32l1.93.46L146.46,86c1.88,2.2,2.81,3.16,2.9,3s-.62-1.15-2.21-3.06c-1.29-1.55-2.36-2.85-2.37-2.89a10.15,10.15,0,0,1,1.64.28l1.66.35,1.9,2.65c1.05,1.46,2.87,4.06,4.06,5.8a62.15,62.15,0,0,0,8.51,10.36c.67.6,1.2,1.1,1.21,1.13A10.62,10.62,0,0,1,162.53,103.28Zm-43.38-5.37-2.33,1-2.61-.5a19.24,19.24,0,0,1-2.56-.58c.1-.16,6.76-3.07,9.18-4s10-3.07,10.11-2.81a18.29,18.29,0,0,1-3,1.28c-5.17,1.93-6.19,2.39-6.1,2.71s.22.22.83,0c.42-.18,2.3-.91,4.2-1.64s3.82-1.49,4.29-1.72a2.25,2.25,0,0,1,2.05-.16l1.2.27-3.49.93a20,20,0,0,0-3.44,1.1c0,.2,4-.61,6.5-1.32,1.63-.46,1.87-.48,2.31-.22l.5.3-.74.22c-4.52,1.35-6,1.89-6.05,2.15s.55.11,3.68-.83l3.7-1.12.77.4.77.39-4.11,1.1c-2.27.6-4.36,1.21-4.66,1.36-1.43.69-.08.46,4.44-.76l4.91-1.33.71.4a2.75,2.75,0,0,1,.74.5s-2,.65-4.58,1.32a55.81,55.81,0,0,0-7.85,2.52l-4,1.6c-.69.27-1,.23-3.74-.46a26.67,26.67,0,0,1-2.92-.83s1.4-.63,3.06-1.31c2.08-.86,3-1.33,3-1.51S122.93,96.31,119.15,97.91ZM107.24,95.6l-2.43,1-1.25-.26c-1.43-.31-1.43-.31,1-1.41,1.88-.85,2-1,1.67-1.14a11.75,11.75,0,0,0-2.7,1l-2.48,1.1-1.26-.2-1.26-.21.71-.31,1.58-.66c.84-.36,1.14-.66.75-.78a12.23,12.23,0,0,0-2.22.79l-2,.84L96,95.17a4.35,4.35,0,0,1-1.43-.3,7.58,7.58,0,0,1,1.8-1c5.08-2.27,6.17-2.82,6.1-3s.09-.23.29-.24l3.66-.27c4.59-.35,11.18-.51,15.14-.38,1.83.07,3.39.16,3.48.21a7.44,7.44,0,0,1-1.87.47c-2.75.52-6,1.58-5.9,1.93s.44.14,2.13-.41a43.88,43.88,0,0,1,4.35-1.07,11.7,11.7,0,0,0,2.44-.59,3.69,3.69,0,0,1,1.58-.05l1.43.14-4,1.18A63.18,63.18,0,0,0,118.7,94c-1.38.59-3.82,1.66-5.45,2.38l-2.94,1.3-2.18-.45a18.35,18.35,0,0,1-2.14-.53c.05-.09,4.8-1.88,7.26-2.74,1.3-.46,1.8-.79,1.38-.91A62.25,62.25,0,0,0,107.24,95.6Zm7.57-16.09c.65-.23.78-.17,3.94,1.79,4.91,3,14.16,8.86,14.18,8.92a17.62,17.62,0,0,1-2-.3c-6.24-1.12-12.9-1.33-22.9-.73a163.68,163.68,0,0,0-20,2.25,19.48,19.48,0,0,1-2.1.38s2.25-1,5-2.17,7.49-3.24,10.64-4.61C107.05,82.66,113.37,80,114.81,79.51Zm-7.06,2.24c-.17,0-.14-.07.08-.14s.31,0,.27,0A.41.41,0,0,1,107.75,81.75Zm1.06-.48c-.15,0,0-.08.21-.15s.37-.06.25,0A.68.68,0,0,1,108.81,81.27Zm1.35-.56c-.2,0-.11-.07.2-.15s.47-.08.35,0A.92.92,0,0,1,110.16,80.71Zm14.44.1a42,42,0,0,1,5.56,5c1.5,1.62,1.65,1.82,1.14,1.5-2.09-1.36-7.86-5-10.29-6.43a16.87,16.87,0,0,1-2.77-1.84l2.44.19,2.14.18Zm4.32-.81,1.21.12,1.52,1.82c.84,1,2.45,3.19,3.58,4.87s2.41,3.48,2.85,4,.83,1,.85,1.08-1.16-.64-2.61-1.51a15.07,15.07,0,0,1-4.73-3.83,44.48,44.48,0,0,0-5.6-5.39l-1.76-1.39C123.91,79.53,124.7,79.56,128.92,80Zm11.55,15.77c1.36-.22,1.57-.2,2.4.25l.9.48-4.24,1.12c-4.58,1.21-6,1.73-5.87,2.17.06.21.26.18,1.11-.16.57-.24,3-.94,5.35-1.57l4.32-1.14.73.41.72.41-.49.26a21.44,21.44,0,0,1-2.53.82c-2.19.6-2.85.89-2.77,1.2,0,.13,1.14-.14,3.42-.83l3.38-1,.56.34.56.34-2.28.66c-1.61.47-2.28.73-2.3.91s.59.1,2.68-.45c2.64-.7,2.72-.71,3.44-.38s2.27,1.1,2.28,1.14l-3.78,1c-2.07.52-5.27,1.46-7.07,2.08l-3.28,1.14-1.3-.37c-.71-.2-2.94-.9-5-1.57s-4.38-1.39-5.2-1.62l-1.5-.43,3.15-1.28A88.44,88.44,0,0,1,140.47,95.77Zm10.75-13.4a21.17,21.17,0,0,1,4.05,1.16,11.85,11.85,0,0,1-1.84-.37c-1-.25-2.06-.52-2.31-.61C150.7,82.4,150.7,82.39,151.22,82.37Zm27.47,23.51c-1.49,0-3-.15-3.28-.22-.62-.14-2.86-1.68-6.75-4.63-1.75-1.33-2.63-1.89-2.72-1.73s0,.4,4.16,3.48c3.73,2.76,3.79,2.8,3.68,2.83a54.57,54.57,0,0,1-6.21-1c-2.36-.53-2.47-.59-4.47-2.37a61.38,61.38,0,0,1-8.59-10.4c-1.07-1.57-2.74-4-3.71-5.34S149,84,149,84a9.06,9.06,0,0,1,1.72.33l1.73.43,1.77,2.38c2.52,3.4,3,4,3.24,3.91s0-.56-2.08-3.32a20.6,20.6,0,0,1-1.81-2.57,10.12,10.12,0,0,1,3.11.76c.08.3,4,5.87,4.31,6.13.86.7.36-.3-1.44-2.87a28.44,28.44,0,0,1-2-3,3.27,3.27,0,0,1,1.42.31l1.4.47,1.38,2.63a23.6,23.6,0,0,0,1.58,2.75c.55.34.31-.38-.86-2.56a16.7,16.7,0,0,1-1.2-2.5,2.67,2.67,0,0,1,1.1.28c1,.38,1.1.5,2.92,3.08a67.82,67.82,0,0,0,8.51,9.81,52.88,52.88,0,0,0,4.7,3.54c1.58,1.06,2.88,2,2.87,2S180.17,105.93,178.69,105.88Zm5.7,0a6.23,6.23,0,0,1-2-.23,63,63,0,0,1-6.82-4.47,57.14,57.14,0,0,1-9.27-10.16c-.82-1.16-1.62-2.27-1.77-2.48-.29-.38-.29-.38.34-.21.34.1,1.41.47,2.36.83l1.74.66.91,1.43c2.11,3.29,3.74,5.27,3.46,4.21a29.06,29.06,0,0,0-1.68-2.57,23.26,23.26,0,0,1-1.61-2.49c0-.11.7.07,1.57.4l1.55.6,2,3c3.59,5.41,6.09,8.16,9.14,10.06,1,.63,1.72,1.19,1.59,1.25A6.59,6.59,0,0,1,184.39,105.91Zm8.72-1-1.12.21-2.28-1.32a21.08,21.08,0,0,1-6.18-5.21c-.5-.67-1.06-1.39-1.22-1.61s-.35-.32-.46-.14.05.53.57,1.22a21.07,21.07,0,0,0,6.76,6.11c1.67,1,1.76,1.1,1.22,1.14-.32,0-1.09.12-1.7.21-1,.15-1.24.11-2.54-.59a21,21,0,0,1-6.29-5.21c-1.87-2.16-5.7-7.51-5.56-7.76a91.86,91.86,0,0,1,9.3,3.82l3.49,1.55,1.2,1.49a39.16,39.16,0,0,0,5.11,5.17c.48.37.85.67.84.68Zm9-1.67c-.16.08-1.77.4-3.58.72-2.68.47-3.37.53-3.77.33a32.6,32.6,0,0,1-5-4.59,14.12,14.12,0,0,1-1.37-1.68,18.89,18.89,0,0,1,2.39.91A8.51,8.51,0,0,1,194,100.8c.45.48.89.8,1,.74s.14-.26-.23-.76c-.19-.27,0-.25.85.08a2.68,2.68,0,0,1,1.42,1c.34.57.81.65.79.13,0-.2.65-.07,2.3.45C201.47,102.84,202.29,103.19,202.12,103.27Zm-4.31-6.78a38.12,38.12,0,0,1,5.15,5.17,20,20,0,0,1-2.3-.65c-4.08-1.27-13.12-5-12.73-5.25s7.18.11,8.92.59A3,3,0,0,0,197.81,96.49ZM191,90.24c1.84,1.48,6.34,5.45,6.28,5.54a2.56,2.56,0,0,1-.94-.1,39.45,39.45,0,0,0-7.22-.58c-2.73,0-2.82,0-4.18-.72l-1.39-.72.69-.06c1.73-.15,2.5-.31,2.45-.53s-.17-.27-2.45-.07a4.7,4.7,0,0,1-2.92-.29,3.68,3.68,0,0,1-1-.52,22.75,22.75,0,0,1,2.32-.26,11.69,11.69,0,0,0,2.37-.32c.21-.36-.53-.4-3.12-.17l-2.78.25-3.2-1.39c-3.71-1.63-3.82-1.69-3.27-1.63.22,0,2.54,0,5.14-.13A42.49,42.49,0,0,1,188,89,4.91,4.91,0,0,1,191,90.24Zm-14.4-9.07c-.11,0-.74.07-1.44.1-2.19.07-6.36.71-6.53,1s-.05.33,3.42-.1a43.44,43.44,0,0,1,4.56-.36,4.56,4.56,0,0,1,2.77.67l1.2.66-.69.05-5,.44s0,.12,0,.27.51.22,1.48.13c.77-.07,2.25-.18,3.28-.23,1.61-.08,2,0,2.74.39a3,3,0,0,1,.83.56,9.84,9.84,0,0,1-1.61,0,6.17,6.17,0,0,0-1.64,0c-.18.32.38.46,2.3.57l2,.12,2.14,1.43a21.55,21.55,0,0,1,2.17,1.56c0,.08-.35,0-.84-.05a40.08,40.08,0,0,0-9.48-.37c-6.41.24-7.29.2-9-.48-3.64-1.43-6.11-2.27-9.2-3.17-5.24-1.5-6.85-2.06-6.5-2.22s9-1.55,11.4-1.84a47.16,47.16,0,0,1,9.34-.18C175,80.25,176.82,81.11,176.58,81.17Zm-17.12-6.11a40.76,40.76,0,0,1,5.24,1.4,12.71,12.71,0,0,1-1.92.08,55.26,55.26,0,0,0-9.39,1l-4.35.81c-1.24.22-1.48.31-1.34.5s.88.11,3-.26c6.67-1.2,8.56-1.43,12.23-1.48a31.25,31.25,0,0,1,4.43.15c.84.24,5.29,1.95,5.32,2a20.72,20.72,0,0,1-2.21.08c-3.52,0-5.13.21-12.15,1.31l-6.58,1-4.08-1c-2.24-.58-5.51-1.37-7.26-1.77-2.22-.51-3-.75-2.49-.8s3.39-.65,6.71-1.36C154.78,74.59,156.36,74.41,159.46,75.06Zm-13.59-.73,3.67-.8,2.16.26c1.19.14,2.31.26,2.5.27.63,0,.42.21-.34.28-.41,0-4,.77-8.08,1.62C135.72,78.06,136,78,132.35,77.6c-1.67-.2-3-.39-3-.42s1.28-.21,2.82-.41C136,76.26,141.44,75.29,145.87,74.33Zm-16.31.32c5.88-.72,16.81-1.45,16.89-1.12a14.75,14.75,0,0,1-2.55.65c-3.66.78-10.5,1.92-13.7,2.29a77.35,77.35,0,0,1-10.37.33C119.28,76.62,126.51,75,129.56,74.65Zm-16.81,4.19c-.15,0-.06-.09.2-.16s.38-.05.26,0A.69.69,0,0,1,112.75,78.84Zm20.75-9.1-8.27,3.76c-2,.89-4.21,1.85-5,2.12-1.14.39-.54.06,2.7-1.48,8.83-4.2,17.51-8,19.11-8.33.26-.06-.49.33-1.66.85ZM97.43,81c.26-.55,4-3.75,4.18-3.62s.22-.07.34-.27,1.53-1.53,3.12-3,3.88-3.65,5.09-4.88c3.91-4,11.45-12.66,15-17.21,1.1-1.44.72-.64-.48,1-2.65,3.61-13.18,15.81-14.29,16.57-1,.65-1.19.9-1,1.08s-1.19,1.65-4.67,4.84c-4.14,3.8-6.42,5.61-8,6.37-1.84.88-2,.88-.89,0,.76-.58,1-.7,1.19-.55S97.23,81.38,97.43,81Zm8.42-4.3c1.54-.58,4-1.43,5.48-1.89,4.07-1.28,3.17-.64-2.19,1.59-4.28,1.77-7.67,3.23-8.48,3.64-.2.1.26-.37,1-1.05C103,77.78,103.15,77.69,105.85,76.67Zm-.38,2.49c-.17,0-.14-.07.09-.14s.31,0,.26,0M208.15,61.71c-2.39.44-2.67.45-4.09.15a67.69,67.69,0,0,1-8.31-2.75,6.8,6.8,0,0,0-1.48-.53c-.84.22,2.47,1.71,6.76,3l2.65.82c.21.06,0,.12-.47.17-1.18.09-2.94-.41-10.91-3.15-6.4-2.19-8-2.65-7.67-2.15.12.16,11.69,4.17,14.77,5.13l1.73.54-1.51.27a14,14,0,0,1-2.73.19,93.59,93.59,0,0,1-12.31-2.57c-2.09-.58-4.48-1.23-5.3-1.43s-2.64-.69-4.06-1.09-3.25-.83-4.09-1a14.22,14.22,0,0,1-1.67-.31,14,14,0,0,1,2.54-.79c2.62-.69,2.72-.71,4.44-.48,2,.26,2.05.26,2-.06,0-.13-.51-.33-1.06-.43l-1-.18,3.18-.77c2.62-.64,3.38-.76,4.32-.67a44.2,44.2,0,0,1,10,2.43c2.24.79,5,1.68,6.1,2,2.73.74,9.39,2.29,10.82,2.5,1.14.17,1.14.17.54.39C211,61.13,209.55,61.44,208.15,61.71Zm20.12-5.81-1.52.66-1.77-.2a29.48,29.48,0,0,1-6-1.25c-1.51-.49-1.88-.53-1.79-.2s2.71,1.12,5.45,1.65l2.73.53-.79.3c-1.85.71-8.17-.62-13.67-2.86-1-.39-1.47-.5-1.56-.34s-.1.25,0,.27l2.53,1a42.59,42.59,0,0,0,8.64,2.4l1.59.22-1.53.54a11.66,11.66,0,0,1-2.11.59c-.85.07-4.18-.75-7.67-1.88-3.18-1-12.11-3.53-12.38-3.45-.1,0-.14.14-.11.27A29.86,29.86,0,0,0,203,55.64c2.51.67,5.9,1.66,7.5,2.19s3.73,1.16,4.73,1.39l1.81.43L216,60c-1.59.53-3.05.52-5.8,0a108.07,108.07,0,0,1-16.47-4.45,44.84,44.84,0,0,0-6.1-1.72l-3.25-.67,2.51-.72a10,10,0,0,1,5-.58,7.6,7.6,0,0,0,2.61-.06c.16-.27-.06-.32-1.73-.46l-1.36-.12,3.84-1c3.59-1,4-1,5.62-1,3,.07,6.87,1,16.19,3.75a49.06,49.06,0,0,0,9.7,2C230,55.19,230,55.16,228.27,55.9Zm18.1-10.57a10.18,10.18,0,0,1-1.13.89l-1.14.84-2.13.12c-1.18.07-3.06.11-4.22.09-1.4,0-2.13,0-2.23.2s.07.26.46.3,4,0,6.54,0h.6l-.63.43c-.56.39-.89.44-3.64.55-3.45.12-3.31.1-3.23.44,0,.16.89.2,2.58.13,1.38-.05,2.54-.09,2.58-.07a3.37,3.37,0,0,1-.8.6l-.86.57-4.19-.24c-2.3-.12-5.22-.35-6.48-.5-2.56-.3-2.54-.3-2.45,0s3.41.7,8.48,1A35.25,35.25,0,0,1,238,51a9.36,9.36,0,0,1-.92.58c-.87.5-.89.5-3.89.22-1.65-.16-3.08-.27-3.16-.24s-.12.15-.09.28a7.43,7.43,0,0,0,2.61.46,8.33,8.33,0,0,1,2.44.38,14.21,14.21,0,0,1-2,1.09l-1.9.93L228,54.46a42.28,42.28,0,0,1-9.85-1.81c-6.87-2.15-13.18-3.74-15.81-4l-1-.09,3.92-1,3.93-1,2.21.46c1.22.26,3.29.71,4.63,1,2.54.59,2.77.61,2.67.23a6.15,6.15,0,0,0-2-.65c-3.13-.69-5.86-1.32-6-1.38s1.44-.43,3.31-.89c4-1,4.57-1,10.94-.15a80.65,80.65,0,0,0,11.82.63,61.59,61.59,0,0,0,8.42-.39A10.29,10.29,0,0,1,246.37,45.33Zm8.09-6.7a3.15,3.15,0,0,1-2.17,1,92.46,92.46,0,0,1-11.56.83l-3.66,0a.26.26,0,0,0-.23.24c0,.29.46.32,4.48.29a90.44,90.44,0,0,0,10.47-.77c.86-.23.88.07.05.76l-.77.64-3.38.19c-3.89.21-3.6.17-3.51.5,0,.16.9.19,2.75.09,3.79-.21,3.69-.26,2,1s-1.76,1.32-5.93,1.68a105.1,105.1,0,0,1-17-.33c-1.71-.22-3.77-.47-4.6-.56s-1.54-.18-1.58-.2,4-1.11,9-2.42l9.07-2.38,5.77-.39A80.47,80.47,0,0,0,255,37.57C255.82,37.35,255.78,37.43,254.46,38.63Zm7.83-7.48c-.57.56-.76.66-.82.45s-.31-.24-.79-.15-.55.05.53-.46l1.68-.82C263.46,29.87,263.27,30.18,262.29,31.15Zm-9,1.42a1.61,1.61,0,0,1-.65.17c-.19,0,0-.08.3-.17S253.48,32.47,253.31,32.57Zm-12.39,3c5.21-1.24,10.74-2.48,10.53-2.36s-3.73,1.19-8.1,2.54c-8.71,2.67-14.9,4.35-49.83,13.44-13.16,3.43-21.34,5.5-19.42,4.91s7.41-2.11,12.44-3.45,9.65-2.64,10.31-2.88,1.26-.39,1.38-.27.29.09.46-.07c.42-.37,8.3-2.68,8.36-2.45s.75.1.84-.2a2.33,2.33,0,0,1,1.06-.48c.75-.19,1.05-.19,1.19,0s.23.23.58-.16,1.75-.82,13.33-4C231.16,38.17,238.75,36.12,240.92,35.61ZM168.05,55.89c-.56.1-.17,0,.86-.3s1.47-.36,1-.2A15.72,15.72,0,0,1,168.05,55.89Zm89.44-27.48c.53,0,.72.11.48.19-.48.15-1,.78-.73.86a3.32,3.32,0,0,0,1.22-.46,2.92,2.92,0,0,1,2-.48c.54,0,1,.09.93.15s-1,.52-2.26,1a74.22,74.22,0,0,1-12.46,3.95l-3.3.7,3.49-1.48c1.92-.81,4.91-2.17,6.62-3C256.48,28.41,256.67,28.34,257.49,28.41Zm-9.85-.77a11,11,0,0,1-1.46.88c-2.49,1.37-3.34,1.91-3.29,2.1s.57.07,3.14-1.37a10.24,10.24,0,0,1,3.18-1.43c.39,0,.69,0,.66.13a7.69,7.69,0,0,1-1.44,1c-.86.52-1.36.93-1.32,1.09.09.32,0,.35,2.07-.92L251,28l2.11.12a6,6,0,0,1,2,.28,33.11,33.11,0,0,1-3,1.55c-1.61.76-4.41,2-6.24,2.78s-3.7,1.57-4.17,1.8c-.95.45-22.9,6.57-22.95,6.39-.09-.36,8.3-5.25,12-7a67.93,67.93,0,0,0,8.18-4.55c2-1.24,3.77-2.29,3.93-2.33A40.94,40.94,0,0,1,247.64,27.64Zm-14.35-2.05c.14.08.11.15,0,.19s-1,.45-1.89.92c-1.09.57-1.6.93-1.55,1.11s-.14.4,2.49-1l2.27-1.2,1.42.22c.83.12,1.31.27,1.16.36s-1,.56-1.92,1c-2,1.05-2.53,1.42-2.22,1.6a10.48,10.48,0,0,0,2.8-1.26l2.59-1.39,1.74.27a9.66,9.66,0,0,1,1.7.36c0,.05-1.41.93-3.07,2a74.72,74.72,0,0,1-8.54,4.75c-1.56.76-3.61,1.81-4.57,2.33a99.49,99.49,0,0,0-8.41,5.34,12.6,12.6,0,0,1-2.63,1l-2.44.73.36-.53a65.49,65.49,0,0,1,5.68-5c.68-.53,1-1.09.52-1a46.81,46.81,0,0,0-6.52,5.48c-1.06,1.11-1.47,1.41-2.15,1.59-.46.13-.81.18-.78.13s1.05-1.06,2.26-2.22a62.29,62.29,0,0,1,12.56-9.77A7.5,7.5,0,0,0,226,30.3c0-.32-.33-.2-2,.69-3.6,1.91-7.72,5.09-12.54,9.68L208,44l-4.22,1.26-4.22,1.25.36-.49c1-1.3,4.32-5.22,5.43-6.33a34.32,34.32,0,0,1,2.9-2.52c1.79-1.37,18.09-12.13,18.57-12.26A53,53,0,0,1,233.29,25.59ZM210.13,24.3c1.25-.09,2.74-.18,3.33-.2l1.07,0-4.27,3.74c-4.44,3.89-5,4.43-4.71,4.6A39.86,39.86,0,0,0,210,28.79c5.62-4.95,5.34-4.75,6.78-4.73a11.16,11.16,0,0,1,1.37.08c.11,0-.34.5-1,1s-1.15,1.05-1.12,1.15c.08.31.3.19,1.72-.94a9.49,9.49,0,0,1,1.65-1.12c.53-.14,2.29,0,2.19.2s-1.38,1.15-3,2.4a21.12,21.12,0,0,0-2.92,2.51c0,.14.06.23.18.2s1.69-1.2,3.51-2.61l3.31-2.55,1.52.13c.84.08,1.48.21,1.42.29s-3.38,2.3-7.4,4.93c-12.1,7.89-12.56,8.28-17.83,14.71a10.44,10.44,0,0,1-2.36,2.38c-.39.19-3,1-5.92,1.73L186.94,50l1.56-1.27c.86-.7,2.34-2,3.31-2.9a100.51,100.51,0,0,1,8.16-7c.93-.65,1.52-1.19,1.48-1.34-.09-.36-.5-.11-3.22,2-1.26,1-3.54,3-5.06,4.41s-3.81,3.49-5.08,4.51l-2.29,1.86-3.25.92-3.24.92.89-1.17a61.09,61.09,0,0,1,11.32-11.44c3.48-2.79,11.06-9.58,14-12.54l2.34-2.37Zm-22,4c1.44-.47,3.06-1,3.62-1.12l1-.27-.48.67c-.46.66-.54,1-.21.89a7,7,0,0,0,1.08-1c.9-.92.93-.94,2.53-1.22l1.62-.29-.94,1c-.51.53-1.47,1.49-2.1,2.12-.78.77-1.08,1.2-.93,1.29s.32.13,3-2.54c2.12-2.14,2.29-2.23,4.59-2.52l1-.12-2.42,2.49c-1.34,1.37-4.05,3.91-6,5.65-3.29,2.88-4.28,4-3,3.26a99.21,99.21,0,0,0,9.28-8.31L203,25l1.3-.14,2-.2.67-.06-.73.76c-.4.42-1.6,1.6-2.67,2.64-3.47,3.35-9.12,8.35-12.24,10.84a63.31,63.31,0,0,0-12.11,12.42c-.64.88-.78,1-2.24,1.48-1,.32-1.58.46-1.61.34a70.35,70.35,0,0,1,4.23-6.38c.58-.8.72-1.36.3-1.25a6.53,6.53,0,0,0-1.08,1.33c-1.83,2.65-4.24,6.29-4.31,6.49a3.9,3.9,0,0,1-1.38.54c-1.31.35-1.32.34-1.09-.1a8,8,0,0,1,1-1.31c.68-.79.88-1.38.42-1.26A11,11,0,0,0,172,52.81c-1.17,1.54-1.29,1.64-2.22,1.89l-1,.26.37-.5c.2-.27,1.59-1.9,3.07-3.6,2.54-2.92,3-3.58,2.39-3.42a76.53,76.53,0,0,0-5.81,6.61l-1,1.3-3.28,1c-1.81.54-3.3,1-3.34.94A72,72,0,0,1,166,50.43a91,91,0,0,1,7.81-8.38,73,73,0,0,0,8.55-9l3.22-3.89Zm-38,28.76c6.46-8.52,8.13-10.58,10.19-12.49,1.89-1.76,2.87-2.58,2.91-2.43a2.94,2.94,0,0,1-.53.65c-.5.53-.65,1.17-.26,1.07a19.63,19.63,0,0,0,2.35-3,47,47,0,0,1,6.91-5.07,9,9,0,0,1-1.05,1.07c-1.9,1.8-3.63,3.77-3.55,4.05s.31.26,1-.58a58.92,58.92,0,0,1,5.54-5.4,17.69,17.69,0,0,1,3.66-2.34,19.32,19.32,0,0,1,2.19-1c.09.06-1.67,1.78-6.18,6.06a86.41,86.41,0,0,0-6.65,7.1c-.29.41-.23.88.09.65a18.57,18.57,0,0,0,1.42-1.62,87.93,87.93,0,0,1,7-7.17c1.15-1.06,3-2.8,4-3.86,1.93-1.9,2.72-2.42,4.34-2.88.73-.2.73-.2-1.06,2-1,1.2-2.61,3.11-3.6,4.22s-2.73,2.89-3.85,3.92A75.76,75.76,0,0,0,168,47.24a56.59,56.59,0,0,0-6,7.69l-1.82,2.68-1.42.48-2.59.88-1.16.41.34-.65c.19-.36,1.35-1.93,2.58-3.52,2-2.54,2.52-3.44,2-3.3a67.53,67.53,0,0,0-4.71,6c-1.11,1.59-1.26,1.73-2.07,1.94l-.88.24.62-.93c.35-.51,1.76-2.45,3.15-4.33a33.76,33.76,0,0,0,2.48-3.59c-.12-.44-.72.23-3,3.36-3.55,4.84-3.87,5.3-3.79,5.57s-.3.34-1.21.58c-.7.18-1.94.57-2.72.85l-1.44.51Zm109-24.93a3.39,3.39,0,0,0,1.2,0c.92-.13,1.05-.11.84.15a2.87,2.87,0,0,1-1.23.52,17.16,17.16,0,0,1-4,.56A10.43,10.43,0,0,1,259.14,32.13ZM254,33.93c1-.38,1.24-.41,1.31-.18s.62.32,2.68,0c1.75-.3,2-.29,1.63.1a6.66,6.66,0,0,1-2.37.71c-1.62.33-2,.47-1.92.63s.75.13,1.63,0l1.5-.2-1,.9-1,.9-2.28.42c-2.29.42-6.91.9-12,1.23l-2.74.18,3-1C248.65,35.69,252.78,34.36,254,33.93ZM168.05,57.64a35.27,35.27,0,0,1,7.86,1.48l5.57,1.49c1.36.36,3.67,1,5.15,1.39a70.07,70.07,0,0,0,8.43,1.75c.11,0,.2,0,.22.06a2.4,2.4,0,0,1-1,.24,56.9,56.9,0,0,1-6.27.56,10.45,10.45,0,0,0-1.56-.24,29.58,29.58,0,0,1-10-2.86c-1.16-.69-1.71-.81-1.58-.32.08.31,3,1.75,4.58,2.27.65.21,2.29.62,3.62.9a11.14,11.14,0,0,1,2.21.57c-.13,0-1.09.1-2.16.15-3.05.14-5.64-.56-9.64-2.59-1.38-.7-2.38-1.1-2.42-1s.23.42.62.66a38.19,38.19,0,0,0,5.71,2.61,6.4,6.4,0,0,1,1.28.48,39.62,39.62,0,0,1-4,.06,41.2,41.2,0,0,1-6.9-2.74,26.75,26.75,0,0,0-6.92-2.36l-1.67-.31.84-.35A39.57,39.57,0,0,1,168.05,57.64Zm-18.56,5.43.57-.27c.31-.14,2.06-.76,3.87-1.36l3.3-1.11,1.93.23a24,24,0,0,1,6.94,1.92l4,1.75a10.74,10.74,0,0,1,2.19,1.11,26.54,26.54,0,0,1-2.69.08c-3,0-3.93-.25-7.16-1.76-2.13-1-2.72-1.17-2.61-.78a21.89,21.89,0,0,0,4,2c1,.42,1.06.47.53.48-1.25,0-4.28-1-7.15-2.46-1.58-.79-1.79-.85-1.68-.43s1.87,1.22,4.14,2.19a5.31,5.31,0,0,1,1.1.54c-.2.05-5.1-.38-7.65-.68-2.32-.26-2.57-.33-3.06-.89Zm-25.57,5.09a3.43,3.43,0,0,1-1.22.64c-.39-.12-.15-.4.63-.75.43-.19.94-.43,1.15-.55C125.24,67.08,124.91,67.47,123.92,68.16Zm6.66-5a27.33,27.33,0,0,1-3.65,2.53c-.42.16-1.63.73-2.72,1.28l-2,1-.77-.26c-1.33-.47-2.5.08-4,1.87a5,5,0,0,1-2.57,1.67c-1,.43-2.92,1.12-4.26,1.55-2,.62-2.43.82-2.37,1s.4.17,2.38-.46c1.27-.41,2.92-1,3.66-1.31a8,8,0,0,1,1.44-.51s-.18.38-.5.81c-.59.76-.6.76-3.77,1.75-1.74.54-4.06,1.33-5.16,1.76s-2,.76-2,.75.76-.75,1.76-1.66,2.51-2.4,3.39-3.34c1.83-2,1.94-2,8-4.35a164.53,164.53,0,0,0,17.58-8C135.74,59,133.38,61,130.58,63.18ZM147.4,45.65c-1.07,1.59-7.59,5.81-13,8.4-1.52.73-1.67.83-1.59,1.14s.19.2.47.05a93,93,0,0,0,11.16-6.39c1.65-1.13,1.63-.93-.18,1.26-1.1,1.33-1.4,1.56-4.39,3.38a81.92,81.92,0,0,1-10.82,5.56c-1.42.6-2.61,1.15-2.65,1.21-.61,1.05,7.28-2.45,12.43-5.51,1.46-.87,2.7-1.59,2.76-1.6a19.71,19.71,0,0,1-2.78,2.9c-2.81,2.57-11.13,6.64-23.55,11.51-1.39.55-2.66,1.07-2.82,1.17-.59.36-.33,0,1.24-1.86s1.68-1.88,2.65-2.2c1.93-.62,6.66-2.88,6.6-3.15s0-.33-3,1c-3.11,1.4-3.88,1.73-3.9,1.64s1-1.27,2.31-2.73,3-3.44,3.75-4.39a7.22,7.22,0,0,1,1.6-1.66A59,59,0,0,0,132,52.2a128.64,128.64,0,0,0,15.45-9.14c1.21-.87,2.23-1.59,2.27-1.6A33.09,33.09,0,0,1,147.4,45.65Zm9.34-19.82c0,.11-.55,1.55-1.21,3.21l-1.2,3-1.7,1.25a150.09,150.09,0,0,1-12.81,8.28c-2.29,1.29-2.77,1.65-2.45,1.84s11-6.27,15.94-9.89l.47-.34-.38.87c-.21.47-1,2-1.65,3.45l-1.27,2.59-1.83,1.36a124.82,124.82,0,0,1-16.31,9.9,63.25,63.25,0,0,1-8.15,3.3,2.43,2.43,0,0,1,.48-.74c.3-.38.94-1.28,1.39-2a3.88,3.88,0,0,1,1.59-1.61c.63-.28,6.93-3.48,8.17-4.15.49-.26.41-.6-.11-.46-.21,0-2,.94-4,2s-3.72,1.86-3.86,1.86a12.46,12.46,0,0,1,1.72-2.8c3.59-5.11,3.49-5,5-5.66A70.19,70.19,0,0,0,150,31C153.08,28.29,156.78,25.45,156.74,25.83Zm1.76-5.31A40.62,40.62,0,0,1,155,23c-2.34,1.56-3.33,2.32-3.27,2.52s-.07.42,3.58-2.06a15.26,15.26,0,0,1,2.86-1.74c0,.15-.26.85-.52,1.6-.46,1.31-.51,1.36-2,2.38-.84.58-3,2.33-4.85,3.89a70.88,70.88,0,0,1-12.66,9c-1.3.74-4.11,2.16-4.13,2.09s.89-1.26,2-2.74,3.11-4.19,4.44-6c5.74-8,5.09-7.24,8.17-9.27,1.5-1,4.05-2.92,5.66-4.28a66.36,66.36,0,0,1,6-4.62C160.36,13.74,158.69,20.21,158.5,20.52Zm4.68-15.4c-.63,1.52-1.47,3.87-1.85,5.17a23.57,23.57,0,0,1-.88,2.6A12.39,12.39,0,0,1,158.93,14c-.75.5-2.81,2.13-4.58,3.63-2.75,2.33-7,5.45-7.24,5.32s4.15-5.78,4.82-6.26c.43-.32,1.92-1.22,3.29-2a12.5,12.5,0,0,0,2.52-1.65c0-.36-.51-.14-2.92,1.24-1.24.71-2.28,1.26-2.31,1.24a6.51,6.51,0,0,1,.83-1.1,14.5,14.5,0,0,1,4.14-3c.87-.41,1.34-.83,1.08-1a3.53,3.53,0,0,0-1.51.59,13.26,13.26,0,0,1-1.36.68c-.08-.05,5.15-6.16,6.12-7.16a19.71,19.71,0,0,1,2.41-2.18A27.63,27.63,0,0,1,163.18,5.12Zm-6.71-.88c2.61-1.07,6.12-2.4,6.14-2.32s-.83.85-1.84,1.85a132.55,132.55,0,0,0-12,14.3c-1.9,2.59-2,2.65-1,.61.32-.69,1.23-2.89,2-4.89s2-4.69,2.62-6l1.2-2.35ZM145,9.64a8.14,8.14,0,0,1-.89,2,94.74,94.74,0,0,0-3.87,9.21c-.27.84-.24,1.41,0,1.34.11,0,.25-.33.33-.69.45-2,4.8-11.69,5.58-12.41a5.78,5.78,0,0,1,1.14-.63l.89-.38-1,2c-1.83,3.59-4.35,9.51-4.24,9.94s.47,0,1.46-2.47c1.18-2.91,2-4.63,3.58-7.8,1.21-2.37,1.21-2.37,3.87-3.52l.81-.34-.35.66c-.18.35-.71,1.43-1.16,2.36s-1.46,3.34-2.23,5.33S147,18.88,146.45,20a10.56,10.56,0,0,0-.94,2.2,28.48,28.48,0,0,1-2.33,3.43c-1.34,1.81-3.29,4.55-4.36,6.11s-2.09,3-2.28,3.29l-.36.47.16-.71a39.49,39.49,0,0,1,1.9-5.94c1-2.51,1-2.89.67-2.79s-2.25,5.08-3,8.41a8.14,8.14,0,0,1-2,4.25,17,17,0,0,1-1.46,1.82,22.32,22.32,0,0,1,0-2.53c.12-6.19,2.8-14,8-23.12a34.22,34.22,0,0,0,1.95-3.72A9.43,9.43,0,0,1,145,9.64Zm-12.9,7.45a9.75,9.75,0,0,1-.64,1.88c-.51,1.25-.67,1.88-.5,2s.55-.61,1.19-2.21l.94-2.36L135.19,15c1.18-.75,2.95-1.8,4-2.35s2-1.08,2.13-1.18.32-.13.34-.06-.79,1.57-1.79,3.33A75.58,75.58,0,0,0,133,30.34a28.11,28.11,0,0,0-1.16,8.34c0,2.08-.12,2.92-.39,3.33-.43.69-3.14,4.36-3.41,4.65s-.27-.23.18-5.81a51.67,51.67,0,0,1,1.49-10.23c.54-2.14.56-2.36.17-2.26a15.24,15.24,0,0,0-1,3.61,61.1,61.1,0,0,0-1.21,9c-.24,3-.43,5.78-.41,6.12,0,.5-.23,1-1.26,2.26a20.79,20.79,0,0,1-1.35,1.6,14.79,14.79,0,0,1-.12-1.7,71,71,0,0,1,.67-9.52,22.78,22.78,0,0,0,.26-2.82c-.48-1.84-1.66,8.55-1.46,12.84l.1,2-.82,1c-.81,1-.83,1-1,.6-.36-.9-.62-7.61-.4-10.17.13-1.42.34-4.44.48-6.72s.38-4.9.51-5.82c.65-4.31,1.21-7.51,1.37-7.78C124.56,22.32,131.8,16.93,132.07,17.09ZM111.5,36.22c.87-1.09,2.32-2.81,3.24-3.85,1.38-1.56,1.66-1.81,1.64-1.42-.17,3.45-.29,17.92-.14,18s.25-.05.3-.26.15-4.54.23-9.58l.15-9.18.79-.86c1.31-1.44,5.21-5.25,5.43-5.3s.22,0,.23,0-.27,1.89-.64,4.1-.78,5.87-.91,8.16-.36,5.43-.49,7a52.4,52.4,0,0,0,.33,10.25l.22,1.28-1.6,2c-2.57,3.17-3.36,4-3.19,3.47,0-.1,0-2-.12-4.2s-.19-4.13-.19-4.28a.29.29,0,0,0-.25-.3c-.28,0-.31,1.25-.11,5,.28,5.18.53,4.38-2.38,7.62-1.41,1.55-2.57,2.81-2.59,2.79a64.34,64.34,0,0,1-1-6.65c-.39-3.55-1-10.37-1-11.34,0-.46.11-3,.25-5.64l.26-4.81Zm-8.33,13.14c2.25-4.5,6.25-11,6.13-10,0,.18-.13,2.18-.26,4.44s-.15,5.22-.06,6.56c.38,5.38.8,9.55,1.23,12.31.24,1.58.51,3.25.57,3.7.13.8.11.83-1.55,2.52-2.71,2.74-4.53,4.4-4.48,4.08,0-.16.14-1,.26-1.8a20.17,20.17,0,0,0-.08-6.06c-.22-1.25-.31-1.49-.5-1.36s-.17.62,0,1.58a20.71,20.71,0,0,1,0,6.19,14,14,0,0,0-.21,1.9c0,.11-.3.53-.74,1a4.35,4.35,0,0,1-.82.7s.17-1.1.4-2.34a22.49,22.49,0,0,0,.37-7.31c-.2-2-.39-2.63-.63-2.22a19.91,19.91,0,0,0,.12,2.64,25.82,25.82,0,0,1,0,4.14,28.66,28.66,0,0,1-1.23,5.86,35,35,0,0,1-3.37,2.82,6.36,6.36,0,0,1,.26-1.34,27.47,27.47,0,0,0,.5-7.52c0-1.75,0-3.82.09-4.61a29.44,29.44,0,0,0,0-4,15.33,15.33,0,0,1,0-3C99.44,57.26,101.76,52.18,103.17,49.36ZM96.64,65.6a33.5,33.5,0,0,1,1.79-5.43s.08.19.09.42.07,1,.13,1.68a17.86,17.86,0,0,1,0,2.9c-.08.92-.13,3-.09,4.54a28,28,0,0,1-.39,7c-.57,2.76-.57,2.76-3.82,5l-1.62,1.12,1.25-2.28a18.77,18.77,0,0,0,2.67-8.59A34.14,34.14,0,0,0,96.64,65.6Zm-.56,1.06c.17-.31.18.43,0,3.88a31.87,31.87,0,0,1-.44,4.32C95,78,92.14,83.1,90.59,84.05a7.21,7.21,0,0,1-1,.57,9.19,9.19,0,0,1,1.11-2A19.43,19.43,0,0,0,93.47,75,59.12,59.12,0,0,1,96.08,66.66Zm-8.8,18.83A67.49,67.49,0,0,0,91.61,78c.54-1.13,1-2.15,1.1-2.28.27-.49-.61,2.79-1,3.88a32.45,32.45,0,0,1-3.38,5.47,3.74,3.74,0,0,1-1,.83l-.51.27Zm7.36-1.06c-.26-.16,2-1.39,5.77-3.08s5.86-2.57,3.87-1.58l-3.69,1.88c-1.6.81-3.14,1.57-3.44,1.69s-1,.43-1.48.68A3.61,3.61,0,0,1,94.64,84.43ZM114.22,79c.61-.15.6-.13-.14.21a9.62,9.62,0,0,1-1.36.51c-.49.12-.48.09.14-.22A7.54,7.54,0,0,1,114.22,79Zm4.49-1.37a21.94,21.94,0,0,1,2.52,0c1.35,0,3,0,3.57,0,1,0,7.79.55,8.66.75a2.65,2.65,0,0,1,.73.29,1,1,0,0,0,.68.08c1-.26,15.46,3,15.61,3.58a68.13,68.13,0,0,1-8-1.47A106.33,106.33,0,0,0,123.38,78C120.78,77.78,118.69,77.62,118.71,77.58Zm-7.49,2.65c-.19,0,0-.08.31-.18s.51-.09.34,0A1.47,1.47,0,0,1,111.22,80.23ZM92.11,85.42a.73.73,0,0,1-.41.51,19.47,19.47,0,0,1-4.55,1.68c-1.14.29-1.83.43-1.54.31,1.66-.67,5.79-2.43,6.13-2.61S92.13,85.16,92.11,85.42Zm-15.59,5a4.92,4.92,0,0,1,1.27-1.16,8.88,8.88,0,0,1,3.81-.75c.77,0,.71.06-1.32.73a19.24,19.24,0,0,0-3.07,1.27C75.92,91.32,75.88,91.32,76.52,90.46ZM66.13,97.32a104.74,104.74,0,0,0,9.5-5.12c3.26-2.1,4.94-2.7,10.07-3.57.53-.09,0,.17-5.48,2.61-3,1.33-7.47,3.32-10,4.44s-4.56,2-4.62,2S65.8,97.47,66.13,97.32Zm-1.3.74c-.14,0,0-.09.21-.16s.38-.05.26,0A.78.78,0,0,1,64.83,98.06Zm-.87.43c-.17,0-.14-.08.08-.15s.32,0,.27,0A.39.39,0,0,1,64,98.49Zm-.88.43c-.17,0-.14-.07.08-.14s.31,0,.27,0S63.22,98.93,63.08,98.92Zm22-5.67c2.41-.59,5.52-1.23,6.89-1.42,3.94-.55,9.56-1.17,9.59-1s-1.89,1-4.26,2.07c-4,1.85-4.32,2-5,1.85a61.45,61.45,0,0,0-7.88-.38H80.73ZM89.37,95c3.65.26,10.8,1.27,15.52,2.19l8.42,1.64a169.27,169.27,0,0,1,16.53,4.22c1.82.6,4.1,1.34,5.12,1.65,3.84,1.19,15.34,5.16,15.28,5.28s-.3.06-.57,0-3-.9-6-1.85c-12.43-3.88-22.72-6.71-29.85-8.2A294.67,294.67,0,0,0,84.1,95.4C82,95.2,80.39,95,80.47,95,80.84,94.89,87.83,94.88,89.37,95Zm-31.78,6.56c-.14,0-.05-.09.21-.15s.37-.06.26,0A.77.77,0,0,1,57.59,101.56ZM54.5,94.93a141.36,141.36,0,0,1-13.35,9.36c-4,2.62-5.11,3.24-5.28,3.06s-.66.14-2.32,1.5c-3.45,2.83-3.83,3.12-3.86,3a4.65,4.65,0,0,1,.83-.83c.46-.41,1.89-1.77,3.15-3,2.58-2.54,3.75-3.3,8-5.23,1.7-.76,2.41-1.16,2.36-1.33a.25.25,0,0,0-.32-.17c-.48.13-4.42,2-5.39,2.51a4.66,4.66,0,0,1-1,.5c-.21-.12,1.72-2,2.74-2.59,1.23-.76,7-3.93,8.43-4.59.75-.36,1.15-1,.53-.8-.47.12-4.24,2.05-6.63,3.4a9.34,9.34,0,0,1-2.1,1c.07-.11.9-1.17,1.83-2.32,1.18-1.47,1.74-2,1.83-1.85s.39.21,6.45-2.13c2.13-.82,4.71-1.77,5.72-2.1s2-.7,2.27-.82C59.37,91,58.37,91.92,54.5,94.93ZM70,80.88a82.8,82.8,0,0,1-7.65,7.6l-2.19,1.88-3.84,1.33c-2.11.74-5.12,1.84-6.71,2.47C45.48,95.79,44,96.3,44.13,96s.7-.91,1.38-1.74l1.23-1.5,2.4-1c2.91-1.19,3.19-1.32,3.13-1.56s-.88,0-3,.88c-1,.39-1.73.69-1.71.66l1.09-1.49c.58-.8,1.46-2.06,2-2.82l.92-1.37,4.64-1.2c4.29-1.11,4.84-1.29,7.21-2.4,2.52-1.18,8.15-4,8.75-4.38S71.87,78.78,70,80.88Zm-25,12a11.94,11.94,0,0,1,1.12-1.73c4-5.75,9.49-14.13,13.56-20.89,3.74-6.22,8.4-13.19,8.86-13.25.21,0,.46-.45.71-1.15C70,54.05,73.92,48.8,79,43.07c4-4.56,4.07-4.58,1-.42-1.19,1.62-2.85,3.8-3.67,4.82A140.44,140.44,0,0,0,64.16,65c-2.91,4.69-5.08,8.14-7.19,11.42l-2,3.15c-.87,1.32-2.1,3.26-2.76,4.35a8.43,8.43,0,0,1-1.52,2.06c-.19,0-.27.17-.19.29S49,89,47.51,90.87C46.62,92,45.34,93.06,45.06,92.9ZM79.38,66.05a63.53,63.53,0,0,1-5.86,10.39c-.39.5-3,2-6.76,3.83-5.55,2.73-7.34,3.41-11.37,4.31l-3.46.77.59-1c.33-.56.69-1,.8-1a23,23,0,0,0,2.55-.83c1.69-.6,2.36-.91,2.37-1.12s-.32-.17-2,.38c-1.1.37-2.16.76-2.35.87s-.32.15,0-.4a1.47,1.47,0,0,1,.8-.73c.63-.17,5.92-2.53,6.11-2.73a.16.16,0,0,0,0-.28,14.82,14.82,0,0,0-3,1.1c-1.51.67-2.83,1.21-2.91,1.21a26.62,26.62,0,0,1,2.89-4.33,15.85,15.85,0,0,1,2-.79A61.8,61.8,0,0,0,72,70c1.57-1,5.23-3.48,7.46-5.16C79.91,64.54,79.89,64.76,79.38,66.05ZM82,57.31c-.53,2.15-1.16,4.45-1.39,5.13-.47,1.35-.31,1.2-5.44,4.84A57.12,57.12,0,0,1,59.9,75l-1.65.56.42-.68,2.23-3.68,1.8-3L64,67.65c2.22-.94,11.88-6.24,12.13-6.66,0-.07,0-.18-.09-.27s-.73.2-1.57.71c-2.06,1.25-9.11,5-10.17,5.46l-.9.36.74-1.33c1.09-2,1.35-2.2,3.54-3.41,1.1-.6,4.39-2.62,7.34-4.5,5.29-3.37,7.63-4.84,7.78-4.88S82.92,53.68,82,57.31Zm2.07-9.71-.9,4.64-1.47.89c-.81.5-3.83,2.41-6.75,4.27-5.2,3.31-8.47,5.28-8.63,5.18a49.18,49.18,0,0,1,4.28-6.41,32.5,32.5,0,0,1,5.64-3c2.72-1.24,3.29-1.59,2.93-1.8a57.25,57.25,0,0,0-6.81,3,3.89,3.89,0,0,1-.93.45,25.48,25.48,0,0,1,1.71-2.38A11.85,11.85,0,0,1,77,48.71c1.6-1.09,6.27-4.45,7.78-5.6A28.75,28.75,0,0,1,84.09,47.6Zm2.75-12.49c-.15.46-.55,2.21-.9,3.87s-.64,3.07-.66,3.11S77.16,48,76.65,48.3c-.23.14.23-.58,1-1.6s2.93-3.85,4.75-6.31,3.62-4.83,4-5.28l.68-.83ZM79.4,37.59c4.49-2.46,6-3.22,5.84-3s-1.58,1.75-3.37,3.68c-3.65,3.93-6.86,7.58-8.93,10.17a21.72,21.72,0,0,1-1.48,1.74c-.12,0,.94-2.91,2.58-7.19C75.32,39.62,74.88,40.07,79.4,37.59ZM64.3,47.68c1.89-1.57,9.35-6.84,9.9-7,.15,0,0,.38-.72,2.23-.45,1.13-1.39,3.63-2.1,5.57a19.37,19.37,0,0,1-2.52,5.31,10.13,10.13,0,0,1-1.28,1.65c0-.07.06-1.72.17-3.64a22.24,22.24,0,0,0,0-3.59c-.35-.2-.46.5-.64,4a29.29,29.29,0,0,1-.47,4.5,44.08,44.08,0,0,1-3.93,5.8c-.25-.15.3-8.92.78-12.32C63.79,48.52,64,48,64.3,47.68Zm-8.65,7.53.77-.77.18,1.19c.14,1,.22,1.18.45,1.12s.23-.41.06-1.42L56.9,54l2.26-2c3-2.66,4.07-3.49,4-3.18,0,.14-.16,1.18-.31,2.32-.27,2-.83,10.55-.78,11.81a3.38,3.38,0,0,1-.69,1.78c-.41.63-1.21,1.91-1.81,2.89a6.47,6.47,0,0,1-1.13,1.59c-.05-.21-.7-5.51-.78-6.39,0-.48-.12-.62-.34-.56s-.28.13-.26.22.23,1.87.48,4L58,70.28l-.63.92a6.72,6.72,0,0,1-.67.9s-.39-1.67-.81-3.67A38.82,38.82,0,0,0,55,64.55c-.5-.7-.43.19.26,3.28,1.11,5,1.11,5.11,0,6.75a10.13,10.13,0,0,1-.95,1.33s-.4-1.66-.81-3.68A80.18,80.18,0,0,1,52,61.12c-.06-1-.12-1.87-.12-1.9S54.43,56.41,55.65,55.21Zm-6.21,6.61c1.74-2,1.77-2,1.82-1.81s.18,1.72.35,3.65a67.55,67.55,0,0,0,1,7c.4,1.92.8,4.1.89,4.84.17,1.48,0,1.87-1.4,3.91l-.7,1,.1-.81a14.41,14.41,0,0,0-.25-4.39c-.53-2-3.27-7.5-3.77-7.53-.33,0-.2.27,1.35,3.19a17.75,17.75,0,0,1,1.67,4.24A8.94,8.94,0,0,1,51,79.29a5.31,5.31,0,0,1-.79,3c-.55.91-.63,1-.63.54a50,50,0,0,0-.4-6.23c-.32-.18-.37.46-.27,3.12.17,4.34.19,4.2-.85,5.85s-1.27,1.85-1.2,1.22c.09-.78.08-8.43,0-8.79s-.44-.44-.46,0c0,.2,0,1.61,0,3.15s0,3.52-.05,4.43a8.05,8.05,0,0,0,.09,1.94c.07.17-.14.67-.5,1.18l-.63.88L44,84.39c-1.25-5.09-2.12-10.22-2-12C42.05,71.1,45.36,66.42,49.44,61.82Zm-12.88,22c-.21-.3,3.68-9.25,4.56-10.49.25-.35.27-.33.36.5.06.48.32,2.39.59,4.23a64.55,64.55,0,0,0,1.65,7.76l1.16,4.4L44,91.58a6.51,6.51,0,0,1-1,1.34,18.06,18.06,0,0,1-.21-2.24c-.14-2.35-.9-6.16-1.24-6.17a7.79,7.79,0,0,0,.25,2.58,35.8,35.8,0,0,1,.49,4.45,13.56,13.56,0,0,0,.12,2c.09.17-.13.5-2,3a14.31,14.31,0,0,1-1.46,1.77c0-.06.35-1.55.82-3.29s.84-3.22.83-3.29-.15-.09-.28-.06A52.92,52.92,0,0,0,38,98.93c-.12.57-1.68,2.73-1.76,2.44a7.26,7.26,0,0,1,.18-1.1,50.26,50.26,0,0,0,.77-7.76A65.65,65.65,0,0,0,36.56,83.79ZM36,84.5c.08-.15.14,0,.15.26s.1,1.33.19,2.34a42.21,42.21,0,0,1-.49,12.9c-.47,2.39-.58,2.7-1.3,3.52-.43.49-.85.94-.91,1a10.34,10.34,0,0,1,.31-2,35.5,35.5,0,0,0,.49-10.19c-.15-1.45-.3-2.72-.33-2.82A47.83,47.83,0,0,1,36,84.5ZM30.87,97.63c.89-2.31,1.87-4.85,2.18-5.64.65-1.69.7-1.62,1,1.27a34.42,34.42,0,0,1-.69,9.54l-.57,2.78-1.28,1.31c-.71.72-1.43,1.44-1.62,1.61s-.18-.41.34-2.9c.93-4.39,1.4-7.88,1.1-8.06s-.31.29-.48,1.27c-.13.77-.22,1.45-.21,1.5.06.22-1,5.94-1.35,7a8.26,8.26,0,0,0-.33,1.62c0,.33-.43.85-1.48,1.83A11.51,11.51,0,0,1,26,112.05s.19-1.14.44-2.44a22.63,22.63,0,0,1,1.66-5.07C28.71,103.05,30,99.93,30.87,97.63Zm-8.2,17.55s.64-1.27,1.49-2.78,1.57-2.69,1.59-2.64a12.91,12.91,0,0,1-.26,1.35,3.7,3.7,0,0,0-.14,1.39c.19.18-.93,1.07-1.3,1-.18,0-.28.08-.23.25S22.85,115.28,22.67,115.18Zm11.86-9.51c2.49-2.71,7.06-8.19,8.76-10.5.86-1.17,1.27-1.58,1.62-1.6s.37.07-.41,1l-3.11,3.85A105.7,105.7,0,0,1,29.71,111c-3.58,3.4-5.92,5.4-6.14,5.28a14,14,0,0,1,1.94-2m26.56-9.79c-2.75,1.45-7.56,3.89-10.72,5.44s-7.7,3.82-10.11,5.06-4.52,2.25-4.69,2.26c-.35,0,.43-.42,4.62-2.49,1.65-.82,4.79-2.44,7-3.63,3.7-2,18.54-9.38,19-9.47S57.17,101.88,52.07,104.57Zm43.12,7.25c-.53-.36-2-1.47-3.31-2.47-2-1.57-3-2.54-7.2-7.23-3.63-4-4.89-5.34-5-5.14s.58,1.09,2.76,3.52c3.33,3.71,3.15,3.69-.8-.08A50.22,50.22,0,0,0,77.81,97c-.58-.4-1-.74-1-.76s1,0,2.36.09l2.38.13,1.32,1a43,43,0,0,1,6.32,6c1.32,1.52,6.85,8.59,7,8.92A4.73,4.73,0,0,1,95.19,111.82Zm8,5.09c-.73-.36-2.22-1.23-3.27-1.91-2.11-1.35-2.11-1.35-6.85-7.63a50.92,50.92,0,0,0-9.22-9.86c-.8-.61-1.1-.93-.85-.9l2.09.21c1.66.15,1.74.18,2.75,1.09a41.45,41.45,0,0,1,5.67,6.89,83.12,83.12,0,0,0,8.65,10.27c1.28,1.31,2.33,2.4,2.35,2.44S103.88,117.26,103.14,116.91Zm8.34,4c-2.19-.84-5.93-2.75-6.17-3.16a25.18,25.18,0,0,0-2.06-2.25,106.34,106.34,0,0,1-9.42-11.06,46.18,46.18,0,0,0-5.32-6.58c-.31-.26-.52-.5-.48-.57a6.71,6.71,0,0,1,1.74.08,4,4,0,0,1,2.93,1.2c2,1.6,4.12,4,13.84,15.77,1,1.26,2.78,3.26,3.85,4.46s2,2.24,2,2.32S112,121.07,111.48,120.87Zm13.27,3.44c-.6-.07-1.76-.25-2.59-.39a3.68,3.68,0,0,1-2.57-1.24c-1.39-1.29-5.91-6.4-8.1-9.15a9.15,9.15,0,0,0-2-2.11c-.14,0-.24.11-.23.16.13.51,7.91,9.62,9.38,11a5.39,5.39,0,0,1,.68.72,25.21,25.21,0,0,1-4.23-1.06l-1.34-.42-3.41-3.91c-1.88-2.15-5-5.86-7-8.25-5-6.16-7.53-9-9.21-10.56s-1.83-1.44,1.87-.9l2.26.33,2.37,2.77c1.3,1.53,2.82,3.35,3.38,4s1.12,1.25,1.25,1.21.22-.14.2-.23-3.39-4.26-5-6.07a8.18,8.18,0,0,1-1.12-1.42,53.85,53.85,0,0,1,5.92,1,32.6,32.6,0,0,1,2.53,3c2,2.61,3.25,4.28,8.29,11.2,2.29,3.14,7.38,8.71,9,9.87a6.53,6.53,0,0,1,.64.48A7.94,7.94,0,0,1,124.75,124.31Zm12,0c-2.21.23-3.3.26-3.62.09a36.88,36.88,0,0,1-5.08-4.63,6.18,6.18,0,0,0-1.59-1.42c-.13,0-.22.12-.2.2a50.56,50.56,0,0,0,4.51,4.7c.77.7,1.34,1.31,1.26,1.37a15.22,15.22,0,0,1-2.49.08c-1.9,0-2.47-.11-3-.46-2.5-1.56-7.72-7.4-12.19-13.63-1.68-2.35-4.13-5.65-5.43-7.32s-2.35-3.09-2.33-3.12a39.14,39.14,0,0,1,6,1.21,77,77,0,0,1,5.38,6.29c2.55,3.22,4.18,5.07,4.41,5s0-.62-1.21-2c-.67-.77-2.15-2.56-3.26-4s-2.53-3.12-3.14-3.82a8.15,8.15,0,0,1-1.06-1.35,28.9,28.9,0,0,1,3.27.67l3.23.75,1.62,1.59c.9.88,3.59,3.81,6,6.52,5.81,6.55,10.27,10.91,12.36,12.08l.84.47-.53.2A31.57,31.57,0,0,1,136.74,124.26Zm9.94-1.85a7.4,7.4,0,0,0-1.51-1.93c-2.12-2.21-2.28-2.36-2.46-2.18s1.34,1.93,2.9,3.48l.82.81-.72.19c-.84.22-1.14,0-3.79-2.74-1.43-1.48-2-1.89-1.87-1.32a31.09,31.09,0,0,0,3.23,3.45,10,10,0,0,1,.92.92,2.87,2.87,0,0,1-1.08.27,2.8,2.8,0,0,1-2.34-.53c-2.33-1.3-6.31-5.11-11.59-11.12-3-3.35-4.81-5.38-7.08-7.7l-.76-.77,1.27.34c.71.19,2.87.78,4.83,1.33l3.54,1,1.37,2c2.21,3.22,5.44,6.8,5.15,5.69a27.24,27.24,0,0,0-1.77-2.18c-1.65-1.93-3.78-4.89-3.66-5.09a27.86,27.86,0,0,1,3.3.88l3.25,1,1.78,1.84c1,1,2.81,3,4.07,4.32,3.05,3.32,4.8,5,6.15,5.83a7.32,7.32,0,0,1,1.18.85,3,3,0,0,1-1.21.5l-2.6.78C146.88,122.64,146.65,122.66,146.68,122.41Z"/></g></g></g></svg>