<svg xmlns="http://www.w3.org/2000/svg" viewBox="0 0 76.79 75.96"><defs><style>.cls-1{opacity:0.8;}.cls-2{fill:#505326;}</style></defs><title>jay-kosher-logo</title><g id="Capa_2" data-name="Capa 2"><g id="Capa_1-2" data-name="Capa 1"><g class="cls-1"><path class="cls-2" d="M38.25,64.66c-15,0-27.16-11.87-27.16-26.45S23.28,11.75,38.25,11.75,65.41,23.62,65.41,38.21,53.23,64.66,38.25,64.66Zm0-50.95c-13.9,0-25.2,11-25.2,24.5S24.35,62.7,38.25,62.7s25.21-11,25.21-24.49S52.15,13.71,38.25,13.71Z"/><path class="cls-2" d="M38.4,76A38.23,38.23,0,0,1,0,38a38.4,38.4,0,0,1,76.79,0A38.24,38.24,0,0,1,38.4,76Zm0-74A36.28,36.28,0,0,0,2,38a36.44,36.44,0,0,0,72.88,0A36.27,36.27,0,0,0,38.4,2Z"/><path class="cls-2" d="M25.65,43.4a6.62,6.62,0,0,1-1,2.68,11.35,11.35,0,0,1-1.84,2.26c-.1,0-.21-.11-.31-.11a.4.4,0,0,0-.1-.22l.92-2s.1-.42.31-1.18a2.56,2.56,0,0,0,.1-.75v-.53a2.92,2.92,0,0,0-.31-.43c0-.11-.3-.33-.82-.65a1.85,1.85,0,0,1-.4-.53c.1-.32.4-.86.71-1.5a9.84,9.84,0,0,0,.51-.86c.21-.11.31,0,.31.1a.7.7,0,0,1,.1.43A7,7,0,0,1,25,41.36a1.91,1.91,0,0,1,.71,1.5.86.86,0,0,1-.1.54m4.7-1.07a7,7,0,0,1,.1,1.5,9.29,9.29,0,0,1-.82,3.65,13.39,13.39,0,0,1-2.24,3.32,7.16,7.16,0,0,1-1.74,1.08,5.66,5.66,0,0,1-1.84.32A3.94,3.94,0,0,1,22.18,52a4.25,4.25,0,0,1-2.35-3.43c-.11-1.61-.31-3.11-.41-4.61a2.76,2.76,0,0,0-.72-.86c-.2-.11-.51-.33-1-.65a1,1,0,0,1-.31-.64,1.18,1.18,0,0,1,.21-.75A10.33,10.33,0,0,0,18.09,40a.55.55,0,0,1,.61-.43.78.78,0,0,0,.21.53c.1.22.1.33.2.33s.41.32.82.64c.71.54,1,1,1,1.29a3.51,3.51,0,0,1,.1,1.07v1.07a15,15,0,0,0,.31,3.11,3.06,3.06,0,0,0,1.94,2.15,4.1,4.1,0,0,0,1.23.21,3.23,3.23,0,0,0,2.14-.85,6.52,6.52,0,0,0,1.43-1.94,6.46,6.46,0,0,0,.41-2.46V43.61c0-.21-.41-.53-1.12-1.07a1.41,1.41,0,0,1-.72-.86,10.83,10.83,0,0,1,.51-1.07,4.62,4.62,0,0,1,.62-1.07h.4a1.48,1.48,0,0,0,.62,1.07,5,5,0,0,1,1.53,1.72"/><path class="cls-2" d="M30.66,35.92a8.85,8.85,0,0,1-.41.88c-.41.55-.51.77-.62.88-.1.33-.3.43-.71.33a8.22,8.22,0,0,0-2.66-3.4c-.81-.66-1.53-1.31-2.35-1.86l-2.65-2A3.13,3.13,0,0,1,21,32a16.88,16.88,0,0,0-.82,2.19,1,1,0,0,0,.31.77,1.84,1.84,0,0,0,1.12.55h.51a1.65,1.65,0,0,1,.72-.11l-.92,2.3c-.21,0-.41.11-.61.11H19.52a1.57,1.57,0,0,1-.92-.33,1.13,1.13,0,0,1-.51-.77,2,2,0,0,1-.1-.77,4.46,4.46,0,0,1,.51-2.08c.41-1.2.71-2,.81-2.3a2.37,2.37,0,0,0,.11-.87,4,4,0,0,0-.51-1.87,11,11,0,0,0-1.43-1.64,7.57,7.57,0,0,1,.51-.87c.2-.33.51-.66.71-1H19c.1,0,.2-.11.3-.11a2.62,2.62,0,0,0,1.13,1.75c.51.55,1,1.1,1.63,1.65l4.09,3.17A6.27,6.27,0,0,1,27,30.67a1.74,1.74,0,0,0,.61-1.1.84.84,0,0,0-.41-.77,4.42,4.42,0,0,0-.71-.43,4,4,0,0,1-1.13-.88,3.07,3.07,0,0,1,.62-1.1c.3-.43.61-.87.81-1.2h.62c.1.22.1.33.2.55a1.47,1.47,0,0,0,.41.33,16.45,16.45,0,0,1,1.43,1,1.65,1.65,0,0,1,.82,1.43,1.83,1.83,0,0,1-.41,1.09,5.74,5.74,0,0,1-.72,1.1,25.42,25.42,0,0,1-1.63,2.08,11.59,11.59,0,0,1,1.63,1.53l1.54,1.64"/><path class="cls-2" d="M17.4,15.26s0,0,0,0l-.68-1.93s0-.07,0-.08.05,0,.08,0l1.76,1s0,0,0,.06Zm1.46-.71a.06.06,0,0,1,.09,0l1.53.87a.12.12,0,0,1,.06.18q-.08.08,0,.12s.1,0,.21-.1l1.14-.93c.22-.19.26-.24.22-.29s-.07,0-.12,0a1.15,1.15,0,0,1-.27.18c-.15.08-.39.14-1.06-.21-1.14-.59-4.11-2.22-4.53-2.43-.17-.09-.25-.11-.31-.07s0,.15,0,.38l1.62,5c.13.4.19.7-.06,1,0,.05-.12.12-.17.17s-.06.07,0,.11.08,0,.16,0c.31-.26.62-.55.69-.6s.45-.36.64-.52.09-.09.05-.14-.05,0-.13,0l-.09.07c-.18.16-.3.12-.39,0a1.5,1.5,0,0,1-.21-.44l-.39-1.13s0-.06,0-.09Z"/><path class="cls-2" d="M22.54,12.76c.06.11.23.39.37.68s.13.39,0,.49a1.54,1.54,0,0,1-.22.17c-.07,0-.1.08-.08.11s.1,0,.19,0l.83-.52c.18-.1.61-.33,1-.58.09,0,.13-.1.1-.15s-.06,0-.14,0a1.89,1.89,0,0,1-.35.17c-.21.09-.36,0-.49-.21s-.34-.55-.41-.66l-.32-.55a1.84,1.84,0,0,1-.29-.73,23.15,23.15,0,0,1,0-2.88A1.2,1.2,0,0,1,23,7.55a1,1,0,0,1,.25-.25c.08,0,.12-.09.09-.14s-.08,0-.15,0-.56.35-.7.44L21.81,8c-.08,0-.1.08-.07.12s.09,0,.15,0a.19.19,0,0,1,.24.08,1.08,1.08,0,0,1,.11.41c0,.26.05,2.24.08,2.44-.22-.13-2.1-1.2-2.31-1.34a.67.67,0,0,1-.21-.19.13.13,0,0,1,0-.17c.08-.09.13-.12.1-.16s-.07,0-.13,0c-.3.17-.57.36-.71.44l-.85.47c-.08,0-.12.1-.09.14s.08,0,.13,0a.84.84,0,0,1,.33-.08,1.91,1.91,0,0,1,.75.22c.44.21,2.2,1.16,2.3,1.24a1.66,1.66,0,0,1,.57.62Z"/><path class="cls-2" d="M27.75,9.1c-.12,0-.14.05-.14.11l0,.45c0,.07,0,.12.07.1s.14-.13.27-.21,1.48-.74,1.67-.84.25-.12.22-.21-.12,0-.25,0Z"/><path class="cls-2" d="M34.9,6.27c-.1-1.18-.12-1.4-.12-1.65s0-.41.25-.46a1,1,0,0,1,.21,0c.07,0,.11,0,.11-.08S35.29,4,35.18,4l-.93.1c-.19,0-.68,0-1.09.07-.11,0-.17,0-.16.08s0,.07.13.06h.31c.26,0,.33.15.37.41s0,.47.15,1.65l.11,1.36c0,.72.1,1.33.09,1.66s0,.4-.19.44a1.37,1.37,0,0,1-.27.06c-.1,0-.12,0-.12.07s.06.07.16.06c.31,0,.79-.09,1-.1s.68,0,1.12-.07c.08,0,.14,0,.14-.09s0-.06-.11-.05h-.38c-.2,0-.28-.18-.31-.4s-.1-.94-.16-1.65L35,6.93h0l.09.11c.18.21,1.85,1.87,2.22,2.15a1.53,1.53,0,0,0,1,.43l.53,0,.67-.06c.15,0,.19,0,.18-.09s0-.06-.1,0a1.69,1.69,0,0,1-.49-.08,3.74,3.74,0,0,1-1.18-.75c-.32-.26-2-1.77-2.27-2.12.24-.3,1.31-1.56,1.53-1.81A2.57,2.57,0,0,1,38,4a1.9,1.9,0,0,1,.45-.12c.07,0,.11,0,.11-.08s-.06-.06-.14-.06l-.9.1-.8,0c-.09,0-.12,0-.12.08s0,.06.11.07.11.06.12.15-.14.34-.34.61S35.2,6.3,35,6.61h0Z"/><path class="cls-2" d="M42.55,9.75c-1.47-.2-2.19-1.59-2-3.2.26-1.92,1.33-2.27,2.22-2.15,1.26.17,2.1,1.38,1.87,3.1C44.37,9.73,43.09,9.82,42.55,9.75Zm-.37.34a3.06,3.06,0,0,0,3.6-2.73,2.81,2.81,0,0,0-2.71-3.3,3,3,0,0,0-3.58,2.59A3,3,0,0,0,42.18,10.09Z"/><path class="cls-2" d="M47.36,11.29a2.26,2.26,0,0,0,1.27.09,1.57,1.57,0,0,0,1.12-1,2.4,2.4,0,0,0-.57-2.29L49,7.82c-.45-.67-.53-1-.42-1.33A.82.82,0,0,1,49.74,6a1,1,0,0,1,.68.64,1,1,0,0,1,0,.55c0,.09,0,.14,0,.16s.1,0,.16-.2c.19-.57.3-.77.33-.87s0-.09-.07-.12A3.66,3.66,0,0,0,50,5.73a1.56,1.56,0,0,0-2.16.81,2.3,2.3,0,0,0,.49,2.12l.25.38a1.51,1.51,0,0,1,.32,1.42,1,1,0,0,1-1.27.51,1.08,1.08,0,0,1-.8-1.11,2,2,0,0,1,.06-.39c0-.06,0-.13,0-.15s-.11,0-.15.16-.23.54-.36.95c-.06.16,0,.21.05.3A2.72,2.72,0,0,0,47.36,11.29Z"/><path class="cls-2" d="M53.31,10s0,0,0-.07l.08-.14c.59-1,.7-1.21.84-1.41s.27-.32.47-.24l.21.09c.08.05.13.06.15,0s0-.09-.1-.14c-.27-.16-.7-.38-.86-.48l-1-.58C53,7,53,6.94,53,7s0,.08.08.13a.9.9,0,0,1,.25.17c.19.17.19.31.07.55s-.22.41-.82,1.43l-.68,1.19c-.36.61-.67,1.14-.87,1.41s-.26.31-.41.25a1.19,1.19,0,0,1-.25-.11c-.08,0-.12,0-.14,0s0,.1.09.15l.86.47c.19.11.6.38,1,.63.08.05.15.06.18,0s0-.07-.08-.11l-.33-.23c-.18-.15-.14-.32,0-.52s.45-.84.8-1.45l.35-.6s0,0,.06,0l2.56,1.49a.06.06,0,0,1,0,.07l-.35.59c-.36.62-.66,1.15-.86,1.41s-.26.31-.41.26A1.14,1.14,0,0,1,53.8,14c-.08,0-.11,0-.14,0s0,.1.11.15c.26.16.69.38.84.47s.6.38,1,.63c.08.05.14.06.17,0s0-.08-.07-.12a2.75,2.75,0,0,1-.33-.23c-.19-.14-.14-.31-.05-.51s.44-.84.8-1.46l.69-1.18c.59-1,.7-1.21.84-1.42s.27-.31.47-.24l.2.09c.08,0,.13.06.16,0s0-.08-.11-.14l-.85-.47c-.19-.11-.6-.38-1-.59-.09,0-.14-.07-.17,0s0,.09.08.13a2.13,2.13,0,0,1,.25.17c.19.18.18.32.06.55s-.22.41-.81,1.44l-.08.14a.05.05,0,0,1-.07,0Z"/><path class="cls-2" d="M58.3,14.7c-.48.53-.89,1-1.13,1.21s-.32.25-.46.17a1.31,1.31,0,0,1-.22-.17c-.07-.06-.11-.06-.14,0s0,.09.07.16l.4.35a3.18,3.18,0,0,1,.34.29c.17.15.35.32.58.55s.55.53,1,.92c.22.2.27.24.44.13a5,5,0,0,0,.65-.58c0-.06.1-.1,0-.14s-.07,0-.14,0c-.25.2-.43.26-.64.19a1.75,1.75,0,0,1-.61-.42c-.59-.53-.6-.7-.26-1.11l.8-.9.41-.45s.06-.06.09,0,.7.64.8.75.2.38.12.52a1.52,1.52,0,0,1-.16.23.07.07,0,0,0,0,.1c.05.05.11,0,.15-.06l.37-.37a4.74,4.74,0,0,1,.42-.38.06.06,0,0,0,0-.09s-.08,0-.16,0a.51.51,0,0,1-.35-.17c-.15-.1-.81-.7-.94-.82s0-.05,0-.09L61.11,13s.06,0,.09,0,.71.66.8.76c.25.29.25.41.2.55a1.12,1.12,0,0,1-.15.24c0,.06-.06.1,0,.13s.08,0,.11,0l.37-.36c.26-.25.35-.29.38-.33s0-.06,0-.09l-.11-.06-.28-.18-1.45-1.3L60.71,12l-.46-.43c-.09-.08-.14-.1-.18-.06s0,.08.06.14a1,1,0,0,1,.2.22c.16.21.12.34,0,.55s-.3.36-1.09,1.24Z"/><path class="cls-2" d="M65,17s.08-.05.12,0a1.4,1.4,0,0,1,.28.3A1.25,1.25,0,0,1,65,19.15a1.35,1.35,0,0,1-1.19.35c-.17,0-.25-.1-.45-.35a2.43,2.43,0,0,1-.3-.51c0-.06,0-.09.07-.14Zm-3,1.2c-.56.44-1,.82-1.32,1s-.35.19-.47.08a.94.94,0,0,1-.2-.2c-.06-.07-.1-.08-.13-.06s0,.09,0,.17c.19.25.51.62.6.73s.41.57.68.92c.07.08.12.11.16.08s0-.07,0-.12a2.22,2.22,0,0,1-.21-.32c-.12-.2,0-.34.15-.5s.72-.61,1.28-1.05l.09-.07s.06,0,.09,0l.4.54a.19.19,0,0,1,0,.15c0,.15-.22.76-.37,1.26a3.76,3.76,0,0,0-.24,1.55,1.67,1.67,0,0,0,.39.75l.46.58c0,.07.1.11.15.07s0-.07,0-.11a1.06,1.06,0,0,1-.11-.19,1.49,1.49,0,0,1-.12-1c.09-.66.31-1.51.57-2.59a2.15,2.15,0,0,0,2-.27,1.33,1.33,0,0,0,.51-1.07,2.5,2.5,0,0,0-.61-1.34c-.15-.19-.53-.64-.69-.85s-.39-.53-.64-.85c-.07-.09-.12-.13-.16-.09s0,.08,0,.14.14.2.17.26c.11.23,0,.36-.15.53s-.35.3-1.28,1Z"/><path class="cls-2" d="M38.07,38.73c.44-.34.89-.69,1.44-1a17.54,17.54,0,0,0,1.77-1.63l10.41-9.87A4.4,4.4,0,0,1,50.58,26c-1.11-.23-1.66-.46-1.66-.7s0-.23.11-.23.33-.12.55-.12A10.49,10.49,0,0,1,51,25h2.55A17.24,17.24,0,0,0,56,24.91a8.1,8.1,0,0,0,1.44-.11.82.82,0,0,1,.55.11c.12,0,.12.12.12.24s-.45.46-1.33.7a8.52,8.52,0,0,0-1.22.34c-1.77,1.16-3.65,2.44-5.65,3.95s-4.09,3.25-6.19,5l-4.1,3.49h1.22a16.41,16.41,0,0,1,2.43.11,3.55,3.55,0,0,1,1.66.35,9.58,9.58,0,0,1,4.21,3.6l.44.47L53.46,48a9.86,9.86,0,0,0,1.88,2,2.37,2.37,0,0,0,1.55.58,1.43,1.43,0,0,0,.88-.23l.45-.23a.4.4,0,0,1,.33.11c0,.12.11.12.11.35s-.44.7-1.33,1.28a4.5,4.5,0,0,1-2.32.69A4.79,4.79,0,0,1,52.9,52a9.74,9.74,0,0,1-2.1-2.2l-4.21-5.46a.38.38,0,0,0-.22-.12c-2.21-3-4.65-4.53-7.19-4.53h-.67a.78.78,0,0,0-.44.12l.11,3.83c0,1.63,0,3,.11,4.18a26.2,26.2,0,0,0,.22,3.14,23.44,23.44,0,0,1,3.21.46c.56.12.89.23.89.47s-.11.23-.11.35H42c-.11,0-.78,0-2-.12A30.61,30.61,0,0,0,36.63,52a31.07,31.07,0,0,0-3.32.24c-1.22.11-1.88.11-2,.11s-.33,0-.44-.11a.25.25,0,0,1-.22-.24c0-.23.33-.35.88-.58s1.66-.23,3.21-.46a26,26,0,0,0,.22-3V33.63c-.11-1.63-.11-3-.11-4.19s-.22-2.09-.33-3c-1.55-.23-2.66-.34-3.21-.46s-.89-.35-.89-.58a.25.25,0,0,1,.23-.23c.11-.12.22-.12.55-.12a11.67,11.67,0,0,0,1.88.12c1.11.11,2.32.23,3.32.23s2.21-.12,3.43-.23,1.77-.24,1.88-.24a4.25,4.25,0,0,1,.56.12c.11.12.11.12.11.35s-.33.35-.89.47a13.32,13.32,0,0,1-3.21.46c-.11,1-.11,2.09-.22,3.25v9.17Z"/><path class="cls-2" d="M14.28,17.7a12.6,12.6,0,0,1,2.22,2.35.48.48,0,0,1-.08.55,1.47,1.47,0,0,1-.38.32,1.69,1.69,0,0,0-.35.29c-.16.18,0,.54.13.67s.43-.11.52-.22a2.56,2.56,0,0,0,.26-2.87,8.78,8.78,0,0,0-1.74-1.88l0,0-.51-.43c-.89-.78-1.06-.92-1.23-1.09s-.26-.32-.15-.51a.83.83,0,0,1,.13-.18c.06-.07.08-.12,0-.15s-.09,0-.16.07c-.2.23-.5.62-.63.76l-.73.82c-.08.09-.1.14-.06.17s.08,0,.14-.05a2.32,2.32,0,0,1,.21-.22c.21-.15.35-.12.56,0s.36.29,1.25,1.06Z"/><path class="cls-2" d="M12,58.26a13.15,13.15,0,0,1-1.43.43A8.39,8.39,0,0,1,9.47,57.5a2.92,2.92,0,0,1,.5-4.34,3.13,3.13,0,0,1,4.56.92,6.3,6.3,0,0,1,.73,1.4c-.35.36-.63.63-1,1L14,56.24a1.52,1.52,0,0,0,.12-2.09c-.77-1.06-2.18-.95-3.27-.15-1.32,1-1.68,2.35-1,3.32.46.63,1.11.75,2.11.58Z"/><path class="cls-2" d="M15.83,62.27c-.28.2-1,.67-1.27.79l-3.09-3.19.24-.23c.58.5.67.53,1.21,0l2.49-2.41c.55-.52.52-.62.1-1.12l.24-.23,2.86,3c-.11.12-.55.6-.89,1l-.28-.22a2,2,0,0,0,.32-.75c0-.2-.07-.43-.45-.82l-.38-.4c-.22-.22-.25-.23-.47,0L15.09,59l.48.5c.53.54.63.57,1.15.22l.24.25-1.3,1.25-.24-.24c.39-.54.36-.63-.16-1.17l-.49-.5-1.14,1.1c-.3.29-.41.48-.36.66a2.21,2.21,0,0,0,.52.69c.36.37.61.55.91.53a2.86,2.86,0,0,0,.94-.26Z"/><path class="cls-2" d="M19.84,67.35l-.24-.19a1.65,1.65,0,0,1-.79-1.66c0-.48.12-1.07.19-1.58a.63.63,0,0,0-.29-.68l-.2-.15-.8,1.06c-.45.59-.42.69.09,1.14l-.2.27-2-1.53.2-.27c.58.37.7.39,1.15-.2L19,60.78c.44-.58.41-.69-.09-1.12l.2-.27,1.91,1.45a2.66,2.66,0,0,1,1,1.15,1.34,1.34,0,0,1-.23,1.32,1.58,1.58,0,0,1-1.81.53c0,.3-.13,1-.16,1.48a5,5,0,0,0,0,1.15,1.39,1.39,0,0,0,.22.67Z"/><path class="cls-2" d="M26.71,66a2,2,0,0,0,.11-.92c-.06-.23-.18-.35-.67-.61l-.45-.23L23.75,68c-.34.65-.3.75.4,1.17l-.16.3-2.45-1.27.15-.29c.72.3.82.28,1.15-.37l2-3.8-.38-.2c-.59-.3-.78-.3-1-.21a2.41,2.41,0,0,0-.67.61l-.32-.16c.32-.53.65-1.06.89-1.48l.21.11a.46.46,0,0,0,.32.43L27,64.42a.51.51,0,0,0,.53,0l.21.11c-.17.35-.47,1-.69,1.54Z"/><path class="cls-2" d="M26.17,70.36l.1-.31c.67.16.77.13,1-.57l1.09-3.29c.24-.71.17-.8-.46-1.06l.1-.31,2.41.8-.1.31c-.67-.17-.76-.14-1,.58l-1.09,3.28c-.24.72-.18.79.45,1.06l-.11.32Z"/><path class="cls-2" d="M34.41,67.86a1.91,1.91,0,0,0-.17-.8c-.11-.23-.32-.33-.86-.43l-.53-.1c-.3,0-.34,0-.39.25l-.35,2,.78.14c.77.14.86.09,1-.46l.34.06L34,70.25l-.34-.06c0-.64,0-.72-.8-.86L32,69.19l-.27,1.46c-.13.76-.06.82.7,1L32.4,72l-2.59-.47.06-.33c.67.07.77,0,.91-.73l.6-3.37c.14-.76.06-.83-.58-1l.06-.33,4,.73c0,.21-.1.84-.14,1.34Z"/><path class="cls-2" d="M35.15,72.36V72c.68,0,.78-.09.81-.83l.15-3.46c0-.75-.06-.81-.74-.89l0-.33,2.53.11,0,.33c-.68,0-.76.07-.79.82L37,71.24c0,.76,0,.81.72.89v.34Z"/><path class="cls-2" d="M44.07,70.49a14.85,14.85,0,0,1-.34,1.45,9,9,0,0,1-1.61.39,2.94,2.94,0,0,1-3.5-2.63,3.13,3.13,0,0,1,3.1-3.47,6.75,6.75,0,0,1,1.58.07c.13.49.22.87.33,1.41l-.33.1a1.53,1.53,0,0,0-1.75-1.16c-1.3.13-1.92,1.41-1.78,2.75C39.94,71,41,72,42.16,71.91c.77-.08,1.2-.57,1.55-1.52Z"/><path class="cls-2" d="M48.72,70.68l-.11-.31c.48-.24.52-.33.29-.65l-.71-.92-1.69.55c0,.3,0,.64,0,1s.08.58.71.45l.11.32-1.91.61-.1-.31c.53-.26.62-.35.67-1.17l.28-5,.37-.23c1,1.28,2.05,2.7,3.06,4,.49.65.63.7,1.21.58L51,70Zm-2.14-4.05h0c0,.74,0,1.48-.07,2.21l1.41-.46Z"/><path class="cls-2" d="M53.61,63.61a2.06,2.06,0,0,0-.7-.62c-.22-.08-.39-.05-.88.21l-.44.24,2,3.77c.35.64.45.66,1.2.33l.15.29-2.43,1.31-.16-.3c.66-.41.7-.51.35-1.16l-2-3.76-.38.2c-.58.31-.68.47-.72.67a2.5,2.5,0,0,0,.13.9l-.31.17c-.26-.56-.51-1.14-.72-1.57l.21-.11a.47.47,0,0,0,.54,0l3.06-1.64a.51.51,0,0,0,.31-.43L53,62c.19.34.59,1,.87,1.45Z"/><path class="cls-2" d="M56.88,66.61l-.2-.27c.52-.45.56-.55.12-1.15l-2-2.8c-.45-.61-.55-.61-1.13-.24l-.2-.27,2.05-1.49.2.27c-.52.44-.56.53-.11,1.14l2,2.8c.45.61.54.6,1.13.25l.19.27Z"/><path class="cls-2" d="M58,58a2.83,2.83,0,0,1,4.12.19,2.9,2.9,0,0,1,0,4.3,2.87,2.87,0,0,1-4.18-.2A3,3,0,0,1,58,58Zm.13.4c-.66.62-.56,1.81.52,2.94s2.49,1.55,3.33.75c.63-.6.6-1.7-.54-2.9s-2.55-1.52-3.31-.8Z"/><path class="cls-2" d="M64.33,51.27c-.27.4-.29.63,0,.89a10.54,10.54,0,0,0,1.13,1l2.85,2.19-.26.34-5.77.09v0L63.89,57a11.53,11.53,0,0,0,1.2.84c.34.21.56.14,1-.33l.26.2L65,59.48l-.26-.2c.28-.42.31-.67,0-.93a11.37,11.37,0,0,0-1.13-1l-1.52-1.17c-.47-.37-.57-.43-.84-.43s-.45.13-.71.41l-.26-.2.93-1.21,5.38-.16v0l-1.45-1.12a13.14,13.14,0,0,0-1.21-.84c-.31-.18-.54-.1-.94.36l-.26-.19,1.34-1.74Z"/></g></g></g></svg>