<svg xmlns="http://www.w3.org/2000/svg" viewBox="0 0 69.66 18.13"><defs><style>.cls-1{fill:#615d24;}</style></defs><title>Logo_tanoili</title><g id="Capa_2" data-name="Capa 2"><g id="Capa_1-2" data-name="Capa 1"><path class="cls-1" d="M3.41,17.75a.68.68,0,0,1-.11-.38c0-.24.07-.39.15-.44a1,1,0,0,1,.46-.07A1.78,1.78,0,0,0,5,16.6,1,1,0,0,0,5.39,16a5.56,5.56,0,0,0,.12-1V3.3H3.82a2.3,2.3,0,0,0-1.29.36,2,2,0,0,0-.68,1,9.74,9.74,0,0,0-.41,1.84c0,.13-.11.24-.29.32a1.38,1.38,0,0,1-.56.12.69.69,0,0,1-.41-.13A.43.43,0,0,1,0,6.43L.07,3c0-.4.22-.59.66-.59h12c.42,0,.63.19.63.59l.1,3.44a.41.41,0,0,1-.19.36.72.72,0,0,1-.42.13,1.26,1.26,0,0,1-.55-.12A.42.42,0,0,1,12,6.48a11.52,11.52,0,0,0-.42-1.86,1.86,1.86,0,0,0-.68-1,2.36,2.36,0,0,0-1.3-.36H7.93V15A4.86,4.86,0,0,0,8,16a1,1,0,0,0,.43.64,1.72,1.72,0,0,0,1,.26h.14a.57.57,0,0,1,.33.08c.08.06.12.2.14.43a.68.68,0,0,1-.11.38.36.36,0,0,1-.33.16c-1-.05-2-.07-2.89-.07s-2,0-3.06.07A.38.38,0,0,1,3.41,17.75Z"/><path class="cls-1" d="M13.58,17.3a2.73,2.73,0,0,1-.91-2.08,2.71,2.71,0,0,1,1-2.31,5.5,5.5,0,0,1,2.45-1,36.44,36.44,0,0,1,3.67-.35V9.62a2.55,2.55,0,0,0-.6-1.83,2.59,2.59,0,0,0-1.92-.62A2,2,0,0,0,16,7.63a1.53,1.53,0,0,0-.57,1.25,1.11,1.11,0,0,0,.19.65A2.33,2.33,0,0,0,16,10a1.08,1.08,0,0,1,.21.19c0,.1-.1.23-.31.38a1.15,1.15,0,0,1-.74.24A1.42,1.42,0,0,1,14,10.23,2,2,0,0,1,13.55,9a2,2,0,0,1,1.14-1.88,5.73,5.73,0,0,1,2.75-.61,6.23,6.23,0,0,1,3.27.76A3,3,0,0,1,22,10v5.7a2,2,0,0,0,.32,1,1,1,0,0,0,.95.47.3.3,0,0,1,.37.39c0,.19-.15.34-.45.43a3.5,3.5,0,0,1-.9.13,2.6,2.6,0,0,1-1.63-.54,2,2,0,0,1-.81-1.44,3.48,3.48,0,0,1-1.58,1.47,5.22,5.22,0,0,1-2.29.51A3.37,3.37,0,0,1,13.58,17.3Zm4.7-.91a3,3,0,0,0,1.12-1.13,3.17,3.17,0,0,0,.42-1.61V12.26a8.83,8.83,0,0,0-3.62.83,2.22,2.22,0,0,0-1,2.06c0,1.1.52,1.66,1.59,1.66A3,3,0,0,0,18.28,16.39Z"/><path class="cls-1" d="M24.28,17.76a.55.55,0,0,1-.11-.34c0-.21.07-.34.15-.38a1.11,1.11,0,0,1,.44-.06,1.45,1.45,0,0,0,.91-.22.77.77,0,0,0,.3-.51,7.11,7.11,0,0,0,0-.93V9.71a7.11,7.11,0,0,0,0-.93.77.77,0,0,0-.3-.51,1.45,1.45,0,0,0-.91-.22A.85.85,0,0,1,24.32,8c-.1,0-.15-.19-.15-.4a.5.5,0,0,1,.1-.28.42.42,0,0,1,.29-.16,12.69,12.69,0,0,0,2.62-.64,4.32,4.32,0,0,1,.57-.14h.07c.26,0,.39.15.39.46V8.34h.07c.48-.44.86-.78,1.15-1a4.07,4.07,0,0,1,1.14-.61,4.61,4.61,0,0,1,1.65-.26,3.54,3.54,0,0,1,2.65,1,3.63,3.63,0,0,1,1,2.64v5.22a6.72,6.72,0,0,0,0,.93.89.89,0,0,0,.32.51,1.43,1.43,0,0,0,.91.22h.14a.51.51,0,0,1,.3.07.58.58,0,0,1,.12.37.55.55,0,0,1-.11.34.33.33,0,0,1-.28.15c-.95-.05-1.8-.07-2.57-.07s-1.58,0-2.55.07a.35.35,0,0,1-.28-.15.55.55,0,0,1-.11-.34c0-.21.06-.34.14-.38a1,1,0,0,1,.43-.06,1.42,1.42,0,0,0,.9-.22.84.84,0,0,0,.32-.51,6.72,6.72,0,0,0,0-.93V10.13a2.15,2.15,0,0,0-.71-1.73,2.47,2.47,0,0,0-1.64-.59,3.3,3.3,0,0,0-1.93.55,3.19,3.19,0,0,0-1.11,1.13v5.83a6.72,6.72,0,0,0,.05.93.89.89,0,0,0,.32.51,1.43,1.43,0,0,0,.91.22h.14a.51.51,0,0,1,.3.07.58.58,0,0,1,.12.37.55.55,0,0,1-.1.34.32.32,0,0,1-.29.15c-.95-.05-1.8-.07-2.57-.07s-1.58,0-2.55.07A.35.35,0,0,1,24.28,17.76Z"/><path class="cls-1" d="M41.06,17.33a5.5,5.5,0,0,1-2-2.1,5.68,5.68,0,0,1-.72-2.78,5.87,5.87,0,0,1,.85-3.19,5.94,5.94,0,0,1,2.18-2.08A5.62,5.62,0,0,1,47,7.25a5.76,5.76,0,0,1,2,2.11,5.68,5.68,0,0,1,.72,2.78,5.8,5.8,0,0,1-.87,3.19,6,6,0,0,1-2.19,2.08,5.47,5.47,0,0,1-2.64.72A5.54,5.54,0,0,1,41.06,17.33Zm5.39-1.52a7.72,7.72,0,0,0,.77-3.67,6.64,6.64,0,0,0-.79-3.44A2.63,2.63,0,0,0,44,7.36a2.58,2.58,0,0,0-2.45,1.4,7.54,7.54,0,0,0-.76,3.64,6.91,6.91,0,0,0,.78,3.47A2.62,2.62,0,0,0,44,17.22,2.57,2.57,0,0,0,46.45,15.81Z"/><path class="cls-1" d="M50.85,17.76a.55.55,0,0,1-.11-.34c0-.21.07-.34.15-.38a1.11,1.11,0,0,1,.44-.06,1.43,1.43,0,0,0,.91-.22.77.77,0,0,0,.3-.51,7.11,7.11,0,0,0,0-.93V9.71a7.11,7.11,0,0,0,0-.93.77.77,0,0,0-.3-.51,1.43,1.43,0,0,0-.91-.22A.88.88,0,0,1,50.89,8c-.1,0-.15-.19-.15-.4a.5.5,0,0,1,.1-.28.44.44,0,0,1,.3-.16,12.77,12.77,0,0,0,2.64-.64,2.26,2.26,0,0,1,.56-.14h.07c.27,0,.4.15.4.46v8.52a5.43,5.43,0,0,0,0,.93.82.82,0,0,0,.31.51,1.43,1.43,0,0,0,.91.22h.15a.48.48,0,0,1,.29.07.58.58,0,0,1,.12.37.55.55,0,0,1-.1.34.32.32,0,0,1-.29.15c-1-.05-1.8-.07-2.57-.07s-1.58,0-2.54.07A.35.35,0,0,1,50.85,17.76ZM52.41,3.19a1.38,1.38,0,0,1-.47-1.06,1.24,1.24,0,0,1,.57-1A2,2,0,0,1,53.78.69a1.3,1.3,0,0,1,1,.42,1.57,1.57,0,0,1,.39,1.09,1.31,1.31,0,0,1-.46,1,1.7,1.7,0,0,1-1.15.41A1.61,1.61,0,0,1,52.41,3.19Z"/><path class="cls-1" d="M57.24,17.76a.55.55,0,0,1-.11-.34c0-.21.06-.34.13-.38a1.05,1.05,0,0,1,.43-.06,1.43,1.43,0,0,0,.91-.22.89.89,0,0,0,.32-.51,6.72,6.72,0,0,0,0-.93V3.38a9.19,9.19,0,0,0,0-.93.82.82,0,0,0-.31-.52,1.48,1.48,0,0,0-.9-.22,1,1,0,0,1-.44-.08c-.1-.06-.15-.19-.15-.41a.46.46,0,0,1,.1-.28.4.4,0,0,1,.29-.16A12.49,12.49,0,0,0,60.16.15,3,3,0,0,1,60.73,0h.07c.26,0,.39.16.39.46V15.32a6.72,6.72,0,0,0,.05.93.84.84,0,0,0,.32.51,1.42,1.42,0,0,0,.9.22h.15a.46.46,0,0,1,.29.07c.07.05.11.17.13.37a.62.62,0,0,1-.1.34.33.33,0,0,1-.29.15c-1-.05-1.81-.07-2.57-.07s-1.59,0-2.55.07A.33.33,0,0,1,57.24,17.76Z"/><path class="cls-1" d="M63.87,17.76a.55.55,0,0,1-.11-.34c0-.21.07-.34.15-.38a1.11,1.11,0,0,1,.44-.06,1.42,1.42,0,0,0,.9-.22.82.82,0,0,0,.31-.51c0-.2,0-.51,0-.93V9.71c0-.42,0-.73,0-.93a.82.82,0,0,0-.31-.51,1.42,1.42,0,0,0-.9-.22A.85.85,0,0,1,63.91,8c-.1,0-.15-.19-.15-.4a.44.44,0,0,1,.1-.28.4.4,0,0,1,.29-.16,12.46,12.46,0,0,0,2.64-.64,2.32,2.32,0,0,1,.57-.14h.07c.26,0,.39.15.39.46v8.52a6.72,6.72,0,0,0,.05.93.84.84,0,0,0,.32.51,1.42,1.42,0,0,0,.9.22h.15a.46.46,0,0,1,.29.07c.07.05.11.17.13.37a.62.62,0,0,1-.1.34.33.33,0,0,1-.29.15c-1-.05-1.81-.07-2.57-.07s-1.59,0-2.55.07A.33.33,0,0,1,63.87,17.76ZM65.42,3.19A1.37,1.37,0,0,1,65,2.13a1.26,1.26,0,0,1,.56-1A2,2,0,0,1,66.79.69a1.32,1.32,0,0,1,1,.42,1.57,1.57,0,0,1,.39,1.09,1.32,1.32,0,0,1-.47,1,1.69,1.69,0,0,1-1.15.41A1.63,1.63,0,0,1,65.42,3.19Z"/></g></g></svg>