<svg xmlns="http://www.w3.org/2000/svg" viewBox="0 0 37.05 37.05"><defs><style>.cls-1{fill:#75702c;opacity:0.5;}</style></defs><title>lyonn-logo</title><g id="Capa_2" data-name="Capa 2"><g id="Capa_1-2" data-name="Capa 1"><path class="cls-1" d="M18.53,0A18.53,18.53,0,1,0,37.05,18.53,18.52,18.52,0,0,0,18.53,0ZM13.37,22.34c.15-.36.09-1.13-.55-1.13-1.54,0-2.93-1.76-2.93-3.5a1.51,1.51,0,0,1,.08-.48,1.15,1.15,0,0,1,1.83-.74,3,3,0,0,0,2.84.46c.69-.27.83,2.21.91,3.53.1,1.7,2.44,1.1,2.44,2.9a2.14,2.14,0,0,1-2.42,2.26A2.59,2.59,0,0,1,13.37,22.34Zm8.45,5.14a1.26,1.26,0,0,1-1.26,1.27h-3.9a1.26,1.26,0,0,1-1.26-1.27h0a.81.81,0,0,1,.64-.79l2.57-.83,2.57.83a.8.8,0,0,1,.64.79Zm2.58-6.27c-.64,0-.7.77-.55,1.13a2.59,2.59,0,0,1-2.2,3.3,2.14,2.14,0,0,1-2.42-2.26c0-1.8,2.34-1.2,2.45-2.9.07-1.32.21-3.8.9-3.53a3,3,0,0,0,2.84-.46,1.15,1.15,0,0,1,1.83.74,1.51,1.51,0,0,1,.08.48C27.33,19.45,25.94,21.21,24.4,21.21Zm1.47-6.1c-4.47,0-5.11.48-5.15,5a.62.62,0,0,1-.62.61h-3a.61.61,0,0,1-.61-.61c-.05-4.5-.69-5-5.16-5C8.46,15.11,9,11,12.52,10.35a2.93,2.93,0,0,1,1.63.18l3.26,1.39a3,3,0,0,0,2.4,0l3.28-1.39a2.62,2.62,0,0,1,1.41-.21C28.24,10.85,28.81,15.11,25.87,15.11Z"/></g></g></svg>