<svg xmlns="http://www.w3.org/2000/svg" viewBox="0 0 79.75 76.77"><defs><style>.cls-1{opacity:0.8;}.cls-2{fill:#505326;}</style></defs><title>tanoili_brand</title><g id="Capa_2" data-name="Capa 2"><g id="Capa_1-2" data-name="Capa 1"><g class="cls-1"><path class="cls-2" d="M16.32,69.8l1.4-1.45.32.19a2.68,2.68,0,0,0-.15.39,4.05,4.05,0,0,0-.12.5,1.53,1.53,0,0,0,0,.47.45.45,0,0,0,.14.31l.3.22a3.49,3.49,0,0,0,.33.21l.2.13,3.81-4,.11-.12.06-.09a.48.48,0,0,0,.07-.2.37.37,0,0,0-.07-.21,1.93,1.93,0,0,0-.25-.25,1.72,1.72,0,0,0-.28-.24l.25-.27,3.29,2-.26.26-.36-.17a2.36,2.36,0,0,0-.35-.13.7.7,0,0,0-.36,0,.73.73,0,0,0-.27.2L20.2,71.65l.16.1.33.18c.11,0,.23.12.38.18a.76.76,0,0,0,.44,0l.56-.13.6-.22a4.59,4.59,0,0,0,.44-.21l.32.19L22,73.22Z"/><path class="cls-2" d="M17,61.85l0,0,.41,0a2.23,2.23,0,0,1,.45.09,2.26,2.26,0,0,1,.43.17,1.81,1.81,0,0,1,.41.29,1.58,1.58,0,0,1,.57,1.24A2,2,0,0,1,18.71,65a3.33,3.33,0,0,1-1,.74,3.55,3.55,0,0,1-1.17.3,2.81,2.81,0,0,1-1.15-.15,2.74,2.74,0,0,1-1.48-1.2,1.56,1.56,0,0,1-.2-.57l-1.28-.8v-.1L15,61.52a2.85,2.85,0,0,0,.32-.21,2.71,2.71,0,0,0,.27-.22.5.5,0,0,0,.17-.36.69.69,0,0,0-.25-.38,1,1,0,0,0-.27-.18L15,60l.37-.24.76.32a2.33,2.33,0,0,1,.55.39,1.41,1.41,0,0,1,.44.69A1,1,0,0,1,17,61.85Z"/><path class="cls-2" d="M10.6,53.78l.42-.15.67.48a2,2,0,0,1,.45.5,1.31,1.31,0,0,1,.26.9.92.92,0,0,1-.42.67l-.25.15a4.5,4.5,0,0,1-.42.19L10,56.94l-.36.14-.24.13a.54.54,0,0,0-.24.29.48.48,0,0,0,.1.39,1.25,1.25,0,0,0,.37.32,2.47,2.47,0,0,0,.77.3l3.36-1.27.89,1.33-2.86,1.08-.34.13a1.66,1.66,0,0,0-.33.17c-.15.1-.24.2-.25.3a.62.62,0,0,0,.14.41,1.19,1.19,0,0,0,.22.23,2.5,2.5,0,0,0,.23.18l-.42.16c-.24-.16-.45-.32-.65-.48a2.21,2.21,0,0,1-.47-.5,1.33,1.33,0,0,1-.28-.83,1.12,1.12,0,0,1,.31-.67l0,0a4.37,4.37,0,0,1-1.1-.45,2.39,2.39,0,0,1-.79-.76,1.17,1.17,0,0,1-.23-.86A1,1,0,0,1,8.28,56c.07,0,.15-.1.27-.16a2.09,2.09,0,0,1,.4-.17l1.34-.45.37-.15a1.18,1.18,0,0,0,.3-.15.5.5,0,0,0,.25-.31.74.74,0,0,0-.16-.42,1,1,0,0,0-.23-.24A2,2,0,0,0,10.6,53.78Z"/><path class="cls-2" d="M6,48.12a3,3,0,0,1,1.17-.21,2.81,2.81,0,0,1,1.14.27,3.24,3.24,0,0,1,1,.76,3.7,3.7,0,0,1,.72,1.21,2.44,2.44,0,0,1,.09,1.75A1.88,1.88,0,0,1,9,53a2.9,2.9,0,0,1-3.31-.82A3.82,3.82,0,0,1,5,51a2.6,2.6,0,0,1-.12-1.8A1.82,1.82,0,0,1,6,48.12Zm.1,1.78a1.51,1.51,0,0,0-.71.48.63.63,0,0,0-.05.61.93.93,0,0,0,.52.53,2,2,0,0,0,1,.16,5.1,5.1,0,0,0,1.06-.15,7.91,7.91,0,0,0,1-.29,1.44,1.44,0,0,0,.72-.49.63.63,0,0,0,0-.61.88.88,0,0,0-.55-.53,2.39,2.39,0,0,0-.91-.14,5,5,0,0,0-1,.13A7,7,0,0,0,6.11,49.9Z"/><path class="cls-2" d="M1.33,43.81A.81.81,0,0,1,2,44a1,1,0,0,1,.26,1.32A.83.83,0,0,1,1,45.52a.94.94,0,0,1-.39-.61.91.91,0,0,1,.13-.7A.84.84,0,0,1,1.33,43.81Zm5.83-1,.44,0c.19.29.33.52.43.7a1.8,1.8,0,0,1,.23.63,1.37,1.37,0,0,1-.1.94.9.9,0,0,1-.65.45l-.34.05H6.76L5.3,45.44l-.4,0a1.69,1.69,0,0,0-.33,0,.57.57,0,0,0-.35.18.62.62,0,0,0,0,.44.89.89,0,0,0,.11.31c.05.1.1.18.14.25l-.45,0c-.15-.23-.29-.46-.41-.68a2.25,2.25,0,0,1-.24-.65,1.26,1.26,0,0,1,.1-.92.94.94,0,0,1,.65-.45l.32,0a1.54,1.54,0,0,1,.43,0L6.31,44l.4,0L7,44c.19,0,.3-.1.35-.2a.68.68,0,0,0,0-.44A1.28,1.28,0,0,0,7.29,43,2.2,2.2,0,0,0,7.16,42.77Z"/><path class="cls-2" d="M.07,38.54l5.74.94.38.06.34,0a.49.49,0,0,0,.38-.17A.86.86,0,0,0,7,38.93a2.12,2.12,0,0,0-.07-.32,1.63,1.63,0,0,0-.11-.29l.44.08c.15.31.26.57.34.77a2.21,2.21,0,0,1,.14.68,1.35,1.35,0,0,1-.22.93.91.91,0,0,1-.7.38,1.63,1.63,0,0,1-.38,0l-.37,0-4.61-.76-.15,0H1.17a.55.55,0,0,0-.28.07.45.45,0,0,0-.15.18.89.89,0,0,0-.07.28,3.32,3.32,0,0,0,0,.35l-.36-.07L0,38.6Z"/><path class="cls-2" d="M1.14,33.4a.82.82,0,0,1,.6.32,1,1,0,0,1,.22.69.94.94,0,0,1-.31.65A.79.79,0,0,1,1,35.3.86.86,0,0,1,.4,35a1,1,0,0,1-.22-.69,1,1,0,0,1,.31-.66A.83.83,0,0,1,1.14,33.4ZM7,33.91l.43.13c.1.33.18.59.23.79a2.25,2.25,0,0,1,.06.66,1.39,1.39,0,0,1-.35.89.92.92,0,0,1-.74.27l-.34,0-.4-.1L4.54,36l-.38-.12-.33-.06a.51.51,0,0,0-.38.09.64.64,0,0,0-.14.42,1.82,1.82,0,0,0,0,.32l.07.28L3,36.8c-.09-.27-.17-.53-.23-.77a2.32,2.32,0,0,1-.06-.68A1.24,1.24,0,0,1,3,34.48a.9.9,0,0,1,.74-.27l.32,0a1.61,1.61,0,0,1,.42.11l1.38.49.38.12.33.06a.49.49,0,0,0,.39-.1.78.78,0,0,0,.13-.43,1,1,0,0,0,0-.33A1.24,1.24,0,0,0,7,33.91Z"/><path class="cls-2" d="M3.26,24.35a.81.81,0,0,1,.51.45,1,1,0,0,1-.4,1.28.78.78,0,0,1-.68.08.8.8,0,0,1-.52-.45,1,1,0,0,1,.4-1.28A.84.84,0,0,1,3.26,24.35Zm5.61,1.86.38.24c0,.34,0,.61.05.81a2.17,2.17,0,0,1-.11.67,1.29,1.29,0,0,1-.54.77.89.89,0,0,1-.78.09,2.08,2.08,0,0,1-.32-.12,3.42,3.42,0,0,1-.36-.2L6,27.67l-.34-.2a1.14,1.14,0,0,0-.31-.13.48.48,0,0,0-.39,0,.6.6,0,0,0-.23.37,1.13,1.13,0,0,0-.05.32,2.72,2.72,0,0,0,0,.3l-.39-.24c0-.28,0-.54,0-.8a2.11,2.11,0,0,1,.09-.68,1.31,1.31,0,0,1,.53-.76.91.91,0,0,1,.79-.08l.3.11a2,2,0,0,1,.38.21l1.23.8.34.2a1.57,1.57,0,0,0,.3.13.48.48,0,0,0,.41,0,.7.7,0,0,0,.22-.39,1,1,0,0,0,0-.33A1.28,1.28,0,0,0,8.87,26.21Z"/><path class="cls-2" d="M10.89,23.7a4.12,4.12,0,0,1-.54.87,2.23,2.23,0,0,1-.5.45,1,1,0,0,1-.45.14.67.67,0,0,1-.33-.07.65.65,0,0,1-.35-.41.78.78,0,0,1,.06-.59.79.79,0,0,1,.35-.37,1.31,1.31,0,0,1,.49-.12,1.71,1.71,0,0,1,.5,0l.38.06a1.22,1.22,0,0,0,.16-.85.81.81,0,0,0-.45-.53.45.45,0,0,0-.31-.06.75.75,0,0,0-.29.11,2.4,2.4,0,0,0-.31.24L9,22.91a2.3,2.3,0,0,1-.9.59,1.2,1.2,0,0,1-.94-.09A1.3,1.3,0,0,1,6.67,23a1.63,1.63,0,0,1-.25-.63,2.4,2.4,0,0,1,0-.84,3.69,3.69,0,0,1,.36-1A4.59,4.59,0,0,1,7.14,20a2.24,2.24,0,0,1,.4-.46A1,1,0,0,1,8,19.27a.71.71,0,0,1,.47.07.61.61,0,0,1,.32.38.7.7,0,0,1-.06.56.68.68,0,0,1-.34.35,1.16,1.16,0,0,1-.44.12,2.33,2.33,0,0,1-.46,0l-.37-.06a1.06,1.06,0,0,0-.06.66.7.7,0,0,0,.38.5.6.6,0,0,0,.32.08A.45.45,0,0,0,8,21.84a2.06,2.06,0,0,0,.29-.21l.36-.35a2.66,2.66,0,0,1,.94-.64,1.12,1.12,0,0,1,.92.08,1.38,1.38,0,0,1,.52.44,1.4,1.4,0,0,1,.28.65,2.46,2.46,0,0,1,0,.85A4.42,4.42,0,0,1,10.89,23.7Z"/><path class="cls-2" d="M16.42,14.47l0,0q0,.23,0,.42a3,3,0,0,1-.1.44,2.23,2.23,0,0,1-.16.43,1.61,1.61,0,0,1-.29.41,1.59,1.59,0,0,1-1.24.58,2,2,0,0,1-1.28-.62,3.48,3.48,0,0,1-1-2.2,3.2,3.2,0,0,1,.15-1.15,2.62,2.62,0,0,1,.6-1,2.53,2.53,0,0,1,.6-.48,1.56,1.56,0,0,1,.57-.2L15,9.84h.1l1.67,2.57.21.31a2,2,0,0,0,.22.27.49.49,0,0,0,.36.17.66.66,0,0,0,.38-.24,1.91,1.91,0,0,0,.19-.28,2.45,2.45,0,0,0,.12-.25l.24.38c-.13.31-.23.57-.32.75a2,2,0,0,1-.38.55,1.39,1.39,0,0,1-.7.44A1,1,0,0,1,16.42,14.47Zm-1.83-2.53a.86.86,0,0,0-.2-.15.6.6,0,0,0-.25-.1.57.57,0,0,0-.29,0,.72.72,0,0,0-.29.2.88.88,0,0,0-.24.59,2.47,2.47,0,0,0,.11.77,3.41,3.41,0,0,0,.42.83,4.54,4.54,0,0,0,.66.79,2.86,2.86,0,0,0,.35.28,1.21,1.21,0,0,0,.33.15.62.62,0,0,0,.33,0,.81.81,0,0,0,.31-.21.77.77,0,0,0,.21-.41,2.19,2.19,0,0,0,0-.51Z"/><path class="cls-2" d="M26,4.77A3.59,3.59,0,0,1,26.38,6a2.83,2.83,0,0,1-.08,1.2,3.13,3.13,0,0,1-.59,1.11,3.68,3.68,0,0,1-1.07.86c-.11,0-.27.13-.48.21a2.82,2.82,0,0,1-.62.18,2.62,2.62,0,0,1-.74,0,2.24,2.24,0,0,1-.75-.26l-1.4-5.17a1.31,1.31,0,0,0,0-.15.38.38,0,0,0-.05-.11.48.48,0,0,0-.18-.21.45.45,0,0,0-.23-.07,1,1,0,0,0-.27,0l-.34.12-.09-.35,2.19-1.32.08,0,.85,3.11,0,0a2,2,0,0,1,.12-.27,2.93,2.93,0,0,1,.21-.35,2.17,2.17,0,0,1,.3-.35,2,2,0,0,1,.4-.3A1.58,1.58,0,0,1,25,3.78,2,2,0,0,1,26,4.77Zm-1.53.81a4,4,0,0,0-.24-.37A.91.91,0,0,0,23.94,5a.62.62,0,0,0-.32-.09.76.76,0,0,0-.36.1.88.88,0,0,0-.35.34,2.22,2.22,0,0,0-.2.48l.74,2.66a1,1,0,0,0,.15.2.71.71,0,0,0,.23.16.79.79,0,0,0,.29.08.63.63,0,0,0,.32-.09,1,1,0,0,0,.43-.51A2,2,0,0,0,25,7.5a3.83,3.83,0,0,0-.14-1A5.12,5.12,0,0,0,24.45,5.58Z"/><path class="cls-2" d="M32.38,1.82a1.52,1.52,0,0,1,.06.42,1,1,0,0,1-.08.39,1.11,1.11,0,0,1-.21.32,1,1,0,0,1-.4.2.82.82,0,0,1-.6,0,.51.51,0,0,1-.31-.32,1,1,0,0,1-.05-.36c0-.11,0-.27.05-.49a2.12,2.12,0,0,0-.43.48,2.65,2.65,0,0,0-.3.55l.25,3.51L28.83,7l-.22-3a2.87,2.87,0,0,0,0-.36,1.68,1.68,0,0,0-.06-.36.47.47,0,0,0-.21-.33.59.59,0,0,0-.43,0,1.11,1.11,0,0,0-.29.14,1.91,1.91,0,0,0-.24.17l0-.45c.22-.18.43-.34.64-.48a2.21,2.21,0,0,1,.62-.3,1.34,1.34,0,0,1,.88,0,1.1,1.1,0,0,1,.54.49h0a4.11,4.11,0,0,1,.58-.91,1.31,1.31,0,0,1,.63-.4.82.82,0,0,1,.69.06A1.08,1.08,0,0,1,32.38,1.82Z"/><path class="cls-2" d="M37.72,4.44h0l-.29.3A2.81,2.81,0,0,1,37,5a3.23,3.23,0,0,1-.41.22,1.53,1.53,0,0,1-.49.11A1.59,1.59,0,0,1,34.82,5a2,2,0,0,1-.55-1.32,3.3,3.3,0,0,1,.12-1.26,3.57,3.57,0,0,1,.53-1.07A3,3,0,0,1,35.8.54,2.54,2.54,0,0,1,36.9.19a2.4,2.4,0,0,1,.77,0,1.49,1.49,0,0,1,.56.22L39.68,0l.07.07-.43,3c0,.1,0,.23,0,.38s0,.27,0,.35a.47.47,0,0,0,.16.36.65.65,0,0,0,.45.07,1.32,1.32,0,0,0,.32-.09,1.43,1.43,0,0,0,.26-.11l-.07.45-.73.35A2.13,2.13,0,0,1,39,5a1.36,1.36,0,0,1-.81-.13A1,1,0,0,1,37.72,4.44ZM38,1.33a1.38,1.38,0,0,0,0-.25.7.7,0,0,0-.13-.24.61.61,0,0,0-.24-.17,1,1,0,0,0-.35,0,.88.88,0,0,0-.57.29,2.15,2.15,0,0,0-.42.65,3.69,3.69,0,0,0-.24.9,5.07,5.07,0,0,0,0,1,2.87,2.87,0,0,0,.08.44,1.26,1.26,0,0,0,.15.33.67.67,0,0,0,.26.21.73.73,0,0,0,.37,0,.77.77,0,0,0,.43-.17A2,2,0,0,0,37.64,4Z"/><path class="cls-2" d="M48,4.89l-.16.42-.8.19a2.12,2.12,0,0,1-.67,0,1.32,1.32,0,0,1-.86-.4.94.94,0,0,1-.22-.75c0-.07,0-.17.05-.29a2.17,2.17,0,0,1,.14-.44L46,2.4c0-.14.1-.26.13-.36a2.32,2.32,0,0,0,.06-.27.52.52,0,0,0-.07-.38.47.47,0,0,0-.35-.17,1.14,1.14,0,0,0-.48.06,2.42,2.42,0,0,0-.74.39L43.33,5l-1.58-.2L42.81,2l.12-.34A1.64,1.64,0,0,0,43,1.27.45.45,0,0,0,43,.88a.65.65,0,0,0-.4-.16,1.16,1.16,0,0,0-.32,0L42,.78l.16-.42c.28-.07.54-.13.78-.17a2.34,2.34,0,0,1,.69,0A1.33,1.33,0,0,1,44.4.5a1,1,0,0,1,.29.67h0A4.37,4.37,0,0,1,45.78.63a2.72,2.72,0,0,1,1.1-.1,1.18,1.18,0,0,1,.8.4,1,1,0,0,1,.21.75c0,.08,0,.18-.06.31a2.07,2.07,0,0,1-.14.42l-.53,1.3a2.61,2.61,0,0,0-.14.37,2.91,2.91,0,0,0-.08.32.52.52,0,0,0,.07.4.72.72,0,0,0,.42.16,1.24,1.24,0,0,0,.33,0Z"/><path class="cls-2" d="M52.43,6.53h0l-.4.13a2.23,2.23,0,0,1-.45.09,2.64,2.64,0,0,1-.48,0,2,2,0,0,1-.49-.11,1.59,1.59,0,0,1-1-.91,2,2,0,0,1,.06-1.42,3.46,3.46,0,0,1,.65-1.08,3.53,3.53,0,0,1,.94-.75,2.9,2.9,0,0,1,1.11-.32,2.49,2.49,0,0,1,1.15.15,2.77,2.77,0,0,1,.67.34,1.6,1.6,0,0,1,.38.41l.88-1.35.08-.13.05-.12a.45.45,0,0,0,0-.28A.61.61,0,0,0,55.39,1a1.28,1.28,0,0,0-.26-.2L54.78.57,55,.26l2.59.82,0,.09L54.44,6l-.2.32a1.53,1.53,0,0,0-.16.31.47.47,0,0,0,0,.4.74.74,0,0,0,.37.25,1.39,1.39,0,0,0,.33.06H55l-.25.37H54a2,2,0,0,1-.65-.13,1.48,1.48,0,0,1-.68-.46A1,1,0,0,1,52.43,6.53ZM54,3.81a1.44,1.44,0,0,0,0-.24.63.63,0,0,0,0-.27A.61.61,0,0,0,53.9,3a.7.7,0,0,0-.32-.19.88.88,0,0,0-.62,0,2.43,2.43,0,0,0-.67.43A3.64,3.64,0,0,0,51.7,4a4.86,4.86,0,0,0-.47.94,2.62,2.62,0,0,0-.11.42.93.93,0,0,0,0,.37.69.69,0,0,0,.14.3.77.77,0,0,0,.32.2.92.92,0,0,0,.47,0,1.66,1.66,0,0,0,.49-.16Z"/><path class="cls-2" d="M64.89,11.51a3.19,3.19,0,0,1-.91.77,3,3,0,0,1-1.12.35,3.27,3.27,0,0,1-1.27-.14,3.73,3.73,0,0,1-1.23-.67,2.5,2.5,0,0,1-1-1.47,1.88,1.88,0,0,1,.44-1.57A2.77,2.77,0,0,1,60.76,8a2.8,2.8,0,0,1,1.12-.34,2.91,2.91,0,0,1,1.22.15,3.57,3.57,0,0,1,1.19.65,2.57,2.57,0,0,1,1,1.49A1.89,1.89,0,0,1,64.89,11.51Zm-1-1.49a1.49,1.49,0,0,0,.37-.77A.63.63,0,0,0,64,8.7a1,1,0,0,0-.72-.2,2.19,2.19,0,0,0-.94.38,5.07,5.07,0,0,0-.84.66,8.46,8.46,0,0,0-.67.74,1.44,1.44,0,0,0-.38.79.63.63,0,0,0,.28.55.86.86,0,0,0,.74.17,2.17,2.17,0,0,0,.85-.34,4.45,4.45,0,0,0,.84-.64A6.75,6.75,0,0,0,63.89,10Z"/><path class="cls-2" d="M68.92,14l-1.83,1.07c-.51.3-1.06.6-1.65.91a3.12,3.12,0,0,1-1,.31,3.33,3.33,0,0,1-2-.25,2.48,2.48,0,0,1-.78-.58,2.44,2.44,0,0,1-.41-.59,1.16,1.16,0,0,1-.12-.47.65.65,0,0,1,.09-.35,1.37,1.37,0,0,1,.2-.26.76.76,0,0,1,.51-.18.71.71,0,0,1,.52.26.74.74,0,0,1,.2.43,1.86,1.86,0,0,1,0,.47,2.69,2.69,0,0,1-.16.45l-.16.37a2.35,2.35,0,0,0,.76-.16,7,7,0,0,0,1.11-.55l3.63-2.08-.62-.7.45-.25.62.7.33-.19a3,3,0,0,1,.91-.32,3.49,3.49,0,0,1,1,0,3.17,3.17,0,0,1,1,.26,2.5,2.5,0,0,1,.8.58,2.61,2.61,0,0,1,.41.58,1.13,1.13,0,0,1,.12.47.71.71,0,0,1-.08.34,1.09,1.09,0,0,1-.21.26.68.68,0,0,1-.21.12.77.77,0,0,1-.26.07.88.88,0,0,1-.29,0,.55.55,0,0,1-.28-.21.74.74,0,0,1-.2-.43,1.38,1.38,0,0,1,0-.45,1.93,1.93,0,0,1,.16-.46l.16-.36a2.15,2.15,0,0,0-.73.17,10.46,10.46,0,0,0-1.12.56l-.49.28.81.91-.45.24Z"/><path class="cls-2" d="M70.26,23.85l.35-.08a3.55,3.55,0,0,0,.44.66c.13.14.22.2.29.17l.13-.07.12-.08,1.13-.79-1-2.15-.55-.07-.58-.06a2,2,0,0,0-.5,0l-.15,0c-.09,0-.13.15-.13.31a2.93,2.93,0,0,0,.17.69l-.35.07-1.21-2.62.35-.07.19.3a1.43,1.43,0,0,0,.26.28,1.81,1.81,0,0,0,.41.23,2.37,2.37,0,0,0,.51.13l3.3.47,3.49.48.41.87-3,2.07c-.79.54-1.45,1-2,1.38a1,1,0,0,0-.2.2.82.82,0,0,0-.11.3.85.85,0,0,0,0,.31,2.17,2.17,0,0,0,.08.3l-.35.07Zm2.83-.46L75.19,22l-2.93-.38Z"/><path class="cls-2" d="M76.88,33.08a4.07,4.07,0,0,1-1.4.06,4,4,0,0,1-1.35-.38A3.11,3.11,0,0,1,73,31.88a2.71,2.71,0,0,1-.55-1.16,2.15,2.15,0,0,1,.11-1.42,1.39,1.39,0,0,1,1-.73,1.37,1.37,0,0,1,.5,0l.66.06.62,0a1.76,1.76,0,0,0,.57,0,.49.49,0,0,0,.35-.19.65.65,0,0,0,0-.43,1.21,1.21,0,0,0-.11-.3L76,27.45h.45c.16.24.3.46.42.68a2.23,2.23,0,0,1,.25.64,1.23,1.23,0,0,1-.1.93,1,1,0,0,1-.64.45,2.85,2.85,0,0,1-.67.05,6.5,6.5,0,0,1-.66,0l-.6-.05a2.77,2.77,0,0,0-.53,0,1,1,0,0,0-.6.33.76.76,0,0,0-.11.68,1.57,1.57,0,0,0,.71,1,1.83,1.83,0,0,0,1.4.2l.17,0,.21-.08a.77.77,0,0,0,.19-.25c.06-.12.12-.22.17-.31a1.33,1.33,0,0,1,.28-.31,1,1,0,0,1,.46-.2.77.77,0,0,1,.43,0,.75.75,0,0,1,.3.18,1.26,1.26,0,0,1,.19.25,1.24,1.24,0,0,1,.11.28.87.87,0,0,1-.17.76A1.38,1.38,0,0,1,76.88,33.08Z"/><path class="cls-2" d="M76.27,40.71a2.89,2.89,0,0,1-1.16-.23,2.7,2.7,0,0,1-1-.66,3.25,3.25,0,0,1-.68-1.08,3.77,3.77,0,0,1-.24-1.38,2.49,2.49,0,0,1,.55-1.67,1.9,1.9,0,0,1,1.5-.63,3,3,0,0,1,1.2.24,2.82,2.82,0,0,1,1,.67A3,3,0,0,1,78.07,37a3.89,3.89,0,0,1,.23,1.34,2.55,2.55,0,0,1-.54,1.72A1.84,1.84,0,0,1,76.27,40.71Zm.55-1.7a1.45,1.45,0,0,0,.84-.19.66.66,0,0,0,.26-.56,1,1,0,0,0-.29-.68,2.22,2.22,0,0,0-.88-.5,4.66,4.66,0,0,0-1-.25,9.54,9.54,0,0,0-1-.07,1.55,1.55,0,0,0-.85.19.68.68,0,0,0-.26.57.9.9,0,0,0,.32.68,2.33,2.33,0,0,0,.8.46,5,5,0,0,0,1,.26A6.81,6.81,0,0,0,76.82,39Z"/><path class="cls-2" d="M77,50.13a2.12,2.12,0,0,1-1-.5,2.32,2.32,0,0,1-.59-.94,3.7,3.7,0,0,1-.2-1.21,5.71,5.71,0,0,1,.15-1.38l.16-.68-1.73-.83-.14-.07-.11,0a.34.34,0,0,0-.35.1,2.29,2.29,0,0,0-.31.65l-.32-.15.82-3.65.32.16c0,.08,0,.2,0,.36a2.37,2.37,0,0,0,0,.36.54.54,0,0,0,.12.32.73.73,0,0,0,.26.2L78.49,45l.16.07.1,0A.34.34,0,0,0,79.1,45a2,2,0,0,0,.33-.61l.32.16-.81,3.63a3.67,3.67,0,0,1-.74,1.67A1.18,1.18,0,0,1,77,50.13ZM76.66,48a3.16,3.16,0,0,0,.75.28,1.07,1.07,0,0,0,.83-.1,1.34,1.34,0,0,0,.45-.84l.08-.35-2.84-1.36-.06.31a2.21,2.21,0,0,0-.05.91,1.55,1.55,0,0,0,.3.69A1.74,1.74,0,0,0,76.66,48Z"/><path class="cls-2" d="M72.83,55.65a1.31,1.31,0,0,1-.36-.23.82.82,0,0,1-.24-.32,1.08,1.08,0,0,1-.1-.37,1,1,0,0,1,.11-.43.8.8,0,0,1,.4-.44.48.48,0,0,1,.45,0,.75.75,0,0,1,.3.2l.34.36a2.17,2.17,0,0,0-.07-.64,4.84,4.84,0,0,0-.22-.6L70.64,51l.66-1.45,2.43,1.84.29.22a2,2,0,0,0,.31.19.52.52,0,0,0,.4.06.61.61,0,0,0,.26-.34.75.75,0,0,0,.09-.31,1.59,1.59,0,0,0,0-.29l.36.28c0,.28,0,.55-.07.8a2.13,2.13,0,0,1-.18.66,1.31,1.31,0,0,1-.55.68,1.08,1.08,0,0,1-.74.08v0a4.06,4.06,0,0,1,.31,1,1.3,1.3,0,0,1-.12.73.83.83,0,0,1-.5.49A1.06,1.06,0,0,1,72.83,55.65Z"/><path class="cls-2" d="M67.82,61.15a3,3,0,0,1-.81-.87,3,3,0,0,1-.4-1.1,3.28,3.28,0,0,1,.09-1.28,3.88,3.88,0,0,1,.62-1.26,2.43,2.43,0,0,1,1.42-1,1.93,1.93,0,0,1,1.59.37,2.92,2.92,0,0,1,.82.9A2.73,2.73,0,0,1,71.54,58a3,3,0,0,1-.1,1.22,3.74,3.74,0,0,1-.6,1.22,2.56,2.56,0,0,1-1.44,1.08A1.8,1.8,0,0,1,67.82,61.15Zm1.44-1.06a1.48,1.48,0,0,0,.79.34.63.63,0,0,0,.54-.3.93.93,0,0,0,.16-.72,2.16,2.16,0,0,0-.41-.92,5.2,5.2,0,0,0-.7-.81,8.08,8.08,0,0,0-.77-.65,1.43,1.43,0,0,0-.8-.34.63.63,0,0,0-.54.3.89.89,0,0,0-.14.75,2.38,2.38,0,0,0,.37.84,6.2,6.2,0,0,0,.69.81A7.22,7.22,0,0,0,69.26,60.09Z"/><path class="cls-2" d="M62.47,63.15l0,0c0-.14,0-.28.07-.41a2.35,2.35,0,0,1,.13-.44,2.15,2.15,0,0,1,.21-.43,1.63,1.63,0,0,1,.33-.38A1.57,1.57,0,0,1,64.52,61a2,2,0,0,1,1.22.72,3.32,3.32,0,0,1,.66,1.09A3.46,3.46,0,0,1,66.61,64a2.76,2.76,0,0,1-.24,1.13,2.42,2.42,0,0,1-.67.94,2.58,2.58,0,0,1-.62.43,1.48,1.48,0,0,1-.53.15L65.33,68l.08.13.07.1a.45.45,0,0,0,.24.15.57.57,0,0,0,.29,0,1.28,1.28,0,0,0,.29-.14l.32-.22.18.33-1.94,1.9-.09,0L62,65.17c0-.08-.11-.19-.19-.33a1.31,1.31,0,0,0-.19-.28.5.5,0,0,0-.35-.21.75.75,0,0,0-.39.22,1.1,1.1,0,0,0-.21.25,2.76,2.76,0,0,0-.14.25l-.21-.4c.15-.31.28-.55.38-.72a2,2,0,0,1,.42-.52,1.4,1.4,0,0,1,.73-.38A1,1,0,0,1,62.47,63.15Zm1.65,2.69a.77.77,0,0,0,.19.16.51.51,0,0,0,.25.1.61.61,0,0,0,.3,0,.79.79,0,0,0,.32-.19.89.89,0,0,0,.28-.56,2.15,2.15,0,0,0-.06-.78A3.6,3.6,0,0,0,65,63.7a4.51,4.51,0,0,0-.6-.85c-.11-.12-.22-.22-.32-.31a1.11,1.11,0,0,0-.32-.17.53.53,0,0,0-.33,0,.71.71,0,0,0-.33.19.79.79,0,0,0-.25.4,1.71,1.71,0,0,0-.09.51Z"/><path class="cls-2" d="M56.38,67.57l0,0a3.81,3.81,0,0,1,.51-1.07,2.32,2.32,0,0,1,.82-.72,1.12,1.12,0,0,1,.87-.14.93.93,0,0,1,.6.48,2.44,2.44,0,0,1,.14.28,3.13,3.13,0,0,1,.13.42l.34,1.37.12.36a2.23,2.23,0,0,0,.12.33c.09.15.18.25.28.27a.6.6,0,0,0,.42-.11,1,1,0,0,0,.26-.19l.2-.22.12.43c-.18.22-.36.42-.53.61a2.57,2.57,0,0,1-.53.43,1.29,1.29,0,0,1-.92.17.9.9,0,0,1-.62-.47,2.72,2.72,0,0,1-.14-.29,2.49,2.49,0,0,1-.14-.41l-.32-1.3a2.47,2.47,0,0,0-.11-.36c-.05-.12-.08-.21-.11-.26a.7.7,0,0,0-.27-.27.45.45,0,0,0-.39.07,1.21,1.21,0,0,0-.36.38,2.84,2.84,0,0,0-.32.7l1,3.44-1.32.81-.08,0-.84-2.94L55.22,69a1.69,1.69,0,0,0-.12-.32c-.09-.17-.19-.26-.3-.28a.68.68,0,0,0-.42.12,1.24,1.24,0,0,0-.27.21l-.19.21-.11-.44c.21-.26.39-.47.53-.62a1.91,1.91,0,0,1,.53-.41,1.37,1.37,0,0,1,.86-.2A1,1,0,0,1,56.38,67.57Z"/><path class="cls-2" d="M50.19,69.15a2.54,2.54,0,0,1,1.83,0,2,2,0,0,1,1,1.28,3.32,3.32,0,0,1,.14,1.12,2.87,2.87,0,0,1-.3,1.09,2.79,2.79,0,0,1-.74.93,3.33,3.33,0,0,1-1.21.64,2.28,2.28,0,0,1-1.34.09,1,1,0,0,1-.69-.69,1.14,1.14,0,0,1,0-.33.91.91,0,0,1,0-.34,1.15,1.15,0,0,1,.18-.31.88.88,0,0,1,.39-.2.83.83,0,0,1,.62,0,.52.52,0,0,1,.31.31,1.14,1.14,0,0,1,0,.49,4.31,4.31,0,0,1-.1.55.56.56,0,0,0,.21.07.62.62,0,0,0,.35,0,1.1,1.1,0,0,0,.7-.93,3.53,3.53,0,0,0-.15-1.73,2,2,0,0,0-.62-1A.91.91,0,0,0,50,70a1.74,1.74,0,0,0-.79.46,2.71,2.71,0,0,0-.48.89l-.42-.18A2.85,2.85,0,0,1,49,69.92,2.67,2.67,0,0,1,50.19,69.15Z"/><path class="cls-2" d="M45.06,70.33a1.43,1.43,0,0,1,1,.16.88.88,0,0,1,.44.66,1.32,1.32,0,0,1,0,.34,3.4,3.4,0,0,1,0,.42l-.24,2.63.88-.12-.05.51-.89.13L46,76.56l-1.55.21.13-1.5-1.3.18.05-.51,1.29-.18.24-2.63c0-.09,0-.21,0-.34a1.43,1.43,0,0,0,0-.25.43.43,0,0,0-.2-.36.88.88,0,0,0-.48,0,1.53,1.53,0,0,0-.4.12l-.35.14,0-.44a4.74,4.74,0,0,1,.81-.41A3.55,3.55,0,0,1,45.06,70.33Z"/><path class="cls-2" d="M40.08,70.62a4.34,4.34,0,0,1,1,.13,1.86,1.86,0,0,1,.63.27.88.88,0,0,1,.31.34.62.62,0,0,1,.08.33.68.68,0,0,1-.22.49.75.75,0,0,1-.56.19.72.72,0,0,1-.49-.16,1.15,1.15,0,0,1-.31-.38,2.22,2.22,0,0,1-.2-.47c0-.17-.08-.29-.1-.37a1.28,1.28,0,0,0-.84.21.76.76,0,0,0-.29.63.53.53,0,0,0,.07.31.88.88,0,0,0,.22.21,1.5,1.5,0,0,0,.36.18l.42.17a2.26,2.26,0,0,1,.92.57,1.26,1.26,0,0,1,.32.88,1.29,1.29,0,0,1-.16.58,1.65,1.65,0,0,1-.46.5,2.75,2.75,0,0,1-.77.34,4,4,0,0,1-1.08.1,3.66,3.66,0,0,1-.68-.06,2.17,2.17,0,0,1-.58-.17,1.05,1.05,0,0,1-.39-.32.69.69,0,0,1-.14-.45.65.65,0,0,1,.22-.46.85.85,0,0,1,1,0,1.12,1.12,0,0,1,.29.36,1.9,1.9,0,0,1,.18.42c0,.15.07.27.1.37a1.1,1.1,0,0,0,.62-.23.73.73,0,0,0,.24-.88.65.65,0,0,0-.17-.2,1.58,1.58,0,0,0-.32-.17l-.47-.18a2.88,2.88,0,0,1-1-.58,1.18,1.18,0,0,1-.31-.87,1.55,1.55,0,0,1,.18-.66,1.33,1.33,0,0,1,.48-.52,2.57,2.57,0,0,1,.77-.34A4.56,4.56,0,0,1,40.08,70.62Z"/><path class="cls-2" d="M37.26,43.69a5.49,5.49,0,0,1,0,.58h-4a3.31,3.31,0,1,0-6.62,0h-4a5.49,5.49,0,0,1,0-.58c0-4.06,3.29-11.78,7.35-11.78S37.26,39.63,37.26,43.69Z"/><path class="cls-2" d="M58.35,43.69a3.69,3.69,0,0,1,0,.58h-4a3.32,3.32,0,0,0-6.63,0h-4a5.52,5.52,0,0,1,0-.58c0-4.06,3.29-11.78,7.34-11.78S58.35,39.63,58.35,43.69Z"/><path class="cls-2" d="M47.8,33.15a5.63,5.63,0,0,1,0,.58h-4a3.32,3.32,0,0,0-6.63,0h-4a5.63,5.63,0,0,1,0-.58c0-4.06,3.3-11.78,7.35-11.78S47.8,29.09,47.8,33.15Z"/><path class="cls-2" d="M47.8,53.8a5.49,5.49,0,0,1,0,.58h-4a3.32,3.32,0,0,0-6.63,0h-4a5.49,5.49,0,0,1,0-.58C33.1,49.74,36.4,42,40.45,42S47.8,49.74,47.8,53.8Z"/></g></g></g></svg>