<?xml version="1.0" encoding="UTF-8"?>
<!-- Generator: Adobe Illustrator 22.1.0, SVG Export Plug-In . SVG Version: 6.00 Build 0)  -->
<svg version="1.1" id="Capa_1" xmlns="http://www.w3.org/2000/svg" xmlns:xlink="http://www.w3.org/1999/xlink" x="0px" y="0px" viewBox="0 0 74.7 87.4" style="transform: scaleX(1) scaleY(1); transform-origin: 0px 0px 0px; position: relative; height: 100%; transition-property: transform, left, top; transition-duration: 0s; overflow: auto;" xml:space="preserve">
<style type="text/css">
	.st0{fill:#615D24;}
</style>
<g>
	<path class="st0" d="M6.9,43.4L6.9,43.4L6.9,43.4c-0.4,0-0.6,0-0.9,0c-0.3,0-0.5,0.3-0.5,0.6c0,0.1,0.1,0.3,0.2,0.4   c0.1,0.1,0.2,0.1,0.4,0.1c0,0,0,0,0,0l0,0c0.3,0,0.5,0,0.8,0c0.1,0,0.3-0.1,0.4-0.2s0.1-0.2,0.1-0.4c0-0.1-0.1-0.3-0.2-0.4   C7.1,43.5,7,43.4,6.9,43.4z"/>
	<path class="st0" d="M14.8,43.5c-2.1-0.1-4.2-0.2-6.1-0.2c-0.3,0-0.5,0.2-0.5,0.5c0,0.3,0.2,0.5,0.5,0.5c0,0,0,0,0,0   c1.9,0,4,0,6,0.2h0h0c0,0,0,0,0,0c0.3,0,0.5-0.2,0.5-0.5c0-0.1,0-0.3-0.1-0.4S15,43.5,14.8,43.5z"/>
	<path class="st0" d="M13.5,48.7c0-0.3-0.3-0.5-0.5-0.5c0,0,0,0,0,0c-1.2,0.1-2.5,0.2-3.6,0.4c-0.3,0-0.5,0.3-0.5,0.6   c0,0.3,0.3,0.5,0.5,0.5c0,0,0,0,0,0c0,0,0,0,0.1,0c1.2-0.2,2.4-0.3,3.6-0.4C13.3,49.3,13.6,49,13.5,48.7z"/>
	<path class="st0" d="M11.1,54.8c-0.1,0.1-0.1,0.3,0,0.4c0.1,0.2,0.3,0.3,0.5,0.3c0.1,0,0.1,0,0.2,0c0.9-0.4,1.8-0.7,2.7-1   c0.3-0.1,0.4-0.4,0.3-0.7c-0.1-0.3-0.4-0.4-0.7-0.3c-0.9,0.3-1.9,0.7-2.8,1C11.3,54.6,11.2,54.7,11.1,54.8z"/>
	<path class="st0" d="M60.1,42.5L60.1,42.5c-0.1-0.1-0.2-0.2-0.3-0.3c-0.1,0-0.3,0-0.4,0c-1.1,0.5-2.2,1.1-3.2,1.7   c-0.3,0.1-0.4,0.5-0.2,0.7c0.1,0.2,0.3,0.3,0.5,0.3c0,0,0,0,0,0h0c0.1,0,0.2,0,0.3-0.1c1.1-0.6,2.1-1.1,3.2-1.6   C60.1,43.1,60.2,42.7,60.1,42.5z"/>
	<path class="st0" d="M59.9,47.4c-0.1,0-0.3,0-0.4,0.1c-0.5,0.4-1,0.8-1.6,1.3c-0.2,0.2-0.2,0.5-0.1,0.8c0.1,0.1,0.3,0.2,0.4,0.2   c0.1,0,0.3,0,0.4-0.1c0.5-0.4,1-0.9,1.6-1.3c0.1-0.1,0.2-0.2,0.2-0.4c0-0.1,0-0.3-0.1-0.4C60.1,47.5,60,47.4,59.9,47.4z"/>
	<path class="st0" d="M74.7,38.8L74.7,38.8C74.7,38.7,74.7,38.7,74.7,38.8c0-0.1,0-0.1,0-0.1c0,0,0,0,0,0c0,0,0,0,0,0l0,0l0,0   c0,0,0,0,0,0l0,0c0,0,0,0-0.1-0.1c0,0,0,0-0.1,0l0,0c0,0,0,0,0,0l0,0c0,0-0.1,0-0.1,0c-2,0-4.1,0.1-6.1,0.2c0,0,0,0-0.1,0   c-2.2,0.1-4.4,0.4-6.5,0.6c0,0-0.1,0-0.1,0c-2,0.3-4,0.6-6,1c-0.1-0.1-0.1-0.2-0.2-0.4l3.3-1.4c0.3-0.1,0.4-0.4,0.3-0.7   c-0.1-0.1-0.2-0.2-0.3-0.3c-0.1-0.1-0.3-0.1-0.4,0c0,0,0,0,0,0l-3.4,1.4c-0.4-0.8-0.9-1.5-1.4-2.2l0.3-0.2c0.1-0.1,0.2-0.2,0.2-0.3   c0-0.1,0-0.3-0.1-0.4c-0.2-0.2-0.5-0.3-0.7-0.1l-0.3,0.2c-0.5-0.7-1.1-1.3-1.8-1.9l1.3-1.3c0.2-0.2,0.2-0.6,0-0.8   c-0.2-0.2-0.5-0.2-0.7,0l-1.3,1.3c-0.2-0.1-0.4-0.3-0.5-0.4c-0.2-0.2-0.6-0.1-0.8,0.1c-0.2,0.2-0.1,0.6,0.1,0.8   c2.1,1.7,3.8,3.7,5.1,6.2c0,0,0,0,0,0c0,0,0,0,0,0.1c0.1,0.2,0.2,0.4,0.3,0.6c-1.9,0.4-3.7,0.8-5.6,1.3c-1.5-1.1-3.2-1.8-5-1.9   c-2.3-0.1-4.6,0.8-6.3,2.4c-0.2,0.2-0.2,0.5,0,0.8c0.2,0.2,0.6,0.2,0.8,0c1.4-1.4,3.3-2.1,5.2-2.1c0.1,0,0.2,0,0.3,0   c2.1,0.1,4.2,1.1,5.6,2.7c0.9,1.1,1.7,2.2,2.3,3.5c0,0,0,0.1,0.1,0.1c1,2,1.5,4.1,1.5,6.3c0,0.1,0,0.2,0,0.3   c0.1,3.7-1.2,7.3-3.6,10.2c-0.9,1.1-1.9,2-2.9,2.6c0-0.1-0.1-0.2-0.2-0.3c-0.1-0.1-0.3-0.1-0.4-0.1c-0.1,0-0.3,0.1-0.3,0.2   c-0.1,0.1-0.1,0.3-0.1,0.4c0,0.1,0,0.2,0,0.3c-0.5,0.2-0.9,0.3-1.4,0.4c0.2-0.3,0.4-0.6,0.5-1c0-0.1,0-0.3,0-0.4   c-0.1-0.1-0.2-0.2-0.3-0.3c-0.3-0.1-0.6,0.1-0.7,0.4c-0.1,0.4-0.5,0.9-0.7,1.3c-0.3-0.1-0.6-0.1-0.8-0.3c-0.4-0.2-0.7-0.4-1-0.7   c0.7-0.4,1.7-1.3,2.3-2.1c0.2-0.2,0.1-0.6-0.1-0.8c-0.1-0.1-0.3-0.1-0.4-0.1c-0.1,0-0.3,0.1-0.4,0.2c-0.4,0.5-1.1,1.2-2.1,1.9   c-0.3-0.6-0.5-1.2-0.6-1.8c0.3-0.1,0.6-0.3,1-0.5c0.2-0.1,0.4-0.4,0.3-0.6c0,0,0,0,0,0.1c0.1,0.2,0.3,0.2,0.5,0.2   c0.1,0,0.2,0,0.3-0.1l0.3-0.2c0.1-0.1,0.2-0.2,0.2-0.3c0-0.1,0-0.3-0.1-0.4c-0.2-0.2-0.5-0.3-0.7-0.2l-0.3,0.2h0l0,0   c-0.1,0.1-0.2,0.2-0.2,0.3c0,0.1,0,0.2,0,0.2c-0.1-0.1-0.2-0.2-0.3-0.2c-0.1-0.1-0.3,0-0.4,0c0,0-0.1,0-0.1,0.1   c-0.2,0.1-0.4,0.2-0.5,0.3c0-0.5,0.1-0.9,0.1-1.4c0,0,0-0.1,0-0.1c0-0.1,0-0.2,0-0.3l0,0c0.6-0.4,1.3-0.8,1.8-0.9   c0.3-0.1,0.5-0.4,0.4-0.6c0-0.1-0.1-0.3-0.2-0.3c-0.1-0.1-0.3-0.1-0.4-0.1l0,0v0c-0.5,0.1-1,0.4-1.4,0.6c0-0.5-0.1-1-0.1-1.5   c0.6-0.2,1.5-0.7,2.2-1.2c0.2-0.2,0.2-0.5,0.1-0.8c-0.2-0.2-0.5-0.2-0.7-0.1c-0.6,0.4-1.3,0.8-1.8,1c-0.1-0.3-0.2-0.7-0.4-1   c0.4-0.3,0.9-0.5,1.3-0.7c0.1-0.1,0.2-0.2,0.3-0.3c0.1-0.1,0.1-0.3,0-0.4c-0.1-0.3-0.4-0.4-0.7-0.3c-0.5,0.2-0.9,0.5-1.4,0.7   c-0.2-0.3-0.3-0.5-0.5-0.8c0.9-0.4,1.6-0.8,2.1-1.1c0.1-0.1,0.2-0.2,0.3-0.3c0-0.1,0-0.3-0.1-0.4c-0.1-0.1-0.2-0.2-0.3-0.3   c-0.1,0-0.3,0-0.4,0.1c-0.7,0.4-1.6,0.9-2.3,1.2c-0.2-0.2-0.4-0.4-0.5-0.7l2-0.9c0.1-0.1,0.2-0.2,0.3-0.3s0-0.3,0-0.4   c-0.1-0.1-0.2-0.2-0.3-0.3c-0.1-0.1-0.3,0-0.4,0l-2.1,1c-0.1-0.3-0.2-0.6-0.3-0.8c0.7-0.3,1.3-0.6,2-1c0.1-0.1,0.2-0.2,0.2-0.3   s0-0.3-0.1-0.4c-0.2-0.2-0.5-0.3-0.7-0.2c-0.5,0.3-1.1,0.6-1.7,0.8c0-0.2-0.1-0.4-0.1-0.6c0.4-0.2,0.9-0.4,1.5-0.9   c0.2-0.2,0.3-0.5,0.1-0.8c-0.2-0.2-0.5-0.3-0.8-0.1c-0.3,0.2-0.6,0.4-0.9,0.6c0-0.1,0-0.3,0-0.4c0.4-0.1,0.7-0.3,1-0.5   c0.2-0.2,0.3-0.5,0.1-0.8c-0.2-0.2-0.4-0.3-0.7-0.2c-0.1,0.1-0.2,0.1-0.3,0.2c0-0.1,0-0.3,0-0.4c0.2-0.1,0.4-0.2,0.7-0.4   c0.1-0.1,0.2-0.2,0.2-0.3c0-0.1,0-0.3-0.1-0.4c-0.2-0.2-0.5-0.3-0.7-0.2l0,0c0,0-0.1,0-0.1,0.1c-0.1-2.3-1.2-4-2.9-4.8   c-1.5-0.7-3.1-0.6-4.9,0.2c-0.1,0-0.1,0-0.2,0.1c-0.8,0.4-1.6,0.9-2.3,1.6c-0.2-0.1-0.4-0.1-0.6-0.2l-0.1,0   c0.7-1.3,1.6-2.4,2.7-3.4c0.1-0.1,0.2-0.2,0.2-0.4s0-0.3-0.1-0.4c-0.1-0.1-0.2-0.2-0.4-0.2c-0.1,0-0.3,0-0.4,0.1   c-1.2,1.1-2.3,2.4-3.1,3.9c-0.5-0.1-1-0.2-1.5-0.4c0.2-0.4,0.4-0.7,0.6-1.1c0.1-0.1,0.1-0.3,0.1-0.4c0.2,0,0.3-0.1,0.4-0.2   c1-1.5,2.2-2.8,3.6-3.8c0.2-0.2,0.3-0.5,0.1-0.8c-0.1-0.1-0.2-0.2-0.4-0.2c-0.1,0-0.3,0-0.4,0.1c-1.5,1.1-2.8,2.5-3.9,4.1   c-0.1,0.1-0.1,0.3-0.1,0.5c-0.2,0-0.3,0.1-0.4,0.3c-0.3,0.5-0.5,0.9-0.8,1.4c-0.4-0.1-0.7-0.2-1.1-0.2c0.6-1.4,1.4-2.7,2.4-3.9   c0.2-0.2,0.2-0.6-0.1-0.8c-0.2-0.1-0.4-0.2-0.6-0.1l-4.3-2.9c-0.1-0.1-0.3-0.1-0.4-0.1c-0.1,0-0.3,0.1-0.3,0.2   c-0.2,0.2-0.1,0.6,0.1,0.7l4.2,2.8c-0.5,0.7-1,1.5-1.4,2.2l-1.6-0.7c-0.1-0.1-0.3-0.1-0.4,0c-0.1,0.1-0.2,0.2-0.3,0.3   c-0.1,0.1-0.1,0.3,0,0.4s0.2,0.2,0.3,0.3l1.5,0.6c-0.1,0.2-0.1,0.3-0.2,0.5C13.1,39,6.9,38.4,0.6,38.3c-0.1,0-0.1,0-0.2,0   c-0.2,0-0.3,0.2-0.4,0.4c0,0,0,0.1,0,0.1v0.1c0,0,0,0.1,0,0.1c0.5,1.9,1.1,3.7,1.8,5.5c0,0.1,0,0.1,0.1,0.1c0.8,2,1.8,3.8,2.9,5.6   c0,0.1,0.1,0.1,0.1,0.2c2.3,3.5,5.1,6.7,8.3,9.3c0,0,0.1,0.1,0.1,0.1c1.6,1.3,3.3,2.4,5.1,3.4c0,0,0.1,0.1,0.1,0.1   c2.4,1.4,5.1,2.5,7.7,3.3c1.4,1,3,1.6,4.8,1.6c0.3,0,0.5,0,0.7,0c0,0,0,0,0,0c1.1-0.1,2.1-0.3,3.1-0.8c0.9-0.4,1.7-1,2.4-1.6   c0.1-0.1,0.2-0.2,0.2-0.4c0-0.1,0-0.3-0.1-0.4c-0.1-0.1-0.2-0.2-0.4-0.2c-0.1,0-0.3,0-0.4,0.1c-0.4,0.4-0.9,0.8-1.4,1.1   c0-0.5-0.1-1-0.1-1.4c0-0.3-0.3-0.5-0.6-0.5c-0.3,0-0.5,0.3-0.5,0.6c0.1,0.6,0.1,1.2,0.1,1.8c-0.6,0.2-1.1,0.4-1.7,0.5   c0.1-0.4,0.1-0.8,0.2-1.3c0-0.1,0-0.3-0.1-0.4c-0.1-0.1-0.2-0.2-0.4-0.2c-0.3,0-0.5,0.2-0.6,0.4c-0.1,0.5-0.2,1-0.3,1.6h-0.2   c-0.4,0-0.9-0.1-1.3-0.2c0.1-0.2,0.2-0.6,0.3-0.9c0.1-0.3-0.1-0.6-0.3-0.7c-0.1,0-0.3,0-0.4,0c-0.1,0.1-0.2,0.2-0.3,0.3l0,0   c-0.1,0.4-0.2,0.7-0.3,0.9c-0.7-0.2-1.3-0.6-1.8-1c0.1-0.2,0.2-0.4,0.2-0.5c0.1-0.2,0-0.5-0.1-0.6c0,0,0.1,0,0.1,0   c0.2,0,0.4-0.1,0.5-0.3c0.1-0.2,0.2-0.3,0.3-0.5c0.1-0.1,0.1-0.3,0.1-0.4c0-0.1-0.1-0.3-0.2-0.3c-0.2-0.2-0.6-0.1-0.7,0.2   c-0.1,0.2-0.2,0.4-0.3,0.6c-0.1,0.2-0.1,0.5,0.1,0.6c-0.1,0-0.2,0-0.3,0c-0.1,0-0.2,0.1-0.3,0.3c-0.1,0.1-0.1,0.2-0.1,0.3   c-0.2-0.2-0.4-0.4-0.5-0.5c-0.3-0.3-0.6-0.7-0.9-1.1c0.3-0.4,0.6-0.8,0.9-1.2c0.2-0.2,0.2-0.6-0.1-0.8c-0.2-0.2-0.6-0.2-0.8,0.1   c-0.3,0.3-0.5,0.6-0.7,0.9c-0.3-0.4-0.5-0.8-0.7-1.2c0.4-0.6,0.8-1.1,1.3-1.6c0.2-0.2,0.2-0.6,0-0.8c-0.2-0.2-0.5-0.2-0.8,0   c-0.4,0.4-0.7,0.8-1,1.2c-0.2-0.4-0.3-0.9-0.5-1.3c0.2-0.3,0.4-0.6,0.6-0.8c0.2-0.2,0.2-0.6,0-0.8C22.8,57,22.6,57,22.5,57   c-0.1,0-0.3,0.1-0.4,0.2c-0.1,0.1-0.1,0.2-0.2,0.2c-0.1-0.5-0.2-1.1-0.3-1.6c1.1-1.1,2.4-2,3.8-2.6c0.3-0.1,0.4-0.4,0.3-0.7   c-0.1-0.3-0.4-0.4-0.7-0.3c-1.3,0.5-2.5,1.3-3.5,2.2c0,0,0,0,0-0.1c0-0.1,0-0.2,0-0.3c0-0.4,0-0.7,0-1c0.3-0.3,0.6-0.6,1-0.8   c0.1-0.1,0.2-0.2,0.2-0.4c0.1,0,0.3,0,0.4-0.1c0.5-0.3,1.1-0.6,1.6-0.8c0.1,0,0.2-0.1,0.3-0.3c0.1-0.1,0.1-0.3,0-0.4   c0-0.1-0.1-0.2-0.3-0.3c-0.1-0.1-0.3-0.1-0.4,0c-0.6,0.2-1.3,0.5-1.8,0.9c-0.1,0.1-0.2,0.2-0.3,0.4c-0.2,0-0.3,0-0.5,0.1   c-0.1,0-0.1,0.1-0.2,0.1c0.1-0.4,0.1-0.8,0.2-1.2c0.5-0.4,1-0.7,1.5-0.9c0.3-0.1,0.4-0.4,0.3-0.7c0.1,0.2,0.3,0.4,0.5,0.4   c0.1,0,0.1,0,0.2,0c0.3-0.1,0.5-0.2,0.8-0.2c0.3-0.1,0.5-0.3,0.4-0.6c-0.1-0.3-0.3-0.5-0.6-0.4l0,0c-0.3,0.1-0.6,0.2-0.9,0.3   c-0.3,0.1-0.4,0.4-0.3,0.7c-0.1-0.1-0.2-0.2-0.3-0.3c-0.1,0-0.3,0-0.4,0c-0.2,0.1-0.4,0.2-0.6,0.3c0.1-0.2,0.2-0.5,0.3-0.7   c0.6-0.3,1.1-0.5,1.7-0.7c0.1,0,0.2-0.1,0.2-0.1c0.1,0,0.2,0,0.3,0c0.2,0,0.4-0.1,0.5-0.1c0.1,0,0.3-0.1,0.3-0.2   c0.1-0.1,0.1-0.3,0.1-0.4c0-0.1-0.1-0.3-0.2-0.3c-0.1-0.1-0.3-0.1-0.4-0.1c-0.2,0-0.4,0.1-0.6,0.1l0,0l0,0   c-0.1,0.1-0.3,0.2-0.5,0.1l0,0l0,0c-0.2,0.1-0.5,0.2-0.7,0.2c0.2-0.3,0.4-0.6,0.6-1c0.1,0.2,0.4,0.3,0.7,0.3   c0.5-0.2,1.1-0.4,1.6-0.4c0.1,0,0.3-0.1,0.4-0.2c0.1-0.1,0.1-0.3,0.1-0.4c0-0.1-0.1-0.3-0.2-0.4c-0.1-0.1-0.3-0.1-0.4-0.1   c-0.4,0-0.9,0.2-1.6,0.4c0.1-0.1,0.2-0.2,0.3-0.4c0.3-0.1,0.9-0.3,1.5-0.4c0.1,0,0.1,0,0.2-0.1c0.1,0,0.1,0,0.2,0   c0.1,0,0.3,0,0.4-0.1c0.3,0,0.5-0.3,0.5-0.6c0-0.3-0.3-0.5-0.5-0.5c0,0,0,0-0.1,0c-0.1,0-0.3,0-0.5,0.1l0,0l0,0   c-0.1,0.1-0.2,0.1-0.3,0.1c0,0,0,0,0,0c0.9-0.2,1.8-0.4,2.7-0.4c0.1,0,0.3-0.1,0.4-0.2c0.1-0.1,0.1-0.2,0.1-0.4   c0-0.3-0.3-0.5-0.5-0.5c0,0,0,0,0,0c-0.2,0-0.5,0-0.7,0c0.1-0.1,0.2-0.1,0.3-0.2l1.4-0.1c0.3,0,0.5-0.3,0.5-0.5   c0.7-0.1,1.5,0,2.2,0.3c1.5,0.7,2.4,2.3,2.3,4.5c0,0.1,0,0.2,0,0.3c0,0.4-0.1,0.8-0.1,1.2c-0.2,1.2-0.2,2.4,0.1,3.7   c0,0.1,0,0.1,0,0.2c0,0,0,0,0,0.1c0.4,1.3,1.1,2.5,2,3.5c0.9,0.9,1.5,2.1,1.8,3.3c0,0,0,0.1,0,0.1l0,0c0.2,1,0.3,2,0.1,3.1   c0,0,0,0.1,0,0.1c-0.1,0.8-0.2,1.6-0.1,2.4c0,0.1,0,0.1,0,0.2c0.1,1.2,0.5,2.2,1,3c0,0,0,0,0,0c0,0,0,0.1,0.1,0.1   c0.5,0.6,1.1,1.1,1.8,1.5c0.4,0.2,0.9,0.3,1.3,0.4c0.1,0,0.1,0,0.2,0l0,0c0.2,0,0.4,0,0.5,0c0.9,0,1.7-0.2,2.5-0.5   c0.1,0,0.2-0.1,0.3-0.1c0.8-0.4,1.5-0.8,2.1-1.4l0.2-0.1c3.6-1.1,7.1-2.8,10.2-4.9c0.1,0,0.1-0.1,0.2-0.1   c5.5-3.8,9.9-8.9,12.8-14.8c0-0.1,0.1-0.1,0.1-0.2c1.1-2.4,2.1-4.9,2.7-7.4l0-0.1l0,0V38.8L74.7,38.8L74.7,38.8   C74.7,38.8,74.7,38.8,74.7,38.8z M66.7,49.8c0,0.1,0.1,0.3,0.2,0.4c0.1,0.1,0.2,0.2,0.4,0.2c0,0,0,0,0,0c0.1,0,0.3-0.1,0.4-0.2   c0.7-0.7,1.5-1.4,2.2-2c-2.4,4.1-5.5,7.7-9.2,10.7c0.5-0.7,1-1.5,1.5-2.2c0.2-0.2,0.2-0.6,0-0.8c-0.2-0.2-0.6-0.2-0.8,0   c0,0,0,0.1-0.1,0.1c-1,1.4-2,2.9-2.9,4.5c-2.5,1.7-5.2,3.1-8,4.2c0,0,0.1-0.1,0.1-0.1c2.5-3,3.8-6.9,3.8-10.8   c0.8-0.9,1.7-1.7,2.5-2.5c0.1-0.1,0.2-0.2,0.2-0.4c0-0.1,0-0.3-0.1-0.4c-0.1-0.1-0.2-0.2-0.4-0.2c-0.2,0-0.3,0-0.4,0.1   c-0.6,0.6-1.2,1.2-1.9,1.8c-0.2-1.8-0.6-3.6-1.4-5.3c0.7-0.4,1.2-0.7,1.8-1.1c0.1-0.1,0.2-0.2,0.3-0.3c0-0.1,0-0.3-0.1-0.4   s-0.2-0.2-0.3-0.3c-0.1,0-0.3,0-0.4,0.1c-0.6,0.3-1.2,0.7-1.7,1c-0.4-0.8-0.9-1.5-1.4-2.2l0.1,0c0.1-0.1,0.3-0.1,0.4-0.2   c0.1-0.1,0.2-0.2,0.3-0.3c0.1-0.1,0-0.3,0-0.4c-0.1-0.3-0.4-0.4-0.7-0.3c-0.2,0.1-0.4,0.2-0.7,0.3l-0.1,0l0,0   c-0.1-0.1-0.1-0.1-0.2-0.2c-0.1-0.1-0.2-0.2-0.3-0.3c1.5-0.4,3.1-0.7,4.6-1.1c-0.5,0.2-1,0.4-1.6,0.6c-0.3,0.1-0.4,0.4-0.3,0.7   c0.1,0.2,0.3,0.3,0.5,0.3c0.1,0,0.1,0,0.2,0c4.8-1.8,8.1-2.7,8.5-2.8c0.9-0.1,1.9-0.2,2.8-0.3c-0.9,0.4-1.8,0.8-2.7,1.2   c-0.3,0.1-0.4,0.4-0.3,0.7c0.1,0.2,0.3,0.3,0.5,0.3h0c0,0,0,0,0,0c0.1,0,0.2,0,0.2-0.1c3.4-1.6,5.6-2.3,6-2.5   c1.2-0.1,2.4-0.1,3.6-0.2c-3,1.5-5.8,3.3-8.5,5.3c-0.2,0.2-0.3,0.5-0.1,0.8c0.1,0.1,0.3,0.2,0.4,0.2c0,0,0,0,0,0   c0.1,0,0.2,0,0.3-0.1c4.3-3.1,8-5,9.5-5.7c-0.6,2.1-1.4,4.1-2.3,6.1c-0.5,0.3-2,1.5-4.2,3.5C66.8,49.5,66.7,49.6,66.7,49.8z    M16.1,43.6C16.1,43.6,16,43.6,16.1,43.6c-0.3,0-0.6,0.2-0.6,0.5c0,0.1,0,0.3,0.1,0.4c0.1,0.1,0.2,0.2,0.4,0.2   c2.1,0.2,4.4,0.5,6.8,0.8c-0.3,0.6-0.6,1.2-0.9,1.8c0,0,0,0.1-0.1,0.1c-0.1,0.2-0.2,0.4-0.3,0.7c-2.3-0.1-4.6-0.1-7,0   c-0.3,0-0.5,0.3-0.5,0.6c0,0.3,0.3,0.5,0.6,0.5c2.2-0.1,4.4-0.1,6.5,0c-0.1,0.2-0.1,0.4-0.2,0.6c0,0,0,0,0,0.1   c-0.2,0.7-0.3,1.4-0.4,2.2c-1.3,0.2-2.6,0.4-3.9,0.8c-0.1,0-0.3,0.1-0.3,0.2c-0.1,0.1-0.1,0.3-0.1,0.4c0.1,0.2,0.3,0.4,0.5,0.4   c0,0,0.1,0,0.1,0c1.2-0.3,2.4-0.5,3.6-0.7c0,0.2,0,0.5,0,0.8c-2.3,1.5-4.6,3-6.9,4.7c-2.9-2.4-5.4-5.1-7.4-8.2   c0.5-0.1,0.9-0.2,1.4-0.3C7.9,50,8.1,49.7,8,49.4C8,49.1,7.7,48.9,7.4,49c-0.6,0.1-1.3,0.3-1.8,0.4c-0.9-1.5-1.7-3-2.4-4.6   c0.4,0,0.9-0.1,1.3-0.1c0.1,0,0.3-0.1,0.4-0.2c0.1-0.1,0.1-0.2,0.1-0.4s-0.1-0.3-0.2-0.4c-0.1-0.1-0.2-0.1-0.4-0.1   c-0.5,0-1.1,0.1-1.7,0.2c-0.6-1.4-1.1-2.9-1.5-4.3c8,0.1,15.9,1.2,23.7,3.2c-0.2,0.2-0.4,0.4-0.6,0.7l-0.1,0.1c0,0,0,0.1-0.1,0.1   c0,0,0,0,0,0.1c-0.3,0.3-0.5,0.7-0.7,1C20.9,44.1,18.4,43.8,16.1,43.6z M21.1,61.5c0.1-0.1,0.2-0.2,0.2-0.4s0-0.3-0.1-0.4   c-0.1-0.1-0.2-0.2-0.4-0.2c-0.1,0-0.3,0-0.4,0.1c-0.5,0.4-1.1,0.9-1.7,1.4c-1.4-0.8-2.8-1.8-4.2-2.8c2-1.5,4-2.9,6-4.2   c0,0.1,0,0.3,0,0.4l0,0c0,0.1,0,0.1,0,0.2c0.1,1,0.3,2,0.6,3c0,0,0,0.1,0,0.1c0.5,1.7,1.3,3.3,2.3,4.8c0,0,0,0.1,0.1,0.1   c0.3,0.4,0.5,0.7,0.8,1.1c-1.6-0.6-3.2-1.3-4.7-2.1C20.2,62.2,20.6,61.8,21.1,61.5z M0.1,38.8L0.1,38.8L0.1,38.8L0.1,38.8z    M25.1,47.8L25.1,47.8L25.1,47.8L25.1,47.8z"/>
	<path class="st0" d="M30.3,33.4C30.3,33.4,30.3,33.4,30.3,33.4C30.3,33.4,30.3,33.4,30.3,33.4c0.1,0,0.2,0,0.2,0   c0.2-0.1,0.4-0.2,0.6-0.3c0.3-0.1,0.4-0.4,0.3-0.7c0-0.1-0.1-0.2-0.3-0.3l0.1,0h-0.1c-0.1,0-0.3-0.1-0.4,0c0,0,0,0,0,0l0,0   c-0.2,0.1-0.4,0.2-0.6,0.3c-0.2,0.1-0.4,0.4-0.3,0.6c-0.2-0.2-0.4-0.3-0.7-0.1c-0.4,0.2-0.9,0.5-1.4,0.8c-0.1,0.1-0.2,0.2-0.2,0.3   c0,0.1,0,0.3,0.1,0.4c0.1,0.1,0.2,0.2,0.3,0.2c0,0,0.1,0,0.1,0c0.1,0,0.2,0,0.3-0.1c0.4-0.3,0.9-0.5,1.3-0.7   c0.2-0.1,0.3-0.4,0.3-0.6C30,33.3,30.2,33.4,30.3,33.4z"/>
	<path class="st0" d="M28.9,36L28.9,36c-0.3,0.2-0.6,0.4-0.8,0.6c-0.1,0.1-0.2,0.2-0.2,0.4c0,0.1,0,0.3,0.1,0.4   c0.1,0.1,0.3,0.2,0.4,0.2c0.1,0,0.2,0,0.3-0.1c0.2-0.2,0.5-0.4,0.7-0.5c0.2-0.2,0.3-0.5,0.2-0.7C29.4,35.9,29.1,35.9,28.9,36z"/>
	<path class="st0" d="M43.8,58.1c-0.1-0.1-0.3-0.1-0.4,0l-0.8,0.3c-0.3,0.1-0.4,0.4-0.3,0.7c0.1,0.2,0.2,0.3,0.4,0.3l0.1,0   c0.1,0,0.1,0,0.2,0l0.8-0.3c0.1,0,0.2-0.1,0.3-0.3c0.1-0.1,0.1-0.3,0-0.4C44,58.2,43.9,58.1,43.8,58.1z"/>
	<path class="st0" d="M65.7,50.6L65.7,50.6c-1.1,1.2-2.1,2.4-3.1,3.7c-0.2,0.2-0.1,0.6,0.1,0.8c0.1,0.1,0.2,0.1,0.3,0.1   c0.2,0,0.3-0.1,0.4-0.2c1-1.3,2-2.5,3.1-3.6c0.2-0.2,0.2-0.6,0-0.8C66.3,50.4,65.9,50.4,65.7,50.6z"/>
	<path class="st0" d="M36.8,25.1c0,0.3,0.2,0.5,0.5,0.5c0.3,0,0.5-0.2,0.5-0.5v-5.3c0-0.3-0.3-0.5-0.6-0.5c-0.3,0-0.5,0.2-0.5,0.5   V25.1z"/>
	<path class="st0" d="M37.4,18c0.3,0,0.5-0.2,0.5-0.5v-4.8c0-0.3-0.3-0.5-0.6-0.5c-0.3,0-0.5,0.2-0.5,0.5v4.8   C36.8,17.8,37.1,18,37.4,18z"/>
	<path class="st0" d="M52.4,31.6c0.1,0.1,0.2,0.2,0.4,0.2c0,0,0,0,0,0c0.1,0,0.3-0.1,0.4-0.2l3.9-3.9c0.2-0.2,0.2-0.6,0-0.8   c-0.2-0.2-0.6-0.2-0.8,0l-3.9,3.9C52.2,31,52.2,31.4,52.4,31.6z"/>
	<path class="st0" d="M58.9,25.6c0.1,0,0.3-0.1,0.4-0.2l2.5-2.5c0.1-0.1,0.2-0.2,0.1-0.4c0-0.1-0.1-0.3-0.2-0.4   c-0.2-0.2-0.5-0.2-0.7,0l-2.5,2.5c-0.2,0.2-0.2,0.6,0,0.8C58.6,25.6,58.7,25.6,58.9,25.6L58.9,25.6z"/>
	<path class="st0" d="M16.9,25.4l-3.2-3.2c-0.2-0.2-0.6-0.2-0.8,0c-0.1,0.1-0.2,0.2-0.2,0.4c0,0.1,0.1,0.3,0.2,0.4l3.2,3.2l0,0   c0.1,0.1,0.2,0.2,0.4,0.2c0.3,0,0.5-0.2,0.5-0.5C17.1,25.6,17,25.5,16.9,25.4z"/>
	<path class="st0" d="M17.7,26.9c-0.2,0.2-0.2,0.6,0,0.8l3.7,3.7c0.1,0.1,0.2,0.2,0.4,0.2c0.1,0,0.3-0.1,0.4-0.2   c0.1-0.1,0.2-0.2,0.2-0.4c0-0.1-0.1-0.3-0.2-0.4l-3.7-3.7C18.3,26.7,17.9,26.7,17.7,26.9z"/>
	<path class="st0" d="M49.1,18.2c-0.1-0.1-0.3-0.1-0.4,0c-0.1,0.1-0.2,0.2-0.3,0.3L46.1,24c-0.1,0.3,0,0.5,0.2,0.7l0,0h0.1   c0.1,0,0.1,0,0.2,0c0.2,0,0.4-0.1,0.5-0.3l2.3-5.5C49.5,18.6,49.4,18.3,49.1,18.2z"/>
	<path class="st0" d="M49.9,17.6l0.9-2.1c0.1-0.1,0.1-0.3,0-0.4c-0.1-0.1-0.2-0.2-0.3-0.3c-0.1-0.1-0.3-0.1-0.4,0   c-0.1,0.1-0.2,0.2-0.3,0.3l-0.9,2.1c-0.1,0.3,0,0.6,0.3,0.7c0.1,0,0.1,0,0.2,0C49.7,17.9,49.9,17.8,49.9,17.6z"/>
	<path class="st0" d="M9.3,34.4l-3-1.3c-0.1-0.1-0.3-0.1-0.4,0c-0.1,0.1-0.2,0.2-0.3,0.3c-0.1,0.1-0.1,0.3,0,0.4s0.2,0.2,0.3,0.3   l3,1.3c0.1,0,0.1,0,0.2,0c0,0,0,0,0,0h0c0.1,0,0.3-0.1,0.4-0.2c0.1-0.1,0.2-0.2,0.2-0.4C9.6,34.6,9.5,34.4,9.3,34.4z"/>
	<path class="st0" d="M11,36.2l5.8,2.4c0.1,0,0.1,0,0.2,0c0.2,0,0.4-0.1,0.5-0.3c0.1-0.3,0-0.6-0.3-0.7l-5.8-2.4   c-0.3-0.1-0.6,0-0.7,0.3C10.6,35.8,10.7,36.1,11,36.2z"/>
	<path class="st0" d="M63.6,35.1l-3.4,1.4c-0.3,0.1-0.4,0.4-0.3,0.7c0.1,0.2,0.3,0.3,0.5,0.3h0c0.1,0,0.1,0,0.2,0l3.4-1.4   c0.1-0.1,0.2-0.2,0.3-0.3c0.1-0.1,0.1-0.3,0-0.4C64.2,35.1,63.9,35,63.6,35.1z"/>
	<path class="st0" d="M68.5,33.1l-1.2,0.5c-0.1,0.1-0.2,0.2-0.3,0.3c-0.1,0.1-0.1,0.3,0,0.4c0.1,0.2,0.3,0.3,0.5,0.3c0,0,0,0,0,0   c0.1,0,0.1,0,0.2,0l1.2-0.5c0.1-0.1,0.2-0.2,0.3-0.3c0.1-0.1,0.1-0.3,0-0.4C69.1,33.1,68.7,33,68.5,33.1z"/>
	<path class="st0" d="M24.9,15.1c-0.1-0.3-0.4-0.4-0.7-0.3c-0.3,0.1-0.4,0.4-0.3,0.7l0.5,1.3c0.1,0.2,0.3,0.3,0.5,0.3c0,0,0,0,0,0   c0.1,0,0.1,0,0.2,0c0.3-0.1,0.4-0.4,0.3-0.7L24.9,15.1z"/>
	<path class="st0" d="M26,17.8c-0.1-0.3-0.4-0.4-0.7-0.3c-0.1,0.1-0.2,0.2-0.3,0.3C25,18,25,18.1,25,18.3l1.2,2.8   c0.1,0.1,0.2,0.2,0.3,0.3c0.1,0,0.1,0,0.2,0c0.1,0,0.1,0,0.2,0c0.1-0.1,0.2-0.2,0.3-0.3c0.1-0.1,0.1-0.3,0-0.4L26,17.8z"/>
	<path class="st0" d="M27,21.5c-0.3,0.1-0.4,0.4-0.3,0.7l2,4.7c0.1,0.2,0.3,0.3,0.5,0.3c0.1,0,0.1,0,0.2,0c0.1-0.1,0.2-0.2,0.3-0.3   c0.1-0.1,0.1-0.3,0-0.4l-2-4.7C27.6,21.5,27.2,21.4,27,21.5z"/>
	<path class="st0" d="M41.6,22.3l-0.9,4.6c-0.1,0.3,0.1,0.6,0.4,0.6c0,0,0.1,0,0.1,0c0.1,0,0.2,0,0.3-0.1c0.1-0.1,0.2-0.2,0.2-0.3   l0.9-4.6c0-0.3-0.2-0.6-0.5-0.6C42,21.9,41.7,22.1,41.6,22.3z"/>
	<path class="st0" d="M42.5,21.1c0.3,0,0.5-0.2,0.5-0.4l1.2-5.9c0.1-0.3-0.1-0.6-0.4-0.6c-0.1,0-0.3,0-0.4,0.1   c-0.1,0.1-0.2,0.2-0.2,0.3L42,20.5c-0.1,0.3,0.1,0.6,0.4,0.6C42.5,21.1,42.5,21.1,42.5,21.1z"/>
	<path class="st0" d="M54.2,35.3c0.1,0.2,0.3,0.2,0.4,0.2c0.1,0,0.2,0,0.3-0.1l3.1-2.1c0.2-0.2,0.3-0.5,0.1-0.8   c-0.2-0.2-0.5-0.3-0.7-0.1l-3.1,2.1c-0.1,0.1-0.2,0.2-0.2,0.3C54.1,35.1,54.1,35.2,54.2,35.3L54.2,35.3L54.2,35.3z M54.2,35.3   L54.2,35.3L54.2,35.3L54.2,35.3z"/>
	<path class="st0" d="M64.7,28.8c0-0.1,0-0.3-0.1-0.4c-0.1-0.1-0.2-0.2-0.3-0.2c-0.1,0-0.3,0-0.4,0.1l-5.1,3.4   c-0.1,0.1-0.2,0.2-0.2,0.3c0,0.1,0,0.3,0.1,0.4l0,0l0,0c0.1,0.1,0.3,0.2,0.4,0.2c0.1,0,0.2,0,0.3-0.1l5.1-3.4   C64.6,29,64.7,28.9,64.7,28.8z"/>
	<path class="st0" d="M22.8,25.3c0.1,0,0.2,0,0.3-0.1c0.2-0.2,0.3-0.5,0.2-0.8l-2.6-3.8c-0.1-0.1-0.2-0.2-0.3-0.2   c-0.1,0-0.3,0-0.4,0.1c-0.2,0.2-0.3,0.5-0.2,0.8l2.6,3.8C22.4,25.2,22.6,25.3,22.8,25.3z"/>
	<path class="st0" d="M29.4,28.7l0.5,1.2c-0.8,0.3-1.5,0.7-2.3,1.1l-3.2-4.9c-0.1-0.3-0.5-0.4-0.7-0.2c-0.3,0.1-0.4,0.5-0.2,0.7   c0,0,0,0,0,0.1l3.2,4.8c-0.7,0.5-1.4,1-2.1,1.5l-1.5-1.5c-0.2-0.2-0.6-0.2-0.8,0c-0.1,0.1-0.2,0.2-0.2,0.4c0,0.1,0.1,0.3,0.2,0.4   l1.4,1.4c-0.1,0.1-0.2,0.2-0.3,0.3c-0.2,0.2-0.2,0.6,0,0.8c0.1,0.1,0.2,0.2,0.4,0.2c0,0,0,0,0,0c0.1,0,0.3-0.1,0.4-0.2   c1-1,2.1-1.9,3.3-2.6c0,0,0.1,0,0.1-0.1c0,0,0,0,0.1,0c1.6-0.9,3.3-1.6,5-2.1c0.1,0,0.3-0.1,0.3-0.2c0.1-0.1,0.1-0.3,0.1-0.4   c0-0.1-0.1-0.3-0.2-0.3C32.9,29,32.7,29,32.6,29c-0.6,0.1-1.1,0.3-1.7,0.5l-0.5-1.2c-0.1-0.3-0.4-0.4-0.7-0.3   C29.4,28.1,29.2,28.4,29.4,28.7z"/>
	<path class="st0" d="M53.6,23.3l2.4-3.5c0.1-0.1,0.1-0.3,0.1-0.4s-0.1-0.3-0.2-0.3c-0.1-0.1-0.3-0.1-0.4-0.1   c-0.1,0-0.3,0.1-0.3,0.2l-2.4,3.5c-0.2,0.2-0.1,0.6,0.1,0.7c0.1,0.1,0.2,0.1,0.3,0.1C53.3,23.5,53.5,23.5,53.6,23.3z"/>
	<path class="st0" d="M15.5,32.6c0.1,0.1,0.2,0.1,0.3,0.1c0,0,0,0,0,0c0.3,0,0.5-0.2,0.5-0.5c0-0.2-0.1-0.4-0.2-0.5l-4.8-3.2   c-0.1-0.1-0.3-0.1-0.4-0.1c-0.1,0-0.3,0.1-0.3,0.2c-0.2,0.2-0.1,0.6,0.1,0.7L15.5,32.6z"/>
	<path class="st0" d="M31,17.5c0.1,0.3,0.3,0.4,0.5,0.4c0,0,0.1,0,0.1,0c0.1,0,0.3-0.1,0.3-0.2c0.1-0.1,0.1-0.3,0.1-0.4l-0.8-4.2   c0-0.1-0.1-0.3-0.2-0.3c-0.1-0.1-0.3-0.1-0.4-0.1c-0.1,0-0.3,0.1-0.3,0.2c-0.1,0.1-0.1,0.3-0.1,0.4L31,17.5z"/>
	<path class="st0" d="M32.7,22.9c0.1,0,0.3-0.1,0.3-0.2c0.1-0.1,0.1-0.3,0.1-0.4l-0.7-3.5c-0.1-0.3-0.3-0.5-0.6-0.4l0,0   c-0.3,0.1-0.5,0.3-0.4,0.6l0.7,3.5c0,0.3,0.3,0.4,0.5,0.4c0,0,0,0,0,0C32.6,23,32.6,22.9,32.7,22.9z M31.8,18.5L31.8,18.5   L31.8,18.5L31.8,18.5z"/>
	<path class="st0" d="M41.4,28.9l0.1-0.6c0-0.1,0-0.3-0.1-0.4c-0.1-0.1-0.2-0.2-0.3-0.2c-0.3-0.1-0.6,0.1-0.6,0.4l-0.1,0.6   c-0.8-0.1-1.7-0.2-2.5-0.2v-1.7c0-0.3-0.3-0.5-0.6-0.5c-0.3,0-0.5,0.2-0.5,0.5v1.7c-0.8,0-1.6,0.1-2.4,0.2c0,0,0,0-0.1,0l-0.9-4.6   c-0.1-0.3-0.3-0.5-0.6-0.4c-0.3,0.1-0.5,0.3-0.4,0.6l1,5.1c0,0,0,0.1,0,0.1c0.1,0.3,0.4,0.5,0.7,0.4c0.1,0,0.4-0.1,0.5-0.1l0,0   c0.9-0.1,1.8-0.2,2.7-0.2c0,0,0,0,0,0c3.7,0,7.2,1.1,10.3,3.1c0.1,0.1,0.2,0.1,0.3,0.1c0.2,0,0.3-0.1,0.5-0.2   c0.2-0.2,0.1-0.6-0.2-0.7c-0.1,0-0.2-0.1-0.2-0.1l0,0l4.2-6.2c0.2-0.2,0.1-0.6-0.1-0.8c-0.1-0.1-0.3-0.1-0.4-0.1   c-0.1,0-0.3,0.1-0.4,0.2L47.1,31c-0.7-0.4-1.5-0.8-2.3-1.1l1.4-3.4c0.1-0.1,0.1-0.3,0-0.4c-0.1-0.1-0.2-0.2-0.3-0.3   c-0.1-0.1-0.3-0.1-0.4,0c-0.1,0.1-0.2,0.2-0.3,0.3l-1.4,3.4C43,29.3,42.2,29,41.4,28.9z"/>
	<path class="st0" d="M25.3,58.7C25.3,58.7,25.3,58.7,25.3,58.7c0.1,0,0.2,0,0.3-0.1c0.3-0.2,0.6-0.5,0.9-0.7   c0.3-0.1,0.4-0.5,0.2-0.7c-0.1-0.1-0.2-0.2-0.3-0.3c-0.1,0-0.3,0-0.4,0c0,0,0,0-0.1,0c-0.4,0.2-0.7,0.5-1,0.8   c-0.1,0.1-0.2,0.2-0.2,0.4c0,0.1,0,0.3,0.1,0.4C25,58.6,25.1,58.7,25.3,58.7z"/>
	<path class="st0" d="M26,55.3c0-0.1,0-0.3-0.1-0.4c-0.2-0.3-0.5-0.3-0.7-0.2c-0.8,0.5-1.5,1-2.2,1.6c-0.1,0.1-0.2,0.2-0.2,0.4   c0,0.1,0,0.3,0.1,0.4c0.1,0.1,0.2,0.2,0.4,0.2c0,0,0,0,0,0c0.1,0,0.3,0,0.4-0.1c0.6-0.6,1.3-1.1,2-1.5C25.9,55.6,25.9,55.4,26,55.3   z"/>
	<path class="st0" d="M25.9,61.5C25.9,61.5,25.9,61.5,25.9,61.5c0.1,0,0.3-0.1,0.4-0.2c0.2-0.2,0.5-0.4,0.7-0.7   c0.2-0.2,0.3-0.5,0.1-0.8c-0.1-0.1-0.2-0.2-0.4-0.2c-0.1,0-0.3,0-0.4,0.1c-0.3,0.2-0.6,0.5-0.8,0.7c-0.2,0.2-0.2,0.6,0,0.8   C25.6,61.5,25.7,61.5,25.9,61.5z"/>
	<path class="st0" d="M29.6,63.6L29.6,63.6C29.7,63.7,29.7,63.7,29.6,63.6c0.4,0.3,0.7,0.5,1.1,0.7c0.6,0.3,1.2,0.4,1.8,0.4   c0,0,0,0,0,0c0.6,0,1.1-0.1,1.6-0.4c1-0.5,1.7-1.5,1.9-2.8c0.2-1.2,0-2.6-0.7-3.8c-0.7-1.3-1.7-2.4-3-3.1c-1.4-0.8-2.7-1-3.7-0.5   c-1,0.5-1.6,1.7-1.7,3.3c0,0.7,0,1.3,0.2,2c0,0,0,0.1,0,0.1c0.1,0.7,0.4,1.5,0.8,2.1C28.3,62.4,28.9,63.1,29.6,63.6z M29.2,55.9   c-0.1-0.1-0.2-0.2-0.3-0.3c-0.1,0-0.2,0-0.4,0c0.2-0.3,0.4-0.5,0.7-0.7c0.2-0.1,0.5-0.2,0.7-0.2c0.6,0,1.2,0.2,1.9,0.6   c1.1,0.7,2,1.6,2.6,2.7c0.5,1,0.8,2.2,0.6,3.2c-0.2,1-0.6,1.7-1.4,2.1c-0.2,0.1-0.4,0.2-0.6,0.2l0.2-0.5c0.1-0.1,0.1-0.3,0-0.4   c0-0.1-0.1-0.2-0.3-0.3c-0.1,0-0.2-0.1-0.2-0.1c-0.1,0-0.1,0-0.2,0c-0.1,0-0.2,0.1-0.3,0.3l-0.4,0.9c-0.2-0.1-0.4-0.1-0.7-0.2   c-0.1-0.1-0.3-0.1-0.4-0.2l0.8-1.1c0.2-0.2,0.1-0.6-0.1-0.8c-0.1-0.1-0.3-0.1-0.4-0.1c-0.1,0-0.3,0.1-0.4,0.2l-0.8,1.1   c-0.3-0.3-0.5-0.6-0.7-0.9L30,61c0.2-0.2,0.3-0.5,0.1-0.8C30,60.1,29.9,60,29.7,60c-0.1,0-0.3,0-0.4,0.1l-0.7,0.5   c-0.1-0.3-0.3-0.7-0.4-1.1l1.2-0.8c0.1-0.1,0.2-0.2,0.2-0.3c0-0.1,0-0.3-0.1-0.4c-0.2-0.3-0.5-0.3-0.7-0.2l-0.9,0.5   c0-0.3,0-0.6,0-1c0-0.1,0-0.2,0-0.2l0.9-0.6C29.3,56.5,29.4,56.1,29.2,55.9z"/>
	<path class="st0" d="M26.6,52.6C26.6,52.6,26.6,52.6,26.6,52.6c0.1,0,0.1,0,0.2,0l0.7-0.2c0.1-0.1,0.2-0.2,0.3-0.3   c0.1-0.1,0-0.3,0-0.4c-0.1-0.2-0.4-0.4-0.6-0.3l-0.7,0.2c-0.3,0.1-0.4,0.4-0.3,0.7c0.1,0.2,0.2,0.3,0.4,0.4l0,0L26.6,52.6z"/>
	<path class="st0" d="M44.8,54.2c0.4,0,0.9-0.1,1.2-0.3h0c1-0.5,1.6-1.7,1.7-3.3c0.1-1.5-0.3-2.9-0.9-4.2c-0.7-1.2-1.6-2.2-2.8-2.7   c-1.2-0.6-2.4-0.6-3.4,0c-1,0.5-1.7,1.5-1.9,2.8c-0.1,0.3-0.1,0.7-0.1,1c0,0,0,0.1,0,0.1c0,0.6,0.2,1.3,0.4,1.9c0,0,0,0.1,0,0.1   c0,0,0,0,0,0c0,0,0,0,0,0c0.1,0.2,0.2,0.5,0.3,0.7c0.2,0.3,0.3,0.6,0.5,0.8l0,0c0,0.1,0.1,0.1,0.1,0.1c0.3,0.4,0.7,0.9,1.1,1.2   c0.1,0.1,0.1,0.1,0.2,0.2c0.3,0.3,0.6,0.5,1,0.7c0.1,0.1,0.2,0.1,0.3,0.2c0.1,0.1,0.1,0.1,0.2,0.1C43.4,54,44.1,54.2,44.8,54.2   C44.7,54.2,44.8,54.2,44.8,54.2z M43.5,51.7c0.3-0.2,0.3-0.5,0.2-0.7c-0.2-0.3-0.5-0.3-0.7-0.2l-1.3,0.8c-0.1-0.1-0.3-0.3-0.4-0.4   l1-0.5c0.1-0.1,0.2-0.2,0.3-0.3c0-0.1,0-0.3,0-0.4c-0.1-0.3-0.4-0.4-0.7-0.2l-1.2,0.6c-0.1-0.1-0.2-0.3-0.3-0.4   c0-0.1-0.1-0.1-0.1-0.2l0.8-0.4c0.1-0.1,0.2-0.2,0.3-0.3c0.1-0.1,0-0.3,0-0.4c-0.1-0.1-0.2-0.2-0.3-0.3c-0.1-0.1-0.3,0-0.4,0   l-0.7,0.3c-0.1-0.2-0.1-0.5-0.1-0.7l0.7-0.3c0.3-0.1,0.4-0.4,0.3-0.7c-0.1-0.1-0.2-0.2-0.3-0.3c-0.1-0.1-0.3-0.1-0.4,0l-0.3,0.1   c0,0,0,0,0,0c0-0.3,0.1-0.5,0.2-0.7l0.7-0.2c0.3-0.1,0.5-0.4,0.4-0.7c0-0.1-0.1-0.2-0.2-0.3c0.1-0.1,0.2-0.1,0.3-0.2   c0.3-0.2,0.7-0.3,1.1-0.3c0,0,0,0,0,0c0.5,0,0.9,0.1,1.3,0.3c0.9,0.4,1.7,1.2,2.3,2.3c0.6,1.1,0.9,2.4,0.8,3.7   c-0.1,1.2-0.5,2.1-1.1,2.4c-0.3,0.2-0.8,0.2-1.3,0.1l0.4-0.3c0.3-0.1,0.3-0.5,0.2-0.7c-0.1-0.3-0.5-0.3-0.7-0.2L43,52.6   c0,0-0.1,0-0.1-0.1c-0.1-0.1-0.2-0.1-0.3-0.2L43.5,51.7z"/>
	<path class="st0" d="M1.3,19.2c0.1,0,0.1,0,0.2-0.1l0.1-0.1c0.1-0.1,0.2-0.1,0.3-0.2c0.1,0,0.1,0,0.2,0c0.1,0,0.2,0.1,0.3,0.2   L5,21.2c0.1,0.1,0.2,0.2,0.2,0.2c0,0,0.1,0.1,0.1,0.2c0,0.1-0.1,0.2-0.1,0.3C5.1,21.9,5.1,22,5,22c0,0.1,0.1,0.2,0.1,0.2   c0,0,0.1,0.1,0.2,0.1c0,0,0,0,0,0c0.1,0,0.1,0,0.2-0.1c0.2-0.3,0.4-0.5,0.5-0.7c0.1-0.1,0.2-0.2,0.4-0.4L6.5,21   c0-0.1,0.1-0.1,0-0.2c0-0.1-0.1-0.1-0.1-0.2c-0.1-0.1-0.1-0.1-0.2-0.1l0,0c-0.1,0-0.1,0.1-0.1,0.1l0,0c-0.1,0.1-0.1,0.2-0.2,0.2   c-0.1,0-0.1,0-0.2,0c-0.1-0.1-0.2-0.1-0.3-0.2L3,18.9l4.2,1.1l0,0c0.1,0,0.2,0,0.3-0.1c0.1-0.1,0.1-0.2,0-0.3l-2.1-3.7l2.3,1.8   c0.1,0.1,0.2,0.1,0.2,0.2C8,18,8,18,8,18.1c0,0.1-0.1,0.2-0.1,0.3c0,0-0.1,0.1-0.1,0.2c0,0.1,0.1,0.2,0.1,0.2   c0.1,0,0.1,0.1,0.2,0.1c0.1,0,0.2,0,0.2-0.1c0.2-0.3,0.4-0.6,0.6-0.8c0.2-0.2,0.4-0.5,0.6-0.8c0.1-0.1,0.1-0.1,0-0.2   c0-0.1-0.1-0.1-0.1-0.2c-0.1-0.1-0.2-0.1-0.2-0.1c-0.1,0-0.1,0.1-0.1,0.1l0,0C9,17,9,17,8.9,17.1c-0.1,0-0.1,0-0.2,0   c-0.1,0-0.2-0.1-0.3-0.2l-2.6-2.1c-0.1-0.1-0.2-0.1-0.2-0.2c0-0.1-0.1-0.1-0.1-0.2c0-0.1,0.1-0.2,0.1-0.3c0-0.1,0.1-0.1,0.1-0.2   c0-0.1-0.1-0.2-0.1-0.2c-0.1,0-0.1-0.1-0.2-0.1c0,0,0,0,0,0c-0.1,0-0.1,0-0.2,0.1C5,14,4.8,14.3,4.6,14.5l-0.3,0.4l2.1,3.8   l-3.3-0.8c-0.2-0.1-0.5-0.1-0.8,0c-0.2,0-0.4,0.2-0.6,0.3c-0.2,0.2-0.4,0.4-0.6,0.6c-0.1,0.1-0.1,0.1-0.1,0.2c0,0.1,0,0.2,0.1,0.2   C1.2,19.2,1.3,19.2,1.3,19.2z"/>
	<path class="st0" d="M8.3,15.7c0.3,0.3,0.6,0.5,0.9,0.6c0.2,0.1,0.4,0.1,0.6,0.1c0.1,0,0.3,0,0.4,0l0,0c0.4-0.1,0.7-0.3,1-0.6   c0.2-0.2,0.4-0.5,0.5-0.8c0.1-0.3,0.1-0.7,0-1c0,0,0-0.1-0.1-0.1c-0.1-0.1-0.2-0.1-0.2-0.1c-0.1,0-0.1,0-0.2,0.1   c0,0-0.1,0.1-0.1,0.2c0.1,0.2,0.1,0.5,0,0.7c-0.1,0.2-0.2,0.4-0.3,0.5c-0.3,0.3-0.6,0.4-1,0.3c-0.3-0.1-0.7-0.3-1-0.6l1.4-1.3   c0.1-0.1,0.2-0.3,0.3-0.4c0-0.2,0-0.4-0.2-0.5c-0.3-0.3-0.7-0.5-1.1-0.5c-0.4,0-0.8,0.2-1.2,0.5C8,13,7.8,13.4,7.7,13.7   c-0.1,0.3-0.1,0.7,0,1.1C7.9,15.1,8,15.4,8.3,15.7z M9.1,12.9C9.1,12.9,9.1,12.9,9.1,12.9c0.3,0,0.5,0.1,0.6,0.3   c0.1,0.1,0.1,0.2-0.1,0.4l-0.9,0.9c-0.2-0.2-0.3-0.5-0.3-0.8c0-0.2,0.1-0.5,0.3-0.7C8.7,13,8.9,12.9,9.1,12.9z"/>
	<path class="st0" d="M10.2,11.6L10.2,11.6c0.1,0,0.2,0,0.2,0c0,0,0,0,0.1,0c0.1,0,0.2-0.1,0.3-0.1c0.1,0,0.2,0,0.3,0l1.5,0.5   c0,0.4,0,0.8,0,1c0,0.1,0,0.2,0,0.3c0,0.2,0,0.3,0,0.4c0,0.1,0,0.1-0.1,0.2c0,0.1-0.1,0.1-0.2,0.2c0,0-0.1,0.1-0.1,0.1l0,0   c0,0.1,0,0.1,0.1,0.2c0,0,0.1,0.1,0.1,0.1c0,0,0,0,0.1,0c0,0,0.1,0,0.1,0c0.3-0.2,0.4-0.4,0.6-0.5c0.1-0.1,0.3-0.2,0.6-0.4   c0.1,0,0.1-0.1,0.1-0.2c0-0.1,0-0.1-0.1-0.2c-0.1-0.1-0.1-0.1-0.2-0.1c-0.1,0-0.1,0-0.1,0.1l0,0c-0.1,0.1-0.1,0.1-0.2,0.1   c0,0,0,0,0,0c0-0.1,0-0.1,0-0.2l0-1l1,0.3c0.1,0,0.1,0,0.2,0.1c0,0,0,0,0,0.1c-0.1,0-0.1,0.1-0.1,0.1c0,0.1,0,0.2,0.1,0.2   c0,0.1,0.1,0.1,0.2,0.1c0.1,0,0.1,0,0.2,0c0.3-0.2,0.5-0.4,0.7-0.6c0.1-0.1,0.4-0.3,0.7-0.5c0.1,0,0.1-0.1,0.1-0.2   c0-0.1,0-0.1-0.1-0.2c-0.1-0.1-0.1-0.1-0.2-0.1c0,0,0,0,0,0c-0.1,0-0.1,0-0.1,0.1l0,0c-0.1,0.1-0.2,0.1-0.3,0.1   c-0.2,0-0.3,0-0.5-0.1c-0.4-0.1-0.9-0.2-1.6-0.4c0-0.1,0-0.3,0-0.6c0-0.2,0-0.4,0-0.4c0-0.2,0-0.4,0-0.5c0-0.1,0.1-0.2,0.2-0.3   c0,0,0,0,0.1,0c0,0,0.1-0.1,0.1-0.1c0-0.1,0-0.1-0.1-0.2c0,0-0.1-0.1-0.1-0.1c-0.1,0-0.1,0-0.2,0c-0.3,0.2-0.4,0.4-0.6,0.5   c-0.1,0.1-0.3,0.2-0.6,0.4c-0.1,0-0.1,0.1-0.1,0.2c0,0.1,0,0.1,0.1,0.2c0.1,0.1,0.1,0.1,0.2,0.1h0c0.1,0,0.1,0,0.1-0.1l0,0   c0.1,0,0.1-0.1,0.2-0.1c0,0.1,0,0.1,0,0.2V11c-0.2-0.1-0.5-0.1-0.7-0.2l-0.3-0.1c-0.4-0.1-0.9,0-1.4,0.4l-0.1,0.1   c0,0-0.1,0.1-0.1,0.1c0,0,0,0.1,0,0.2C10.1,11.5,10.2,11.6,10.2,11.6z"/>
	<path class="st0" d="M13.8,7.2c0,0,0.1,0,0.1,0c0.1,0,0.3,0,0.4-0.1c0.1-0.1,0.3-0.2,0.3-0.4c0-0.2,0-0.3-0.1-0.5   C14.5,6.1,14.3,6,14.2,6c-0.2,0-0.3,0-0.4,0.1c-0.2,0.1-0.3,0.2-0.3,0.4c-0.1,0.2-0.1,0.3,0,0.5C13.5,7.1,13.6,7.2,13.8,7.2z"/>
	<path class="st0" d="M14,8.6c0,0.1,0,0.1,0,0.2c0,0,0.1,0.1,0.2,0.1h0c0.1,0,0.1,0,0.2-0.1c0.1-0.1,0.2-0.1,0.2-0.1   c0,0,0.1,0,0.1,0.1C14.9,8.9,15,8.9,15,9l1,1.6c0.1,0.1,0.1,0.2,0.2,0.3c0,0,0,0.1,0,0.1c0,0.1-0.1,0.1-0.2,0.2   c-0.1,0-0.1,0.1-0.2,0.1c-0.1,0.1,0,0.2,0,0.2c0,0.1,0.1,0.1,0.1,0.1c0,0,0.1,0,0.1,0c0,0,0.1,0,0.1,0c0.3-0.2,0.5-0.3,0.7-0.5   c0.2-0.1,0.5-0.3,0.8-0.5c0.1,0,0.1-0.1,0.1-0.2c0-0.1,0-0.1-0.1-0.2c0-0.1-0.1-0.1-0.2-0.1c-0.1,0-0.1,0-0.2,0l-0.1,0   c-0.1,0.1-0.2,0.1-0.2,0.1c0,0-0.1,0-0.1-0.1c-0.1-0.1-0.1-0.2-0.2-0.3l-1.6-2.5c0-0.1-0.1-0.1-0.2-0.1c0,0-0.1,0-0.2,0l0,0   c-0.1,0-0.1,0.1-0.2,0.2c-0.2,0.2-0.4,0.5-0.6,0.7C14.1,8.5,14,8.5,14,8.6z"/>
	<path class="st0" d="M18.3,9.9c0.2,0.1,0.4,0.1,0.6,0.1c0.3,0,0.6-0.1,0.9-0.3c0.3-0.1,0.5-0.4,0.7-0.6c0.2-0.3,0.3-0.6,0.3-0.9   c0,0,0-0.1,0-0.1c0,0-0.1-0.1-0.1-0.1c0,0-0.1,0-0.1,0c-0.1,0-0.1,0-0.1,0c-0.1,0-0.1,0.1-0.1,0.2c0,0.2-0.1,0.4-0.2,0.6   C20,8.9,19.9,9,19.7,9.1c-0.3,0.2-0.6,0.1-0.9,0c-0.3-0.2-0.6-0.5-0.8-0.9c-0.2-0.3-0.3-0.7-0.3-1.1c0-0.3,0.2-0.6,0.5-0.8   c0.1-0.1,0.3-0.1,0.4-0.1c0.1,0,0.2,0.1,0.3,0.2c0,0.1,0,0.1,0,0.2c0,0.1,0,0.1,0,0.2c0,0,0,0.1,0,0.1l0,0l0,0   c0,0.1,0.2,0.1,0.2,0.1c0.1,0,0.2,0,0.3-0.1c0.2-0.1,0.3-0.2,0.3-0.4c0-0.2,0-0.4-0.1-0.5c-0.1-0.3-0.4-0.5-0.7-0.5c0,0,0,0,0,0   c-0.3,0-0.7,0.1-1,0.3c-0.3,0.2-0.6,0.4-0.8,0.7c-0.2,0.3-0.3,0.7-0.3,1c0,0.4,0.1,0.8,0.2,1.1C17.4,9.3,17.8,9.7,18.3,9.9z"/>
	<path class="st0" d="M20.9,6.1c0.2,0.1,0.4,0.1,0.5,0c0.1,0,0.2-0.1,0.3-0.2c0.1-0.1,0.1-0.2,0.1-0.2l0,0l0,0c0,0-0.1,0-0.1,0   c-0.1,0-0.1,0-0.2-0.1c0,0-0.1-0.1-0.1-0.1c-0.1-0.1,0-0.3,0-0.4c0.1-0.1,0.2-0.2,0.3-0.3c0.3-0.1,0.5-0.1,0.6,0   c0.2,0.1,0.3,0.3,0.4,0.5l0.2,0.5c-0.4,0.2-0.7,0.4-1.1,0.5c-0.3,0.2-0.5,0.4-0.7,0.7c-0.2,0.3-0.2,0.6,0,1   c0.1,0.3,0.3,0.5,0.6,0.6c0.1,0.1,0.3,0.1,0.4,0.1c0.2,0,0.3,0,0.5-0.1c0.3-0.1,0.5-0.3,0.7-0.5c0.1-0.1,0.2-0.3,0.3-0.5   c0.1,0.1,0.2,0.2,0.4,0.2c0.2,0.1,0.5,0,0.7,0c0.1,0,0.2-0.1,0.3-0.2c0.1-0.1,0.2-0.2,0.1-0.3C25,7.1,25,7,24.9,7   c-0.1,0-0.1,0-0.2,0c-0.1,0-0.2,0-0.3,0c-0.1-0.1-0.2-0.1-0.2-0.2l-0.7-1.8c-0.2-0.5-0.5-0.7-0.8-0.8c-0.4-0.1-0.8,0-1.2,0.2   c-0.3,0.1-0.6,0.3-0.8,0.6c-0.2,0.2-0.3,0.6-0.1,0.9C20.6,5.9,20.7,6,20.9,6.1z M22.1,6.7c0.2-0.2,0.5-0.4,0.9-0.7l0.1,0.4   c0.1,0.2,0.1,0.3,0.1,0.5c0,0.2-0.1,0.3-0.2,0.5l0,0c-0.1,0.1-0.2,0.2-0.4,0.3c-0.1,0.1-0.3,0.1-0.4,0c-0.1,0-0.2-0.1-0.2-0.3   C21.9,7.2,21.9,6.9,22.1,6.7z"/>
	<path class="st0" d="M24.4,3.9c0.1,0,0.1,0,0.2,0c0.1,0,0.2,0,0.3,0c0,0,0.1,0.1,0.1,0.1C25,4.1,25,4.2,25,4.3l0.5,1.9   c0,0.1,0.1,0.2,0.1,0.3c0,0,0,0.1,0,0.1c-0.1,0.1-0.1,0.1-0.2,0.1c-0.1,0-0.1,0-0.2,0.1c-0.1,0.1-0.1,0.2,0,0.2   c0,0.1,0.1,0.1,0.1,0.2c0,0,0.1,0,0.1,0c0,0,0,0,0.1,0C25.7,7.1,26,7.1,26.2,7c0.3-0.1,0.5-0.1,0.9-0.2c0.1,0,0.1-0.1,0.2-0.1   c0-0.1,0-0.1,0-0.2c0-0.1-0.1-0.1-0.1-0.2c-0.1,0-0.1,0-0.2,0l-0.1,0c-0.1,0-0.2,0-0.3,0c0,0-0.1-0.1-0.1-0.1   c0-0.1-0.1-0.2-0.1-0.3L26,4c0-0.2,0.1-0.3,0.2-0.4c0.1-0.2,0.3-0.3,0.6-0.3c0.2,0,0.4,0,0.5,0c0.2,0.1,0.3,0.3,0.3,0.5l0.5,1.7   c0,0.1,0,0.2,0.1,0.3c0,0,0,0.1,0,0.1C28,6,28,6,27.9,6.1c-0.1,0-0.1,0-0.2,0.1c-0.1,0.1-0.1,0.2,0,0.2c0,0.1,0.1,0.1,0.1,0.2   c0.1,0,0.1,0.1,0.2,0c0.3-0.1,0.6-0.2,0.8-0.2c0.2-0.1,0.5-0.1,0.9-0.2c0.1,0,0.1-0.1,0.1-0.1c0-0.1,0-0.1,0-0.2   c0-0.1-0.1-0.1-0.1-0.2c-0.1,0-0.1,0-0.2,0l-0.1,0c-0.1,0-0.2,0-0.3,0c0,0-0.1-0.1-0.1-0.1c0-0.1-0.1-0.2-0.1-0.3l-0.5-1.7   c-0.1-0.4-0.3-0.7-0.6-0.9c-0.3-0.2-0.7-0.2-1-0.1c-0.2,0-0.4,0.1-0.6,0.2C26.2,2.9,26.1,3,26,3.1c-0.1,0.1-0.1,0.2-0.2,0.3   l-0.1-0.3c0-0.2-0.2-0.2-0.3-0.2l-0.1,0c-0.1,0-0.1,0.1-0.2,0.1c-0.2,0.2-0.5,0.3-0.8,0.4c-0.1,0-0.1,0.1-0.1,0.1   c0,0.1,0,0.1,0,0.2C24.3,3.8,24.3,3.9,24.4,3.9z"/>
	<path class="st0" d="M31.5,5.8C31.5,5.8,31.5,5.8,31.5,5.8c0.4,0,0.7-0.1,0.8-0.1c0.2,0,0.6,0,0.9,0c0.1,0,0.2,0,0.2-0.1   c0.1-0.1,0-0.3,0-0.4l0,0c-0.1,0-0.1,0-0.2,0l-0.1,0c-0.2,0-0.3,0-0.5,0c0,0-0.1,0-0.1-0.1c0-0.1,0-0.3,0.1-0.4c0,0,0-0.1,0-0.1   c0-0.1,0.1-0.2,0.2-0.6l2-0.1l0.3,0.6c0.1,0.1,0.1,0.2,0.1,0.4c0,0,0,0.1,0,0.1c-0.1,0-0.2,0.1-0.4,0.1c-0.1,0-0.1,0-0.2,0.1l0,0   c0,0.1-0.1,0.1,0,0.2c0,0.1,0,0.1,0.1,0.2c0,0.1,0.1,0.1,0.2,0.1c0.4,0,0.7-0.1,1-0.1c0.3,0,0.6,0,0.9,0c0.1,0,0.2,0,0.2-0.1   c0-0.1,0-0.1,0-0.2c0-0.1,0-0.1-0.1-0.2l0,0c-0.1,0-0.1,0-0.2,0l-0.1,0c-0.1,0-0.2,0-0.3-0.1c-0.1-0.1-0.2-0.3-0.3-0.4l-1.7-3.4   c-0.1-0.2-0.2-0.4-0.4-0.6C34,0.1,33.9,0.1,33.7,0c-0.2,0-0.5,0-0.7,0c-0.1,0-0.2,0-0.2,0.1c-0.1,0.1-0.1,0.1-0.1,0.2   c0,0.1,0,0.2,0.1,0.2c0.1,0,0.1,0,0.2,0c0.1,0,0.2,0,0.3,0.1c0,0,0.1,0.1,0.1,0.1c0,0.1,0,0.1,0,0.2l-1.2,3.6L32,4.8   c0,0.1-0.1,0.2-0.1,0.3c-0.1,0.1-0.2,0.1-0.3,0.1c0,0,0,0,0,0h-0.1c-0.1,0-0.1,0-0.2,0.1c-0.1,0.1-0.1,0.2-0.1,0.2   c0,0.1,0,0.1,0.1,0.2C31.4,5.7,31.5,5.8,31.5,5.8z M33.1,3.4l0.6-1.9l0.9,1.8L33.1,3.4z"/>
	<path class="st0" d="M36.6,1.8C36.6,1.8,36.7,1.8,36.6,1.8c0.2,0,0.3,0.1,0.4,0.2c0.1,0.1,0.2,0.3,0.2,0.4c0.1,0.2,0.2,0.5,0.3,0.9   c0.1,0.4,0.2,0.6,0.2,0.6c0.3,0.8,0.4,1.2,0.6,1.5l0,0.1l0.4,0c0.1,0,0.1,0,0.7-1.4l0.3-0.7C40,3,40.2,2.6,40.3,2.4   c0-0.1,0.1-0.3,0.3-0.3C40.7,2,40.8,2,41,2c0.1,0,0.1,0,0.2,0l0,0c0-0.1,0.1-0.1,0.1-0.2c0-0.1,0-0.1,0-0.2c0-0.1-0.1-0.1-0.2-0.1   h-0.2c-0.2,0-0.3,0-0.4,0l-0.1,0c-0.2,0-0.5,0-0.8-0.1c-0.1,0-0.1,0-0.2,0.1c0,0,0,0.1,0,0.2c0,0.1,0,0.1,0.1,0.2l0,0   c0,0,0.1,0,0.2,0h0.1c0,0,0,0,0,0c0.1,0,0.2,0,0.2,0c0,0,0,0,0,0c0,0.1,0,0.1,0,0.2l-0.8,2c-0.1-0.3-0.2-0.6-0.4-1.2   c-0.1-0.3-0.2-0.5-0.2-0.6c0-0.1-0.1-0.2-0.1-0.2h0l0,0c-0.1-0.3-0.3-0.5-0.5-0.7c-0.3-0.1-0.6-0.2-0.9-0.2h-0.1c0,0-0.1,0-0.2,0   c0,0-0.1,0.1-0.1,0.2c0,0.1,0,0.1,0,0.2C36.5,1.8,36.6,1.8,36.6,1.8z"/>
	<path class="st0" d="M41.8,5.5L41.8,5.5c0.3,0.2,0.6,0.4,1,0.4c0.1,0,0.2,0,0.3,0c0.2,0,0.5,0,0.7-0.1c0.3-0.1,0.7-0.3,0.9-0.6   c0.3-0.3,0.4-0.7,0.5-1.1c0.1-0.7-0.2-1.4-0.7-1.9c-0.6-0.5-1.3-0.6-2-0.3c-0.3,0.1-0.7,0.3-0.9,0.6c-0.3,0.3-0.4,0.7-0.5,1.1   C41,4.3,41.3,5,41.8,5.5z M43.4,2.3c0.3,0,0.6,0.2,0.7,0.5c0.1,0.4,0.2,0.8,0.1,1.2c0,0.4-0.2,0.8-0.4,1.2   c-0.2,0.3-0.5,0.4-0.8,0.3c-0.3,0-0.6-0.2-0.7-0.5c-0.1-0.4-0.2-0.8-0.1-1.2c0.1-0.5,0.2-0.9,0.4-1.2c0.2-0.2,0.4-0.3,0.6-0.3   C43.3,2.2,43.3,2.2,43.4,2.3z"/>
	<path class="st0" d="M45.9,5.9c0.2,0.5,0.6,0.8,1.2,0.9c0.1,0,0.3,0.1,0.4,0.1c0.2,0,0.3,0,0.5-0.1c0.3-0.1,0.6-0.2,0.9-0.4   c0,0,0.1-0.1,0.1-0.1c0,0,0-0.1,0-0.1c0,0,0-0.1-0.1-0.1c0,0-0.1-0.1-0.1-0.1c-0.1,0-0.1,0-0.2,0c-0.2,0.1-0.3,0.3-0.5,0.3   c-0.2,0.1-0.4,0-0.6,0c-0.3-0.1-0.5-0.3-0.6-0.6c-0.1-0.4-0.1-0.8,0-1.2c0.1-0.4,0.3-0.8,0.5-1.1c0.2-0.2,0.5-0.3,0.9-0.2   c0.1,0,0.3,0.1,0.4,0.2c0.1,0.1,0.1,0.2,0.1,0.3c0,0.1,0,0.1-0.1,0.2c0,0-0.1,0.1-0.2,0.1c0,0-0.1,0-0.1,0.1l0,0l0,0   c0,0.1,0,0.2,0.1,0.3c0.1,0.1,0.2,0.2,0.3,0.2c0.2,0.1,0.4,0,0.5-0.1c0.2-0.1,0.3-0.3,0.3-0.5c0.1-0.3,0-0.6-0.2-0.9   C49,3,48.7,2.9,48.3,2.8c-0.4-0.1-0.7-0.1-1.1,0c-0.3,0.1-0.7,0.3-0.9,0.5c-0.3,0.3-0.5,0.6-0.6,1C45.6,4.9,45.6,5.5,45.9,5.9   L45.9,5.9z"/>
	<path class="st0" d="M49.3,7.2L49.3,7.2c0.2,0.3,0.4,0.5,0.7,0.6c0.3,0.1,0.6,0.1,0.8,0.1c0.2,0,0.4-0.1,0.6-0.2   c0,0.1,0,0.3,0.1,0.4c0.1,0.2,0.3,0.3,0.5,0.4c0.1,0,0.2,0.1,0.3,0.1c0,0,0,0,0,0c0.2,0,0.2-0.1,0.2-0.1c0-0.1,0-0.1,0-0.2l0,0   c0,0-0.1-0.1-0.1-0.1c-0.1,0-0.2-0.1-0.2-0.2c0-0.1,0-0.2,0-0.3l0.7-1.8C53.3,5.4,53.3,5,53,4.7c-0.3-0.3-0.6-0.5-1-0.7   c-0.3-0.1-0.7-0.2-1-0.2c-0.3,0-0.6,0.2-0.7,0.5c-0.1,0.2-0.1,0.4,0,0.5c0.1,0.2,0.2,0.3,0.4,0.4c0.1,0,0.2,0.1,0.3,0   c0.1,0,0.2-0.1,0.2-0.1l0,0l0,0c0,0,0-0.1,0-0.1c0-0.1-0.1-0.1-0.1-0.2c0-0.1,0-0.1,0-0.2c0-0.1,0.1-0.2,0.3-0.3c0.1,0,0.3,0,0.4,0   c0.3,0.1,0.4,0.2,0.5,0.4c0.1,0.2,0.1,0.4,0,0.6l-0.2,0.5c-0.4-0.1-0.8-0.2-1.2-0.3c-0.3-0.1-0.6-0.1-1,0c0,0-0.1,0-0.1,0   c-0.3,0.1-0.5,0.4-0.6,0.6C49.2,6.6,49.2,6.9,49.3,7.2z M50.3,6.6c0.1-0.2,0.3-0.4,0.5-0.5c0.1,0,0.1,0,0.2,0   c0.2,0,0.6,0.1,0.9,0.2l-0.1,0.4c-0.1,0.2-0.2,0.3-0.3,0.4c-0.1,0.1-0.3,0.2-0.5,0.2h0c-0.2,0-0.3,0-0.5-0.1   C50.2,7.2,50.2,7,50.3,6.6z"/>
	<path class="st0" d="M54.4,9.7c0.2,0.1,0.4,0.2,0.7,0.2c0.2,0,0.3,0,0.5,0l-0.1,0.1c0,0,0,0.1-0.1,0.1c0,0.1,0,0.1,0.1,0.2l1.2,0.5   c0,0,0.1,0,0.1,0c0.1,0,0.2-0.1,0.2-0.1c0,0,0,0,0-0.1c0-0.1,0-0.2-0.1-0.3c-0.5-0.2-0.4-0.5-0.3-0.6l2.4-4.6c0-0.1,0.1-0.1,0-0.2   c0,0,0-0.1-0.1-0.1l0,0c-0.1,0-0.1,0-0.2,0c-0.3,0-0.6-0.1-0.9-0.2c-0.1,0-0.1,0-0.2,0c-0.1,0-0.1,0.1-0.1,0.1   c-0.1,0.1-0.1,0.2,0,0.2c0,0.1,0.1,0.1,0.2,0.1c0.1,0,0.1,0.1,0.2,0.2c0,0,0,0.1,0,0.1c0,0.1-0.1,0.2-0.1,0.3l-0.5,1   c-0.1-0.1-0.2-0.2-0.3-0.3c-0.1-0.1-0.3-0.2-0.5-0.3c-0.3-0.2-0.7-0.3-1.1-0.2c-0.4,0-0.7,0.1-1,0.3c-0.3,0.2-0.6,0.5-0.7,0.8   c-0.2,0.3-0.3,0.7-0.3,1.1c0,0.3,0.1,0.7,0.3,1C53.8,9.3,54.1,9.5,54.4,9.7z M55.9,6.4c0.1,0,0.3,0,0.4,0.1   c0.2,0.1,0.3,0.2,0.4,0.4c0.1,0.2,0.1,0.3,0.1,0.5l-1,1.9c-0.1,0-0.3,0.1-0.4,0.1c-0.2,0-0.3,0-0.5-0.1c-0.3-0.1-0.5-0.4-0.5-0.7   c0-0.4,0-0.7,0.2-1.1c0.1-0.3,0.3-0.5,0.6-0.7c0.2-0.2,0.4-0.3,0.6-0.3C55.8,6.4,55.9,6.4,55.9,6.4z"/>
	<path class="st0" d="M58.1,9.3c-0.2,0.3-0.3,0.6-0.4,1c0,0.3,0,0.7,0.2,1l0,0c0.3,0.7,0.9,1.1,1.7,1.2c0.1,0,0.1,0,0.2,0   c0.3,0,0.6-0.1,0.9-0.2c0.4-0.2,0.7-0.4,0.9-0.8c0.2-0.3,0.3-0.6,0.4-1c0-0.4,0-0.7-0.2-1c-0.3-0.7-0.9-1.1-1.7-1.2   C59.3,8.3,58.5,8.7,58.1,9.3z M58.5,11c0-0.4,0.2-0.8,0.4-1.1c0.3-0.4,0.6-0.7,0.9-0.9C60,9,60.1,9,60.2,9c0.2,0,0.4,0.1,0.5,0.2   c0.3,0.2,0.4,0.5,0.4,0.8c0,0.4-0.2,0.8-0.4,1.1c-0.2,0.4-0.5,0.7-0.9,0.9c-0.3,0.2-0.6,0.1-0.9-0.1C58.6,11.6,58.5,11.3,58.5,11z"/>
	<path class="st0" d="M63.2,15.4c0.2,1,1,1.7,1.9,2c0.3,0.1,0.5,0.1,0.8,0.1c0.2,0,0.5,0,0.7-0.1c0.5-0.1,1-0.4,1.4-0.8   c0.3-0.3,0.6-0.8,0.8-1.2c0.1-0.5,0.2-1,0.1-1.4c-0.1-0.5-0.4-1-0.8-1.3c-0.3-0.3-0.7-0.6-1.2-0.7c-0.5-0.1-1-0.1-1.5,0   c-0.5,0.1-1,0.4-1.4,0.8c-0.3,0.3-0.6,0.8-0.8,1.2C63.1,14.5,63.1,14.9,63.2,15.4L63.2,15.4z M63.9,15.5c0-0.3,0.1-0.7,0.2-1   c0.2-0.4,0.4-0.7,0.7-1c0.5-0.5,1-0.8,1.5-0.9c0.5-0.1,1,0,1.3,0.4c0.2,0.2,0.4,0.5,0.4,0.8c0,0.3,0,0.7-0.2,1   c-0.2,0.4-0.4,0.7-0.7,1c-0.3,0.3-0.6,0.6-1,0.8c-0.3,0.2-0.7,0.2-1,0.2l0,0C64.5,16.7,64,16.2,63.9,15.5z"/>
	<path class="st0" d="M69,17.1c0.1,0.1,0.1,0.1,0.1,0.2c0,0,0,0.1,0,0.1c-0.1,0.1-0.2,0.1-0.2,0.2l-1.5,1.2   c-0.1,0.1-0.2,0.1-0.2,0.2c0,0-0.1,0-0.1,0c-0.1,0-0.2-0.1-0.2-0.2c0-0.1-0.1-0.1-0.2-0.1c-0.1,0-0.1,0-0.2,0.1   c-0.1,0-0.1,0.1-0.1,0.2c0,0.1,0,0.1,0,0.2c0.2,0.2,0.4,0.5,0.6,0.7c0.2,0.2,0.3,0.4,0.5,0.7c0,0.1,0.1,0.1,0.2,0.1c0,0,0,0,0,0   c0.1,0,0.1,0,0.2-0.1c0,0,0.1-0.1,0.1-0.2c0-0.1,0-0.1-0.1-0.1l0,0c-0.1-0.1-0.1-0.1-0.1-0.2c0,0,0-0.1,0-0.1   c0.1-0.1,0.1-0.1,0.2-0.2l2.3-1.8c0.1-0.1,0.1-0.2,0.1-0.3l0,0c-0.1-0.1-0.1-0.1-0.2-0.1c-0.3-0.2-0.5-0.4-0.7-0.6   c0,0-0.1-0.1-0.2-0.1c0,0,0,0,0,0c-0.1,0-0.1,0-0.2,0.1c-0.1,0.1-0.1,0.1-0.1,0.2C68.9,16.9,68.9,17,69,17.1z"/>
	<path class="st0" d="M71.1,16.9c0,0,0.1,0,0.1,0c0.1,0,0.2,0,0.3-0.1c0.1-0.1,0.2-0.2,0.2-0.4c0-0.2,0-0.3-0.1-0.4   c-0.1-0.1-0.3-0.2-0.4-0.3c-0.2-0.1-0.3,0-0.5,0.1c-0.1,0.1-0.2,0.3-0.2,0.4c0,0.2,0,0.3,0.2,0.5C70.8,16.8,70.9,16.9,71.1,16.9z"/>
	<path class="st0" d="M72.1,18.4l-3.4,2.4c-0.1,0.1-0.2,0.1-0.3,0.2c0,0-0.1,0-0.1,0c-0.1,0-0.1-0.1-0.2-0.2c0-0.1-0.1-0.1-0.1-0.1   c-0.1,0-0.2,0-0.2,0c-0.1,0-0.1,0.1-0.1,0.1c0,0.1,0,0.1,0,0.2c0.2,0.3,0.4,0.5,0.5,0.7c0.1,0.2,0.3,0.5,0.5,0.7   c0,0.1,0.1,0.1,0.2,0.1c0.1,0,0.1,0,0.2-0.1c0.1,0,0.1-0.1,0.1-0.2c0-0.1,0-0.1-0.1-0.1l0,0C69,22,69,21.9,69,21.8   c0,0,0-0.1,0.1-0.1c0.1-0.1,0.2-0.1,0.2-0.2l4.2-2.9c0.1,0,0.1-0.1,0.1-0.2c0,0,0-0.1,0-0.2l0,0c-0.1-0.1-0.1-0.1-0.2-0.1   c-0.3-0.2-0.5-0.4-0.7-0.6c0-0.1-0.1-0.1-0.2-0.1c-0.1,0-0.1,0-0.2,0c-0.1,0.1-0.1,0.1-0.1,0.2c0,0.1,0,0.1,0.1,0.2   c0.1,0.1,0.1,0.2,0.1,0.2c0,0,0,0.1-0.1,0.1C72.3,18.2,72.2,18.3,72.1,18.4z"/>
	<path class="st0" d="M15.3,76.1c0.1-0.1,0.2-0.2,0.2-0.4l-0.1-3.5c0-0.4-0.2-0.6-0.6-0.6h-12c-0.4,0-0.7,0.2-0.7,0.6l-0.1,3.5   c0,0.1,0.1,0.3,0.2,0.4c0.1,0.1,0.3,0.1,0.4,0.1c0.2,0,0.4,0,0.6-0.1c0.2-0.1,0.3-0.2,0.3-0.3c0.1-0.8,0.2-1.4,0.4-1.8   c0.2-0.4,0.4-0.8,0.7-1c0.3-0.2,0.7-0.3,1.3-0.4h1.7v11.7c0,0.4-0.1,0.7-0.1,1c-0.1,0.3-0.2,0.5-0.4,0.6C6.8,86,6.5,86.1,6,86.1   c-0.2,0-0.4,0-0.5,0.1c-0.1,0-0.1,0.2-0.1,0.4c0,0.1,0,0.3,0.1,0.4c0.1,0.1,0.2,0.2,0.3,0.2c1.1,0,2.1-0.1,3.1-0.1   c0.9,0,1.8,0,2.9,0.1c0.1,0,0.3-0.1,0.3-0.2c0.1-0.1,0.1-0.2,0.1-0.4c0-0.2-0.1-0.4-0.1-0.4c-0.1-0.1-0.2-0.1-0.3-0.1h-0.1   c-0.5,0-0.8-0.1-1.1-0.3c-0.2-0.2-0.4-0.4-0.4-0.6c-0.1-0.3-0.1-0.6-0.1-1V72.6h1.7c0.6,0,1,0.1,1.3,0.4c0.3,0.2,0.5,0.5,0.7,1   c0.1,0.4,0.3,1,0.4,1.9c0,0.1,0.1,0.2,0.3,0.3c0.2,0.1,0.4,0.1,0.6,0.1C15.1,76.2,15.2,76.1,15.3,76.1z"/>
	<path class="st0" d="M25.3,86.4c-0.4,0-0.8-0.2-1-0.5c-0.2-0.3-0.3-0.6-0.3-1v-5.7c0-1.4-0.4-2.3-1.3-2.8c-0.8-0.5-1.9-0.8-3.3-0.8   c-1.1,0-2,0.2-2.8,0.6c-0.8,0.4-1.1,1-1.1,1.9c0,0.5,0.1,0.9,0.4,1.3c0.3,0.4,0.7,0.5,1.2,0.5c0.3,0,0.5-0.1,0.7-0.2   c0.2-0.2,0.3-0.3,0.3-0.4c0,0-0.1-0.1-0.2-0.2c-0.1-0.1-0.3-0.3-0.4-0.4c-0.1-0.2-0.2-0.4-0.2-0.6c0-0.5,0.2-0.9,0.6-1.2   c0.4-0.3,0.8-0.5,1.3-0.5c0.9,0,1.5,0.2,1.9,0.6c0.4,0.4,0.6,1,0.6,1.8v1.9c-1.5,0.1-2.7,0.2-3.7,0.4c-0.9,0.2-1.8,0.5-2.4,1   c-0.7,0.5-1,1.3-1,2.3c0,0.8,0.3,1.5,0.9,2.1c0.6,0.6,1.4,0.8,2.4,0.8c0.8,0,1.6-0.2,2.3-0.5c0.7-0.3,1.2-0.8,1.6-1.5   c0.1,0.6,0.3,1.1,0.8,1.4c0.5,0.4,1,0.5,1.6,0.5c0.3,0,0.6,0,0.9-0.1c0.3-0.1,0.5-0.2,0.5-0.4c0-0.2,0-0.3-0.1-0.3   C25.6,86.5,25.5,86.4,25.3,86.4z M21.9,82.9c0,0.6-0.1,1.1-0.4,1.6c-0.3,0.5-0.7,0.9-1.1,1.1c-0.5,0.3-1,0.4-1.5,0.4   c-1.1,0-1.6-0.6-1.6-1.7c0-0.9,0.4-1.6,1.1-2.1c0.7-0.4,1.9-0.7,3.6-0.8V82.9z"/>
	<path class="st0" d="M39.4,86.2h-0.1c-0.4,0-0.7-0.1-0.9-0.2c-0.2-0.1-0.3-0.3-0.3-0.5c0-0.2,0-0.5,0-0.9v-5.2c0-1.1-0.3-2-1-2.6   c-0.7-0.7-1.5-1-2.6-1c-0.6,0-1.2,0.1-1.7,0.3s-0.8,0.4-1.1,0.6c-0.3,0.2-0.7,0.6-1.2,1h-0.1v-1.5c0-0.3-0.1-0.5-0.4-0.5h-0.1   c-0.1,0-0.3,0.1-0.6,0.1c-0.7,0.3-1.6,0.5-2.6,0.6c-0.1,0-0.2,0.1-0.3,0.2c-0.1,0.1-0.1,0.2-0.1,0.3c0,0.2,0,0.3,0.1,0.4   c0.1,0.1,0.2,0.1,0.4,0.1c0.4,0,0.7,0.1,0.9,0.2c0.2,0.1,0.3,0.3,0.3,0.5s0,0.5,0,0.9v5.6c0,0.4,0,0.7,0,0.9s-0.1,0.4-0.3,0.5   c-0.2,0.1-0.5,0.2-0.9,0.2c-0.2,0-0.4,0-0.4,0.1c-0.1,0-0.1,0.2-0.1,0.4c0,0.1,0,0.2,0.1,0.3c0.1,0.1,0.2,0.1,0.3,0.1   c1,0,1.8-0.1,2.5-0.1c0.8,0,1.6,0,2.6,0.1c0.1,0,0.2,0,0.3-0.1c0.1-0.1,0.1-0.2,0.1-0.3c0-0.2-0.1-0.3-0.1-0.4   c-0.1,0-0.2-0.1-0.3-0.1h-0.1c-0.4,0-0.7-0.1-0.9-0.2c-0.2-0.1-0.3-0.3-0.3-0.5c0-0.2,0-0.5,0-0.9v-5.8c0.2-0.4,0.6-0.8,1.1-1.1   c0.5-0.4,1.2-0.6,1.9-0.6c0.6,0,1.2,0.2,1.6,0.6c0.5,0.4,0.7,1,0.7,1.7v5.2c0,0.4,0,0.7,0,0.9c0,0.2-0.1,0.4-0.3,0.5   c-0.2,0.1-0.5,0.2-0.9,0.2c-0.2,0-0.4,0-0.4,0.1s-0.1,0.2-0.1,0.4c0,0.1,0,0.2,0.1,0.3c0.1,0.1,0.2,0.1,0.3,0.1   c1,0,1.8-0.1,2.5-0.1c0.8,0,1.6,0,2.6,0.1c0.1,0,0.2,0,0.3-0.1c0.1-0.1,0.1-0.2,0.1-0.3c0-0.2-0.1-0.3-0.1-0.4   C39.6,86.3,39.5,86.2,39.4,86.2z"/>
	<path class="st0" d="M49.1,76.5c-0.9-0.5-1.9-0.8-3-0.8c-0.9,0-1.8,0.2-2.7,0.7c-0.9,0.5-1.6,1.2-2.2,2.1c-0.6,0.9-0.9,2-0.9,3.2   c0,1,0.2,1.9,0.7,2.8c0.5,0.9,1.2,1.6,2,2.1c0.9,0.5,1.9,0.8,3,0.8c0.9,0,1.8-0.2,2.6-0.7s1.6-1.2,2.2-2.1c0.6-0.9,0.9-2,0.9-3.2   c0-1-0.2-1.9-0.7-2.8C50.6,77.7,49.9,77,49.1,76.5z M48.5,85.1c-0.5,0.9-1.3,1.4-2.4,1.4c-1.1,0-1.9-0.5-2.4-1.4   c-0.5-0.9-0.8-2.1-0.8-3.5c0-1.5,0.3-2.7,0.8-3.6c0.5-0.9,1.3-1.4,2.4-1.4c1.1,0,1.9,0.4,2.4,1.3c0.5,0.9,0.8,2,0.8,3.4   C49.3,82.9,49.1,84.1,48.5,85.1z"/>
	<path class="st0" d="M56.8,72.5c0.3-0.3,0.5-0.6,0.5-1c0-0.4-0.1-0.8-0.4-1.1c-0.3-0.3-0.6-0.4-1-0.4c-0.5,0-0.9,0.1-1.3,0.4   c-0.4,0.3-0.6,0.6-0.6,1c0,0.4,0.2,0.8,0.5,1.1c0.3,0.3,0.7,0.4,1.1,0.4C56.1,72.9,56.5,72.7,56.8,72.5z"/>
	<path class="st0" d="M58.3,86.2h-0.1c-0.4,0-0.7-0.1-0.9-0.2c-0.2-0.1-0.3-0.3-0.3-0.5c0-0.2,0-0.5,0-0.9v-8.5   c0-0.3-0.1-0.5-0.4-0.5h-0.1c-0.1,0-0.3,0.1-0.6,0.1c-0.7,0.3-1.6,0.5-2.6,0.6c-0.1,0-0.2,0.1-0.3,0.2c-0.1,0.1-0.1,0.2-0.1,0.3   c0,0.2,0,0.3,0.1,0.4c0.1,0.1,0.2,0.1,0.4,0.1c0.4,0,0.7,0.1,0.9,0.2c0.2,0.1,0.3,0.3,0.3,0.5c0,0.2,0,0.5,0,0.9v5.6   c0,0.4,0,0.7,0,0.9c0,0.2-0.1,0.4-0.3,0.5c-0.2,0.1-0.5,0.2-0.9,0.2c-0.2,0-0.4,0-0.4,0.1c-0.1,0-0.1,0.2-0.1,0.4   c0,0.1,0,0.2,0.1,0.3c0.1,0.1,0.2,0.1,0.3,0.1c1,0,1.8-0.1,2.5-0.1c0.8,0,1.6,0,2.6,0.1c0.1,0,0.2,0,0.3-0.1   c0.1-0.1,0.1-0.2,0.1-0.3c0-0.2-0.1-0.3-0.1-0.4C58.6,86.3,58.5,86.2,58.3,86.2z"/>
	<path class="st0" d="M64.7,86.2h-0.1c-0.4,0-0.7-0.1-0.9-0.2c-0.2-0.1-0.3-0.3-0.3-0.5c0-0.2,0-0.5,0-0.9V69.7   c0-0.3-0.1-0.5-0.4-0.5h-0.1c-0.1,0-0.3,0.1-0.6,0.1c-0.7,0.3-1.6,0.5-2.6,0.6c-0.1,0-0.2,0.1-0.3,0.2c-0.1,0.1-0.1,0.2-0.1,0.3   c0,0.2,0,0.3,0.1,0.4s0.2,0.1,0.4,0.1c0.4,0,0.7,0.1,0.9,0.2c0.2,0.1,0.3,0.3,0.3,0.5s0,0.5,0,0.9v11.9c0,0.4,0,0.7,0,0.9   c0,0.2-0.1,0.4-0.3,0.5c-0.2,0.1-0.5,0.2-0.9,0.2c-0.2,0-0.4,0-0.4,0.1s-0.1,0.2-0.1,0.4c0,0.1,0,0.2,0.1,0.3   c0.1,0.1,0.2,0.1,0.3,0.1c1,0,1.8-0.1,2.5-0.1c0.8,0,1.6,0,2.6,0.1c0.1,0,0.2,0,0.3-0.1c0.1-0.1,0.1-0.2,0.1-0.3   c0-0.2-0.1-0.3-0.1-0.4C64.9,86.3,64.8,86.2,64.7,86.2z"/>
	<path class="st0" d="M71.3,86.2h-0.1c-0.4,0-0.7-0.1-0.9-0.2c-0.2-0.1-0.3-0.3-0.3-0.5c0-0.2,0-0.5,0-0.9v-8.5   c0-0.3-0.1-0.5-0.4-0.5h-0.1c-0.1,0-0.3,0.1-0.6,0.1c-0.7,0.3-1.6,0.5-2.6,0.6c-0.1,0-0.2,0.1-0.3,0.2c-0.1,0.1-0.1,0.2-0.1,0.3   c0,0.2,0,0.3,0.1,0.4s0.2,0.1,0.4,0.1c0.4,0,0.7,0.1,0.9,0.2c0.2,0.1,0.3,0.3,0.3,0.5c0,0.2,0,0.5,0,0.9v5.6c0,0.4,0,0.7,0,0.9   c0,0.2-0.1,0.4-0.3,0.5c-0.2,0.1-0.5,0.2-0.9,0.2c-0.2,0-0.4,0-0.4,0.1c-0.1,0-0.1,0.2-0.1,0.4c0,0.1,0,0.2,0.1,0.3   c0.1,0.1,0.2,0.1,0.3,0.1c1,0,1.8-0.1,2.5-0.1c0.8,0,1.6,0,2.6,0.1c0.1,0,0.2,0,0.3-0.1c0.1-0.1,0.1-0.2,0.1-0.3   c0-0.2-0.1-0.3-0.1-0.4C71.6,86.3,71.5,86.2,71.3,86.2z"/>
	<path class="st0" d="M69.8,72.5c0.3-0.3,0.5-0.6,0.5-1c0-0.4-0.1-0.8-0.4-1.1c-0.3-0.3-0.6-0.4-1-0.4c-0.5,0-0.9,0.1-1.3,0.4   c-0.4,0.3-0.6,0.6-0.6,1c0,0.4,0.2,0.8,0.5,1.1c0.3,0.3,0.7,0.4,1.2,0.4C69.1,72.9,69.5,72.7,69.8,72.5z"/>
</g>
</svg>