<svg xmlns="http://www.w3.org/2000/svg" viewBox="0 0 21.78 21.78"><defs><style>.cls-1{fill:#a8aa19;}</style></defs><title>good-fact</title><g id="Capa_2" data-name="Capa 2"><g id="Capa_1-2" data-name="Capa 1"><path class="cls-1" d="M18.59,3.19a10.89,10.89,0,0,0-15.4,0,10.89,10.89,0,0,0,0,15.4,10.89,10.89,0,0,0,15.4,0,10.89,10.89,0,0,0,0-15.4ZM10.89,20.5a9.61,9.61,0,1,1,9.61-9.61A9.62,9.62,0,0,1,10.89,20.5Z"/><path class="cls-1" d="M16.09,7.4a.63.63,0,0,0-.9,0L9.55,13l-3-3a.63.63,0,0,0-.9,0,.65.65,0,0,0,0,.91L9.1,14.38a.64.64,0,0,0,.91,0L16.09,8.3A.63.63,0,0,0,16.09,7.4Z"/></g></g></svg>